<?xml version="1.0" encoding="utf-8"?>
<!-- Generator: Adobe Illustrator 26.0.1, SVG Export Plug-In . SVG Version: 6.00 Build 0)  -->
<svg version="1.1" id="Layer_1" xmlns="http://www.w3.org/2000/svg" xmlns:xlink="http://www.w3.org/1999/xlink" x="0px" y="0px"
	 viewBox="0 0 23.8 27" style="enable-background:new 0 0 23.8 27;" xml:space="preserve">
<style type="text/css">
	.st0{fill:none;stroke:#FFFFFF;stroke-width:0.5;stroke-miterlimit:10;}
</style>
<polygon class="st0" points="14.3,17.3 14.9,17.3 14,19.2 13.8,19.2 "/>
<polygon class="st0" points="12.3,17.3 13.3,17.3 12.8,19.2 12.3,19.2 "/>
<polygon class="st0" points="10.4,17.3 11.4,17.3 11.4,19.2 10.9,19.2 "/>
<polygon class="st0" points="8.8,17.3 9.4,17.3 9.9,19.2 9.7,19.2 "/>
<polygon class="st0" points="15.1,14.4 16.3,14.4 15.4,16.3 14.6,16.3 "/>
<polygon class="st0" points="12.3,14.4 14.1,14.4 13.5,16.3 12.4,16.3 "/>
<polygon class="st0" points="9.6,14.4 11.4,14.4 11.4,16.3 10.2,16.3 "/>
<polygon class="st0" points="7.4,14.4 8.6,14.4 9.2,16.3 8.3,16.3 "/>
<path class="st0" d="M12.1,0.2L8.9,3.1l1.2,8.1l1.3,1.1v1.2h-2L9.1,12l0.6-0.8L8.4,3.1l-3-2.2L4.1,3.5l2.9,8l1,0.7l0.4,1.3H7
	l-0.5-1.1l0.2-0.7l-3-8L0.5,2.3l8.2,16.9l-0.5,3.2c-0.3,2.1,1.1,4,3.2,4.3c2,0.3,3.9-1,4.3-3c0.1-0.4,0.1-0.9,0-1.3l-0.5-3.2
	l8.2-16.9l-3.1,1.4l-3,8l0.2,0.7l-0.5,1.1h-1.4l0.4-1.3l1-0.7l2.9-8l-1.3-2.6l-3,2.2l-1.2,8.1l0.6,0.8l-0.4,1.4h-2v-1.2l1.3-1.1
	l1.2-8.1l-2.9-2.9"/>
</svg>
