<svg xmlns="http://www.w3.org/2000/svg" xmlns:xlink="http://www.w3.org/1999/xlink" width="40" zoomAndPan="magnify" viewBox="0 0 30 30.000001" height="40" preserveAspectRatio="xMidYMid meet" version="1.0"><defs><clipPath id="72ee0d76df"><path d="M 0.484375 0 L 29.515625 0 L 29.515625 29.03125 L 0.484375 29.03125 Z M 0.484375 0 " clip-rule="nonzero"/></clipPath><clipPath id="30d3367b41"><path d="M 5.667969 0 L 24.539062 0 L 24.539062 27.582031 L 5.667969 27.582031 Z M 5.667969 0 " clip-rule="nonzero"/></clipPath></defs><g clip-path="url(#72ee0d76df)"><path fill="#ffffff" d="M 0.484375 0 L 29.515625 0 L 29.515625 29.03125 L 0.484375 29.03125 Z M 0.484375 0 " fill-opacity="1" fill-rule="nonzero"/><path fill="#000000" d="M 0.484375 0 L 29.515625 0 L 29.515625 29.03125 L 0.484375 29.03125 Z M 0.484375 0 " fill-opacity="1" fill-rule="nonzero"/></g><g clip-path="url(#30d3367b41)"><path fill="#ffffff" d="M 9 0.542969 L 8.972656 0.636719 L 9.0625 0.675781 L 9.082031 0.601562 C 9.054688 0.582031 9.027344 0.5625 9 0.542969 Z M 15.765625 7.425781 C 15.773438 7.488281 15.75 7.523438 15.6875 7.527344 C 15.417969 7.542969 15.203125 7.632812 15.179688 7.902344 C 15.171875 8.015625 15 8 15.011719 7.886719 C 15.03125 7.644531 15.171875 7.484375 15.390625 7.410156 C 15.210938 7.402344 15.035156 7.398438 14.855469 7.398438 C 14.617188 7.394531 14.351562 7.390625 14.066406 7.390625 C 13.8125 7.398438 13.375 7.457031 13.359375 7.6875 C 13.355469 7.753906 13.273438 7.789062 13.21875 7.746094 C 13.148438 7.6875 12.9375 7.835938 12.878906 7.898438 C 12.828125 7.953125 12.761719 8.003906 12.6875 7.9375 C 12.234375 8.117188 11.867188 8.410156 11.5625 8.800781 C 11.492188 8.886719 11.359375 8.78125 11.425781 8.695312 C 11.640625 8.417969 11.886719 8.1875 12.171875 8.007812 C 11.875 8.082031 11.550781 8.101562 11.316406 7.9375 C 11.226562 7.875 11.324219 7.734375 11.414062 7.800781 C 11.609375 7.933594 11.898438 7.902344 12.152344 7.839844 C 12.222656 7.820312 12.28125 7.898438 12.246094 7.964844 C 12.328125 7.914062 12.417969 7.871094 12.503906 7.828125 C 12.417969 7.734375 12.425781 7.703125 12.117188 7.648438 C 11.902344 7.609375 11.605469 7.585938 11.226562 7.578125 L 11.144531 7.570312 C 10.9375 7.558594 10.742188 7.542969 10.65625 7.359375 C 10.601562 7.386719 10.546875 7.40625 10.488281 7.40625 C 10.5625 7.539062 10.640625 7.621094 10.648438 7.636719 C 10.855469 8.015625 11.011719 8.402344 11.136719 8.816406 C 11.199219 8.804688 11.261719 8.792969 11.328125 8.78125 C 11.4375 8.761719 11.46875 8.929688 11.355469 8.949219 C 11.277344 8.960938 11.203125 8.976562 11.136719 8.992188 C 11.082031 9.019531 11.125 9.007812 11.058594 9.007812 C 11.019531 9.007812 10.59375 9.128906 10.5625 9.273438 C 10.546875 9.355469 10.429688 9.523438 10.371094 9.585938 C 10.3125 9.648438 10.152344 9.777344 10.078125 9.796875 C 9.898438 9.839844 9.773438 9.941406 9.703125 10.101562 C 9.625 10.269531 9.609375 10.507812 9.644531 10.808594 C 9.65625 10.863281 9.636719 10.894531 9.585938 10.910156 C 9.519531 10.925781 9.445312 10.972656 9.363281 11.050781 C 9.28125 11.132812 9.195312 11.246094 9.101562 11.386719 C 9.027344 11.757812 9.175781 11.972656 9.554688 12.039062 C 9.566406 12.039062 9.582031 12.046875 9.59375 12.054688 C 9.796875 12.207031 10.035156 12.367188 10.246094 12.449219 L 10.03125 11.886719 C 9.964844 11.960938 9.816406 11.972656 9.664062 11.941406 C 9.527344 11.914062 9.351562 11.847656 9.144531 11.746094 C 9.042969 11.695312 9.121094 11.542969 9.21875 11.59375 C 9.902344 11.929688 9.882812 11.726562 9.984375 11.746094 C 9.957031 11.664062 9.898438 11.542969 10 11.511719 C 10.054688 11.496094 10.089844 11.515625 10.105469 11.570312 C 10.1875 11.835938 10.335938 12.269531 10.453125 12.492188 L 10.480469 12.554688 C 10.582031 12.828125 10.640625 13.089844 10.644531 13.339844 C 10.652344 13.605469 10.605469 13.859375 10.503906 14.09375 C 10.441406 14.414062 10.433594 14.695312 10.480469 14.9375 C 10.585938 15.492188 10.898438 15.554688 10.769531 15.671875 C 10.726562 15.707031 10.6875 15.707031 10.648438 15.664062 C 10.527344 15.527344 10.4375 15.375 10.375 15.199219 C 10.304688 15.339844 10.304688 15.5 10.304688 15.699219 C 10.320312 16.199219 10.414062 16.472656 10.59375 16.511719 C 10.542969 16.109375 11.398438 16.1875 11.789062 16.210938 C 11.796875 16.214844 11.800781 16.214844 11.808594 16.214844 C 12.820312 16.511719 14.097656 15.957031 14.1875 15.96875 C 14.378906 15.992188 14.566406 15.996094 14.753906 15.972656 C 14.9375 15.949219 15.113281 15.90625 15.28125 15.839844 L 15.332031 15.746094 C 15.4375 15.472656 15.242188 14.742188 15.109375 14.324219 C 14.976562 13.921875 14.980469 13.609375 14.988281 13.171875 C 15.003906 12.484375 15.03125 11.226562 14.96875 10.910156 C 14.902344 10.539062 14.914062 10.121094 14.988281 9.75 C 14.863281 9.894531 14.84375 10.03125 14.742188 9.976562 C 14.691406 9.949219 14.679688 9.910156 14.707031 9.863281 C 14.808594 9.660156 14.992188 9.480469 15.199219 9.324219 C 15.429688 9.148438 15.726562 8.976562 16.089844 8.800781 C 16.148438 8.769531 16.109375 8.808594 16.179688 8.738281 C 16.324219 8.597656 16.574219 7.613281 16.515625 7.324219 L 16.519531 7.320312 C 16.289062 7.402344 16.027344 7.429688 15.765625 7.425781 Z M 10.203125 23.203125 C 10.222656 23.09375 10.390625 23.121094 10.371094 23.234375 C 10.332031 23.453125 10.40625 23.675781 10.519531 23.882812 C 10.578125 23.980469 10.429688 24.0625 10.375 23.96875 C 10.238281 23.726562 10.160156 23.464844 10.203125 23.203125 Z M 12.605469 18.152344 C 12.636719 18.046875 12.800781 18.09375 12.769531 18.203125 C 12.730469 18.339844 12.710938 18.492188 12.800781 18.59375 C 12.871094 18.679688 12.742188 18.789062 12.667969 18.703125 C 12.542969 18.554688 12.546875 18.351562 12.605469 18.152344 Z M 14.3125 17.183594 C 14.242188 17.097656 14.371094 16.992188 14.441406 17.078125 C 14.636719 17.3125 14.882812 17.398438 15.183594 17.351562 C 15.292969 17.332031 15.320312 17.5 15.207031 17.519531 C 14.847656 17.574219 14.542969 17.46875 14.3125 17.183594 Z M 10.5 18.625 C 10.460938 18.519531 10.621094 18.457031 10.660156 18.5625 C 10.773438 18.855469 10.949219 19.109375 11.199219 19.285156 C 11.289062 19.351562 11.191406 19.488281 11.101562 19.425781 C 10.820312 19.226562 10.628906 18.949219 10.5 18.625 Z M 11.84375 16.871094 C 11.738281 16.902344 11.6875 16.738281 11.796875 16.707031 C 12.277344 16.566406 12.761719 16.570312 13.230469 16.734375 C 13.335938 16.773438 13.28125 16.933594 13.175781 16.894531 C 12.738281 16.742188 12.292969 16.738281 11.84375 16.871094 Z M 14.234375 16.375 C 14.15625 16.292969 14.28125 16.175781 14.355469 16.257812 C 14.644531 16.558594 15.003906 16.820312 15.390625 16.746094 C 15.5 16.726562 15.53125 16.894531 15.421875 16.914062 C 14.972656 17 14.5625 16.722656 14.234375 16.375 Z M 13.484375 13.902344 C 13.429688 13.800781 13.578125 13.722656 13.632812 13.820312 C 13.808594 14.144531 14.007812 14.390625 14.21875 14.527344 C 14.425781 14.660156 14.652344 14.710938 14.894531 14.667969 C 15.003906 14.648438 15.035156 14.816406 14.921875 14.835938 C 14.636719 14.882812 14.371094 14.828125 14.125 14.667969 C 13.886719 14.511719 13.675781 14.253906 13.484375 13.902344 Z M 12.417969 11.308594 C 12.308594 11.320312 12.289062 11.152344 12.398438 11.136719 C 13.152344 11.046875 13.605469 11.109375 13.757812 11.328125 C 13.820312 11.421875 13.679688 11.519531 13.617188 11.425781 C 13.503906 11.265625 13.105469 11.222656 12.417969 11.308594 Z M 11.148438 15.707031 C 11.050781 15.65625 11.128906 15.503906 11.230469 15.558594 C 11.511719 15.710938 11.871094 15.878906 12.144531 15.917969 C 12.253906 15.933594 12.230469 16.101562 12.121094 16.085938 C 11.824219 16.046875 11.453125 15.871094 11.148438 15.707031 Z M 10.566406 14.285156 C 10.523438 14.179688 10.679688 14.113281 10.722656 14.21875 C 11 14.871094 11.453125 15.230469 12.15625 15.164062 C 12.269531 15.15625 12.28125 15.324219 12.171875 15.335938 C 11.390625 15.40625 10.875 15.007812 10.566406 14.285156 Z M 10.851562 12.34375 C 10.738281 12.355469 10.726562 12.183594 10.839844 12.175781 C 11.621094 12.117188 12.679688 12.109375 13.199219 12.53125 C 13.289062 12.597656 13.179688 12.730469 13.09375 12.664062 C 12.617188 12.28125 11.578125 12.289062 10.851562 12.34375 Z M 10.640625 9.621094 C 10.546875 9.558594 10.640625 9.414062 10.734375 9.476562 C 11.054688 9.695312 11.492188 9.652344 11.894531 9.539062 C 12 9.511719 12.046875 9.675781 11.941406 9.703125 C 11.488281 9.832031 11.007812 9.867188 10.640625 9.621094 Z M 10.953125 7.855469 C 10.875 7.773438 11.003906 7.660156 11.078125 7.742188 C 11.238281 7.921875 11.417969 8.164062 11.355469 8.371094 C 11.320312 8.480469 11.160156 8.429688 11.191406 8.324219 C 11.230469 8.195312 11.0625 7.980469 10.953125 7.855469 Z M 6.640625 6.898438 L 6.902344 6.40625 C 6.917969 6.375 6.945312 6.359375 6.980469 6.363281 L 7.773438 3.777344 C 6.875 3.265625 6.761719 2.351562 7.097656 1.425781 C 7.40625 0.574219 7.972656 0 8.859375 0.320312 C 9.71875 0.632812 9.78125 1.671875 9.59375 2.566406 C 9.488281 3.074219 9.246094 3.574219 8.820312 3.8125 C 8.527344 3.976562 8.203125 3.980469 7.902344 3.84375 L 7.117188 6.398438 C 7.144531 6.417969 7.160156 6.445312 7.15625 6.480469 L 7.121094 7.273438 L 7.003906 7.691406 C 7.15625 7.851562 7.222656 7.882812 7.28125 8.117188 C 7.3125 8.246094 7.335938 8.421875 7.355469 8.640625 C 7.394531 8.90625 7.488281 9.152344 7.636719 9.375 C 7.640625 9.378906 7.640625 9.386719 7.644531 9.390625 C 7.847656 9.828125 8.175781 10.378906 8.53125 10.621094 C 8.636719 10.691406 9 11.011719 9.09375 11.101562 C 9.199219 10.964844 9.328125 10.832031 9.46875 10.769531 C 9.4375 10.464844 9.464844 10.21875 9.546875 10.03125 C 9.640625 9.824219 9.800781 9.691406 10.027344 9.632812 C 10.160156 9.582031 10.351562 9.375 10.398438 9.230469 C 10.425781 9.121094 10.523438 9.027344 10.6875 8.953125 C 10.765625 8.917969 10.859375 8.886719 10.972656 8.855469 C 10.917969 8.671875 10.851562 8.492188 10.78125 8.3125 C 10.699219 8.113281 10.609375 7.917969 10.503906 7.726562 C 10.425781 7.640625 10.347656 7.515625 10.269531 7.351562 C 10.265625 7.351562 10.171875 7.289062 10.136719 7.246094 C 10.070312 7.152344 10.042969 7.0625 10.042969 6.984375 C 9.992188 6.644531 10.03125 6.316406 10.167969 6.023438 C 10.3125 5.71875 10.5625 5.449219 10.933594 5.25 C 11.25 5.019531 11.5625 4.914062 11.871094 4.933594 C 12.179688 4.953125 12.476562 5.097656 12.765625 5.367188 C 12.832031 5.429688 12.882812 5.554688 12.894531 5.640625 C 12.929688 5.894531 12.773438 5.914062 12.859375 6.261719 C 12.894531 6.371094 12.910156 6.488281 12.910156 6.613281 C 12.96875 6.703125 12.996094 6.835938 12.988281 7.015625 C 12.984375 7.191406 12.941406 7.417969 12.871094 7.6875 C 12.972656 7.613281 13.101562 7.546875 13.214844 7.5625 C 13.320312 7.304688 13.738281 7.230469 14.058594 7.222656 L 15.507812 7.242188 C 15.703125 7.261719 15.878906 7.261719 16.039062 7.246094 C 16.195312 7.234375 16.332031 7.207031 16.457031 7.160156 C 16.578125 7.097656 16.652344 7.140625 16.683594 7.292969 C 16.691406 7.339844 16.695312 7.398438 16.695312 7.476562 C 17.085938 7.460938 17.4375 7.402344 17.757812 7.296875 C 18.148438 7.125 18.5 7.011719 18.808594 6.941406 C 19.117188 6.875 19.382812 6.847656 19.609375 6.839844 C 20.453125 6.816406 21.320312 6.644531 21.996094 6.3125 C 22.238281 6.1875 22.558594 5.957031 22.761719 5.773438 C 22.84375 5.695312 22.929688 5.652344 23.019531 5.648438 C 23.105469 5.644531 23.1875 5.671875 23.273438 5.730469 L 23.710938 5.75 C 23.84375 5.773438 23.890625 5.828125 23.957031 5.917969 C 24.03125 5.992188 24.089844 6.070312 24.132812 6.15625 C 24.175781 6.246094 24.207031 6.339844 24.21875 6.4375 C 24.242188 6.527344 24.3125 6.714844 24.144531 6.761719 C 24.113281 6.769531 24.078125 6.757812 24.050781 6.746094 C 23.957031 6.875 23.761719 6.867188 23.667969 6.703125 C 23.492188 6.722656 23.351562 6.722656 23.199219 6.800781 C 22.960938 6.921875 22.960938 7.035156 22.574219 7.132812 C 22.4375 7.171875 22.277344 7.191406 22.105469 7.195312 C 21.902344 7.230469 21.640625 7.316406 21.3125 7.445312 C 20.976562 7.582031 20.578125 7.761719 20.117188 7.996094 C 19.984375 8.066406 19.515625 8.246094 19.320312 8.3125 C 19.039062 8.410156 18.734375 8.5 18.40625 8.585938 C 18.347656 8.609375 18.242188 8.621094 18.089844 8.625 C 17.945312 8.625 17.757812 8.621094 17.519531 8.605469 C 17.265625 8.632812 17.03125 8.671875 16.824219 8.71875 C 16.621094 8.765625 16.4375 8.820312 16.277344 8.878906 C 16.242188 8.917969 16.203125 8.941406 16.164062 8.953125 C 15.808594 9.125 15.519531 9.292969 15.300781 9.460938 C 15.273438 9.480469 15.242188 9.503906 15.214844 9.527344 C 15.152344 9.75 15.117188 9.972656 15.101562 10.191406 C 15.089844 10.421875 15.101562 10.648438 15.136719 10.875 C 15.203125 11.210938 15.175781 12.480469 15.160156 13.175781 C 15.148438 13.605469 15.148438 13.898438 15.269531 14.273438 C 15.414062 14.722656 15.5 15.085938 15.523438 15.359375 C 15.539062 15.527344 15.53125 15.667969 15.5 15.777344 C 15.523438 15.84375 15.5625 15.914062 15.613281 15.984375 C 15.691406 16.09375 15.851562 16.246094 15.859375 16.265625 C 15.941406 16.429688 15.96875 16.582031 15.9375 16.730469 C 15.910156 16.875 15.828125 17.003906 15.699219 17.128906 C 15.664062 17.234375 15.636719 17.347656 15.621094 17.472656 C 15.605469 17.609375 15.601562 17.753906 15.605469 17.914062 C 15.660156 18.210938 15.695312 18.484375 15.714844 18.734375 C 15.734375 18.984375 15.738281 19.207031 15.726562 19.410156 C 15.722656 19.664062 15.78125 20.148438 15.855469 20.371094 C 15.957031 20.683594 15.820312 20.863281 15.53125 20.953125 C 15.390625 21.664062 15.1875 22.625 14.953125 23.109375 C 14.609375 23.871094 13.925781 23.585938 13.347656 23.347656 L 13.261719 23.3125 C 12.921875 23.15625 12.570312 23.042969 12.203125 22.980469 C 12.089844 23.253906 11.9375 23.484375 11.75 23.667969 C 11.566406 23.875 11.378906 24.035156 11.1875 24.148438 C 10.996094 24.261719 10.796875 24.328125 10.59375 24.34375 L 9.894531 24.609375 C 9.925781 25.023438 9.65625 25.285156 9.570312 25.59375 C 9.53125 25.738281 9.539062 25.8125 9.523438 25.882812 C 9.5 26.011719 9.472656 26.136719 9.449219 26.265625 L 9.332031 26.832031 C 9.210938 27.28125 8.917969 27.492188 8.542969 27.417969 C 8.128906 27.332031 7.941406 26.882812 7.828125 26.457031 C 7.761719 26.230469 7.757812 26 7.804688 25.761719 C 7.855469 25.527344 7.960938 25.285156 8.121094 25.039062 C 8.1875 24.894531 8.25 24.734375 8.320312 24.535156 C 8.390625 24.324219 8.464844 24.074219 8.554688 23.753906 C 8.554688 23.746094 8.558594 23.742188 8.5625 23.734375 C 8.691406 23.480469 8.929688 23.289062 9.230469 23.328125 C 9.433594 22.789062 9.792969 22.484375 10.304688 22.414062 C 10.308594 22.398438 10.3125 22.382812 10.316406 22.367188 C 9.910156 22.320312 9.476562 22.300781 9.117188 22.355469 C 9.109375 22.429688 9.070312 22.488281 9.003906 22.535156 C 8.949219 22.574219 8.871094 22.605469 8.769531 22.628906 C 8.546875 22.675781 8.207031 22.675781 7.742188 22.625 C 7.441406 22.628906 7.09375 22.808594 6.703125 23.164062 C 6.660156 23.210938 6.277344 23.371094 6.152344 23.085938 C 6.117188 23.011719 6.105469 22.910156 6.113281 22.78125 C 6.117188 22.519531 6.1875 22.285156 6.308594 22.066406 C 6.421875 21.851562 6.585938 21.660156 6.773438 21.472656 C 6.910156 21.285156 7.039062 21.148438 7.164062 21.054688 C 7.292969 20.960938 7.449219 20.902344 7.574219 20.910156 C 7.625 20.910156 7.640625 20.789062 7.664062 20.71875 C 7.765625 20.425781 8.105469 20.167969 8.410156 20.015625 C 8.542969 19.953125 8.699219 19.96875 8.828125 20.046875 C 8.949219 20.117188 9.066406 20.246094 9.179688 20.429688 C 9.308594 20.570312 9.40625 20.699219 9.472656 20.8125 C 9.523438 20.898438 9.554688 20.980469 9.566406 21.054688 L 10.300781 21.105469 C 10.289062 21.019531 10.273438 20.929688 10.257812 20.84375 C 10.070312 20.816406 9.777344 20.816406 9.808594 20.535156 C 9.8125 20.5 9.820312 20.464844 9.832031 20.425781 L 9.835938 20.425781 C 9.835938 20.417969 9.839844 20.410156 9.847656 20.40625 C 10.003906 20.195312 10.101562 19.855469 10.132812 19.390625 C 10.125 19.105469 10.160156 18.832031 10.242188 18.566406 C 10.320312 18.316406 10.441406 18.074219 10.597656 17.839844 C 10.394531 17.597656 10.421875 17.363281 10.691406 17.183594 C 10.589844 17.046875 10.574219 16.871094 10.601562 16.6875 C 10.308594 16.667969 10.15625 16.339844 10.136719 15.703125 C 10.128906 15.445312 10.148438 15.152344 10.316406 14.988281 C 10.257812 14.714844 10.269531 14.40625 10.335938 14.054688 C 10.339844 14.046875 10.339844 14.039062 10.34375 14.03125 C 10.542969 13.601562 10.5 13.113281 10.335938 12.65625 C 10.269531 12.640625 10.199219 12.617188 10.125 12.582031 C 9.902344 12.695312 9.644531 12.832031 9.476562 12.964844 C 9.476562 12.964844 9.472656 12.96875 9.46875 12.96875 C 9.125 13.191406 8.828125 13.199219 8.582031 12.984375 C 8.542969 12.953125 8.386719 12.730469 8.203125 12.585938 C 7.972656 12.410156 7.773438 12.121094 7.597656 11.71875 C 7.328125 11.125 7.003906 10.390625 6.796875 9.851562 C 6.65625 9.46875 6.628906 9.582031 6.5 9.472656 C 6.414062 9.589844 6.296875 9.605469 6.164062 9.554688 C 5.679688 9.378906 5.800781 9.296875 5.957031 8.949219 C 5.847656 8.894531 5.785156 8.695312 5.8125 8.566406 C 5.835938 8.445312 5.871094 8.464844 5.859375 8.398438 C 5.824219 8.261719 5.851562 8.15625 5.945312 8.082031 C 5.898438 7.894531 5.949219 7.738281 6.128906 7.679688 C 6.140625 7.609375 6.179688 7.554688 6.234375 7.511719 L 6.453125 7.363281 L 6.554688 7.054688 Z M 6.820312 6.921875 C 6.863281 6.957031 6.910156 6.96875 6.964844 6.960938 L 6.980469 6.621094 Z M 6.960938 7.132812 C 6.878906 7.136719 6.804688 7.117188 6.738281 7.070312 L 6.707031 7.132812 L 6.472656 7.863281 L 6.578125 8.003906 C 6.617188 8.058594 6.664062 8.09375 6.707031 8.109375 L 6.957031 7.234375 Z M 8.949219 11.8125 C 8.800781 11.945312 8.757812 12.210938 8.753906 12.445312 C 8.753906 12.558594 8.582031 12.554688 8.585938 12.441406 C 8.589844 12.125 8.65625 11.78125 8.910156 11.628906 C 8.90625 11.574219 8.914062 11.359375 8.953125 11.304688 C 8.964844 11.285156 8.980469 11.261719 8.996094 11.242188 L 8.433594 10.757812 C 8.261719 10.632812 8.097656 10.460938 7.9375 10.246094 C 7.785156 10.03125 7.632812 9.769531 7.492188 9.46875 C 7.332031 9.222656 7.230469 8.953125 7.1875 8.65625 L 7.1875 8.652344 C 7.171875 8.472656 7.121094 8.035156 7.042969 7.976562 L 6.949219 7.882812 L 6.886719 8.097656 C 6.980469 8.09375 7.007812 8.222656 6.921875 8.261719 C 6.734375 8.335938 6.566406 8.265625 6.441406 8.105469 C 6.40625 8.0625 6.289062 7.886719 6.246094 7.871094 C 6.214844 7.863281 6.136719 7.925781 6.257812 8.050781 C 6.277344 8.070312 6.511719 8.429688 6.632812 8.421875 C 6.75 8.414062 6.769531 8.625 6.582031 8.585938 C 6.585938 8.878906 6.722656 9.03125 6.988281 9.039062 C 7.101562 9.042969 7.097656 9.210938 6.984375 9.207031 C 6.816406 9.203125 6.683594 9.160156 6.589844 9.082031 C 6.566406 9.21875 6.539062 9.265625 6.589844 9.324219 C 6.683594 9.433594 6.78125 9.3125 6.957031 9.792969 C 7.183594 10.375 7.464844 11.011719 7.753906 11.648438 C 7.925781 12.03125 8.089844 12.285156 8.308594 12.453125 C 8.363281 12.496094 8.425781 12.554688 8.492188 12.625 C 8.554688 12.691406 8.625 12.769531 8.699219 12.859375 C 8.882812 13.015625 9.105469 13.003906 9.375 12.828125 C 9.578125 12.683594 9.699219 12.613281 9.9375 12.488281 C 9.808594 12.414062 9.664062 12.320312 9.507812 12.203125 C 9.210938 12.148438 9.023438 12.015625 8.949219 11.8125 Z M 10.3125 10.328125 C 10.222656 10.261719 10.324219 10.125 10.414062 10.191406 C 11.039062 10.636719 11.722656 10.761719 12.46875 10.578125 C 12.578125 10.550781 12.617188 10.71875 12.507812 10.742188 C 11.714844 10.941406 10.980469 10.804688 10.3125 10.328125 Z M 14.71875 10.0625 C 14.738281 9.953125 14.90625 9.984375 14.882812 10.09375 C 14.816406 10.4375 14.824219 10.773438 14.960938 11.082031 C 15.007812 11.183594 14.855469 11.253906 14.808594 11.152344 C 14.652344 10.8125 14.640625 10.441406 14.71875 10.0625 Z M 16.277344 7.628906 C 16.324219 7.527344 16.480469 7.597656 16.433594 7.699219 C 16.335938 7.917969 16.183594 8.175781 16.035156 8.34375 C 15.878906 8.535156 15.699219 8.703125 15.492188 8.851562 C 15.402344 8.914062 15.304688 8.777344 15.394531 8.710938 C 15.585938 8.578125 15.753906 8.417969 15.90625 8.234375 L 15.90625 8.238281 C 16.050781 8.054688 16.175781 7.851562 16.277344 7.628906 Z M 13.917969 8.816406 C 13.816406 8.765625 13.890625 8.613281 13.992188 8.664062 C 14.316406 8.824219 14.546875 9.296875 14.695312 9.683594 C 14.734375 9.785156 14.574219 9.847656 14.535156 9.742188 C 14.40625 9.402344 14.195312 8.953125 13.917969 8.816406 Z M 9.140625 0.652344 L 9.125 0.703125 L 9.214844 0.742188 L 9.21875 0.730469 C 9.195312 0.703125 9.167969 0.675781 9.140625 0.652344 Z M 9.390625 0.992188 L 9.375 1.035156 L 9.414062 1.050781 C 9.40625 1.03125 9.398438 1.011719 9.390625 0.992188 Z M 9.484375 1.261719 L 9.472656 1.296875 L 9.496094 1.308594 C 9.492188 1.292969 9.488281 1.277344 9.484375 1.261719 Z M 9.539062 1.667969 L 9.511719 1.757812 L 9.542969 1.773438 C 9.542969 1.738281 9.542969 1.703125 9.539062 1.667969 Z M 9.445312 2.578125 L 9.4375 2.613281 L 9.4375 2.617188 C 9.441406 2.601562 9.445312 2.589844 9.445312 2.578125 Z M 9.421875 2.683594 L 9.417969 2.683594 L 9.375 2.820312 L 9.378906 2.820312 C 9.394531 2.777344 9.410156 2.730469 9.421875 2.683594 Z M 9.355469 2.890625 L 9.351562 2.902344 Z M 9.046875 3.441406 L 9.023438 3.429688 L 9.007812 3.484375 C 9.023438 3.46875 9.035156 3.457031 9.046875 3.441406 Z M 8.875 3.605469 L 8.808594 3.578125 L 8.78125 3.671875 C 8.8125 3.652344 8.84375 3.628906 8.875 3.605469 Z M 8.644531 3.738281 L 8.59375 3.714844 L 8.582031 3.761719 C 8.601562 3.753906 8.625 3.746094 8.644531 3.738281 Z M 8.238281 3.792969 L 8.226562 3.789062 Z M 8.15625 3.777344 L 8.160156 3.757812 L 8.070312 3.71875 L 8.0625 3.753906 C 8.09375 3.761719 8.125 3.773438 8.15625 3.777344 Z M 7.996094 3.730469 L 8.007812 3.691406 L 7.917969 3.652344 L 7.910156 3.691406 C 7.9375 3.703125 7.964844 3.71875 7.996094 3.730469 Z M 7.84375 3.65625 L 7.855469 3.625 L 7.742188 3.574219 L 7.738281 3.589844 C 7.773438 3.613281 7.808594 3.632812 7.84375 3.65625 Z M 7.363281 3.246094 L 7.378906 3.1875 L 7.292969 3.148438 C 7.3125 3.183594 7.335938 3.214844 7.363281 3.246094 Z M 7.222656 3.027344 L 7.261719 2.902344 L 7.148438 2.855469 C 7.171875 2.914062 7.195312 2.972656 7.222656 3.027344 Z M 7.109375 2.726562 L 7.144531 2.617188 L 7.085938 2.589844 C 7.089844 2.636719 7.101562 2.679688 7.109375 2.726562 Z M 7.070312 2.175781 L 7.082031 2.128906 L 7.074219 2.125 C 7.074219 2.144531 7.070312 2.160156 7.070312 2.175781 Z M 7.082031 2.050781 L 7.105469 2.0625 L 7.144531 1.925781 L 7.105469 1.90625 C 7.097656 1.957031 7.089844 2.003906 7.082031 2.050781 Z M 7.121094 1.835938 L 7.164062 1.855469 L 7.203125 1.71875 L 7.15625 1.699219 C 7.144531 1.746094 7.132812 1.789062 7.121094 1.835938 Z M 7.179688 1.628906 L 7.222656 1.648438 L 7.261719 1.519531 L 7.222656 1.503906 Z M 7.246094 1.4375 L 7.28125 1.453125 L 7.320312 1.324219 L 7.292969 1.3125 C 7.277344 1.355469 7.261719 1.394531 7.246094 1.4375 Z M 7.320312 1.25 L 7.339844 1.257812 L 7.371094 1.148438 C 7.355469 1.179688 7.335938 1.214844 7.320312 1.25 Z M 7.648438 0.726562 L 7.691406 0.742188 L 7.714844 0.65625 C 7.691406 0.679688 7.671875 0.703125 7.648438 0.726562 Z M 7.8125 0.570312 L 7.8125 0.574219 L 7.925781 0.625 L 7.964844 0.496094 L 7.941406 0.484375 Z M 8.054688 0.433594 L 8.046875 0.457031 L 8.160156 0.503906 L 8.195312 0.394531 C 8.148438 0.402344 8.101562 0.417969 8.054688 0.433594 Z M 8.371094 0.375 L 8.398438 0.386719 L 8.402344 0.375 C 8.390625 0.375 8.382812 0.375 8.371094 0.375 Z M 8.472656 0.378906 L 8.464844 0.414062 L 8.578125 0.464844 L 8.597656 0.394531 C 8.554688 0.386719 8.515625 0.378906 8.472656 0.378906 Z M 8.664062 0.410156 L 8.640625 0.492188 L 8.753906 0.539062 L 8.78125 0.445312 Z M 9.535156 1.992188 C 9.539062 1.941406 9.539062 1.894531 9.542969 1.847656 L 9.492188 1.828125 L 9.453125 1.957031 Z M 9.523438 1.472656 C 9.519531 1.445312 9.515625 1.417969 9.511719 1.390625 L 9.453125 1.367188 L 9.414062 1.496094 L 9.503906 1.535156 Z M 9.34375 0.902344 C 9.316406 0.855469 9.328125 0.867188 9.261719 0.839844 L 9.222656 0.96875 L 9.3125 1.003906 Z M 8.933594 0.507812 C 8.90625 0.496094 8.878906 0.480469 8.847656 0.46875 L 8.820312 0.570312 L 8.90625 0.605469 Z M 7.601562 0.78125 C 7.574219 0.816406 7.546875 0.851562 7.519531 0.890625 L 7.632812 0.941406 L 7.667969 0.8125 Z M 7.066406 2.4375 C 7.070312 2.460938 7.070312 2.484375 7.074219 2.511719 L 7.164062 2.546875 L 7.203125 2.414062 L 7.089844 2.367188 Z M 7.417969 3.3125 C 7.457031 3.359375 7.472656 3.378906 7.515625 3.402344 L 7.558594 3.265625 L 7.445312 3.214844 Z M 8.417969 3.792969 C 8.445312 3.792969 8.472656 3.789062 8.5 3.78125 L 8.527344 3.6875 L 8.441406 3.648438 L 8.398438 3.785156 Z M 9.09375 3.382812 C 9.121094 3.351562 9.144531 3.316406 9.167969 3.277344 L 9.082031 3.238281 L 9.042969 3.363281 Z M 9.050781 23.917969 C 8.886719 24.21875 8.675781 24.078125 8.667969 24.316406 C 8.660156 24.480469 8.832031 24.964844 9.023438 25.058594 C 9.125 25.109375 9.210938 25.074219 9.304688 25.03125 C 9.476562 24.957031 9.605469 24.863281 9.597656 24.691406 C 9.074219 24.71875 8.949219 24.378906 9.050781 23.917969 Z M 9.648438 25.003906 C 9.574219 25.085938 9.441406 25.164062 9.316406 25.214844 C 8.960938 25.359375 8.753906 25.101562 8.621094 24.792969 C 8.570312 24.679688 8.535156 24.574219 8.515625 24.484375 C 8.464844 24.644531 8.3125 25.0625 8.269531 25.128906 C 8.117188 25.359375 8.019531 25.578125 7.972656 25.796875 C 7.921875 26.03125 7.9375 26.195312 7.996094 26.417969 C 8.078125 26.757812 8.253906 27.199219 8.574219 27.25 C 8.863281 27.296875 9.0625 27.144531 9.171875 26.785156 L 9.355469 25.851562 C 9.382812 25.621094 9.398438 25.492188 9.515625 25.28125 C 9.570312 25.179688 9.613281 25.089844 9.648438 25.003906 Z M 8.65625 24.019531 C 8.722656 23.980469 8.757812 23.992188 8.828125 23.929688 C 8.957031 23.820312 8.878906 23.753906 9 23.65625 C 9.039062 23.625 9.089844 23.605469 9.148438 23.59375 C 9.15625 23.558594 9.164062 23.527344 9.175781 23.492188 C 9.097656 23.488281 9.023438 23.507812 8.960938 23.542969 C 8.855469 23.601562 8.769531 23.699219 8.714844 23.804688 C 8.695312 23.875 8.675781 23.949219 8.65625 24.019531 Z M 9.304688 23.664062 C 9.304688 23.667969 9.304688 23.671875 9.300781 23.675781 C 9.183594 24.003906 9.15625 24.234375 9.21875 24.371094 C 9.277344 24.492188 9.417969 24.539062 9.648438 24.519531 L 10.546875 24.179688 C 10.601562 24.160156 10.792969 24.183594 11.101562 24.003906 C 11.28125 23.898438 11.453125 23.75 11.621094 23.554688 L 11.628906 23.546875 C 12.238281 22.925781 12.328125 21.972656 12.296875 21.097656 C 12.234375 21.09375 12.15625 21.085938 12.070312 21.074219 C 11.910156 21.050781 11.703125 21.007812 11.457031 20.953125 C 11.296875 20.953125 11.101562 20.941406 10.875 20.917969 C 10.726562 20.902344 10.582031 20.886719 10.4375 20.867188 C 10.507812 21.3125 10.535156 21.75 10.519531 22.203125 C 10.519531 22.269531 10.40625 22.667969 10.429688 22.910156 C 10.4375 23.019531 10.269531 23.035156 10.257812 22.921875 C 10.25 22.84375 10.257812 22.734375 10.277344 22.59375 C 9.78125 22.679688 9.457031 23.035156 9.304688 23.664062 Z M 9.046875 20.539062 C 9 20.683594 8.84375 20.847656 8.640625 20.953125 C 8.007812 21.277344 8.125 21.476562 7.667969 21.84375 C 7.332031 22.109375 7.214844 22.003906 6.953125 22.183594 C 6.648438 22.390625 6.527344 22.675781 6.585938 23.039062 C 6.65625 23.007812 7.152344 22.457031 7.75 22.457031 C 7.753906 22.457031 7.753906 22.457031 7.757812 22.457031 C 8.175781 22.503906 8.726562 22.527344 8.90625 22.398438 C 8.910156 22.390625 8.917969 22.386719 8.921875 22.382812 C 8.875 22.363281 8.796875 22.285156 8.769531 22.246094 C 8.582031 21.96875 8.839844 21.667969 9.09375 21.496094 L 9.121094 21.480469 C 9.246094 21.390625 9.363281 21.3125 9.402344 21.121094 C 9.417969 20.964844 9.175781 20.679688 9.046875 20.539062 Z M 6.417969 23.082031 C 6.382812 22.878906 6.40625 22.683594 6.484375 22.496094 C 6.5625 22.308594 6.6875 22.15625 6.855469 22.042969 C 7.164062 21.832031 7.253906 21.957031 7.5625 21.710938 C 8.019531 21.34375 7.84375 21.183594 8.5625 20.800781 C 8.726562 20.707031 8.832031 20.609375 8.871094 20.515625 C 8.90625 20.433594 8.890625 20.347656 8.828125 20.257812 C 8.757812 20.179688 8.601562 20.117188 8.488281 20.167969 C 8.300781 20.269531 8.152344 20.367188 8.039062 20.472656 C 7.917969 20.585938 7.851562 20.683594 7.816406 20.8125 C 7.691406 21.261719 7.613281 20.9375 7.265625 21.191406 C 7.058594 21.34375 6.960938 21.53125 6.894531 21.589844 C 6.71875 21.765625 6.5625 21.949219 6.457031 22.148438 C 6.339844 22.363281 6.292969 22.542969 6.285156 22.796875 C 6.273438 22.9375 6.28125 23.085938 6.417969 23.082031 Z M 9.550781 21.226562 C 9.488281 21.433594 9.359375 21.523438 9.214844 21.621094 C 9.023438 21.75 8.71875 22.019531 8.96875 22.210938 C 9.265625 22.148438 9.613281 22.144531 9.941406 22.164062 C 9.863281 21.914062 9.894531 21.613281 10.03125 21.261719 Z M 10.210938 21.273438 C 10.058594 21.640625 10.027344 21.941406 10.125 22.175781 C 10.199219 22.183594 10.273438 22.191406 10.347656 22.199219 C 10.367188 22.113281 10.34375 21.597656 10.335938 21.484375 C 10.332031 21.414062 10.324219 21.34375 10.320312 21.277344 C 10.28125 21.277344 10.246094 21.273438 10.210938 21.273438 Z M 15.429688 20.808594 C 15.539062 20.769531 15.605469 20.757812 15.671875 20.6875 C 15.734375 20.617188 15.730469 20.535156 15.691406 20.421875 C 15.605469 20.140625 15.558594 19.726562 15.558594 19.40625 L 15.558594 19.402344 C 15.578125 18.902344 15.53125 18.476562 15.4375 17.9375 C 15.421875 17.851562 15.445312 17.53125 15.453125 17.453125 C 15.464844 17.355469 15.511719 17.066406 15.570312 17.015625 C 15.683594 16.914062 15.75 16.808594 15.773438 16.699219 C 15.792969 16.589844 15.773438 16.476562 15.714844 16.355469 C 15.617188 16.265625 15.539062 16.171875 15.476562 16.085938 C 15.445312 16.046875 15.421875 16.003906 15.398438 15.964844 L 15.363281 15.988281 C 15.171875 16.066406 14.972656 16.117188 14.773438 16.140625 C 14.582031 16.164062 14.386719 16.164062 14.183594 16.140625 C 13.6875 16.308594 13.242188 16.410156 12.839844 16.453125 C 12.4375 16.496094 12.078125 16.472656 11.769531 16.382812 C 11.359375 16.34375 11.070312 16.347656 10.902344 16.394531 C 10.6875 16.453125 10.808594 16.546875 10.789062 16.617188 C 10.738281 16.832031 10.738281 17.050781 10.921875 17.164062 C 11.011719 17.222656 10.933594 17.375 10.824219 17.304688 C 10.539062 17.46875 10.609375 17.632812 10.820312 17.828125 C 10.894531 17.894531 10.808594 18.011719 10.722656 17.964844 C 10.433594 18.398438 10.285156 18.871094 10.304688 19.390625 C 10.304688 19.390625 10.304688 19.394531 10.304688 19.398438 C 10.269531 19.890625 10.164062 20.257812 9.988281 20.496094 C 9.972656 20.53125 9.953125 20.605469 10.027344 20.632812 L 10.097656 20.648438 C 10.550781 20.714844 11.078125 20.78125 11.46875 20.78125 C 11.535156 20.78125 12.105469 20.949219 12.425781 20.925781 C 12.488281 20.921875 12.46875 20.722656 12.46875 20.691406 C 12.484375 20.433594 12.5625 20.21875 12.707031 20.039062 C 12.824219 19.804688 12.914062 19.578125 12.984375 19.363281 C 13.042969 19.171875 13.085938 18.988281 13.105469 18.816406 C 12.96875 18.886719 12.917969 18.71875 13.007812 18.671875 C 13.429688 18.457031 13.582031 18.074219 13.582031 17.59375 C 13.582031 17.484375 13.75 17.484375 13.75 17.59375 C 13.753906 18.058594 13.617188 18.453125 13.265625 18.714844 C 13.277344 18.730469 13.285156 18.753906 13.28125 18.777344 C 13.261719 18.976562 13.214844 19.191406 13.144531 19.414062 C 13.101562 19.550781 13.046875 19.695312 12.984375 19.839844 C 12.976562 20.128906 12.996094 20.339844 13.042969 20.484375 C 13.113281 20.695312 13.195312 20.644531 13.242188 20.671875 C 13.746094 20.976562 14.613281 20.929688 15.289062 20.832031 C 15.335938 20.828125 15.382812 20.816406 15.429688 20.808594 Z M 12.265625 22.816406 C 12.632812 22.882812 12.988281 23 13.332031 23.160156 C 13.859375 23.375 14.5 23.683594 14.796875 23.035156 C 14.894531 22.828125 14.945312 22.703125 15.058594 22.277344 C 15.148438 21.941406 15.246094 21.515625 15.347656 20.996094 C 14.679688 21.105469 13.8125 21.132812 13.28125 20.886719 C 13.410156 21.335938 13.554688 22.039062 13.183594 22.378906 C 13.101562 22.453125 12.988281 22.328125 13.070312 22.253906 C 13.257812 22.082031 13.269531 21.773438 13.238281 21.488281 C 12.992188 21.378906 12.71875 21.285156 12.472656 21.277344 C 12.476562 21.847656 12.417969 22.371094 12.265625 22.816406 Z M 12.464844 21.109375 C 12.710938 21.113281 12.964844 21.1875 13.203125 21.289062 C 13.175781 21.140625 13.132812 20.980469 13.078125 20.800781 C 12.882812 20.707031 12.835938 20.402344 12.820312 20.171875 C 12.558594 20.515625 12.6875 20.800781 12.605469 20.976562 C 12.574219 21.039062 12.527344 21.078125 12.464844 21.089844 Z M 11.207031 17.550781 C 11.097656 17.570312 11.066406 17.402344 11.175781 17.382812 C 11.554688 17.3125 12.023438 17.269531 12.292969 17.484375 C 12.382812 17.550781 12.277344 17.6875 12.1875 17.617188 C 11.96875 17.445312 11.527344 17.488281 11.207031 17.550781 Z M 6.457031 8.878906 C 6.417969 8.773438 6.40625 8.648438 6.414062 8.5 L 6.375 8.464844 C 6.359375 8.496094 6.339844 8.523438 6.308594 8.542969 L 6.304688 8.542969 C 6.371094 8.65625 6.328125 8.835938 6.191406 8.84375 C 6.1875 8.851562 6.183594 8.855469 6.179688 8.863281 C 6.167969 8.890625 6.078125 9.09375 5.988281 9.292969 C 5.988281 9.292969 5.996094 9.289062 6.011719 9.300781 C 6.042969 9.324219 6.257812 9.429688 6.320312 9.410156 C 6.378906 9.390625 6.375 9.316406 6.390625 9.246094 Z M 5.992188 8.722656 C 6.003906 8.757812 6.015625 8.78125 6.023438 8.792969 C 6.042969 8.769531 6.019531 8.753906 5.992188 8.722656 Z M 6.152344 8.648438 C 6.15625 8.652344 6.164062 8.65625 6.167969 8.664062 C 6.167969 8.632812 6.152344 8.625 6.125 8.582031 C 6.082031 8.511719 6.113281 8.566406 6.0625 8.515625 Z M 6.191406 8.402344 C 6.25 8.421875 6.222656 8.296875 6.199219 8.253906 C 6.175781 8.226562 6.15625 8.195312 6.136719 8.167969 C 6.144531 8.21875 6.167969 8.390625 6.191406 8.402344 Z M 6.367188 7.628906 C 6.332031 7.652344 6.308594 7.664062 6.296875 7.710938 L 6.335938 7.726562 Z M 9.734375 10.726562 C 9.75 10.617188 9.917969 10.640625 9.902344 10.75 C 9.875 10.957031 9.886719 11.164062 9.988281 11.332031 C 10.046875 11.429688 9.902344 11.515625 9.84375 11.421875 C 9.71875 11.21875 9.699219 10.972656 9.734375 10.726562 Z M 23.691406 6.527344 C 23.917969 6.449219 23.792969 6.351562 23.671875 6.371094 C 23.566406 6.394531 23.46875 6.414062 23.371094 6.425781 C 23.273438 6.4375 23.183594 6.441406 23.101562 6.4375 C 22.992188 6.425781 23.003906 6.257812 23.117188 6.265625 C 23.222656 6.273438 23.335938 6.261719 23.445312 6.242188 C 23.328125 6.230469 23.214844 6.261719 23.207031 6.15625 C 23.203125 6.042969 23.355469 6.0625 23.429688 6.070312 C 23.699219 6.09375 23.929688 6.175781 24.046875 6.433594 C 23.996094 6.167969 23.84375 6.0625 23.816406 6.007812 C 23.789062 5.960938 23.742188 5.925781 23.6875 5.917969 C 23.570312 5.90625 23.242188 5.917969 23.191406 5.878906 C 23.078125 5.792969 22.984375 5.792969 22.882812 5.894531 C 22.699219 6.070312 22.296875 6.355469 22.066406 6.464844 C 21.355469 6.8125 20.496094 6.984375 19.613281 7.007812 C 19.03125 7.027344 18.4375 7.183594 17.824219 7.453125 C 17.535156 7.566406 17.050781 7.632812 16.679688 7.648438 L 16.671875 7.726562 C 16.605469 8.105469 16.523438 8.433594 16.425781 8.648438 C 16.757812 8.546875 17.136719 8.476562 17.507812 8.433594 C 17.582031 8.425781 18.195312 8.488281 18.34375 8.425781 C 18.351562 8.425781 18.355469 8.421875 18.359375 8.421875 C 18.84375 8.308594 19.617188 8.042969 20.042969 7.84375 C 20.507812 7.609375 20.910156 7.425781 21.246094 7.289062 C 21.515625 7.179688 21.976562 7.023438 22.097656 7.027344 C 22.332031 7.027344 22.683594 6.957031 22.855469 6.828125 C 23.027344 6.703125 23.171875 6.589844 23.382812 6.566406 Z M 23.839844 6.648438 C 23.882812 6.683594 23.9375 6.65625 23.914062 6.59375 C 23.894531 6.617188 23.867188 6.632812 23.839844 6.648438 Z M 10.558594 6.796875 C 10.613281 6.898438 10.460938 6.976562 10.410156 6.878906 C 10.34375 6.757812 10.207031 6.878906 10.214844 6.976562 C 10.226562 7.195312 10.457031 7.308594 10.605469 7.191406 C 10.660156 7.148438 10.476562 7.070312 10.574219 6.980469 C 10.664062 6.894531 10.78125 7.050781 10.789062 7.183594 C 10.8125 7.378906 10.980469 7.390625 11.15625 7.402344 C 11.589844 7.433594 12.398438 7.414062 12.597656 7.675781 C 12.628906 7.714844 12.65625 7.742188 12.679688 7.753906 L 12.699219 7.664062 C 12.953125 6.726562 12.734375 6.742188 12.738281 6.636719 C 12.75 6.410156 12.679688 6.183594 12.542969 6.011719 C 12.335938 5.761719 12.097656 5.609375 11.839844 5.570312 C 11.589844 5.527344 11.3125 5.59375 11.019531 5.777344 C 10.972656 5.804688 11.089844 6.003906 11 6.164062 C 10.921875 6.292969 10.832031 6.277344 10.816406 6.410156 C 10.789062 6.617188 11.003906 6.773438 10.742188 6.933594 C 10.648438 6.992188 10.558594 6.847656 10.652344 6.789062 C 10.722656 6.746094 10.707031 6.730469 10.695312 6.703125 C 10.527344 6.246094 10.804688 6.167969 10.851562 6.074219 C 10.910156 5.96875 10.742188 5.75 10.929688 5.632812 C 11.257812 5.425781 11.574219 5.355469 11.867188 5.402344 C 12.15625 5.445312 12.460938 5.628906 12.679688 5.910156 C 12.703125 5.828125 12.742188 5.773438 12.726562 5.660156 C 12.71875 5.601562 12.691406 5.542969 12.648438 5.488281 C 12.390625 5.246094 12.128906 5.117188 11.859375 5.101562 C 11.589844 5.085938 11.3125 5.183594 11.027344 5.390625 C 11.023438 5.394531 11.019531 5.394531 11.015625 5.398438 C 10.484375 5.6875 10.191406 6.136719 10.191406 6.703125 C 10.316406 6.625 10.476562 6.644531 10.558594 6.796875 Z M 8.335938 3.757812 L 8.375 3.621094 L 8.285156 3.582031 L 8.246094 3.71875 Z M 8.179688 3.691406 L 8.21875 3.554688 L 8.132812 3.515625 L 8.09375 3.652344 Z M 8.027344 3.621094 L 8.066406 3.484375 L 7.980469 3.449219 L 7.941406 3.585938 Z M 7.875 3.558594 L 7.914062 3.417969 L 7.800781 3.371094 L 7.761719 3.507812 Z M 7.695312 3.480469 L 7.734375 3.339844 L 7.621094 3.292969 L 7.582031 3.429688 Z M 8.703125 3.6875 L 8.742188 3.546875 L 8.652344 3.511719 L 8.613281 3.648438 Z M 8.546875 3.617188 L 8.589844 3.480469 L 8.5 3.441406 L 8.460938 3.582031 Z M 8.394531 3.550781 L 8.433594 3.414062 L 8.347656 3.375 L 8.304688 3.511719 Z M 8.242188 3.484375 L 8.28125 3.347656 L 8.191406 3.308594 L 8.152344 3.445312 Z M 8.085938 3.417969 L 8.125 3.28125 L 8.039062 3.242188 L 8 3.378906 Z M 7.933594 3.351562 L 7.972656 3.214844 L 7.863281 3.164062 L 7.820312 3.300781 Z M 7.757812 3.273438 L 7.796875 3.136719 L 7.683594 3.085938 L 7.644531 3.222656 Z M 7.578125 3.195312 L 7.617188 3.058594 L 7.503906 3.007812 L 7.464844 3.144531 Z M 7.398438 3.117188 L 7.4375 2.980469 L 7.324219 2.929688 L 7.285156 3.066406 Z M 8.917969 3.546875 L 8.960938 3.402344 L 8.871094 3.363281 L 8.828125 3.507812 Z M 8.761719 3.480469 L 8.804688 3.335938 L 8.714844 3.296875 L 8.675781 3.441406 Z M 8.609375 3.414062 L 8.652344 3.269531 L 8.5625 3.230469 L 8.519531 3.375 Z M 8.453125 3.347656 L 8.496094 3.203125 L 8.40625 3.164062 L 8.367188 3.308594 Z M 8.300781 3.277344 L 8.34375 3.136719 L 8.253906 3.097656 L 8.210938 3.238281 Z M 8.148438 3.210938 L 8.1875 3.070312 L 8.101562 3.03125 L 8.058594 3.171875 Z M 7.996094 3.144531 L 8.035156 3.003906 L 7.921875 2.953125 L 7.882812 3.097656 Z M 7.816406 3.066406 L 7.855469 2.925781 L 7.742188 2.878906 L 7.703125 3.019531 Z M 7.636719 2.988281 L 7.679688 2.847656 L 7.566406 2.800781 L 7.523438 2.941406 Z M 7.457031 2.910156 L 7.5 2.773438 L 7.386719 2.722656 L 7.347656 2.863281 L 7.460938 2.910156 Z M 7.28125 2.832031 L 7.320312 2.695312 L 7.207031 2.644531 L 7.167969 2.785156 Z M 8.980469 3.335938 L 9.015625 3.210938 L 8.925781 3.171875 L 8.890625 3.296875 Z M 8.824219 3.269531 L 8.859375 3.144531 L 8.773438 3.105469 L 8.734375 3.230469 Z M 8.671875 3.199219 L 8.707031 3.074219 L 8.617188 3.039062 L 8.582031 3.164062 Z M 8.515625 3.132812 L 8.554688 3.007812 L 8.464844 2.96875 L 8.429688 3.097656 Z M 8.363281 3.066406 L 8.398438 2.941406 L 8.3125 2.902344 L 8.273438 3.027344 Z M 8.207031 3 L 8.246094 2.875 L 8.160156 2.835938 L 8.121094 2.964844 Z M 8.054688 2.933594 L 8.09375 2.804688 L 7.980469 2.757812 L 7.941406 2.886719 Z M 7.878906 2.859375 L 7.914062 2.726562 L 7.800781 2.679688 L 7.765625 2.808594 Z M 7.699219 2.78125 L 7.738281 2.648438 L 7.625 2.601562 L 7.585938 2.730469 Z M 7.519531 2.703125 L 7.558594 2.570312 L 7.445312 2.523438 L 7.40625 2.652344 Z M 7.339844 2.625 L 7.378906 2.492188 L 7.265625 2.445312 L 7.226562 2.578125 Z M 9.1875 3.210938 L 9.230469 3.066406 L 9.140625 3.027344 L 9.101562 3.171875 Z M 9.035156 3.144531 L 9.078125 3 L 8.988281 2.960938 L 8.945312 3.105469 Z M 8.882812 3.074219 L 8.921875 2.933594 L 8.835938 2.894531 L 8.792969 3.035156 Z M 8.726562 3.007812 L 8.769531 2.863281 L 8.679688 2.824219 L 8.636719 2.96875 Z M 8.574219 2.941406 L 8.613281 2.796875 L 8.527344 2.757812 L 8.484375 2.902344 Z M 8.417969 2.871094 L 8.460938 2.730469 L 8.371094 2.691406 L 8.332031 2.832031 Z M 8.265625 2.804688 L 8.304688 2.664062 L 8.21875 2.625 L 8.179688 2.765625 Z M 8.113281 2.738281 L 8.15625 2.597656 L 8.042969 2.546875 L 8 2.6875 Z M 7.933594 2.660156 L 7.976562 2.519531 L 7.863281 2.46875 L 7.820312 2.609375 Z M 7.757812 2.582031 L 7.796875 2.441406 L 7.683594 2.390625 L 7.644531 2.53125 Z M 7.578125 2.503906 L 7.617188 2.363281 L 7.507812 2.3125 L 7.464844 2.453125 Z M 7.398438 2.425781 L 7.441406 2.285156 L 7.328125 2.234375 L 7.285156 2.375 Z M 7.222656 2.347656 L 7.261719 2.207031 L 7.148438 2.160156 L 7.109375 2.296875 Z M 9.25 2.996094 L 9.292969 2.859375 L 9.203125 2.820312 L 9.164062 2.957031 Z M 9.097656 2.929688 L 9.136719 2.792969 L 9.046875 2.753906 L 9.007812 2.890625 Z M 8.941406 2.863281 L 8.984375 2.726562 L 8.894531 2.6875 L 8.855469 2.824219 Z M 8.789062 2.796875 L 8.828125 2.660156 L 8.742188 2.621094 L 8.699219 2.757812 Z M 8.636719 2.730469 L 8.675781 2.589844 L 8.585938 2.554688 L 8.546875 2.691406 Z M 8.480469 2.660156 L 8.519531 2.523438 L 8.433594 2.484375 L 8.390625 2.621094 Z M 8.328125 2.59375 L 8.367188 2.457031 L 8.28125 2.417969 L 8.238281 2.558594 Z M 8.175781 2.527344 L 8.214844 2.390625 L 8.101562 2.339844 L 8.0625 2.480469 Z M 7.996094 2.449219 L 8.035156 2.3125 L 7.921875 2.265625 L 7.882812 2.402344 Z M 7.816406 2.371094 L 7.859375 2.234375 L 7.746094 2.1875 L 7.703125 2.324219 Z M 7.640625 2.292969 L 7.679688 2.15625 L 7.566406 2.109375 L 7.527344 2.246094 Z M 7.460938 2.21875 L 7.5 2.078125 L 7.386719 2.03125 L 7.347656 2.167969 Z M 7.28125 2.140625 L 7.320312 2 L 7.210938 1.953125 L 7.167969 2.089844 Z M 9.3125 2.792969 L 9.351562 2.65625 L 9.261719 2.617188 L 9.222656 2.753906 Z M 9.15625 2.722656 L 9.195312 2.585938 L 9.109375 2.546875 L 9.070312 2.6875 L 9.15625 2.726562 Z M 9.003906 2.65625 L 9.042969 2.519531 L 8.953125 2.480469 L 8.914062 2.617188 Z M 8.847656 2.589844 L 8.890625 2.453125 L 8.800781 2.414062 L 8.761719 2.550781 Z M 8.695312 2.523438 L 8.734375 2.386719 L 8.644531 2.347656 L 8.605469 2.484375 Z M 8.539062 2.457031 L 8.582031 2.320312 L 8.492188 2.28125 L 8.453125 2.417969 Z M 8.386719 2.390625 L 8.425781 2.25 L 8.339844 2.214844 L 8.300781 2.351562 Z M 8.234375 2.324219 L 8.273438 2.183594 L 8.160156 2.136719 L 8.121094 2.273438 Z M 8.054688 2.246094 L 8.097656 2.105469 L 7.984375 2.058594 L 7.941406 2.195312 Z M 7.878906 2.167969 L 7.917969 2.03125 L 7.804688 1.980469 L 7.765625 2.117188 Z M 7.699219 2.089844 L 7.738281 1.953125 L 7.625 1.902344 L 7.585938 2.039062 Z M 7.519531 2.011719 L 7.5625 1.875 L 7.449219 1.824219 L 7.40625 1.960938 Z M 7.34375 1.933594 L 7.382812 1.796875 L 7.269531 1.746094 L 7.230469 1.882812 Z M 8.800781 0.636719 L 8.761719 0.765625 L 8.847656 0.804688 L 8.886719 0.675781 Z M 8.953125 0.703125 L 8.914062 0.832031 L 9.003906 0.871094 L 9.039062 0.742188 Z M 9.105469 0.769531 L 9.070312 0.898438 L 9.15625 0.9375 L 9.195312 0.808594 Z M 8.265625 0.40625 L 8.226562 0.53125 L 8.339844 0.582031 L 8.378906 0.453125 Z M 8.441406 0.480469 L 8.40625 0.609375 L 8.519531 0.660156 L 8.554688 0.53125 Z M 8.621094 0.558594 L 8.585938 0.6875 L 8.695312 0.738281 L 8.734375 0.609375 Z M 8.742188 0.835938 L 8.707031 0.964844 L 8.792969 1 L 8.828125 0.871094 Z M 8.894531 0.902344 L 8.855469 1.03125 L 8.945312 1.066406 L 8.984375 0.941406 Z M 9.046875 0.96875 L 9.011719 1.097656 L 9.101562 1.136719 L 9.136719 1.007812 Z M 9.203125 1.035156 L 9.164062 1.164062 L 9.253906 1.203125 L 9.292969 1.074219 Z M 9.355469 1.101562 L 9.320312 1.230469 L 9.40625 1.269531 L 9.445312 1.140625 Z M 8.027344 0.523438 L 7.992188 0.652344 L 8.105469 0.703125 L 8.140625 0.574219 Z M 8.207031 0.601562 L 8.167969 0.730469 L 8.28125 0.777344 L 8.320312 0.652344 Z M 8.386719 0.679688 L 8.347656 0.808594 L 8.460938 0.855469 L 8.5 0.726562 Z M 8.5625 0.757812 L 8.527344 0.886719 L 8.640625 0.933594 L 8.675781 0.804688 Z M 8.683594 1.03125 L 8.648438 1.160156 L 8.734375 1.199219 L 8.773438 1.070312 Z M 8.835938 1.097656 L 8.800781 1.226562 L 8.886719 1.265625 L 8.925781 1.136719 Z M 8.992188 1.164062 L 8.953125 1.292969 L 9.042969 1.332031 L 9.078125 1.203125 Z M 9.144531 1.234375 L 9.109375 1.359375 L 9.195312 1.398438 L 9.234375 1.269531 Z M 9.300781 1.300781 L 9.261719 1.429688 L 9.351562 1.464844 L 9.386719 1.339844 Z M 7.792969 0.644531 L 7.753906 0.769531 L 7.867188 0.820312 L 7.90625 0.691406 Z M 7.972656 0.71875 L 7.933594 0.847656 L 8.046875 0.898438 L 8.085938 0.769531 Z M 8.148438 0.796875 L 8.113281 0.925781 L 8.226562 0.976562 L 8.261719 0.847656 Z M 8.328125 0.875 L 8.289062 1.003906 L 8.402344 1.054688 L 8.441406 0.925781 Z M 8.507812 0.953125 L 8.46875 1.082031 L 8.582031 1.132812 L 8.621094 1.003906 Z M 8.628906 1.230469 L 8.589844 1.355469 L 8.675781 1.394531 L 8.714844 1.265625 Z M 8.78125 1.296875 L 8.742188 1.421875 L 8.832031 1.460938 L 8.867188 1.332031 Z M 8.933594 1.363281 L 8.894531 1.492188 L 8.984375 1.53125 L 9.023438 1.402344 Z M 9.085938 1.429688 L 9.050781 1.558594 L 9.140625 1.597656 L 9.175781 1.46875 Z M 9.242188 1.496094 L 9.203125 1.625 L 9.292969 1.664062 L 9.332031 1.535156 Z M 9.394531 1.5625 L 9.359375 1.691406 L 9.445312 1.730469 L 9.484375 1.601562 Z M 7.734375 0.839844 L 7.699219 0.96875 L 7.8125 1.015625 L 7.847656 0.890625 Z M 7.914062 0.917969 L 7.875 1.046875 L 7.988281 1.09375 L 8.027344 0.96875 Z M 8.09375 0.996094 L 8.054688 1.125 L 8.167969 1.171875 L 8.207031 1.042969 Z M 8.269531 1.074219 L 8.234375 1.203125 L 8.347656 1.25 L 8.382812 1.121094 Z M 8.449219 1.152344 L 8.410156 1.28125 L 8.523438 1.328125 L 8.5625 1.199219 Z M 8.570312 1.425781 L 8.53125 1.554688 L 8.621094 1.59375 L 8.65625 1.464844 Z M 8.722656 1.492188 L 8.683594 1.621094 L 8.773438 1.660156 L 8.8125 1.53125 Z M 8.875 1.558594 L 8.839844 1.6875 L 8.925781 1.726562 L 8.964844 1.597656 Z M 9.03125 1.625 L 8.992188 1.753906 L 9.082031 1.792969 L 9.117188 1.664062 Z M 9.183594 1.695312 L 9.148438 1.820312 L 9.234375 1.859375 L 9.273438 1.730469 Z M 9.339844 1.761719 L 9.300781 1.890625 L 9.390625 1.929688 L 9.425781 1.800781 Z M 7.5 0.957031 L 7.460938 1.085938 L 7.574219 1.136719 L 7.613281 1.007812 Z M 7.675781 1.035156 L 7.640625 1.164062 L 7.753906 1.214844 L 7.789062 1.085938 Z M 7.855469 1.113281 L 7.820312 1.242188 L 7.933594 1.292969 L 7.96875 1.164062 Z M 8.035156 1.191406 L 7.996094 1.320312 L 8.109375 1.371094 L 8.148438 1.242188 Z M 8.214844 1.269531 L 8.175781 1.398438 L 8.289062 1.449219 L 8.324219 1.320312 Z M 8.390625 1.347656 L 8.355469 1.476562 L 8.46875 1.527344 L 8.503906 1.398438 Z M 8.511719 1.621094 L 8.476562 1.75 L 8.5625 1.789062 L 8.597656 1.660156 Z M 8.664062 1.6875 L 8.628906 1.816406 L 8.714844 1.855469 L 8.753906 1.726562 Z M 8.820312 1.757812 L 8.78125 1.886719 L 8.871094 1.921875 L 8.90625 1.796875 Z M 8.972656 1.824219 L 8.933594 1.953125 L 9.023438 1.992188 L 9.0625 1.863281 Z M 9.125 1.890625 L 9.089844 2.019531 L 9.179688 2.058594 L 9.214844 1.929688 Z M 9.28125 1.957031 L 9.242188 2.085938 L 9.332031 2.125 L 9.371094 1.996094 Z M 9.433594 2.023438 L 9.398438 2.152344 L 9.484375 2.191406 L 9.523438 2.0625 Z M 7.441406 1.15625 L 7.402344 1.285156 L 7.515625 1.332031 L 7.554688 1.207031 Z M 7.621094 1.234375 L 7.582031 1.363281 L 7.695312 1.410156 L 7.734375 1.28125 Z M 7.796875 1.3125 L 7.761719 1.441406 L 7.875 1.488281 L 7.910156 1.359375 Z M 7.976562 1.390625 L 7.941406 1.519531 L 8.050781 1.566406 L 8.089844 1.4375 Z M 8.15625 1.46875 L 8.117188 1.597656 L 8.230469 1.644531 L 8.269531 1.515625 Z M 8.335938 1.546875 L 8.296875 1.671875 L 8.410156 1.722656 L 8.445312 1.59375 Z M 8.453125 1.820312 L 8.417969 1.949219 L 8.503906 1.984375 L 8.542969 1.859375 Z M 8.605469 1.886719 L 8.570312 2.015625 L 8.660156 2.054688 L 8.695312 1.925781 Z M 8.761719 1.953125 L 8.722656 2.082031 L 8.8125 2.121094 L 8.851562 1.992188 Z M 8.914062 2.019531 L 8.878906 2.148438 L 8.964844 2.1875 L 9.003906 2.058594 Z M 9.070312 2.085938 L 9.03125 2.214844 L 9.121094 2.253906 L 9.15625 2.125 Z M 9.222656 2.15625 L 9.1875 2.285156 L 9.273438 2.320312 L 9.3125 2.195312 Z M 9.378906 2.222656 L 9.339844 2.351562 L 9.429688 2.390625 L 9.464844 2.261719 Z M 7.382812 1.351562 L 7.347656 1.480469 L 7.460938 1.53125 L 7.496094 1.402344 Z M 7.5625 1.429688 L 7.523438 1.558594 L 7.636719 1.609375 L 7.675781 1.480469 Z M 7.742188 1.507812 L 7.703125 1.636719 L 7.816406 1.6875 L 7.855469 1.558594 Z M 7.917969 1.585938 L 7.882812 1.714844 L 7.996094 1.765625 L 8.03125 1.636719 Z M 8.097656 1.664062 L 8.0625 1.792969 L 8.171875 1.84375 L 8.210938 1.714844 Z M 8.277344 1.742188 L 8.238281 1.871094 L 8.351562 1.917969 L 8.390625 1.792969 Z M 8.398438 2.015625 L 8.359375 2.144531 L 8.445312 2.183594 L 8.484375 2.054688 Z M 8.550781 2.082031 L 8.511719 2.210938 L 8.601562 2.25 L 8.636719 2.121094 Z M 8.703125 2.152344 L 8.667969 2.277344 L 8.753906 2.316406 L 8.792969 2.1875 L 8.703125 2.148438 Z M 8.859375 2.21875 L 8.820312 2.347656 L 8.910156 2.382812 L 8.945312 2.257812 Z M 9.011719 2.285156 L 8.972656 2.414062 L 9.0625 2.453125 L 9.101562 2.324219 Z M 9.164062 2.351562 L 9.128906 2.480469 L 9.21875 2.519531 L 9.253906 2.390625 Z M 9.320312 2.417969 L 9.28125 2.546875 L 9.371094 2.585938 L 9.410156 2.457031 Z M 7.328125 1.550781 L 7.289062 1.679688 L 7.402344 1.726562 L 7.441406 1.597656 Z M 7.503906 1.628906 L 7.46875 1.757812 L 7.582031 1.804688 L 7.617188 1.675781 Z M 7.683594 1.707031 L 7.644531 1.835938 L 7.757812 1.882812 L 7.796875 1.753906 Z M 7.863281 1.785156 L 7.824219 1.910156 L 7.9375 1.960938 L 7.976562 1.832031 Z M 8.039062 1.859375 L 8.003906 1.988281 L 8.117188 2.039062 L 8.152344 1.910156 Z M 8.21875 1.9375 L 8.179688 2.066406 L 8.292969 2.117188 L 8.332031 1.988281 Z M 8.21875 1.9375 " fill-opacity="1" fill-rule="nonzero"/></g></svg>