<?xml version="1.0" encoding="utf-8"?>
<!-- Generator: Adobe Illustrator 26.0.1, SVG Export Plug-In . SVG Version: 6.00 Build 0)  -->
<svg version="1.1" id="Layer_1" xmlns="http://www.w3.org/2000/svg" xmlns:xlink="http://www.w3.org/1999/xlink" x="0px" y="0px"
	 viewBox="0 0 32 32" style="enable-background:new 0 0 32 32;" xml:space="preserve">
<style type="text/css">
	.st0{fill:#FAFAFC;}
	.st1{fill:none;stroke:#FFFFFF;stroke-width:0.25;stroke-miterlimit:10;}
	.st2{fill-rule:evenodd;clip-rule:evenodd;fill:#FFFFFF;}
</style>
<path class="st0" d="M14.9,3.1"/>
<g>
	<path class="st1" d="M6.2,11.5L9,9.6c0-1.1-0.9-2-2.1-2s-2,0.9-2,2.1c0,0.8,0.4,1.6,1.2,1.9L6.2,11.5z"/>
</g>
<g>
	<path class="st1" d="M10.8,11.8l-2,0.4l1.7-1.1c0.1,0,0.1-0.1,0.2-0.2l0.9-1.2L10.8,11.8z M13,7.9c-0.1,0-0.2,0-0.2,0l0.5-0.7
		c0.3-0.4,0.2-0.9-0.2-1.1l0,0c-0.4-0.3-0.9-0.2-1.1,0.2L9.4,9.8l-3.6,2.5c-0.3,0.2-0.4,0.5-0.3,0.8l0,0c0,0,0.2,6.8,0.2,7.1
		c0,0.1,0,0.2,0.1,0.3l0,0c0,0.1,0.1,0.2,0.1,0.2l2.6,3.9l2,5.5c0.1,0.4,0.5,0.7,0.9,0.7c0.1,0,0.2,0,0.3-0.1
		c0.5-0.2,0.8-0.8,0.6-1.3l-2-5.6c0-0.1-0.1-0.1-0.1-0.2l-2.1-3.1l0.4-0.1l2.4,1.7l-0.3,1.6l1.4,3.4c0-0.1,0,0,0,0l1-5.2
		c0.1-0.4-0.1-0.8-0.4-1l-3.1-2.2l0,0v-4.9l2.2-0.4c0.3-0.1,0.5-0.2,0.6-0.5L13.5,9c0.1-0.4,0.1-0.8-0.3-1L13,7.9z"/>
</g>
<line class="st1" x1="11.4" y1="10" x2="12.8" y2="7.9"/>
<path class="st0" d="M20.4,3c0-0.6-0.3-1.2-0.8-1.6s-1.1-0.6-1.7-0.6s-1.2,0.3-1.6,0.8s-0.6,1.1-0.6,1.7s0.3,1.2,0.8,1.6
	c0.5,0.4,1.1,0.6,1.7,0.6s1.2-0.3,1.6-0.8C20.3,4.2,20.4,3.6,20.4,3z M18.8,1.1c0.2,0.1,0.5,0.2,0.7,0.4s0.4,0.4,0.5,0.7
	c-0.5,0-1,0.2-1.5,0.4C18.1,2.8,17.6,3,17.3,3c-0.1,0-0.2,0-0.3,0h-0.1c0.1-0.2,0.2-0.4,0.3-0.5c0.2-0.4,0.5-0.8,0.8-1
	C18.2,1.1,18.5,1,18.8,1.1z M16.4,2.1c0-0.3,0.1-0.5,0.3-0.7C17,1.1,17.4,1,17.8,0.9c0.2,0,0.3,0,0.5,0C18.2,1,18,1.1,17.8,1.3
	c-0.3,0.3-0.6,0.6-0.8,1.1c-0.1,0.2-0.2,0.3-0.3,0.5l-0.1-0.1l0,0C16.4,2.6,16.4,2.3,16.4,2.1z M15.9,4.1c0.1-0.1,0.3,0,0.4,0.1
	c0,0.2,0,0.4,0.1,0.6C16.2,4.6,16.1,4.3,15.9,4.1z M16.5,3.7c0,0.1,0,0.2-0.1,0.3c-0.2-0.1-0.4-0.1-0.5-0.1
	c-0.1-0.2-0.1-0.4-0.1-0.6c0-0.1,0-0.2,0-0.3c0.1,0.1,0.2,0.2,0.3,0.3C16.2,3.4,16.3,3.5,16.5,3.7C16.5,3.6,16.5,3.6,16.5,3.7z
	 M16.1,3.2C16,3.1,15.9,3,15.8,2.8C15.9,2.4,16,2,16.3,1.7l0,0c0,0.1-0.1,0.2-0.1,0.4c0,0.3,0.1,0.6,0.3,0.8l0,0
	c0,0,0.1,0.1,0.2,0.1c-0.1,0.2-0.1,0.3-0.2,0.5C16.4,3.4,16.3,3.3,16.1,3.2z M18.2,5.4c-0.5,0-1-0.1-1.4-0.4
	c-0.1-0.2-0.2-0.5-0.2-0.8c0.1,0.1,0.2,0.1,0.3,0.2c0.1,0.1,0.2,0.2,0.3,0.3c0.2,0.2,0.5,0.4,0.9,0.6C18.2,5.3,18.3,5.4,18.2,5.4
	C18.2,5.4,18.2,5.4,18.2,5.4z M19.7,4.6c-0.3,0.3-0.6,0.5-1,0.7c-0.2,0-0.4,0-0.6-0.1c-0.3-0.2-0.7-0.4-0.9-0.6
	c-0.1-0.1-0.2-0.2-0.3-0.3c-0.1-0.1-0.2-0.2-0.4-0.2c0-0.1,0-0.2,0.1-0.4l0,0c0.6,0.3,1.3,0.5,2,0.6c0.6,0.1,1.1,0,1.4-0.1
	C19.9,4.3,19.8,4.5,19.7,4.6z M20.1,3.9c-0.3,0.2-0.8,0.2-1.5,0.2c-0.6-0.1-1.3-0.3-2-0.6c0-0.2,0.1-0.3,0.2-0.5h0.1
	c0.1,0,0.3,0.1,0.4,0c0.4-0.1,0.8-0.2,1.3-0.4s1-0.4,1.5-0.4c0.1,0.2,0.2,0.5,0.2,0.7C20.3,3.3,20.2,3.6,20.1,3.9z"/>
<g>
	<path class="st2" d="M26.3,11.4H14.9c-0.3,0-0.6,0.3-0.6,0.6s0.3,0.6,0.6,0.6H15c0.3,0.5,2.5,4.1,2.6,10.2c0,0.1,0.1,0.1,0.1,0.1
		h0.1c0,0,0.1,0,0.1-0.1l0.8-1.4l0.8,1.4l0,0l0,0l0,0l0,0l0,0l0,0l0,0c0,0,0,0,0.1,0c0,0,0,0,0.1,0l0,0l0,0l0,0l0,0l0,0l0,0l0,0
		l0.9-1.6l0.9,1.5l0,0l0,0l0,0l0,0l0,0l0,0l0,0l0,0l0,0l0,0l0,0l0,0l0,0l0,0c0,0,0,0,0.1,0c0,0,0,0,0.1,0l0,0l0,0l0,0l0,0l0,0l0,0
		l0,0l0,0l0,0l0,0l0,0l0.8-1.4l0.8,1.5l0,0l0,0l0,0l0,0c0,0,0,0,0.1,0l0,0l0,0l0,0l0,0l0,0c0,0,0,0,0-0.1l0,0c0-0.4,0-0.8,0-1.2
		c0.1-1.2,0.2-2.4,0.5-3.5c0.2-0.8,0.4-1.5,0.6-2.3c0.1-0.3,0.2-0.7,0.4-1c0.1-0.3,0.2-0.6,0.4-0.9c0.1-0.2,0.2-0.5,0.4-0.7
		c0.1-0.2,0.2-0.4,0.3-0.6l0,0l0,0c0.3,0,0.6-0.3,0.6-0.6C26.9,11.7,26.7,11.4,26.3,11.4z M15.3,12.6h0.3l0.8,1.4l-0.2,0.3
		C15.9,13.5,15.5,12.9,15.3,12.6z M24.5,14l-0.9,1.5l-0.8-1.4l0.8-1.5h0.1L24.5,14z M24.1,12.6h1.2l-0.6,1.1L24.1,12.6z M19.6,16.1
		l0.9,1.6l-0.8,1.4l-0.9-1.6L19.6,16.1z M18.6,17.3l-0.9-1.5l0.8-1.5l0.9,1.5L18.6,17.3z M19.8,15.9l0.9-1.5l0.9,1.5l-0.9,1.6
		L19.8,15.9z M21.7,16.1l0.8,1.4l-0.9,1.6l-0.8-1.4L21.7,16.1z M21.9,15.9l0.8-1.5l0.8,1.4l-0.8,1.5L21.9,15.9z M22.7,13.8L22,12.6
		h1.4L22.7,13.8z M22.6,14.1l-0.8,1.5l-1-1.6l0.8-1.4h0.1L22.6,14.1z M20.7,13.8L20,12.6h1.3L20.7,13.8z M20.5,14l-0.9,1.5L18.7,14
		l0.8-1.4h0.1L20.5,14z M18.6,13.8L18,12.6h1.3L18.6,13.8z M18.4,14.1l-0.8,1.5l-0.8-1.5l0.9-1.4l0,0L18.4,14.1z M16.6,13.8
		l-0.7-1.2h1.4L16.6,13.8z M16.4,14.7l0.2-0.4l0.8,1.5L17,16.6C16.8,15.9,16.6,15.2,16.4,14.7z M17.6,19.1L17.6,19.1
		c-0.1-0.4-0.2-0.9-0.2-1.3c-0.1-0.3-0.1-0.6-0.2-0.9l0,0l0.5-0.9l0.9,1.5L17.6,19.1z M17.9,22.4L17.9,22.4c0-0.4,0-0.9-0.1-1.3
		c0-0.4-0.1-0.9-0.1-1.3l0,0l0.9,1.5L17.9,22.4z M18.7,21l-0.9-1.6l0.9-1.5l0.9,1.6L18.7,21z M19.6,22.6l-0.8-1.3l0.9-1.5l0.8,1.4
		L19.6,22.6z M20.7,20.8l-0.8-1.4l0.8-1.4l0.8,1.4L20.7,20.8z M21.7,22.5L20.8,21l0.8-1.4l0.8,1.5L21.7,22.5z M21.8,19.4l0.9-1.6
		l0.9,1.5l-0.9,1.6L21.8,19.4z M23.4,22.4l-0.7-1.2l0.9-1.5C23.5,20.5,23.5,21.4,23.4,22.4z M24.2,17c-0.1,0.4-0.2,0.7-0.3,1.1
		c-0.1,0.3-0.1,0.7-0.2,1l0,0l-0.9-1.6l0.8-1.5L24.2,17L24.2,17z M24.3,16.6l-0.5-0.8l0.9-1.5l0.3,0.4
		C24.7,15.3,24.5,15.9,24.3,16.6z M25.1,14.4L24.9,14l0.8-1.4H26C25.8,13,25.4,13.6,25.1,14.4z M26.4,12.2c0,0-0.1,0.1-0.2,0.1H14.9
		c-0.1,0-0.2-0.1-0.2-0.2c0-0.1,0-0.1,0.1-0.2c0,0,0.1-0.1,0.2-0.1h11.4c0.1,0,0.2,0.1,0.2,0.2C26.5,12.1,26.5,12.1,26.4,12.2z"/>
</g>
<path class="st0" d="M15.5,2.5c0,0.1,0,0.2,0,0.2l-0.9,0.8l0,0c0,0,0,0-0.1,0V3.4L15.5,2.5z"/>
<path class="st0" d="M15.7,4.2l-1.3,1.2l0,0c0,0,0,0-0.1,0V5.3L15.6,4C15.6,4.1,15.6,4.1,15.7,4.2z"/>
<path class="st0" d="M18,5.8L16.7,7c0,0,0,0-0.1,0c0,0,0,0-0.1,0V6.9l1.2-1.2l0,0C17.8,5.8,17.9,5.8,18,5.8z"/>
<path class="st0" d="M18.8,5.7l-1,1l0,0c0,0,0,0-0.1,0V6.6l0.9-0.8C18.6,5.7,18.7,5.7,18.8,5.7z"/>
<path class="st0" d="M15.4,2.9c0,0.1,0,0.3,0,0.4l-1.1,1h-0.1h-0.1c-0.1-0.1-0.1-0.2,0-0.2L15.4,2.9z"/>
<path class="st0" d="M16.9,5.5l-1.2,1.2h-0.1h-0.1c-0.1-0.1-0.1-0.2,0-0.2l1.1-1.1C16.7,5.3,16.8,5.4,16.9,5.5z"/>
</svg>
