<svg xmlns="http://www.w3.org/2000/svg" xmlns:xlink="http://www.w3.org/1999/xlink" width="40" zoomAndPan="magnify" viewBox="0 0 30 30.000001" height="40" preserveAspectRatio="xMidYMid meet" version="1.0"><defs><clipPath id="a13a932aff"><path d="M 0.484375 0 L 29.515625 0 L 29.515625 29.03125 L 0.484375 29.03125 Z M 0.484375 0 " clip-rule="nonzero"/></clipPath><clipPath id="7f96e9b114"><path d="M 3.386719 1.71875 L 28 1.71875 L 28 26.398438 L 3.386719 26.398438 Z M 3.386719 1.71875 " clip-rule="nonzero"/></clipPath></defs><g clip-path="url(#a13a932aff)"><path fill="#ffffff" d="M 0.484375 0 L 29.515625 0 L 29.515625 29.03125 L 0.484375 29.03125 Z M 0.484375 0 " fill-opacity="1" fill-rule="nonzero"/><path fill="#000000" d="M 0.484375 0 L 29.515625 0 L 29.515625 29.03125 L 0.484375 29.03125 Z M 0.484375 0 " fill-opacity="1" fill-rule="nonzero"/></g><path fill="#ffffff" d="M 13.183594 19.175781 C 13.09375 19.175781 13.023438 19.101562 13.023438 19.011719 L 13.023438 10.425781 C 13.023438 10.148438 12.796875 9.925781 12.519531 9.925781 C 12.246094 9.925781 12.019531 10.148438 12.019531 10.425781 L 12.019531 16.757812 C 12.019531 16.847656 11.949219 16.921875 11.855469 16.921875 C 11.765625 16.921875 11.695312 16.847656 11.695312 16.757812 L 11.695312 10.425781 C 11.695312 9.96875 12.066406 9.597656 12.519531 9.597656 C 12.976562 9.597656 13.347656 9.96875 13.347656 10.425781 L 13.347656 19.011719 C 13.347656 19.101562 13.277344 19.175781 13.183594 19.175781 Z M 13.183594 19.175781 " fill-opacity="1" fill-rule="nonzero"/><path fill="#ffffff" d="M 16.140625 19.175781 C 16.046875 19.175781 15.976562 19.101562 15.976562 19.011719 L 15.976562 10.425781 C 15.976562 10.148438 15.753906 9.925781 15.476562 9.925781 C 15.199219 9.925781 14.972656 10.148438 14.972656 10.425781 L 14.972656 19.011719 C 14.972656 19.101562 14.898438 19.175781 14.808594 19.175781 C 14.71875 19.175781 14.644531 19.101562 14.644531 19.011719 L 14.644531 10.425781 C 14.644531 9.96875 15.015625 9.597656 15.472656 9.597656 C 15.925781 9.597656 16.296875 9.96875 16.296875 10.425781 L 16.296875 19.011719 C 16.300781 19.101562 16.226562 19.175781 16.140625 19.175781 Z M 16.140625 19.175781 " fill-opacity="1" fill-rule="nonzero"/><path fill="#ffffff" d="M 19.089844 19.175781 C 19 19.175781 18.929688 19.101562 18.929688 19.011719 L 18.929688 10.597656 C 18.929688 10.507812 19 10.433594 19.089844 10.433594 C 19.183594 10.433594 19.253906 10.507812 19.253906 10.597656 L 19.253906 19.007812 C 19.253906 19.101562 19.183594 19.175781 19.089844 19.175781 Z M 17.761719 19.175781 C 17.671875 19.175781 17.601562 19.101562 17.601562 19.011719 L 17.601562 10.425781 C 17.601562 9.96875 17.972656 9.597656 18.425781 9.597656 C 18.664062 9.597656 18.890625 9.703125 19.050781 9.886719 C 19.109375 9.953125 19.105469 10.054688 19.035156 10.117188 C 18.964844 10.175781 18.867188 10.167969 18.808594 10.101562 C 18.710938 9.988281 18.574219 9.925781 18.429688 9.925781 C 18.152344 9.925781 17.929688 10.152344 17.929688 10.429688 L 17.929688 19.015625 C 17.925781 19.101562 17.851562 19.175781 17.761719 19.175781 Z M 17.761719 19.175781 " fill-opacity="1" fill-rule="nonzero"/><path fill="#ffffff" d="M 22.386719 19.175781 L 8.5625 19.175781 C 8.46875 19.175781 8.398438 19.101562 8.398438 19.011719 C 8.398438 18.921875 8.46875 18.847656 8.5625 18.847656 L 22.386719 18.847656 C 22.476562 18.847656 22.550781 18.921875 22.550781 19.011719 C 22.550781 19.101562 22.476562 19.175781 22.386719 19.175781 Z M 22.386719 19.175781 " fill-opacity="1" fill-rule="nonzero"/><path fill="#ffffff" d="M 10.964844 19.175781 C 10.839844 19.175781 10.707031 19.160156 10.585938 19.125 C 10.207031 19.023438 9.890625 18.78125 9.695312 18.441406 C 9.496094 18.105469 9.445312 17.707031 9.546875 17.332031 C 9.648438 16.953125 9.890625 16.632812 10.230469 16.4375 C 10.570312 16.242188 10.964844 16.191406 11.34375 16.292969 C 11.722656 16.394531 12.039062 16.636719 12.234375 16.976562 C 12.429688 17.3125 12.480469 17.710938 12.382812 18.089844 C 12.28125 18.464844 12.035156 18.785156 11.699219 18.980469 C 11.46875 19.105469 11.21875 19.175781 10.964844 19.175781 Z M 10.960938 16.566406 C 10.765625 16.566406 10.570312 16.617188 10.394531 16.71875 C 10.128906 16.871094 9.941406 17.117188 9.863281 17.410156 C 9.785156 17.703125 9.824219 18.011719 9.976562 18.277344 C 10.128906 18.539062 10.378906 18.730469 10.671875 18.808594 C 10.964844 18.886719 11.273438 18.847656 11.535156 18.695312 C 11.800781 18.539062 11.988281 18.292969 12.066406 18 C 12.144531 17.707031 12.105469 17.398438 11.953125 17.132812 C 11.800781 16.871094 11.550781 16.683594 11.257812 16.605469 C 11.160156 16.578125 11.058594 16.566406 10.960938 16.566406 Z M 10.3125 16.578125 Z M 10.3125 16.578125 " fill-opacity="1" fill-rule="nonzero"/><path fill="#ffffff" d="M 11.21875 19.148438 C 11.164062 19.148438 11.109375 19.121094 11.078125 19.066406 L 9.84375 16.925781 C 9.796875 16.847656 9.824219 16.746094 9.902344 16.707031 C 9.980469 16.660156 10.078125 16.6875 10.121094 16.765625 L 11.359375 18.90625 C 11.40625 18.984375 11.378906 19.085938 11.300781 19.125 C 11.273438 19.140625 11.246094 19.148438 11.21875 19.148438 Z M 11.941406 18.730469 C 11.886719 18.730469 11.832031 18.699219 11.800781 18.648438 L 10.566406 16.507812 C 10.519531 16.429688 10.546875 16.328125 10.625 16.285156 C 10.703125 16.242188 10.800781 16.265625 10.84375 16.34375 L 12.082031 18.484375 C 12.128906 18.5625 12.101562 18.664062 12.023438 18.707031 C 11.996094 18.722656 11.972656 18.730469 11.941406 18.730469 Z M 11.941406 18.730469 " fill-opacity="1" fill-rule="nonzero"/><path fill="#ffffff" d="M 20.84375 19.101562 C 20.71875 19.101562 20.605469 19.085938 20.507812 19.0625 C 20.453125 19.046875 20.40625 19.003906 20.390625 18.949219 L 18.933594 13.503906 C 18.921875 13.453125 18.929688 13.398438 18.964844 13.359375 L 19.539062 12.640625 C 19.59375 12.570312 19.699219 12.558594 19.765625 12.617188 C 19.835938 12.671875 19.847656 12.773438 19.792969 12.84375 L 19.269531 13.5 L 20.679688 18.765625 C 21.140625 18.828125 22.066406 18.578125 22.433594 18.292969 L 21.023438 13.027344 L 20.242188 12.722656 C 20.15625 12.691406 20.117188 12.597656 20.152344 12.511719 C 20.183594 12.425781 20.277344 12.386719 20.363281 12.421875 L 21.222656 12.753906 C 21.269531 12.773438 21.304688 12.8125 21.320312 12.867188 L 22.777344 18.308594 C 22.792969 18.367188 22.777344 18.425781 22.734375 18.464844 C 22.390625 18.808594 21.46875 19.101562 20.84375 19.101562 Z M 20.84375 19.101562 " fill-opacity="1" fill-rule="nonzero"/><path fill="#ffffff" d="M 19.671875 12.933594 C 19.601562 12.933594 19.535156 12.886719 19.515625 12.8125 L 18.574219 9.292969 C 18.539062 9.164062 18.558594 9.03125 18.621094 8.917969 C 18.6875 8.804688 18.792969 8.722656 18.921875 8.6875 C 19.046875 8.65625 19.183594 8.671875 19.296875 8.734375 C 19.410156 8.800781 19.492188 8.910156 19.527344 9.035156 L 20.472656 12.554688 C 20.480469 12.597656 20.476562 12.640625 20.453125 12.679688 C 20.429688 12.71875 20.394531 12.746094 20.355469 12.753906 L 19.71875 12.925781 C 19.699219 12.929688 19.6875 12.933594 19.671875 12.933594 Z M 19.046875 8.996094 C 19.035156 8.996094 19.019531 9 19.007812 9.003906 C 18.964844 9.011719 18.929688 9.042969 18.90625 9.082031 C 18.882812 9.121094 18.875 9.164062 18.890625 9.207031 L 19.785156 12.570312 L 20.109375 12.480469 L 19.207031 9.121094 C 19.195312 9.078125 19.167969 9.042969 19.128906 9.019531 C 19.105469 9.007812 19.078125 8.996094 19.046875 8.996094 Z M 19.046875 8.996094 " fill-opacity="1" fill-rule="nonzero"/><path fill="#ffffff" d="M 20.621094 15.191406 C 20.554688 15.191406 20.496094 15.152344 20.472656 15.089844 L 19.523438 12.828125 C 19.503906 12.785156 19.507812 12.738281 19.527344 12.695312 C 19.546875 12.652344 19.585938 12.621094 19.632812 12.609375 L 20.269531 12.441406 C 20.316406 12.429688 20.363281 12.4375 20.402344 12.464844 C 20.441406 12.492188 20.46875 12.53125 20.476562 12.578125 L 20.785156 15.007812 C 20.792969 15.089844 20.742188 15.164062 20.664062 15.1875 C 20.648438 15.191406 20.632812 15.191406 20.621094 15.191406 Z M 19.894531 12.878906 L 20.308594 13.859375 L 20.175781 12.804688 Z M 19.894531 12.878906 " fill-opacity="1" fill-rule="nonzero"/><path fill="#ffffff" d="M 20.550781 19.066406 C 20.523438 19.066406 20.496094 19.0625 20.472656 19.046875 C 20.394531 19.003906 20.363281 18.90625 20.40625 18.828125 L 21.136719 17.425781 C 21.15625 17.386719 21.195312 17.355469 21.238281 17.34375 C 21.285156 17.332031 21.332031 17.339844 21.371094 17.363281 L 22.703125 18.207031 C 22.777344 18.257812 22.800781 18.359375 22.753906 18.433594 C 22.703125 18.507812 22.601562 18.53125 22.527344 18.480469 L 21.339844 17.730469 L 20.6875 18.976562 C 20.664062 19.035156 20.605469 19.066406 20.550781 19.066406 Z M 20.550781 19.066406 " fill-opacity="1" fill-rule="nonzero"/><path fill="#ffffff" d="M 18.425781 9.925781 L 17.589844 9.925781 C 17.5 9.925781 17.429688 9.851562 17.429688 9.761719 C 17.429688 9.671875 17.5 9.597656 17.589844 9.597656 L 18.425781 9.597656 C 18.519531 9.597656 18.589844 9.671875 18.589844 9.761719 C 18.589844 9.847656 18.519531 9.925781 18.425781 9.925781 Z M 16.3125 9.925781 L 14.640625 9.925781 C 14.546875 9.925781 14.476562 9.851562 14.476562 9.761719 C 14.476562 9.671875 14.546875 9.597656 14.640625 9.597656 L 16.3125 9.597656 C 16.402344 9.597656 16.476562 9.671875 16.476562 9.761719 C 16.476562 9.847656 16.398438 9.925781 16.3125 9.925781 Z M 13.355469 9.925781 L 12.519531 9.925781 C 12.429688 9.925781 12.359375 9.851562 12.359375 9.761719 C 12.359375 9.671875 12.429688 9.597656 12.519531 9.597656 L 13.355469 9.597656 C 13.449219 9.597656 13.519531 9.671875 13.519531 9.761719 C 13.519531 9.847656 13.449219 9.925781 13.355469 9.925781 Z M 13.355469 9.925781 " fill-opacity="1" fill-rule="nonzero"/><path fill="#ffffff" d="M 14.355469 10.207031 L 13.644531 10.207031 C 13.394531 10.207031 13.199219 10.007812 13.199219 9.761719 C 13.199219 9.511719 13.398438 9.316406 13.644531 9.316406 L 14.355469 9.316406 C 14.605469 9.316406 14.800781 9.515625 14.800781 9.761719 C 14.800781 10.003906 14.601562 10.207031 14.355469 10.207031 Z M 13.640625 9.640625 C 13.574219 9.640625 13.519531 9.695312 13.519531 9.761719 C 13.519531 9.828125 13.574219 9.882812 13.640625 9.882812 L 14.355469 9.882812 C 14.417969 9.882812 14.472656 9.828125 14.472656 9.761719 C 14.472656 9.695312 14.417969 9.640625 14.355469 9.640625 C 14.351562 9.640625 13.640625 9.640625 13.640625 9.640625 Z M 13.640625 9.640625 " fill-opacity="1" fill-rule="nonzero"/><path fill="#ffffff" d="M 17.308594 10.207031 L 16.59375 10.207031 C 16.351562 10.207031 16.148438 10.007812 16.148438 9.761719 C 16.148438 9.511719 16.347656 9.316406 16.59375 9.316406 L 17.308594 9.316406 C 17.550781 9.316406 17.753906 9.515625 17.753906 9.761719 C 17.753906 10.003906 17.550781 10.207031 17.308594 10.207031 Z M 16.59375 9.640625 C 16.53125 9.640625 16.476562 9.695312 16.476562 9.761719 C 16.476562 9.828125 16.53125 9.882812 16.59375 9.882812 L 17.308594 9.882812 C 17.375 9.882812 17.429688 9.828125 17.429688 9.761719 C 17.429688 9.695312 17.375 9.640625 17.308594 9.640625 C 17.308594 9.640625 16.59375 9.640625 16.59375 9.640625 Z M 16.59375 9.640625 " fill-opacity="1" fill-rule="nonzero"/><g clip-path="url(#7f96e9b114)"><path fill="#ffffff" d="M 15.589844 26.125 C 12.332031 26.125 9.265625 24.855469 6.964844 22.550781 C 4.65625 20.25 3.386719 17.179688 3.386719 13.921875 C 3.386719 10.664062 4.65625 7.597656 6.964844 5.296875 C 9.269531 2.996094 12.332031 1.71875 15.589844 1.71875 C 18.847656 1.71875 21.914062 2.992188 24.214844 5.296875 C 26.523438 7.597656 27.792969 10.664062 27.792969 13.921875 C 27.792969 17.179688 26.523438 20.25 24.214844 22.550781 C 21.914062 24.855469 18.847656 26.125 15.589844 26.125 Z M 15.589844 2.105469 C 9.070312 2.105469 3.769531 7.402344 3.769531 13.921875 C 3.769531 20.441406 9.070312 25.742188 15.589844 25.742188 C 22.109375 25.742188 27.410156 20.441406 27.410156 13.921875 C 27.410156 7.402344 22.109375 2.105469 15.589844 2.105469 Z M 15.589844 2.105469 " fill-opacity="1" fill-rule="nonzero"/></g></svg>