<svg xmlns="http://www.w3.org/2000/svg" xmlns:xlink="http://www.w3.org/1999/xlink" width="40" zoomAndPan="magnify" viewBox="0 0 30 30.000001" height="40" preserveAspectRatio="xMidYMid meet" version="1.0"><defs><clipPath id="8a4e6b5b62"><path d="M 0.484375 0 L 29.515625 0 L 29.515625 29.03125 L 0.484375 29.03125 Z M 0.484375 0 " clip-rule="nonzero"/></clipPath><clipPath id="4828d4a248"><path d="M 2.113281 1.8125 L 26.789062 1.8125 L 26.789062 26.492188 L 2.113281 26.492188 Z M 2.113281 1.8125 " clip-rule="nonzero"/></clipPath></defs><g clip-path="url(#8a4e6b5b62)"><path fill="#ffffff" d="M 0.484375 0 L 29.515625 0 L 29.515625 29.03125 L 0.484375 29.03125 Z M 0.484375 0 " fill-opacity="1" fill-rule="nonzero"/><path fill="#000000" d="M 0.484375 0 L 29.515625 0 L 29.515625 29.03125 L 0.484375 29.03125 Z M 0.484375 0 " fill-opacity="1" fill-rule="nonzero"/></g><path fill="#ffffff" d="M 16.78125 15.527344 L 11.941406 15.527344 C 11.851562 15.527344 11.777344 15.453125 11.777344 15.363281 C 11.777344 15.273438 11.851562 15.199219 11.941406 15.199219 L 16.78125 15.199219 C 16.871094 15.199219 16.945312 15.273438 16.945312 15.363281 C 16.945312 15.453125 16.871094 15.527344 16.78125 15.527344 Z M 16.78125 15.527344 " fill-opacity="1" fill-rule="nonzero"/><path fill="#ffffff" d="M 16.78125 12.929688 L 11.941406 12.929688 C 11.851562 12.929688 11.777344 12.855469 11.777344 12.765625 C 11.777344 12.675781 11.851562 12.601562 11.941406 12.601562 L 16.78125 12.601562 C 16.871094 12.601562 16.945312 12.675781 16.945312 12.765625 C 16.945312 12.855469 16.871094 12.929688 16.78125 12.929688 Z M 16.78125 12.929688 " fill-opacity="1" fill-rule="nonzero"/><path fill="#ffffff" d="M 11.074219 18.515625 C 10.503906 18.515625 10.042969 18.054688 10.042969 17.484375 L 10.042969 10.640625 C 10.042969 10.070312 10.503906 9.609375 11.074219 9.609375 C 11.644531 9.609375 12.105469 10.070312 12.105469 10.640625 L 12.105469 17.484375 C 12.105469 18.054688 11.640625 18.515625 11.074219 18.515625 Z M 11.074219 9.933594 C 10.683594 9.933594 10.367188 10.25 10.367188 10.640625 L 10.367188 17.484375 C 10.367188 17.871094 10.683594 18.1875 11.074219 18.1875 C 11.460938 18.1875 11.777344 17.871094 11.777344 17.484375 L 11.777344 10.640625 C 11.777344 10.25 11.460938 9.933594 11.074219 9.933594 Z M 11.074219 9.933594 " fill-opacity="1" fill-rule="nonzero"/><path fill="#ffffff" d="M 17.648438 18.515625 C 17.078125 18.515625 16.617188 18.054688 16.617188 17.484375 L 16.617188 10.640625 C 16.617188 10.070312 17.078125 9.609375 17.648438 9.609375 C 18.21875 9.609375 18.683594 10.070312 18.683594 10.640625 L 18.683594 17.484375 C 18.683594 18.054688 18.21875 18.515625 17.648438 18.515625 Z M 17.648438 9.933594 C 17.261719 9.933594 16.945312 10.25 16.945312 10.640625 L 16.945312 17.484375 C 16.945312 17.871094 17.261719 18.1875 17.648438 18.1875 C 18.039062 18.1875 18.355469 17.871094 18.355469 17.484375 L 18.355469 10.640625 C 18.355469 10.25 18.039062 9.933594 17.648438 9.933594 Z M 17.648438 9.933594 " fill-opacity="1" fill-rule="nonzero"/><path fill="#ffffff" d="M 9.417969 17.722656 L 9.25 17.722656 C 8.742188 17.722656 8.328125 17.328125 8.304688 16.820312 C 8.304688 16.816406 8.304688 16.816406 8.304688 16.8125 L 8.304688 11.347656 C 8.304688 10.824219 8.730469 10.398438 9.253906 10.398438 L 9.421875 10.398438 C 9.941406 10.398438 10.367188 10.824219 10.367188 11.347656 C 10.367188 11.4375 10.296875 11.511719 10.207031 11.511719 C 10.113281 11.511719 10.042969 11.4375 10.042969 11.347656 C 10.042969 11.003906 9.761719 10.726562 9.421875 10.726562 L 9.253906 10.726562 C 8.910156 10.726562 8.632812 11.003906 8.632812 11.347656 L 8.632812 16.808594 C 8.648438 17.140625 8.921875 17.398438 9.253906 17.398438 L 9.421875 17.398438 C 9.761719 17.398438 10.042969 17.117188 10.042969 16.777344 C 10.042969 16.6875 10.113281 16.613281 10.207031 16.613281 C 10.296875 16.613281 10.367188 16.683594 10.367188 16.777344 C 10.367188 17.300781 9.941406 17.722656 9.417969 17.722656 Z M 9.417969 17.722656 " fill-opacity="1" fill-rule="nonzero"/><path fill="#ffffff" d="M 8.46875 15.527344 L 7.738281 15.527344 C 7.429688 15.527344 7.175781 15.273438 7.175781 14.964844 L 7.175781 13.167969 C 7.175781 12.855469 7.429688 12.601562 7.738281 12.601562 L 8.46875 12.601562 C 8.558594 12.601562 8.628906 12.675781 8.628906 12.765625 C 8.628906 12.855469 8.558594 12.929688 8.46875 12.929688 L 7.738281 12.929688 C 7.609375 12.929688 7.503906 13.035156 7.503906 13.167969 L 7.503906 14.964844 C 7.503906 15.09375 7.609375 15.203125 7.738281 15.203125 L 8.46875 15.203125 C 8.558594 15.203125 8.628906 15.273438 8.628906 15.363281 C 8.628906 15.457031 8.558594 15.527344 8.46875 15.527344 Z M 8.46875 15.527344 " fill-opacity="1" fill-rule="nonzero"/><path fill="#ffffff" d="M 19.472656 17.722656 L 19.304688 17.722656 C 18.78125 17.722656 18.355469 17.300781 18.355469 16.777344 C 18.355469 16.6875 18.429688 16.613281 18.519531 16.613281 C 18.609375 16.613281 18.683594 16.6875 18.683594 16.777344 C 18.683594 17.117188 18.960938 17.398438 19.304688 17.398438 L 19.472656 17.398438 C 19.8125 17.398438 20.09375 17.121094 20.09375 16.777344 L 20.09375 11.320312 C 20.078125 10.988281 19.804688 10.726562 19.472656 10.726562 L 19.304688 10.726562 C 18.960938 10.726562 18.683594 11.003906 18.683594 11.347656 C 18.683594 11.4375 18.609375 11.511719 18.519531 11.511719 C 18.429688 11.511719 18.355469 11.4375 18.355469 11.347656 C 18.355469 10.824219 18.78125 10.398438 19.304688 10.398438 L 19.472656 10.398438 C 19.984375 10.398438 20.398438 10.800781 20.417969 11.3125 C 20.417969 11.316406 20.417969 11.316406 20.417969 11.320312 L 20.417969 16.777344 C 20.417969 17.300781 19.992188 17.722656 19.472656 17.722656 Z M 19.472656 17.722656 " fill-opacity="1" fill-rule="nonzero"/><path fill="#ffffff" d="M 20.984375 15.527344 L 20.257812 15.527344 C 20.167969 15.527344 20.09375 15.453125 20.09375 15.363281 C 20.09375 15.273438 20.164062 15.199219 20.257812 15.199219 L 20.984375 15.199219 C 21.113281 15.199219 21.21875 15.09375 21.21875 14.964844 L 21.21875 13.167969 C 21.21875 13.035156 21.113281 12.929688 20.984375 12.929688 L 20.257812 12.929688 C 20.167969 12.929688 20.09375 12.855469 20.09375 12.765625 C 20.09375 12.675781 20.164062 12.601562 20.257812 12.601562 L 20.984375 12.601562 C 21.292969 12.601562 21.546875 12.855469 21.546875 13.167969 L 21.546875 14.964844 C 21.546875 15.273438 21.292969 15.527344 20.984375 15.527344 Z M 20.984375 15.527344 " fill-opacity="1" fill-rule="nonzero"/><g clip-path="url(#4828d4a248)"><path fill="#ffffff" d="M 14.363281 26.308594 C 12.707031 26.308594 11.105469 25.984375 9.59375 25.347656 C 8.136719 24.730469 6.824219 23.847656 5.699219 22.722656 C 4.574219 21.597656 3.691406 20.289062 3.074219 18.828125 C 2.4375 17.320312 2.113281 15.714844 2.113281 14.0625 C 2.113281 12.410156 2.4375 10.804688 3.074219 9.292969 C 3.691406 7.835938 4.574219 6.527344 5.699219 5.402344 C 6.824219 4.277344 8.136719 3.394531 9.59375 2.777344 C 11.105469 2.136719 12.707031 1.8125 14.363281 1.8125 C 16.015625 1.8125 17.617188 2.136719 19.128906 2.777344 C 20.585938 3.394531 21.898438 4.277344 23.023438 5.402344 C 24.148438 6.527344 25.03125 7.835938 25.648438 9.292969 C 26.285156 10.804688 26.609375 12.410156 26.609375 14.0625 C 26.609375 15.714844 26.285156 17.320312 25.648438 18.828125 C 25.03125 20.289062 24.148438 21.597656 23.023438 22.722656 C 21.898438 23.847656 20.589844 24.730469 19.128906 25.347656 C 17.617188 25.984375 16.015625 26.308594 14.363281 26.308594 Z M 14.363281 2.136719 C 7.785156 2.136719 2.4375 7.484375 2.4375 14.0625 C 2.4375 20.636719 7.785156 25.988281 14.363281 25.988281 C 20.9375 25.988281 26.285156 20.636719 26.285156 14.0625 C 26.285156 7.484375 20.9375 2.136719 14.363281 2.136719 Z M 14.363281 2.136719 " fill-opacity="1" fill-rule="nonzero"/></g></svg>