<svg xmlns="http://www.w3.org/2000/svg" xmlns:xlink="http://www.w3.org/1999/xlink" width="40" zoomAndPan="magnify" viewBox="0 0 30 30.000001" height="40" preserveAspectRatio="xMidYMid meet" version="1.0"><defs><clipPath id="7e0eb8a811"><path d="M 0.484375 0 L 29.515625 0 L 29.515625 29.03125 L 0.484375 29.03125 Z M 0.484375 0 " clip-rule="nonzero"/></clipPath><clipPath id="e24836cb68"><path d="M 4.171875 1.453125 L 25.945312 1.453125 L 25.945312 27.582031 L 4.171875 27.582031 Z M 4.171875 1.453125 " clip-rule="nonzero"/></clipPath><clipPath id="5acae42b5f"><path d="M 22 1.453125 L 24 1.453125 L 24 27.582031 L 22 27.582031 Z M 22 1.453125 " clip-rule="nonzero"/></clipPath><clipPath id="6c9804ae4d"><path d="M 4.171875 24 L 24 24 L 24 26 L 4.171875 26 Z M 4.171875 24 " clip-rule="nonzero"/></clipPath></defs><g clip-path="url(#7e0eb8a811)"><path fill="#ffffff" d="M 0.484375 0 L 29.515625 0 L 29.515625 29.03125 L 0.484375 29.03125 Z M 0.484375 0 " fill-opacity="1" fill-rule="nonzero"/><path fill="#000000" d="M 0.484375 0 L 29.515625 0 L 29.515625 29.03125 L 0.484375 29.03125 Z M 0.484375 0 " fill-opacity="1" fill-rule="nonzero"/></g><g clip-path="url(#e24836cb68)"><path fill="#ffffff" d="M 25.410156 27.582031 L 4.585938 27.582031 C 4.359375 27.582031 4.179688 27.398438 4.179688 27.171875 L 4.179688 1.859375 C 4.179688 1.632812 4.359375 1.453125 4.585938 1.453125 L 25.410156 1.453125 C 25.632812 1.453125 25.816406 1.632812 25.816406 1.859375 L 25.816406 27.171875 C 25.816406 27.398438 25.632812 27.582031 25.410156 27.582031 Z M 4.996094 26.765625 L 25 26.765625 L 25 2.269531 L 4.996094 2.269531 Z M 4.996094 26.765625 " fill-opacity="1" fill-rule="nonzero"/></g><g clip-path="url(#5acae42b5f)"><path fill="#ffffff" d="M 22.957031 27.582031 C 22.734375 27.582031 22.550781 27.398438 22.550781 27.171875 L 22.550781 1.859375 C 22.550781 1.632812 22.734375 1.453125 22.957031 1.453125 C 23.183594 1.453125 23.367188 1.632812 23.367188 1.859375 L 23.367188 27.171875 C 23.367188 27.398438 23.183594 27.582031 22.957031 27.582031 Z M 22.957031 27.582031 " fill-opacity="1" fill-rule="nonzero"/></g><g clip-path="url(#6c9804ae4d)"><path fill="#ffffff" d="M 22.957031 25.539062 L 4.585938 25.539062 C 4.359375 25.539062 4.179688 25.355469 4.179688 25.132812 C 4.179688 24.90625 4.359375 24.722656 4.585938 24.722656 L 22.957031 24.722656 C 23.183594 24.722656 23.367188 24.90625 23.367188 25.132812 C 23.367188 25.355469 23.183594 25.539062 22.957031 25.539062 Z M 22.957031 25.539062 " fill-opacity="1" fill-rule="nonzero"/></g><path fill="#ffffff" d="M 20.101562 13.292969 L 8.667969 13.292969 C 7.992188 13.292969 7.445312 12.742188 7.445312 12.066406 L 7.445312 4.308594 C 7.445312 3.632812 7.992188 3.085938 8.667969 3.085938 L 20.101562 3.085938 C 20.777344 3.085938 21.324219 3.632812 21.324219 4.308594 L 21.324219 12.066406 C 21.324219 12.742188 20.777344 13.292969 20.101562 13.292969 Z M 8.667969 3.902344 C 8.445312 3.902344 8.261719 4.082031 8.261719 4.308594 L 8.261719 12.066406 C 8.261719 12.292969 8.445312 12.476562 8.667969 12.476562 L 20.101562 12.476562 C 20.328125 12.476562 20.507812 12.292969 20.507812 12.066406 L 20.507812 4.308594 C 20.507812 4.082031 20.328125 3.902344 20.101562 3.902344 Z M 8.667969 3.902344 " fill-opacity="1" fill-rule="nonzero"/><path fill="#ffffff" d="M 13.570312 23.496094 L 8.667969 23.496094 C 8.546875 23.496094 8.429688 23.441406 8.355469 23.347656 C 8.277344 23.253906 8.246094 23.128906 8.269531 23.007812 L 9.335938 17.679688 C 9.464844 17.027344 10.039062 16.558594 10.703125 16.558594 L 11.535156 16.558594 C 12.199219 16.558594 12.773438 17.027344 12.902344 17.679688 L 13.96875 23.007812 C 13.992188 23.128906 13.960938 23.253906 13.882812 23.347656 C 13.808594 23.441406 13.691406 23.496094 13.570312 23.496094 Z M 9.167969 22.679688 L 13.070312 22.679688 L 12.101562 17.839844 C 12.046875 17.570312 11.808594 17.375 11.535156 17.375 L 10.703125 17.375 C 10.429688 17.375 10.191406 17.570312 10.136719 17.839844 Z M 9.734375 17.757812 Z M 9.734375 17.757812 " fill-opacity="1" fill-rule="nonzero"/><path fill="#ffffff" d="M 11.117188 17.375 C 10.21875 17.375 9.484375 16.640625 9.484375 15.742188 C 9.484375 14.839844 10.21875 14.109375 11.117188 14.109375 C 12.019531 14.109375 12.753906 14.839844 12.753906 15.742188 C 12.753906 16.640625 12.019531 17.375 11.117188 17.375 Z M 11.117188 14.925781 C 10.667969 14.925781 10.300781 15.289062 10.300781 15.742188 C 10.300781 16.191406 10.667969 16.558594 11.117188 16.558594 C 11.570312 16.558594 11.933594 16.191406 11.933594 15.742188 C 11.933594 15.289062 11.570312 14.925781 11.117188 14.925781 Z M 11.117188 14.925781 " fill-opacity="1" fill-rule="nonzero"/><path fill="#ffffff" d="M 20.101562 23.496094 L 15.203125 23.496094 C 15.078125 23.496094 14.964844 23.441406 14.886719 23.347656 C 14.808594 23.253906 14.777344 23.128906 14.800781 23.007812 L 15.867188 17.679688 C 15.996094 17.027344 16.574219 16.558594 17.234375 16.558594 L 18.066406 16.558594 C 18.730469 16.558594 19.304688 17.027344 19.433594 17.679688 L 20.5 23.007812 C 20.523438 23.128906 20.492188 23.253906 20.417969 23.347656 C 20.339844 23.441406 20.222656 23.496094 20.101562 23.496094 Z M 15.699219 22.679688 L 19.601562 22.679688 L 18.632812 17.839844 C 18.582031 17.570312 18.34375 17.375 18.066406 17.375 L 17.234375 17.375 C 16.960938 17.375 16.722656 17.570312 16.667969 17.839844 Z M 15.699219 22.679688 " fill-opacity="1" fill-rule="nonzero"/><path fill="#ffffff" d="M 17.652344 17.375 C 16.75 17.375 16.019531 16.640625 16.019531 15.742188 C 16.019531 14.839844 16.75 14.109375 17.652344 14.109375 C 18.550781 14.109375 19.285156 14.839844 19.285156 15.742188 C 19.285156 16.640625 18.550781 17.375 17.652344 17.375 Z M 17.652344 14.925781 C 17.199219 14.925781 16.835938 15.289062 16.835938 15.742188 C 16.835938 16.191406 17.199219 16.558594 17.652344 16.558594 C 18.101562 16.558594 18.46875 16.191406 18.46875 15.742188 C 18.46875 15.289062 18.101562 14.925781 17.652344 14.925781 Z M 17.652344 14.925781 " fill-opacity="1" fill-rule="nonzero"/><path fill="#ffffff" d="M 22.957031 18.597656 L 21.324219 18.597656 C 21.101562 18.597656 20.917969 18.414062 20.917969 18.191406 L 20.917969 14.515625 C 20.917969 14.289062 21.101562 14.109375 21.324219 14.109375 L 22.957031 14.109375 C 23.183594 14.109375 23.367188 14.289062 23.367188 14.515625 L 23.367188 18.191406 C 23.367188 18.414062 23.183594 18.597656 22.957031 18.597656 Z M 21.734375 17.78125 L 22.550781 17.78125 L 22.550781 14.925781 L 21.734375 14.925781 Z M 21.734375 17.78125 " fill-opacity="1" fill-rule="nonzero"/><path fill="#ffffff" d="M 19.167969 11.660156 L 10.828125 11.660156 C 10.199219 11.660156 9.691406 11.148438 9.691406 10.519531 C 9.691406 10.050781 9.972656 9.636719 10.40625 9.460938 C 10.414062 9.460938 10.421875 9.457031 10.429688 9.453125 L 14.617188 8.085938 C 14.691406 7.683594 14.910156 7.324219 15.238281 7.089844 C 15.347656 7.007812 15.410156 6.878906 15.40625 6.738281 C 15.394531 6.53125 15.21875 6.355469 15.007812 6.351562 C 14.800781 6.34375 14.625 6.496094 14.59375 6.699219 C 14.5625 6.921875 14.355469 7.078125 14.132812 7.042969 C 13.90625 7.011719 13.753906 6.804688 13.785156 6.582031 C 13.875 5.96875 14.410156 5.519531 15.03125 5.535156 C 15.667969 5.550781 16.191406 6.0625 16.222656 6.699219 C 16.242188 7.117188 16.050781 7.507812 15.714844 7.75 C 15.59375 7.839844 15.503906 7.964844 15.453125 8.109375 L 19.5625 9.453125 C 19.574219 9.457031 19.582031 9.460938 19.589844 9.460938 C 20.023438 9.636719 20.304688 10.050781 20.304688 10.519531 C 20.304688 11.148438 19.792969 11.660156 19.167969 11.660156 Z M 10.699219 10.226562 C 10.582031 10.277344 10.507812 10.390625 10.507812 10.519531 C 10.507812 10.695312 10.652344 10.839844 10.828125 10.839844 L 19.167969 10.839844 C 19.34375 10.839844 19.488281 10.695312 19.488281 10.519531 C 19.488281 10.390625 19.414062 10.277344 19.296875 10.226562 L 14.996094 8.820312 Z M 10.699219 10.226562 " fill-opacity="1" fill-rule="nonzero"/></svg>