<svg xmlns="http://www.w3.org/2000/svg" xmlns:xlink="http://www.w3.org/1999/xlink" width="40" zoomAndPan="magnify" viewBox="0 0 30 30.000001" height="40" preserveAspectRatio="xMidYMid meet" version="1.0"><defs><clipPath id="8de5ee725f"><path d="M 0.484375 0 L 29.515625 0 L 29.515625 29.03125 L 0.484375 29.03125 Z M 0.484375 0 " clip-rule="nonzero"/></clipPath><clipPath id="dd557abf3e"><path d="M 2.953125 7 L 21 7 L 21 24.855469 L 2.953125 24.855469 Z M 2.953125 7 " clip-rule="nonzero"/></clipPath><clipPath id="52f2f864e3"><path d="M 20 4.53125 L 24 4.53125 L 24 10 L 20 10 Z M 20 4.53125 " clip-rule="nonzero"/></clipPath><clipPath id="e25da721b3"><path d="M 23 8 L 26.902344 8 L 26.902344 10 L 23 10 Z M 23 8 " clip-rule="nonzero"/></clipPath></defs><g clip-path="url(#8de5ee725f)"><path fill="#ffffff" d="M 0.484375 0 L 29.515625 0 L 29.515625 29.03125 L 0.484375 29.03125 Z M 0.484375 0 " fill-opacity="1" fill-rule="nonzero"/><path fill="#000000" d="M 0.484375 0 L 29.515625 0 L 29.515625 29.03125 L 0.484375 29.03125 Z M 0.484375 0 " fill-opacity="1" fill-rule="nonzero"/></g><g clip-path="url(#dd557abf3e)"><path fill="#ffffff" d="M 19.789062 16.558594 C 19.933594 16.417969 20.015625 16.238281 20.082031 16.054688 C 20.257812 15.550781 20.339844 15.03125 20.394531 14.503906 C 20.492188 13.550781 20.519531 12.59375 20.46875 11.632812 C 20.425781 10.929688 20.375 10.226562 20.203125 9.539062 C 20.128906 9.234375 20.035156 8.9375 19.851562 8.675781 C 19.765625 8.546875 19.65625 8.484375 19.488281 8.496094 C 18.964844 8.535156 18.441406 8.5625 17.917969 8.59375 C 17.375 8.628906 16.835938 8.667969 16.296875 8.707031 C 16.214844 8.714844 16.15625 8.695312 16.097656 8.636719 C 15.660156 8.199219 15.191406 7.796875 14.6875 7.4375 C 14.386719 7.21875 14.078125 7.179688 13.738281 7.328125 C 13.5 7.429688 13.269531 7.550781 13.039062 7.675781 C 12.988281 7.707031 12.953125 7.703125 12.90625 7.664062 C 12.75 7.527344 12.582031 7.414062 12.433594 7.273438 C 12.085938 6.941406 11.722656 6.921875 11.308594 7.152344 C 10.933594 7.359375 10.558594 7.554688 10.214844 7.808594 C 10.128906 7.871094 10.070312 7.886719 9.988281 7.796875 C 9.910156 7.707031 9.808594 7.636719 9.707031 7.570312 C 9.40625 7.367188 9.074219 7.261719 8.707031 7.320312 C 8.253906 7.390625 7.964844 7.671875 7.789062 8.070312 C 7.578125 8.558594 7.398438 9.058594 7.210938 9.554688 C 7.1875 9.617188 7.164062 9.640625 7.105469 9.644531 C 6.953125 9.65625 6.800781 9.660156 6.652344 9.699219 C 6.5625 9.726562 6.488281 9.710938 6.40625 9.671875 C 5.867188 9.410156 5.164062 9.460938 4.871094 10.273438 C 4.535156 11.207031 4.324219 12.160156 4.316406 13.160156 C 4.304688 14.222656 4.351562 15.285156 4.371094 16.347656 C 4.378906 16.851562 4.472656 17.351562 4.726562 17.800781 C 4.769531 17.875 4.78125 17.945312 4.765625 18.027344 C 4.617188 18.75 4.417969 19.457031 4.164062 20.148438 C 3.832031 21.046875 3.425781 21.914062 3.023438 22.78125 C 2.960938 22.914062 2.988281 23.015625 3.089844 23.058594 C 3.191406 23.101562 3.273438 23.058594 3.332031 22.925781 C 3.539062 22.472656 3.75 22.019531 3.949219 21.5625 C 4.363281 20.609375 4.734375 19.640625 4.953125 18.621094 C 4.980469 18.496094 5.003906 18.371094 5.03125 18.234375 C 5.058594 18.253906 5.070312 18.265625 5.082031 18.277344 C 5.535156 18.730469 6.105469 18.96875 6.699219 19.167969 C 6.800781 19.203125 6.882812 19.148438 6.902344 19.042969 C 6.925781 18.929688 6.871094 18.859375 6.769531 18.820312 C 6.585938 18.746094 6.40625 18.671875 6.226562 18.589844 C 5.828125 18.402344 5.460938 18.167969 5.203125 17.796875 C 4.910156 17.371094 4.820312 16.882812 4.800781 16.382812 C 4.773438 15.664062 4.761719 14.941406 4.746094 14.21875 C 4.730469 13.644531 4.691406 13.066406 4.71875 12.488281 C 4.738281 12.046875 4.753906 11.609375 4.777344 11.167969 C 4.800781 10.734375 4.929688 10.339844 5.242188 10.027344 C 5.542969 9.722656 5.914062 9.675781 6.285156 9.886719 C 6.585938 10.054688 6.828125 10.292969 7.058594 10.546875 C 7.527344 11.070312 7.941406 11.644531 8.484375 12.109375 C 8.691406 12.285156 8.648438 12.515625 8.402344 12.640625 C 8.226562 12.726562 8.039062 12.765625 7.84375 12.78125 C 7.167969 12.832031 6.617188 12.582031 6.167969 12.085938 C 6.042969 11.949219 5.945312 11.933594 5.835938 12.027344 C 5.714844 12.132812 5.707031 12.269531 5.820312 12.398438 C 5.914062 12.503906 6.011719 12.609375 6.132812 12.679688 C 6.277344 12.769531 6.316406 12.871094 6.296875 13.050781 C 6.230469 13.75 6.261719 14.449219 6.363281 15.144531 C 6.433594 15.628906 6.566406 16.09375 6.808594 16.519531 C 6.871094 16.628906 6.941406 16.703125 7.078125 16.710938 C 7.269531 16.722656 7.460938 16.757812 7.652344 16.769531 C 8.859375 16.824219 10.066406 16.847656 11.273438 16.832031 C 11.296875 16.832031 11.328125 16.8125 11.347656 16.855469 C 11.121094 16.96875 10.898438 17.085938 10.6875 17.230469 C 10.632812 17.269531 10.507812 17.296875 10.570312 17.398438 C 10.628906 17.503906 10.714844 17.410156 10.777344 17.382812 C 11.378906 17.113281 11.984375 16.859375 12.621094 16.6875 C 12.996094 16.589844 13.375 16.515625 13.785156 16.507812 C 13.691406 16.664062 13.628906 16.820312 13.613281 16.988281 C 13.609375 17.03125 13.582031 17.089844 13.652344 17.109375 C 13.714844 17.125 13.730469 17.070312 13.75 17.027344 C 13.8125 16.910156 13.863281 16.785156 13.949219 16.671875 C 13.984375 16.746094 14.011719 16.816406 14.046875 16.875 C 14.117188 16.996094 14.21875 17.074219 14.359375 17.101562 C 14.40625 17.113281 14.457031 17.121094 14.488281 17.070312 C 14.519531 17.015625 14.496094 16.972656 14.457031 16.929688 C 14.277344 16.753906 14.207031 16.527344 14.210938 16.285156 C 14.21875 15.675781 14.464844 15.179688 14.941406 14.792969 C 15.058594 14.703125 15.070312 14.703125 15.152344 14.828125 C 15.378906 15.171875 15.617188 15.507812 15.824219 15.863281 C 15.964844 16.101562 16.097656 16.34375 16.191406 16.605469 C 16.269531 16.835938 16.210938 17.03125 16.03125 17.179688 C 15.34375 17.738281 14.679688 18.324219 13.949219 18.832031 C 13.441406 19.1875 12.898438 19.476562 12.289062 19.625 C 11.90625 19.71875 11.570312 19.695312 11.246094 19.425781 C 10.871094 19.117188 10.433594 18.894531 9.984375 18.707031 C 9.945312 18.691406 9.90625 18.667969 9.859375 18.667969 C 9.808594 18.664062 9.761719 18.671875 9.742188 18.726562 C 9.722656 18.777344 9.714844 18.832031 9.757812 18.871094 C 9.785156 18.898438 9.820312 18.921875 9.855469 18.941406 C 10.066406 19.070312 10.277344 19.203125 10.492188 19.328125 C 10.839844 19.53125 11.152344 19.792969 11.523438 19.984375 C 11.382812 20.144531 11.238281 20.292969 11.113281 20.460938 C 10.257812 21.582031 9.695312 22.84375 9.320312 24.195312 C 9.28125 24.339844 9.332031 24.433594 9.457031 24.460938 C 9.570312 24.488281 9.648438 24.425781 9.683594 24.285156 C 9.75 24.011719 9.828125 23.742188 9.914062 23.476562 C 10.285156 22.304688 10.878906 21.238281 11.523438 20.199219 C 11.597656 20.074219 11.671875 20.011719 11.832031 20 C 12.414062 19.960938 12.957031 19.773438 13.472656 19.503906 C 14.074219 19.1875 14.605469 18.777344 15.128906 18.351562 C 15.507812 18.042969 15.886719 17.734375 16.261719 17.417969 C 16.414062 17.289062 16.53125 17.128906 16.550781 16.921875 C 16.558594 16.820312 16.597656 16.796875 16.699219 16.796875 C 17.609375 16.8125 18.519531 16.785156 19.429688 16.730469 C 19.570312 16.71875 19.6875 16.660156 19.789062 16.5625 Z M 7.058594 13.25 C 6.996094 13.972656 7.007812 14.699219 7.003906 15.421875 C 7 15.671875 7.003906 15.917969 6.980469 16.167969 C 6.550781 15.148438 6.542969 14.078125 6.605469 12.988281 C 6.753906 13.039062 6.878906 13.085938 7.007812 13.125 C 7.085938 13.148438 7.0625 13.203125 7.058594 13.25 Z M 13.28125 7.917969 C 13.558594 7.796875 13.816406 7.632812 14.121094 7.574219 C 14.191406 7.5625 14.253906 7.570312 14.316406 7.601562 C 14.628906 7.757812 14.890625 7.980469 15.15625 8.203125 C 15.675781 8.636719 16.128906 9.140625 16.613281 9.617188 C 16.753906 9.757812 16.734375 9.84375 16.550781 9.9375 C 16.355469 10.039062 16.144531 10.042969 15.941406 10.039062 C 15.601562 10.046875 15.285156 9.992188 14.976562 9.886719 C 14.9375 9.871094 14.890625 9.867188 14.878906 9.808594 C 14.808594 9.4375 14.558594 9.179688 14.296875 8.9375 C 13.964844 8.621094 13.628906 8.3125 13.292969 8.003906 C 13.269531 7.980469 13.203125 7.953125 13.28125 7.921875 Z M 7.445312 9.574219 C 7.683594 9.152344 7.832031 8.695312 8.019531 8.253906 C 8.320312 7.550781 8.910156 7.375 9.558594 7.789062 C 9.882812 7.996094 10.125 8.292969 10.359375 8.59375 C 10.660156 8.984375 10.945312 9.386719 11.144531 9.839844 C 11.191406 9.9375 11.222656 10.042969 11.238281 10.148438 C 11.289062 10.429688 11.160156 10.613281 10.875 10.664062 C 10.652344 10.703125 10.445312 10.648438 10.25 10.554688 C 9.886719 10.378906 9.628906 10.089844 9.378906 9.792969 C 9.132812 9.503906 8.894531 9.203125 8.578125 8.980469 C 8.515625 8.9375 8.453125 8.902344 8.386719 8.96875 C 8.3125 9.039062 8.324219 9.125 8.417969 9.191406 C 8.519531 9.261719 8.617188 9.339844 8.707031 9.425781 C 8.734375 9.449219 8.773438 9.46875 8.78125 9.527344 C 8.339844 9.554688 7.898438 9.582031 7.449219 9.613281 C 7.449219 9.589844 7.445312 9.578125 7.449219 9.574219 Z M 16.617188 16.535156 C 16.566406 16.535156 16.527344 16.539062 16.503906 16.476562 C 16.277344 15.882812 15.921875 15.355469 15.566406 14.832031 C 15.503906 14.738281 15.4375 14.640625 15.363281 14.550781 C 15.195312 14.34375 15.011719 14.316406 14.796875 14.476562 C 14.464844 14.722656 14.222656 15.042969 14.066406 15.429688 C 13.992188 15.617188 13.9375 15.816406 13.921875 16.019531 C 13.914062 16.085938 13.890625 16.113281 13.824219 16.128906 C 13.324219 16.246094 12.820312 16.332031 12.324219 16.46875 C 12.175781 16.511719 12.007812 16.484375 11.847656 16.488281 C 10.667969 16.53125 9.488281 16.5 8.308594 16.464844 C 7.992188 16.453125 7.675781 16.457031 7.359375 16.460938 C 7.28125 16.460938 7.25 16.453125 7.265625 16.359375 C 7.289062 16.210938 7.289062 16.0625 7.292969 15.914062 C 7.296875 15.3125 7.300781 14.710938 7.273438 14.113281 C 7.261719 13.828125 7.222656 13.546875 7.191406 13.261719 C 7.179688 13.179688 7.195312 13.167969 7.28125 13.179688 C 7.675781 13.238281 8.066406 13.21875 8.441406 13.070312 C 8.675781 12.976562 8.867188 12.832031 8.96875 12.589844 C 9.050781 12.394531 9.039062 12.207031 8.929688 12.027344 C 8.875 11.9375 8.808594 11.851562 8.730469 11.785156 C 8.339844 11.460938 8.007812 11.078125 7.667969 10.707031 C 7.445312 10.46875 7.21875 10.238281 6.957031 10.023438 C 7.070312 9.972656 7.179688 9.984375 7.28125 9.972656 C 7.851562 9.914062 8.421875 9.863281 8.992188 9.804688 C 9.050781 9.800781 9.078125 9.828125 9.109375 9.863281 C 9.289062 10.074219 9.460938 10.292969 9.667969 10.476562 C 9.949219 10.722656 10.261719 10.902344 10.640625 10.9375 C 10.808594 10.953125 10.96875 10.929688 11.125 10.867188 C 11.425781 10.742188 11.558594 10.480469 11.507812 10.132812 C 11.453125 9.800781 11.300781 9.511719 11.117188 9.238281 C 10.847656 8.832031 10.574219 8.425781 10.25 8.058594 C 10.199219 8 10.210938 7.976562 10.277344 7.953125 C 10.695312 7.792969 11.085938 7.589844 11.480469 7.378906 C 11.738281 7.238281 11.949219 7.25 12.1875 7.441406 C 12.75 7.886719 13.277344 8.375 13.785156 8.882812 C 13.992188 9.089844 14.207031 9.285156 14.378906 9.527344 C 14.453125 9.636719 14.519531 9.75 14.53125 9.886719 C 14.542969 10.023438 14.492188 10.128906 14.382812 10.210938 C 14.203125 10.34375 13.992188 10.394531 13.773438 10.398438 C 12.992188 10.414062 12.363281 10.085938 11.839844 9.527344 C 11.664062 9.339844 11.5 9.144531 11.332031 8.953125 C 11.28125 8.898438 11.226562 8.886719 11.171875 8.925781 C 11.117188 8.964844 11.117188 9.023438 11.148438 9.078125 C 11.574219 9.777344 12.117188 10.34375 12.925781 10.59375 C 13.351562 10.726562 13.785156 10.796875 14.226562 10.671875 C 14.480469 10.601562 14.691406 10.472656 14.816406 10.234375 C 14.847656 10.171875 14.882812 10.191406 14.921875 10.207031 C 15.347656 10.34375 15.78125 10.398438 16.226562 10.351562 C 16.445312 10.328125 16.65625 10.277344 16.832031 10.140625 C 17.066406 9.957031 17.101562 9.71875 16.929688 9.476562 C 16.832031 9.339844 16.703125 9.238281 16.585938 9.125 C 16.546875 9.089844 16.503906 9.0625 16.472656 8.996094 C 16.621094 8.984375 16.765625 8.972656 16.90625 8.964844 C 17.765625 8.910156 18.625 8.855469 19.484375 8.800781 C 19.5625 8.796875 19.59375 8.839844 19.628906 8.886719 C 19.75 9.050781 19.808594 9.242188 19.867188 9.433594 C 20.003906 9.878906 20.058594 10.335938 20.105469 10.792969 C 20.1875 11.617188 20.210938 12.449219 20.179688 13.277344 C 20.148438 14.078125 20.09375 14.878906 19.894531 15.660156 C 19.84375 15.847656 19.78125 16.035156 19.683594 16.207031 C 19.601562 16.351562 19.496094 16.429688 19.3125 16.441406 C 18.414062 16.496094 17.515625 16.515625 16.617188 16.535156 Z M 16.617188 16.535156 " fill-opacity="1" fill-rule="nonzero"/></g><path fill="#ffffff" d="M 25.714844 21.726562 C 25.6875 21.726562 25.660156 21.726562 25.632812 21.726562 C 25.121094 21.722656 24.625 21.800781 24.136719 21.933594 C 23.585938 22.078125 23.039062 22.230469 22.464844 22.242188 C 21.96875 22.25 21.488281 22.191406 21.03125 21.984375 C 20.613281 21.789062 20.335938 21.476562 20.261719 21.011719 C 20.21875 20.769531 20.214844 20.523438 20.242188 20.28125 C 20.324219 19.554688 20.25 18.851562 19.960938 18.171875 C 19.832031 17.867188 19.734375 17.550781 19.652344 17.230469 C 19.636719 17.171875 19.617188 17.113281 19.597656 17.058594 C 19.582031 17.019531 19.558594 16.984375 19.507812 16.988281 C 19.457031 16.992188 19.433594 17.027344 19.425781 17.074219 C 19.417969 17.140625 19.414062 17.203125 19.421875 17.269531 C 19.46875 17.613281 19.582031 17.9375 19.714844 18.253906 C 19.949219 18.820312 20.074219 19.398438 20.007812 20.011719 C 19.980469 20.285156 19.96875 20.5625 19.988281 20.839844 C 20.023438 21.394531 20.269531 21.824219 20.75 22.113281 C 20.882812 22.191406 21.019531 22.257812 21.164062 22.308594 C 21.742188 22.507812 22.34375 22.601562 22.957031 22.617188 C 23.523438 22.632812 24.09375 22.660156 24.65625 22.742188 C 24.945312 22.785156 25.222656 22.855469 25.476562 23.003906 C 25.542969 23.042969 25.601562 23.042969 25.640625 22.972656 C 25.683594 22.902344 25.652344 22.847656 25.585938 22.8125 C 25.460938 22.738281 25.332031 22.683594 25.191406 22.640625 C 24.886719 22.542969 24.566406 22.507812 24.246094 22.472656 C 23.964844 22.441406 23.683594 22.421875 23.398438 22.390625 C 23.46875 22.375 23.535156 22.355469 23.605469 22.339844 C 24.296875 22.164062 24.980469 21.945312 25.707031 22.015625 C 25.789062 22.019531 25.84375 21.96875 25.847656 21.882812 C 25.851562 21.796875 25.808594 21.738281 25.714844 21.730469 Z M 25.714844 21.726562 " fill-opacity="1" fill-rule="nonzero"/><g clip-path="url(#52f2f864e3)"><path fill="#ffffff" d="M 20.609375 9.832031 C 20.652344 9.8125 20.699219 9.792969 20.734375 9.765625 C 21.691406 8.96875 22.222656 7.957031 22.296875 6.714844 C 22.316406 6.429688 22.351562 6.152344 22.539062 5.921875 C 22.902344 5.472656 23.269531 5.03125 23.792969 4.746094 C 23.8125 4.734375 23.832031 4.722656 23.851562 4.707031 C 23.890625 4.679688 23.917969 4.648438 23.894531 4.597656 C 23.875 4.550781 23.835938 4.53125 23.78125 4.53125 C 23.609375 4.558594 23.449219 4.628906 23.304688 4.730469 C 23.019531 4.921875 22.8125 5.1875 22.585938 5.433594 C 22.242188 5.808594 22.070312 6.230469 22.042969 6.742188 C 21.976562 7.886719 21.488281 8.824219 20.589844 9.542969 C 20.546875 9.578125 20.511719 9.625 20.476562 9.667969 C 20.445312 9.710938 20.441406 9.757812 20.484375 9.800781 C 20.519531 9.839844 20.558594 9.859375 20.609375 9.832031 Z M 20.609375 9.832031 " fill-opacity="1" fill-rule="nonzero"/></g><path fill="#ffffff" d="M 20.601562 16.121094 C 20.503906 16.117188 20.425781 16.144531 20.429688 16.25 C 20.429688 16.355469 20.507812 16.390625 20.605469 16.386719 C 20.984375 16.382812 21.363281 16.386719 21.746094 16.382812 C 21.910156 16.378906 22.074219 16.371094 22.238281 16.359375 C 22.386719 16.351562 22.449219 16.25 22.371094 16.136719 C 22.152344 15.804688 21.871094 15.554688 21.480469 15.445312 C 21.175781 15.359375 20.859375 15.339844 20.550781 15.253906 C 20.53125 15.25 20.503906 15.25 20.480469 15.25 C 20.4375 15.253906 20.390625 15.257812 20.375 15.308594 C 20.359375 15.359375 20.382812 15.394531 20.414062 15.425781 C 20.484375 15.496094 20.574219 15.523438 20.664062 15.542969 C 20.832031 15.578125 21 15.613281 21.167969 15.644531 C 21.492188 15.699219 21.78125 15.824219 22.003906 16.09375 C 21.917969 16.128906 21.84375 16.117188 21.765625 16.121094 C 21.378906 16.132812 20.988281 16.140625 20.601562 16.121094 Z M 20.601562 16.121094 " fill-opacity="1" fill-rule="nonzero"/><g clip-path="url(#e25da721b3)"><path fill="#ffffff" d="M 26.988281 9.070312 C 26.949219 8.984375 26.882812 8.960938 26.792969 9 C 26.730469 9.027344 26.667969 9.054688 26.601562 9.078125 C 26.105469 9.253906 25.589844 9.273438 25.070312 9.238281 C 24.550781 9.207031 24.035156 9.144531 23.578125 8.855469 C 23.535156 8.828125 23.496094 8.820312 23.460938 8.863281 C 23.429688 8.914062 23.460938 8.945312 23.5 8.976562 C 23.589844 9.050781 23.691406 9.117188 23.800781 9.171875 C 24.324219 9.425781 24.886719 9.480469 25.46875 9.503906 C 25.597656 9.5 25.738281 9.492188 25.878906 9.480469 C 26.230469 9.449219 26.574219 9.378906 26.898438 9.234375 C 26.972656 9.203125 27.027344 9.15625 26.988281 9.070312 Z M 26.988281 9.070312 " fill-opacity="1" fill-rule="nonzero"/></g><path fill="#ffffff" d="M 21.195312 12.511719 C 21.144531 12.542969 21.109375 12.574219 21.140625 12.636719 C 21.167969 12.699219 21.226562 12.683594 21.277344 12.683594 C 21.421875 12.683594 21.472656 12.632812 21.417969 12.535156 C 21.308594 12.320312 21.140625 12.175781 20.90625 12.109375 C 20.863281 12.097656 20.804688 12.078125 20.785156 12.144531 C 20.765625 12.203125 20.828125 12.210938 20.863281 12.230469 C 20.984375 12.28125 21.09375 12.34375 21.171875 12.449219 C 21.1875 12.464844 21.226562 12.492188 21.191406 12.511719 Z M 21.195312 12.511719 " fill-opacity="1" fill-rule="nonzero"/><path fill="#ffffff" d="M 20.027344 12.9375 C 20.085938 12.871094 20.066406 12.804688 20 12.75 C 19.984375 12.738281 19.96875 12.726562 19.949219 12.714844 C 19.476562 12.34375 19.015625 11.960938 18.601562 11.519531 C 18.539062 11.449219 18.472656 11.378906 18.425781 11.292969 C 18.339844 11.148438 18.363281 11.085938 18.507812 11.007812 C 18.867188 10.816406 19.238281 10.640625 19.578125 10.410156 C 19.605469 10.390625 19.636719 10.367188 19.664062 10.34375 C 19.683594 10.324219 19.6875 10.292969 19.675781 10.265625 C 19.664062 10.238281 19.644531 10.230469 19.609375 10.230469 C 19.601562 10.234375 19.585938 10.238281 19.570312 10.242188 C 19.125 10.410156 18.710938 10.648438 18.289062 10.871094 C 18.191406 10.921875 18.152344 11.015625 18.15625 11.132812 C 18.15625 11.3125 18.242188 11.445312 18.347656 11.574219 C 18.492188 11.75 18.667969 11.902344 18.835938 12.058594 C 19.160156 12.363281 19.507812 12.652344 19.863281 12.925781 C 19.917969 12.96875 19.972656 13.007812 20.027344 12.9375 Z M 20.027344 12.9375 " fill-opacity="1" fill-rule="nonzero"/><path fill="#ffffff" d="M 14.953125 11.101562 C 14.925781 11.101562 14.90625 11.117188 14.839844 11.199219 C 14.410156 11.714844 14.117188 12.300781 13.894531 12.929688 C 13.847656 13.0625 13.832031 13.203125 13.871094 13.34375 C 13.933594 13.550781 13.949219 13.765625 13.972656 13.980469 C 13.988281 14.128906 14.023438 14.273438 14.113281 14.398438 C 14.15625 14.460938 14.21875 14.484375 14.289062 14.441406 C 14.359375 14.398438 14.355469 14.339844 14.3125 14.277344 C 14.25 14.179688 14.21875 14.074219 14.207031 13.960938 C 14.179688 13.753906 14.175781 13.546875 14.113281 13.34375 C 14.074219 13.210938 14.089844 13.085938 14.136719 12.957031 C 14.289062 12.542969 14.476562 12.144531 14.699219 11.765625 C 14.800781 11.59375 14.90625 11.421875 15.011719 11.253906 C 15.035156 11.214844 15.050781 11.179688 15.023438 11.140625 C 15.011719 11.117188 14.984375 11.101562 14.953125 11.101562 Z M 14.953125 11.101562 " fill-opacity="1" fill-rule="nonzero"/><path fill="#ffffff" d="M 19.789062 15.578125 C 19.867188 15.507812 19.847656 15.433594 19.78125 15.359375 C 19.644531 15.210938 19.507812 15.054688 19.367188 14.90625 C 19.214844 14.742188 19.210938 14.726562 19.335938 14.539062 C 19.554688 14.207031 19.765625 13.875 19.949219 13.523438 C 19.976562 13.472656 19.996094 13.425781 19.941406 13.386719 C 19.886719 13.347656 19.851562 13.390625 19.820312 13.425781 C 19.554688 13.761719 19.289062 14.097656 19.066406 14.46875 C 19.023438 14.542969 18.980469 14.621094 18.992188 14.710938 C 18.976562 14.847656 19.050781 14.945312 19.128906 15.035156 C 19.273438 15.203125 19.425781 15.367188 19.574219 15.539062 C 19.636719 15.605469 19.703125 15.65625 19.789062 15.578125 Z M 19.789062 15.578125 " fill-opacity="1" fill-rule="nonzero"/></svg>