<?xml version="1.0" encoding="utf-8"?>
<!-- Generator: Adobe Illustrator 26.0.1, SVG Export Plug-In . SVG Version: 6.00 Build 0)  -->
<svg version="1.1" id="Layer_1" xmlns="http://www.w3.org/2000/svg" xmlns:xlink="http://www.w3.org/1999/xlink" x="0px" y="0px"
	 viewBox="0 0 32 32" style="enable-background:new 0 0 32 32;" xml:space="preserve">
<style type="text/css">
	.st0{fill:#FFFFFF;}
	.st1{fill:none;stroke:#FFFFFF;stroke-width:0.5;stroke-miterlimit:10;}
	.st2{clip-path:url(#SVGID_00000134215602602741311680000015676239542380128427_);}
	.st3{fill:#4D3C24;}
	.st4{clip-path:url(#SVGID_00000137093201282368909010000004146291122442616712_);}
</style>
<g>
	<g>
		<g>
			<g>
				<path class="st0" d="M5.2,16.5h2v0.6H6v0.8h1.2v0.6H6v1.4H5.2V16.5z"/>
				<path class="st0" d="M8.6,16.5v3.4H7.8v-3.4C7.8,16.5,8.6,16.5,8.6,16.5z"/>
				<path class="st0" d="M9.3,16.5c0.3,0,0.6-0.1,1-0.1c0.5,0,0.9,0.1,1.1,0.3c0.2,0.2,0.3,0.4,0.3,0.7c0,0.4-0.3,0.7-0.6,0.8l0,0
					c0.2,0.1,0.4,0.3,0.5,0.6c0.1,0.4,0.2,0.8,0.3,0.9H11c-0.1-0.1-0.1-0.4-0.2-0.8c-0.1-0.4-0.2-0.5-0.5-0.5h-0.2v1.3H9.3V16.5z
					 M10.1,18h0.3c0.4,0,0.6-0.2,0.6-0.5S10.9,17,10.4,17c-0.2,0-0.3,0-0.3,0V18z"/>
				<path class="st0" d="M12.3,19.1c0.2,0.1,0.5,0.2,0.8,0.2c0.4,0,0.6-0.2,0.6-0.4c0-0.2-0.2-0.3-0.6-0.5c-0.6-0.2-0.9-0.5-0.9-1
					c0-0.6,0.5-1,1.3-1c0.4,0,0.6,0.1,0.8,0.2l-0.2,0.6c-0.1-0.1-0.4-0.1-0.7-0.1S13,17.3,13,17.4c0,0.2,0.2,0.3,0.6,0.5
					c0.6,0.2,0.9,0.6,0.9,1c0,0.6-0.5,1-1.4,1c-0.4,0-0.7-0.1-0.9-0.2L12.3,19.1z"/>
				<path class="st0" d="M15.6,17.1h-0.9v-0.6h2.6v0.6h-0.9v2.7h-0.8C15.6,19.8,15.6,17.1,15.6,17.1z"/>
				<path class="st0" d="M19.4,19l-0.2,0.8h-0.8l1-3.4h1l1,3.4h-0.8L20.4,19H19.4z M20.3,18.4l-0.2-0.7C20,17.5,20,17.2,19.9,17l0,0
					c0,0.2-0.1,0.5-0.2,0.7l-0.2,0.7H20.3z"/>
				<path class="st0" d="M22.8,16.5v3.4H22v-3.4C21.9,16.5,22.8,16.5,22.8,16.5z"/>
				<path class="st0" d="M23.4,16.5c0.3,0,0.6-0.1,1-0.1c0.6,0,1,0.1,1.3,0.3c0.4,0.3,0.6,0.7,0.6,1.3c0,0.7-0.2,1.1-0.6,1.4
					c-0.3,0.3-0.9,0.4-1.5,0.4c-0.4,0-0.6,0-0.8,0V16.5z M24.2,19.3c0.1,0,0.2,0,0.2,0c0.6,0,1.1-0.4,1.1-1.2c0-0.7-0.4-1.1-1-1.1
					c-0.1,0-0.2,0-0.3,0C24.2,17,24.2,19.3,24.2,19.3z"/>
			</g>
		</g>
		<g>
			<path class="st1" d="M18.1,10.9h-1v-0.6c0-0.3-0.2-0.5-0.5-0.5h-1.5c-0.3,0-0.5,0.2-0.5,0.5v0.5h-1c-0.4,0-0.7,0.3-0.7,0.7l0,0
				v2.8c0,0.4,0.3,0.7,0.7,0.7l0,0h4.5c0.4,0,0.7-0.3,0.8-0.7v-2.7C18.8,11.2,18.5,10.9,18.1,10.9z M17,13.3h-0.7V14h-0.9v-0.7h-0.7
				v-0.8h0.7v-0.7h0.8v0.7H17V13.3z"/>
		</g>
		<g>
			<g>
				<g>
					<defs>
						<rect id="SVGID_1_" x="1.6" y="13.3" width="28.7" height="8.9"/>
					</defs>
					<clipPath id="SVGID_00000169522822380734513900000003248118041370392745_">
						<use xlink:href="#SVGID_1_"  style="overflow:visible;"/>
					</clipPath>
					<g style="clip-path:url(#SVGID_00000169522822380734513900000003248118041370392745_);">
						<path class="st3" d="M21.3,14c0,0.2,0.2,0.4,0.4,0.4l0,0h7.9v7H2.3v-7h7.9c0.2,0,0.4-0.2,0.4-0.4s-0.2-0.4-0.4-0.4H1.6v8.5
							h28.6v-8.5h-8.6C21.4,13.6,21.3,13.8,21.3,14z"/>
					</g>
				</g>
			</g>
			<g>
				<g>
					<defs>
						<rect id="SVGID_00000034083275967896557540000001965772465548788647_" x="1.6" y="13.3" width="28.7" height="8.9"/>
					</defs>
					<clipPath id="SVGID_00000183246978564804580570000004488594158496284055_">
						<use xlink:href="#SVGID_00000034083275967896557540000001965772465548788647_"  style="overflow:visible;"/>
					</clipPath>
					<g style="clip-path:url(#SVGID_00000183246978564804580570000004488594158496284055_);">
						<path class="st0" d="M21.3,14c0,0.2,0.2,0.4,0.4,0.4l0,0h7.9v7H2.3v-7h7.9c0.2,0,0.4-0.2,0.4-0.4s-0.2-0.4-0.4-0.4H1.6v8.5
							h28.6v-8.5h-8.6C21.4,13.6,21.3,13.8,21.3,14z"/>
					</g>
				</g>
			</g>
			<g>
				<g>
					<defs>
						<rect id="SVGID_00000128464744408979981000000004855908575820581515_" x="1.6" y="13.3" width="28.7" height="8.9"/>
					</defs>
					<clipPath id="SVGID_00000055669534690249063050000002320580779230924223_">
						<use xlink:href="#SVGID_00000128464744408979981000000004855908575820581515_"  style="overflow:visible;"/>
					</clipPath>
				</g>
			</g>
		</g>
		<path class="st0" d="M16.6,10.2h-1.3c-0.2,0-0.3,0.1-0.3,0.2v0.5c0,0.1,0.1,0.2,0.2,0.2h1.3c0.1,0,0.2-0.1,0.2-0.2v-0.5
			C16.8,10.3,16.8,10.2,16.6,10.2z M16.6,10.8c0,0.1,0,0.1-0.1,0.1h-1.1c-0.1,0-0.1,0-0.1-0.1v-0.3c0-0.1,0-0.1,0.1-0.1h1.1
			c0.1,0,0.1,0.1,0.1,0.1V10.8z"/>
	</g>
	<g>
		<g>
			<g>
				<g>
					<defs>
						<rect id="SVGID_00000016768662496245455470000010810347376121447302_" x="1.6" y="13.3" width="28.7" height="8.9"/>
					</defs>
					<clipPath id="SVGID_00000076595433805148539110000005577258509396506290_">
						<use xlink:href="#SVGID_00000016768662496245455470000010810347376121447302_"  style="overflow:visible;"/>
					</clipPath>
				</g>
			</g>
			<g>
				<g>
					<defs>
						<rect id="SVGID_00000065066339210540759450000009596357698495940275_" x="1.6" y="13.3" width="28.7" height="8.9"/>
					</defs>
					<clipPath id="SVGID_00000132782033866338465330000010936282787152736921_">
						<use xlink:href="#SVGID_00000065066339210540759450000009596357698495940275_"  style="overflow:visible;"/>
					</clipPath>
				</g>
			</g>
			<g>
				<g>
					<defs>
						<rect id="SVGID_00000062165772030104979930000004303138387662648960_" x="1.6" y="13.3" width="28.7" height="8.9"/>
					</defs>
					<clipPath id="SVGID_00000022524379897103561600000006056061252072345523_">
						<use xlink:href="#SVGID_00000062165772030104979930000004303138387662648960_"  style="overflow:visible;"/>
					</clipPath>
				</g>
			</g>
		</g>
	</g>
	<g>
		<g>
			<g>
				<g>
					<defs>
						<rect id="SVGID_00000086686096724313918750000018067614058187298734_" x="1.6" y="13.3" width="28.7" height="8.9"/>
					</defs>
					<clipPath id="SVGID_00000183222354004479331320000006441635314631944323_">
						<use xlink:href="#SVGID_00000086686096724313918750000018067614058187298734_"  style="overflow:visible;"/>
					</clipPath>
				</g>
			</g>
			<g>
				<g>
					<defs>
						<rect id="SVGID_00000130642484713428233320000005219696223819946650_" x="1.6" y="13.3" width="28.7" height="8.9"/>
					</defs>
					<clipPath id="SVGID_00000116934449349603299610000000145342389540912801_">
						<use xlink:href="#SVGID_00000130642484713428233320000005219696223819946650_"  style="overflow:visible;"/>
					</clipPath>
				</g>
			</g>
			<g>
				<g>
					<defs>
						<rect id="SVGID_00000036222828811696574460000014615797422566857373_" x="1.6" y="13.3" width="28.7" height="8.9"/>
					</defs>
					<clipPath id="SVGID_00000145033365947975646020000004531756905912120745_">
						<use xlink:href="#SVGID_00000036222828811696574460000014615797422566857373_"  style="overflow:visible;"/>
					</clipPath>
				</g>
			</g>
		</g>
	</g>
</g>
</svg>
