<svg xmlns="http://www.w3.org/2000/svg" xmlns:xlink="http://www.w3.org/1999/xlink" width="40" zoomAndPan="magnify" viewBox="0 0 30 30.000001" height="40" preserveAspectRatio="xMidYMid meet" version="1.0"><defs><clipPath id="a11fbab484"><path d="M 0.484375 0 L 29.515625 0 L 29.515625 29.03125 L 0.484375 29.03125 Z M 0.484375 0 " clip-rule="nonzero"/></clipPath><clipPath id="79a4dd5c17"><path d="M 2.296875 7 L 27.699219 7 L 27.699219 23.953125 L 2.296875 23.953125 Z M 2.296875 7 " clip-rule="nonzero"/></clipPath><clipPath id="379446fc16"><path d="M 8 2.902344 L 22 2.902344 L 22 8 L 8 8 Z M 8 2.902344 " clip-rule="nonzero"/></clipPath></defs><g clip-path="url(#a11fbab484)"><path fill="#ffffff" d="M 0.484375 0 L 29.515625 0 L 29.515625 29.03125 L 0.484375 29.03125 Z M 0.484375 0 " fill-opacity="1" fill-rule="nonzero"/><path fill="#000000" d="M 0.484375 0 L 29.515625 0 L 29.515625 29.03125 L 0.484375 29.03125 Z M 0.484375 0 " fill-opacity="1" fill-rule="nonzero"/></g><path fill="#ffffff" d="M 16.902344 20.570312 L 13.308594 20.570312 C 13.222656 20.570312 13.148438 20.539062 13.085938 20.480469 C 13.027344 20.417969 12.996094 20.34375 12.996094 20.257812 L 12.996094 17.8125 L 10.546875 17.8125 C 10.460938 17.8125 10.386719 17.78125 10.328125 17.71875 C 10.265625 17.660156 10.234375 17.585938 10.234375 17.5 L 10.234375 13.90625 C 10.234375 13.820312 10.265625 13.746094 10.328125 13.683594 C 10.386719 13.625 10.460938 13.59375 10.546875 13.59375 L 12.996094 13.59375 L 12.996094 11.144531 C 12.996094 11.058594 13.027344 10.984375 13.085938 10.925781 C 13.148438 10.863281 13.222656 10.832031 13.308594 10.832031 L 16.902344 10.832031 C 16.988281 10.832031 17.0625 10.863281 17.125 10.925781 C 17.183594 10.984375 17.214844 11.058594 17.214844 11.144531 L 17.214844 13.59375 L 19.664062 13.59375 C 19.75 13.59375 19.824219 13.625 19.882812 13.683594 C 19.945312 13.746094 19.976562 13.820312 19.976562 13.90625 L 19.976562 17.5 C 19.976562 17.585938 19.945312 17.660156 19.882812 17.71875 C 19.824219 17.78125 19.75 17.8125 19.664062 17.8125 L 17.214844 17.8125 L 17.214844 20.257812 C 17.214844 20.34375 17.183594 20.417969 17.125 20.480469 C 17.0625 20.539062 16.988281 20.570312 16.902344 20.570312 Z M 13.621094 19.949219 L 16.589844 19.949219 L 16.589844 17.5 C 16.589844 17.414062 16.621094 17.339844 16.683594 17.277344 C 16.742188 17.21875 16.816406 17.1875 16.902344 17.1875 L 19.351562 17.1875 L 19.351562 14.21875 L 16.902344 14.21875 C 16.816406 14.21875 16.742188 14.1875 16.683594 14.125 C 16.621094 14.066406 16.589844 13.992188 16.589844 13.90625 L 16.589844 11.457031 L 13.621094 11.457031 L 13.621094 13.90625 C 13.621094 13.992188 13.589844 14.066406 13.527344 14.125 C 13.46875 14.1875 13.394531 14.21875 13.308594 14.21875 L 10.859375 14.21875 L 10.859375 17.1875 L 13.308594 17.1875 C 13.394531 17.1875 13.46875 17.21875 13.527344 17.277344 C 13.589844 17.339844 13.621094 17.414062 13.621094 17.5 Z M 13.621094 19.949219 " fill-opacity="1" fill-rule="nonzero"/><g clip-path="url(#79a4dd5c17)"><path fill="#ffffff" d="M 26.175781 24.066406 L 4.035156 24.066406 C 3.804688 24.066406 3.585938 24.023438 3.371094 23.933594 C 3.15625 23.847656 2.96875 23.722656 2.804688 23.558594 C 2.644531 23.394531 2.515625 23.207031 2.429688 22.992188 C 2.339844 22.78125 2.296875 22.558594 2.296875 22.328125 L 2.296875 9.011719 C 2.296875 8.78125 2.339844 8.558594 2.429688 8.34375 C 2.519531 8.132812 2.644531 7.945312 2.804688 7.78125 C 2.96875 7.617188 3.15625 7.492188 3.371094 7.402344 C 3.585938 7.316406 3.804688 7.269531 4.035156 7.269531 L 26.175781 7.269531 C 26.40625 7.269531 26.628906 7.316406 26.839844 7.402344 C 27.054688 7.492188 27.242188 7.617188 27.40625 7.78125 C 27.566406 7.945312 27.695312 8.132812 27.78125 8.34375 C 27.871094 8.558594 27.914062 8.78125 27.914062 9.011719 L 27.914062 22.328125 C 27.914062 22.558594 27.871094 22.78125 27.78125 22.992188 C 27.695312 23.207031 27.566406 23.394531 27.40625 23.558594 C 27.242188 23.722656 27.054688 23.847656 26.839844 23.933594 C 26.628906 24.023438 26.40625 24.066406 26.175781 24.066406 Z M 4.035156 7.894531 C 3.886719 7.894531 3.746094 7.921875 3.609375 7.980469 C 3.472656 8.035156 3.351562 8.117188 3.246094 8.222656 C 3.144531 8.328125 3.0625 8.445312 3.003906 8.582031 C 2.949219 8.71875 2.921875 8.863281 2.921875 9.011719 L 2.921875 22.328125 C 2.921875 22.476562 2.949219 22.617188 3.003906 22.753906 C 3.0625 22.890625 3.144531 23.011719 3.246094 23.117188 C 3.351562 23.222656 3.472656 23.300781 3.609375 23.359375 C 3.746094 23.414062 3.886719 23.445312 4.035156 23.445312 L 26.175781 23.445312 C 26.324219 23.445312 26.464844 23.414062 26.601562 23.359375 C 26.738281 23.300781 26.859375 23.222656 26.964844 23.117188 C 27.066406 23.011719 27.148438 22.890625 27.207031 22.753906 C 27.261719 22.617188 27.289062 22.476562 27.289062 22.328125 L 27.289062 9.011719 C 27.289062 8.863281 27.261719 8.71875 27.207031 8.582031 C 27.148438 8.445312 27.066406 8.328125 26.964844 8.222656 C 26.859375 8.117188 26.738281 8.035156 26.601562 7.980469 C 26.464844 7.921875 26.324219 7.894531 26.175781 7.894531 Z M 4.035156 7.894531 " fill-opacity="1" fill-rule="nonzero"/></g><path fill="#ffffff" d="M 18.699219 7.894531 L 11.511719 7.894531 C 11.425781 7.894531 11.351562 7.863281 11.289062 7.804688 C 11.230469 7.742188 11.199219 7.667969 11.199219 7.582031 L 11.199219 5.957031 C 11.199219 5.765625 11.234375 5.585938 11.308594 5.410156 C 11.378906 5.238281 11.484375 5.085938 11.617188 4.953125 C 11.75 4.816406 11.902344 4.714844 12.078125 4.644531 C 12.25 4.570312 12.433594 4.535156 12.621094 4.535156 L 17.589844 4.535156 C 17.777344 4.535156 17.960938 4.570312 18.132812 4.644531 C 18.308594 4.714844 18.460938 4.816406 18.59375 4.953125 C 18.730469 5.085938 18.832031 5.238281 18.902344 5.410156 C 18.976562 5.585938 19.011719 5.765625 19.011719 5.957031 L 19.011719 7.582031 C 19.011719 7.667969 18.980469 7.742188 18.921875 7.804688 C 18.859375 7.863281 18.785156 7.894531 18.699219 7.894531 Z M 11.824219 7.269531 L 18.386719 7.269531 L 18.386719 5.957031 C 18.386719 5.734375 18.308594 5.546875 18.15625 5.390625 C 18 5.238281 17.8125 5.160156 17.589844 5.160156 L 12.621094 5.160156 C 12.398438 5.160156 12.210938 5.238281 12.058594 5.390625 C 11.902344 5.546875 11.824219 5.734375 11.824219 5.957031 Z M 11.824219 7.269531 " fill-opacity="1" fill-rule="nonzero"/><g clip-path="url(#379446fc16)"><path fill="#ffffff" d="M 21.085938 7.894531 L 9.210938 7.894531 C 9.125 7.894531 9.050781 7.863281 8.988281 7.804688 C 8.929688 7.742188 8.898438 7.667969 8.898438 7.582031 L 8.898438 5.09375 C 8.898438 4.804688 8.953125 4.523438 9.066406 4.257812 C 9.175781 3.988281 9.335938 3.753906 9.539062 3.550781 C 9.742188 3.34375 9.980469 3.1875 10.246094 3.074219 C 10.515625 2.964844 10.792969 2.910156 11.082031 2.910156 L 19.214844 2.910156 C 19.503906 2.910156 19.78125 2.964844 20.050781 3.074219 C 20.316406 3.1875 20.550781 3.34375 20.757812 3.550781 C 20.960938 3.753906 21.121094 3.988281 21.230469 4.257812 C 21.339844 4.523438 21.398438 4.804688 21.398438 5.09375 L 21.398438 7.582031 C 21.398438 7.667969 21.367188 7.742188 21.304688 7.804688 C 21.246094 7.863281 21.171875 7.894531 21.085938 7.894531 Z M 9.523438 7.269531 L 20.773438 7.269531 L 20.773438 5.09375 C 20.773438 4.886719 20.734375 4.6875 20.652344 4.496094 C 20.574219 4.304688 20.460938 4.136719 20.316406 3.992188 C 20.167969 3.84375 20 3.730469 19.808594 3.652344 C 19.617188 3.574219 19.421875 3.53125 19.214844 3.53125 L 11.082031 3.53125 C 10.875 3.53125 10.675781 3.574219 10.484375 3.652344 C 10.292969 3.730469 10.125 3.84375 9.980469 3.992188 C 9.832031 4.136719 9.722656 4.304688 9.640625 4.496094 C 9.5625 4.6875 9.523438 4.886719 9.523438 5.09375 Z M 9.523438 7.269531 " fill-opacity="1" fill-rule="nonzero"/></g></svg>