<svg xmlns="http://www.w3.org/2000/svg" xmlns:xlink="http://www.w3.org/1999/xlink" width="40" zoomAndPan="magnify" viewBox="0 0 30 30.000001" height="40" preserveAspectRatio="xMidYMid meet" version="1.0"><defs><clipPath id="e00de24802"><path d="M 0.484375 0 L 29.515625 0 L 29.515625 29.03125 L 0.484375 29.03125 Z M 0.484375 0 " clip-rule="nonzero"/></clipPath><clipPath id="e3142ea3d3"><path d="M 22 14 L 28.402344 14 L 28.402344 21 L 22 21 Z M 22 14 " clip-rule="nonzero"/></clipPath><clipPath id="3df985412b"><path d="M 1.546875 5 L 23 5 L 23 27.308594 L 1.546875 27.308594 Z M 1.546875 5 " clip-rule="nonzero"/></clipPath></defs><g clip-path="url(#e00de24802)"><path fill="#ffffff" d="M 0.484375 0 L 29.515625 0 L 29.515625 29.03125 L 0.484375 29.03125 Z M 0.484375 0 " fill-opacity="1" fill-rule="nonzero"/><path fill="#000000" d="M 0.484375 0 L 29.515625 0 L 29.515625 29.03125 L 0.484375 29.03125 Z M 0.484375 0 " fill-opacity="1" fill-rule="nonzero"/></g><path fill="#ffffff" d="M 12.035156 7.863281 C 12.253906 7.914062 12.472656 7.9375 12.683594 7.9375 C 13.242188 7.9375 13.789062 7.78125 14.269531 7.476562 C 14.9375 7.050781 15.398438 6.390625 15.570312 5.617188 C 15.925781 4.023438 14.917969 2.4375 13.320312 2.082031 C 12.550781 1.910156 11.757812 2.050781 11.089844 2.476562 C 10.425781 2.898438 9.960938 3.558594 9.789062 4.332031 C 9.433594 5.921875 10.441406 7.507812 12.035156 7.863281 Z M 10.335938 4.453125 C 10.476562 3.824219 10.851562 3.292969 11.390625 2.949219 C 11.78125 2.699219 12.222656 2.574219 12.675781 2.574219 C 12.847656 2.574219 13.023438 2.589844 13.199219 2.632812 C 14.492188 2.921875 15.308594 4.207031 15.019531 5.5 C 14.882812 6.125 14.507812 6.660156 13.96875 7.003906 C 13.425781 7.34375 12.78125 7.457031 12.160156 7.316406 C 11.53125 7.175781 11 6.800781 10.65625 6.261719 C 10.308594 5.71875 10.199219 5.074219 10.335938 4.453125 Z M 10.335938 4.453125 " fill-opacity="1" fill-rule="nonzero"/><g clip-path="url(#e3142ea3d3)"><path fill="#ffffff" d="M 25.847656 14.339844 C 24.253906 13.984375 22.664062 14.992188 22.3125 16.585938 C 21.957031 18.179688 22.960938 19.765625 24.558594 20.121094 C 24.777344 20.171875 24.996094 20.191406 25.207031 20.191406 C 25.765625 20.191406 26.3125 20.035156 26.792969 19.730469 C 27.460938 19.304688 27.921875 18.644531 28.09375 17.871094 C 28.449219 16.285156 27.441406 14.699219 25.847656 14.339844 Z M 27.542969 17.757812 C 27.40625 18.382812 27.03125 18.914062 26.492188 19.257812 C 25.949219 19.601562 25.304688 19.714844 24.683594 19.578125 C 23.390625 19.289062 22.574219 18.003906 22.859375 16.710938 C 23.109375 15.59375 24.105469 14.835938 25.203125 14.835938 C 25.375 14.835938 25.550781 14.851562 25.726562 14.890625 C 27.015625 15.179688 27.832031 16.464844 27.542969 17.757812 Z M 27.542969 17.757812 " fill-opacity="1" fill-rule="nonzero"/></g><g clip-path="url(#3df985412b)"><path fill="#ffffff" d="M 15.792969 17.046875 C 15.773438 17.023438 15.757812 17 15.746094 16.972656 L 13.660156 12.054688 L 21.78125 11.515625 C 21.929688 11.507812 22.046875 11.382812 22.046875 11.238281 L 22.046875 9.378906 C 22.046875 9.308594 22.015625 9.234375 21.960938 9.179688 C 21.90625 9.128906 21.839844 9.097656 21.761719 9.097656 L 12.304688 9.097656 C 12.265625 9.097656 12.230469 9.089844 12.199219 9.074219 L 4.097656 5.765625 C 3.960938 5.710938 3.804688 5.769531 3.742188 5.902344 L 1.613281 10.1875 C 1.546875 10.3125 1.589844 10.464844 1.707031 10.542969 L 3.3125 11.621094 C 3.4375 11.707031 3.605469 11.679688 3.691406 11.558594 L 5.160156 9.632812 L 8.105469 11.203125 L 11.28125 18.691406 C 11.3125 18.761719 11.308594 18.84375 11.28125 18.914062 L 10.203125 21.351562 L 5.550781 19.296875 C 5.417969 19.238281 5.265625 19.289062 5.191406 19.414062 L 4.214844 21.066406 C 4.175781 21.132812 4.164062 21.214844 4.1875 21.289062 C 4.207031 21.359375 4.261719 21.425781 4.328125 21.460938 L 11.457031 25.15625 C 11.527344 25.191406 11.609375 25.195312 11.683594 25.167969 C 11.757812 25.144531 11.816406 25.089844 11.847656 25.019531 L 14.183594 19.71875 L 20.992188 27.03125 C 21.046875 27.089844 21.125 27.125 21.199219 27.125 C 21.207031 27.125 21.210938 27.125 21.21875 27.125 C 21.300781 27.121094 21.378906 27.078125 21.429688 27.007812 L 22.636719 25.359375 C 22.714844 25.253906 22.707031 25.109375 22.621094 25.007812 Z M 21.179688 26.398438 L 14.308594 19.023438 C 14.257812 18.96875 14.179688 18.933594 14.101562 18.933594 C 14.089844 18.933594 14.070312 18.933594 14.058594 18.9375 C 13.964844 18.953125 13.886719 19.015625 13.847656 19.101562 L 11.457031 24.515625 L 4.855469 21.09375 L 5.550781 19.914062 L 10.234375 21.980469 C 10.304688 22.011719 10.382812 22.011719 10.449219 21.984375 C 10.519531 21.957031 10.574219 21.902344 10.605469 21.835938 L 11.792969 19.144531 C 11.886719 18.929688 11.886719 18.6875 11.792969 18.476562 L 8.621094 10.980469 C 8.609375 10.890625 8.558594 10.808594 8.472656 10.765625 L 5.210938 9.027344 C 5.089844 8.964844 4.9375 8.996094 4.855469 9.105469 L 3.402344 11.007812 L 2.226562 10.214844 L 4.128906 6.386719 L 11.988281 9.597656 C 12.089844 9.640625 12.199219 9.660156 12.304688 9.660156 L 21.480469 9.660156 L 21.480469 10.972656 L 13.230469 11.519531 C 13.140625 11.527344 13.058594 11.578125 13.011719 11.652344 C 12.960938 11.730469 12.953125 11.824219 12.992188 11.910156 L 15.226562 17.191406 C 15.261719 17.273438 15.308594 17.347656 15.363281 17.414062 L 22.054688 25.203125 Z M 21.179688 26.398438 " fill-opacity="1" fill-rule="nonzero"/></g></svg>