<svg xmlns="http://www.w3.org/2000/svg" xmlns:xlink="http://www.w3.org/1999/xlink" width="40" zoomAndPan="magnify" viewBox="0 0 30 30.000001" height="40" preserveAspectRatio="xMidYMid meet" version="1.0"><defs><clipPath id="0faae710c8"><path d="M 0.484375 0 L 29.515625 0 L 29.515625 29.03125 L 0.484375 29.03125 Z M 0.484375 0 " clip-rule="nonzero"/></clipPath><clipPath id="2acfb66557"><path d="M 16 1.453125 L 20 1.453125 L 20 8 L 16 8 Z M 16 1.453125 " clip-rule="nonzero"/></clipPath><clipPath id="31871ee10c"><path d="M 21 7 L 27.183594 7 L 27.183594 13 L 21 13 Z M 21 7 " clip-rule="nonzero"/></clipPath><clipPath id="66e6ead690"><path d="M 26.78125 6.910156 L 27.183594 6.910156 L 27.183594 10.914062 L 26.78125 10.914062 Z M 26.78125 6.910156 " clip-rule="nonzero"/></clipPath><clipPath id="108bb730f2"><path d="M 2.507812 9 L 19 9 L 19 18 L 2.507812 18 Z M 2.507812 9 " clip-rule="nonzero"/></clipPath><clipPath id="6f45f2e76d"><path d="M 23 15 L 27 15 L 27 27.582031 L 23 27.582031 Z M 23 15 " clip-rule="nonzero"/></clipPath><clipPath id="7ebab38702"><path d="M 5 24 L 8 24 L 8 27.582031 L 5 27.582031 Z M 5 24 " clip-rule="nonzero"/></clipPath></defs><g clip-path="url(#0faae710c8)"><path fill="#ffffff" d="M 0.484375 0 L 29.515625 0 L 29.515625 29.03125 L 0.484375 29.03125 Z M 0.484375 0 " fill-opacity="1" fill-rule="nonzero"/><path fill="#000000" d="M 0.484375 0 L 29.515625 0 L 29.515625 29.03125 L 0.484375 29.03125 Z M 0.484375 0 " fill-opacity="1" fill-rule="nonzero"/></g><path fill="#ffffff" d="M 16.890625 4.21875 C 17.65625 4.238281 18.480469 4.222656 19.199219 3.945312 C 18.753906 3.867188 18.316406 4.070312 17.867188 4.078125 C 17.449219 4.140625 16.84375 4.042969 16.519531 4.171875 C 16.640625 4.195312 16.765625 4.207031 16.890625 4.21875 " fill-opacity="1" fill-rule="nonzero"/><g clip-path="url(#2acfb66557)"><path fill="#ffffff" d="M 16.308594 3.894531 C 16.324219 3.957031 16.34375 4.015625 16.367188 4.078125 C 16.367188 4.074219 16.363281 4.074219 16.363281 4.074219 C 16.386719 4.132812 16.40625 4.195312 16.4375 4.25 C 16.289062 4.671875 16.425781 5.121094 16.507812 5.542969 C 16.621094 5.714844 16.875 5.640625 17.050781 5.636719 C 17.078125 6.328125 17.820312 7.636719 18.613281 6.996094 C 17.726562 7.207031 17.417969 6.335938 17.089844 5.695312 C 17.082031 5.675781 17.074219 5.65625 17.066406 5.636719 C 17.839844 5.472656 18.921875 5.5625 19.574219 5.125 C 18.898438 5.191406 18.230469 5.378906 17.542969 5.425781 C 17.273438 5.417969 16.863281 5.605469 16.65625 5.429688 C 16.65625 5.433594 16.65625 5.4375 16.65625 5.4375 C 16.65625 5.433594 16.65625 5.429688 16.65625 5.425781 C 16.65625 5.429688 16.65625 5.429688 16.65625 5.429688 C 16.582031 5.09375 16.515625 4.753906 16.488281 4.40625 C 16.472656 4.332031 16.496094 4.066406 16.441406 4.246094 C 16.472656 3.867188 16.304688 3.375 16.617188 3.085938 C 16.832031 2.40625 17.296875 1.863281 18.042969 1.789062 C 18.605469 1.707031 19.222656 1.878906 19.421875 2.460938 C 19.796875 2.914062 19.789062 3.050781 19.847656 3.617188 C 19.851562 3.917969 19.757812 4.226562 19.722656 4.527344 C 19.699219 4.390625 19.527344 4.042969 19.457031 4.070312 C 19.898438 5.109375 19.304688 6.21875 18.613281 7.003906 C 19.171875 6.890625 19.605469 5.847656 19.605469 5.324219 C 19.898438 4.859375 19.957031 4.246094 19.914062 3.707031 C 20.050781 3.285156 19.960938 2.785156 19.632812 2.480469 C 19.441406 2.148438 19.265625 1.765625 18.847656 1.695312 C 17.996094 1.453125 16.921875 1.8125 16.605469 2.6875 C 16.402344 3.226562 16.160156 3.164062 16.308594 3.894531 " fill-opacity="1" fill-rule="nonzero"/></g><path fill="#ffffff" d="M 19.289062 3.246094 C 19.289062 3.246094 19.292969 3.242188 19.296875 3.242188 C 19.292969 3.242188 19.289062 3.246094 19.289062 3.246094 " fill-opacity="1" fill-rule="nonzero"/><path fill="#ffffff" d="M 19.125 3.589844 C 19.121094 3.59375 19.121094 3.59375 19.117188 3.59375 C 19.121094 3.59375 19.121094 3.59375 19.125 3.589844 " fill-opacity="1" fill-rule="nonzero"/><path fill="#ffffff" d="M 19.351562 3.34375 C 19.46875 3.261719 19.59375 3.175781 19.671875 3.058594 C 19.414062 3.1875 19.148438 3.3125 18.894531 3.453125 C 18.894531 3.449219 18.898438 3.449219 18.898438 3.449219 C 18.855469 3.46875 18.820312 3.507812 18.832031 3.558594 C 18.863281 3.675781 19.03125 3.597656 19.117188 3.59375 C 19.382812 3.535156 19.464844 3.5 19.136719 3.480469 C 19.210938 3.4375 19.28125 3.390625 19.351562 3.34375 " fill-opacity="1" fill-rule="nonzero"/><path fill="#ffffff" d="M 16.46875 3.503906 C 16.460938 3.613281 16.695312 3.777344 16.839844 3.800781 C 16.824219 3.65625 16.585938 3.585938 16.46875 3.503906 " fill-opacity="1" fill-rule="nonzero"/><path fill="#ffffff" d="M 16.542969 3.1875 C 16.886719 3.925781 18.816406 3.34375 19.289062 2.9375 C 18.472656 3.183594 17.59375 3.632812 16.730469 3.308594 C 16.734375 3.308594 16.734375 3.308594 16.734375 3.308594 C 16.730469 3.308594 16.730469 3.308594 16.726562 3.304688 C 16.730469 3.304688 16.730469 3.308594 16.730469 3.308594 C 16.667969 3.273438 16.601562 3.238281 16.546875 3.191406 C 16.546875 3.191406 16.542969 3.1875 16.542969 3.1875 " fill-opacity="1" fill-rule="nonzero"/><path fill="#ffffff" d="M 18.519531 3.3125 C 18.519531 3.3125 18.515625 3.3125 18.515625 3.316406 C 18.515625 3.3125 18.519531 3.3125 18.519531 3.3125 " fill-opacity="1" fill-rule="nonzero"/><path fill="#ffffff" d="M 16.273438 5.789062 C 15.960938 6.1875 16.890625 6.910156 17.113281 7.25 C 17.429688 7.546875 17.664062 7.992188 18.074219 8.164062 C 18.496094 8.265625 19.117188 8.042969 19.371094 7.8125 C 20.054688 7.183594 20.21875 6.042969 19.84375 5.21875 C 19.886719 5.796875 19.972656 6.398438 19.800781 6.964844 C 19.800781 6.964844 19.800781 6.96875 19.800781 6.96875 C 19.800781 6.96875 19.800781 6.96875 19.800781 6.964844 C 19.695312 7.269531 19.449219 7.5 19.363281 7.8125 C 19.160156 7.832031 18.96875 7.898438 18.78125 7.96875 C 18.78125 7.96875 18.785156 7.96875 18.785156 7.96875 C 18.78125 7.96875 18.777344 7.96875 18.777344 7.972656 C 18.042969 8.296875 17.640625 7.636719 17.207031 7.164062 C 16.984375 6.847656 16.199219 6.148438 16.273438 5.789062 " fill-opacity="1" fill-rule="nonzero"/><path fill="#ffffff" d="M 19.511719 7.671875 C 19.511719 7.671875 19.507812 7.671875 19.507812 7.675781 C 19.507812 7.671875 19.511719 7.671875 19.511719 7.671875 " fill-opacity="1" fill-rule="nonzero"/><path fill="#ffffff" d="M 19.058594 7.496094 C 19.050781 7.503906 19.046875 7.511719 19.039062 7.519531 C 18.175781 7.925781 17.574219 7.035156 17.089844 6.453125 C 17.308594 7.140625 18.117188 8.011719 18.898438 7.699219 C 18.867188 7.738281 18.851562 7.757812 18.914062 7.730469 C 19.125 7.664062 19.273438 7.492188 19.378906 7.304688 C 19.636719 6.890625 19.683594 6.382812 19.578125 5.914062 C 19.472656 6.421875 19.507812 6.992188 19.136719 7.40625 C 19.136719 7.402344 19.140625 7.398438 19.140625 7.398438 C 19.113281 7.429688 19.085938 7.464844 19.058594 7.496094 " fill-opacity="1" fill-rule="nonzero"/><path fill="#ffffff" d="M 12.933594 12.539062 C 13.058594 11.570312 13.335938 10.613281 13.363281 9.632812 C 13.601562 8.726562 13.933594 7.824219 14.417969 7.023438 C 14.414062 7.023438 14.414062 7.027344 14.410156 7.027344 C 14.640625 6.679688 14.925781 6.351562 15.265625 6.105469 C 15.554688 5.941406 17.015625 5.09375 15.855469 5.589844 C 14.730469 6.097656 14.027344 7.164062 13.652344 8.304688 C 13.390625 8.933594 13.132812 9.570312 13.179688 10.265625 C 13.113281 11.023438 12.765625 11.773438 12.933594 12.539062 " fill-opacity="1" fill-rule="nonzero"/><path fill="#ffffff" d="M 15.933594 10.863281 C 15.535156 10.652344 15.046875 10.621094 14.605469 10.667969 C 14.605469 10.667969 14.609375 10.667969 14.609375 10.667969 C 14.5 10.699219 15.082031 10.777344 15.1875 10.796875 C 15.183594 10.796875 15.179688 10.796875 15.179688 10.796875 C 15.425781 10.832031 15.679688 10.914062 15.933594 10.863281 " fill-opacity="1" fill-rule="nonzero"/><path fill="#ffffff" d="M 15.285156 12.308594 C 15.5 12.316406 15.71875 12.363281 15.933594 12.3125 C 15.640625 12.171875 15.28125 12.148438 14.964844 12.226562 C 15.398438 12.085938 14.769531 12.078125 14.597656 12.179688 C 14.515625 12.1875 14.210938 12.421875 14.367188 12.363281 C 14.542969 12.292969 14.738281 12.285156 14.921875 12.238281 C 14.523438 12.386719 14.160156 12.777344 14.070312 13.175781 C 14.074219 13.167969 14.082031 13.160156 14.085938 13.152344 C 14.40625 12.785156 14.734375 12.277344 15.285156 12.308594 " fill-opacity="1" fill-rule="nonzero"/><path fill="#ffffff" d="M 12.882812 13.261719 C 12.824219 14.074219 13.3125 14.15625 13.980469 14.195312 C 14.269531 14.242188 14.523438 14.375 14.765625 14.527344 C 14.828125 14.558594 15.117188 14.683594 15.042969 14.59375 C 14.183594 13.550781 12.941406 14.578125 13.03125 13.125 C 13.03125 13.128906 13.03125 13.128906 13.03125 13.128906 C 13.027344 13.097656 13.027344 13.070312 13.023438 13.042969 C 13.023438 13.046875 13.023438 13.046875 13.023438 13.050781 C 13.015625 12.875 12.996094 12.695312 12.960938 12.523438 C 12.890625 12.582031 12.890625 13.0625 12.882812 13.261719 " fill-opacity="1" fill-rule="nonzero"/><path fill="#ffffff" d="M 16.671875 13.679688 C 16.414062 13.816406 16.253906 14.179688 16.292969 14.441406 C 16.398438 14.175781 16.609375 13.957031 16.671875 13.679688 " fill-opacity="1" fill-rule="nonzero"/><path fill="#ffffff" d="M 16.957031 13.324219 C 16.402344 13.332031 15.902344 13.960938 15.925781 14.496094 C 15.933594 14.472656 15.945312 14.445312 15.957031 14.421875 C 16.140625 13.9375 16.523438 13.585938 16.957031 13.324219 " fill-opacity="1" fill-rule="nonzero"/><path fill="#ffffff" d="M 14.074219 13.894531 C 14.066406 13.902344 14.058594 13.90625 14.050781 13.910156 C 14.769531 13.71875 14.929688 12.988281 14.09375 13.878906 C 14.089844 13.882812 14.082031 13.890625 14.074219 13.894531 " fill-opacity="1" fill-rule="nonzero"/><path fill="#ffffff" d="M 13.855469 13.492188 C 13.777344 13.546875 13.570312 13.921875 13.742188 13.742188 C 13.929688 13.644531 14.289062 13.144531 13.855469 13.492188 " fill-opacity="1" fill-rule="nonzero"/><path fill="#ffffff" d="M 13.625 13.316406 C 13.488281 13.417969 13.367188 13.550781 13.261719 13.683594 C 13.453125 13.699219 14.019531 13.089844 13.625 13.316406 " fill-opacity="1" fill-rule="nonzero"/><path fill="#ffffff" d="M 18.015625 14.851562 C 17.449219 16.148438 18.300781 15.121094 18.152344 14.605469 C 18.089844 14.488281 17.984375 14.347656 17.839844 14.335938 C 17.996094 14.445312 18.066406 14.671875 18.015625 14.851562 " fill-opacity="1" fill-rule="nonzero"/><path fill="#ffffff" d="M 18.25 14.582031 C 18.222656 14.824219 18.117188 15.542969 18.359375 14.890625 C 18.445312 14.660156 18.296875 13.761719 18.273438 14.382812 C 18.273438 14.382812 18.273438 14.378906 18.277344 14.378906 C 18.265625 14.445312 18.257812 14.515625 18.25 14.582031 " fill-opacity="1" fill-rule="nonzero"/><path fill="#ffffff" d="M 18.515625 14.484375 C 18.542969 14.644531 18.347656 15.625 18.546875 15.238281 C 18.8125 14.917969 18.511719 13.449219 18.515625 14.484375 " fill-opacity="1" fill-rule="nonzero"/><path fill="#ffffff" d="M 18.726562 15.710938 C 18.941406 15.640625 19 15.402344 19 15.203125 C 19 15.203125 19 15.199219 19 15.199219 C 19.15625 14.855469 19.191406 14.417969 19.058594 14.0625 C 19.792969 14.027344 20.488281 13.761719 21.207031 13.625 C 22.03125 13.410156 22.917969 13.390625 23.714844 13.109375 C 23.738281 13.3125 23.671875 13.523438 23.554688 13.691406 C 23.554688 13.6875 23.554688 13.683594 23.558594 13.683594 C 23.550781 13.691406 23.542969 13.703125 23.535156 13.710938 C 22.203125 13.921875 20.910156 14.332031 19.570312 14.515625 C 18.53125 14.789062 19.902344 14.675781 20.222656 14.546875 C 20.222656 14.546875 20.21875 14.546875 20.21875 14.546875 C 20.265625 14.539062 20.308594 14.527344 20.355469 14.519531 C 20.394531 14.511719 20.4375 14.5 20.476562 14.492188 C 20.472656 14.492188 20.46875 14.496094 20.46875 14.496094 C 20.476562 14.492188 20.488281 14.492188 20.496094 14.488281 C 20.492188 14.488281 20.488281 14.492188 20.488281 14.492188 C 21.484375 14.230469 22.542969 14.125 23.503906 13.753906 C 23.304688 13.984375 23.691406 13.769531 23.753906 13.65625 C 23.882812 13.460938 23.96875 12.976562 23.660156 12.921875 C 23.582031 12.9375 23.523438 13 23.472656 13.054688 C 23.558594 13.019531 23.703125 12.949219 23.714844 13.097656 C 23.515625 13.050781 23.308594 13.078125 23.113281 13.121094 C 23.320312 12.96875 23.398438 12.726562 23.472656 12.492188 C 23.472656 12.492188 23.472656 12.492188 23.472656 12.496094 C 23.566406 12.199219 23.710938 11.929688 23.851562 11.65625 C 23.855469 11.644531 23.863281 11.632812 23.867188 11.621094 C 23.867188 11.621094 23.871094 11.621094 23.871094 11.621094 C 23.871094 11.617188 23.875 11.617188 23.875 11.613281 C 23.402344 11.957031 23.292969 12.621094 23.046875 13.132812 C 22.984375 13.144531 22.925781 13.152344 22.867188 13.164062 C 22.777344 12.777344 22.710938 12.144531 22.269531 12.042969 C 22.277344 12.046875 22.285156 12.050781 22.292969 12.054688 C 22.617188 12.347656 22.523438 12.875 22.835938 13.171875 C 22.476562 13.238281 22.117188 13.304688 21.761719 13.382812 C 21.765625 13.382812 21.769531 13.378906 21.769531 13.378906 C 21.722656 13.390625 21.675781 13.398438 21.628906 13.410156 C 21.632812 13.410156 21.636719 13.40625 21.636719 13.40625 C 20.773438 13.601562 19.882812 13.746094 19.042969 14.027344 C 18.980469 13.792969 18.335938 13.691406 18.753906 13.878906 C 19.140625 14.210938 18.890625 14.765625 18.972656 15.195312 C 18.738281 15.808594 17.984375 15.585938 17.546875 15.921875 C 17.105469 15.878906 16.679688 15.734375 16.28125 15.539062 C 16.28125 15.539062 16.285156 15.542969 16.285156 15.542969 C 16.191406 15.492188 16.097656 15.445312 16.003906 15.40625 C 16.332031 15.414062 17.425781 14.914062 16.5625 15.132812 C 16.566406 15.132812 16.566406 15.132812 16.566406 15.132812 C 16.492188 15.148438 16.421875 15.164062 16.351562 15.179688 C 16.355469 15.179688 16.355469 15.179688 16.359375 15.179688 C 13.972656 15.640625 11.558594 15.945312 9.191406 16.5 C 9.191406 16.496094 9.195312 16.496094 9.199219 16.496094 C 7.570312 16.847656 5.875 17.046875 4.285156 17.539062 C 4.933594 17.628906 5.574219 17.351562 6.207031 17.242188 C 6.203125 17.242188 6.199219 17.242188 6.195312 17.242188 C 6.199219 17.242188 6.207031 17.242188 6.210938 17.242188 C 6.207031 17.242188 6.207031 17.242188 6.203125 17.242188 C 6.230469 17.238281 6.253906 17.230469 6.28125 17.226562 C 6.277344 17.226562 6.273438 17.226562 6.269531 17.226562 C 6.277344 17.226562 6.28125 17.226562 6.289062 17.226562 C 6.285156 17.226562 6.285156 17.226562 6.285156 17.226562 C 6.628906 17.15625 6.96875 17.089844 7.3125 17.019531 C 7.3125 17.019531 7.308594 17.019531 7.308594 17.019531 C 7.3125 17.019531 7.3125 17.015625 7.316406 17.015625 C 7.703125 16.941406 8.09375 16.867188 8.480469 16.789062 C 8.476562 16.789062 8.472656 16.789062 8.46875 16.789062 C 8.765625 16.734375 9.0625 16.683594 9.355469 16.621094 C 9.351562 16.621094 9.351562 16.625 9.347656 16.625 C 11.496094 16.125 13.679688 15.820312 15.847656 15.433594 C 16.160156 15.671875 16.507812 15.835938 16.882812 15.945312 C 16.71875 16.007812 16.554688 16.074219 16.398438 16.15625 C 16.402344 16.15625 16.402344 16.15625 16.402344 16.15625 C 15.726562 16.5625 14.917969 16.746094 14.289062 17.21875 C 14.742188 17.171875 15.125 16.878906 15.539062 16.714844 C 16.015625 16.476562 16.546875 16.320312 16.953125 15.964844 C 17.148438 16.054688 17.351562 16.050781 17.535156 15.9375 C 17.605469 15.898438 17.6875 15.894531 17.765625 15.890625 C 17.765625 15.890625 17.761719 15.890625 17.761719 15.890625 C 18.09375 15.894531 18.417969 15.828125 18.726562 15.710938 " fill-opacity="1" fill-rule="nonzero"/><path fill="#ffffff" d="M 24.128906 14.332031 C 24.128906 14.332031 24.128906 14.332031 24.132812 14.328125 C 24.128906 14.332031 24.128906 14.332031 24.128906 14.332031 " fill-opacity="1" fill-rule="nonzero"/><g clip-path="url(#31871ee10c)"><path fill="#ffffff" d="M 24.9375 10.324219 C 24.9375 10.324219 24.9375 10.324219 24.941406 10.324219 C 24.9375 10.324219 24.9375 10.324219 24.9375 10.324219 Z M 24.695312 8.789062 C 24.699219 8.789062 24.703125 8.789062 24.707031 8.792969 C 24.703125 8.792969 24.703125 8.796875 24.703125 8.796875 C 24.699219 8.796875 24.695312 8.792969 24.695312 8.789062 Z M 27.230469 11.394531 C 26.859375 10.953125 26.359375 11.140625 25.960938 10.84375 C 26.238281 11.027344 26.554688 10.945312 26.714844 10.660156 C 26.460938 10.777344 26.214844 10.867188 25.929688 10.820312 C 25.660156 10.664062 25.144531 10.125 24.875 10.175781 C 24.886719 9.785156 24.933594 9.144531 24.714844 8.820312 C 24.726562 8.816406 24.734375 8.808594 24.742188 8.804688 C 24.742188 8.804688 24.738281 8.804688 24.738281 8.804688 C 24.972656 8.679688 25.171875 8.484375 25.414062 8.375 C 25.503906 8.347656 25.878906 8.183594 25.753906 8.15625 C 26.4375 7.625 24.835938 8.53125 24.710938 8.785156 C 24.527344 8.484375 24.183594 8.578125 23.890625 8.5625 C 23.5 8.449219 23.171875 8.171875 22.804688 7.996094 C 22.804688 8 22.808594 8 22.808594 8 C 22.726562 7.953125 22.648438 7.90625 22.566406 7.859375 C 22.585938 7.347656 22.390625 7.945312 22.382812 8.164062 C 22.347656 8.5625 22.339844 8.972656 22.148438 9.332031 C 21.832031 9.742188 22.035156 10.160156 21.9375 10.613281 C 21.617188 11.230469 21.757812 11.179688 22.082031 11.746094 C 22.121094 11.816406 22.164062 11.882812 22.195312 11.960938 C 22.195312 11.957031 22.195312 11.957031 22.195312 11.957031 C 22.195312 11.960938 22.199219 11.960938 22.199219 11.960938 C 22.199219 11.960938 22.195312 11.960938 22.195312 11.960938 C 22.285156 12.097656 22.132812 11.519531 22.074219 11.445312 C 21.65625 10.847656 22.277344 10.933594 22.117188 9.984375 C 22.117188 9.988281 22.117188 9.992188 22.117188 9.996094 C 22.054688 9.6875 22.304688 9.441406 22.378906 9.15625 C 22.515625 8.757812 22.492188 8.332031 22.5625 7.921875 C 22.917969 8.257812 23.382812 8.527344 23.835938 8.703125 C 24.089844 8.738281 24.355469 8.660156 24.601562 8.765625 C 24.597656 8.765625 24.597656 8.761719 24.597656 8.761719 C 24.597656 8.761719 24.597656 8.765625 24.601562 8.765625 C 24.828125 9.207031 24.59375 9.742188 24.867188 10.175781 C 24.660156 10.3125 24.714844 10.632812 24.550781 10.808594 C 24.1875 10.703125 24.078125 11.164062 23.949219 11.40625 C 23.78125 11.675781 24.042969 11.40625 24.121094 11.296875 C 24.300781 11.023438 24.433594 10.835938 24.761719 11.050781 C 25.199219 11.296875 25.632812 11.546875 26.09375 11.75 C 26.316406 11.859375 26.554688 11.957031 26.804688 11.957031 C 26.546875 11.726562 26.199219 11.652344 25.898438 11.496094 C 25.429688 11.308594 25.03125 10.972656 24.554688 10.808594 C 24.71875 10.730469 24.78125 10.539062 24.875 10.394531 C 24.875 10.398438 24.875 10.398438 24.875 10.398438 C 24.949219 10.226562 25.121094 10.417969 25.21875 10.480469 C 25.445312 10.664062 25.707031 10.804688 25.921875 11.007812 C 26.304688 11.261719 26.847656 11.117188 27.140625 11.546875 C 27.035156 11.695312 26.914062 11.839844 26.84375 12.011719 C 27.023438 11.902344 27.492188 11.621094 27.230469 11.394531 " fill-opacity="1" fill-rule="nonzero"/></g><path fill="#ffffff" d="M 26.71875 12.21875 C 26.445312 12.605469 26.074219 12.640625 26.050781 13.199219 C 25.988281 13.554688 25.824219 13.96875 25.511719 14.179688 C 25.25 14.234375 24.996094 14.316406 24.734375 14.378906 C 24.574219 14.390625 24.40625 14.363281 24.253906 14.433594 C 24.34375 14.320312 24.421875 14.191406 24.457031 14.050781 C 24.269531 14.152344 24.15625 14.347656 23.976562 14.453125 C 23.398438 14.527344 23.445312 14.5 23.167969 14.015625 C 23.199219 14.292969 23.28125 14.738281 23.660156 14.640625 C 23.828125 14.613281 24.019531 14.667969 24.15625 14.535156 C 24.640625 14.601562 25.097656 14.441406 25.5625 14.339844 C 25.898438 14.175781 26.0625 13.738281 26.09375 13.386719 C 26.289062 13.148438 26.21875 12.777344 26.542969 12.640625 C 26.738281 12.53125 26.992188 11.78125 26.71875 12.21875 " fill-opacity="1" fill-rule="nonzero"/><path fill="#ffffff" d="M 26.0625 13.117188 C 26.066406 13.117188 26.066406 13.113281 26.066406 13.109375 C 26.066406 13.113281 26.066406 13.117188 26.0625 13.117188 " fill-opacity="1" fill-rule="nonzero"/><path fill="#ffffff" d="M 24.582031 13.769531 C 24.832031 13.964844 25.164062 14.109375 25.484375 14.03125 C 25.203125 13.890625 24.886719 13.839844 24.582031 13.769531 " fill-opacity="1" fill-rule="nonzero"/><path fill="#ffffff" d="M 24.855469 13.351562 C 25.515625 13.851562 26.039062 13.585938 24.945312 13.371094 C 24.917969 13.363281 24.886719 13.359375 24.855469 13.351562 " fill-opacity="1" fill-rule="nonzero"/><path fill="#ffffff" d="M 25.46875 12.914062 C 25.566406 12.996094 26 13.132812 25.75 12.945312 C 25.609375 12.832031 25.0625 12.710938 25.46875 12.914062 " fill-opacity="1" fill-rule="nonzero"/><g clip-path="url(#66e6ead690)"><path fill="#ffffff" d="M 27.421875 7.921875 C 27.492188 7.652344 26.824219 6.433594 27.074219 7.132812 C 27.308594 7.664062 27.289062 8.230469 27.25 8.796875 C 27.203125 9.070312 27.085938 9.335938 27.140625 9.617188 C 27.140625 9.617188 27.140625 9.613281 27.140625 9.613281 C 27.140625 9.621094 27.140625 9.628906 27.140625 9.632812 C 27.140625 9.628906 27.140625 9.625 27.140625 9.625 C 27.140625 9.628906 27.144531 9.636719 27.144531 9.644531 C 27.144531 9.648438 27.144531 9.652344 27.144531 9.65625 C 27.148438 9.683594 27.152344 9.710938 27.15625 9.738281 C 27.15625 9.734375 27.15625 9.734375 27.15625 9.734375 C 27.15625 9.738281 27.15625 9.742188 27.15625 9.742188 C 27.15625 9.742188 27.15625 9.738281 27.15625 9.738281 C 27.261719 10.109375 26.878906 10.316406 26.800781 10.636719 C 26.78125 10.816406 26.792969 11.019531 26.894531 10.742188 C 27.140625 10.304688 27.417969 10.011719 27.273438 9.46875 C 27.265625 9.21875 27.382812 8.988281 27.410156 8.742188 C 27.414062 8.46875 27.417969 8.195312 27.421875 7.921875 " fill-opacity="1" fill-rule="nonzero"/></g><path fill="#ffffff" d="M 26.007812 10.527344 C 25.515625 10.589844 26.226562 10.675781 26.382812 10.628906 C 26.277344 10.546875 26.136719 10.523438 26.007812 10.527344 " fill-opacity="1" fill-rule="nonzero"/><path fill="#ffffff" d="M 26.414062 9.25 C 26.066406 9.347656 25.808594 9.636719 25.453125 9.714844 C 25.453125 9.714844 25.449219 9.714844 25.449219 9.714844 C 24.683594 9.851562 24.964844 9.910156 25.515625 9.800781 C 25.839844 9.671875 26.167969 9.5 26.414062 9.25 " fill-opacity="1" fill-rule="nonzero"/><path fill="#ffffff" d="M 25.636719 6.5 C 25.234375 6.648438 25.109375 7.199219 25.121094 7.585938 C 25.339844 7.253906 25.320312 6.796875 25.625 6.511719 C 25.628906 6.507812 25.632812 6.503906 25.636719 6.5 " fill-opacity="1" fill-rule="nonzero"/><path fill="#ffffff" d="M 25.390625 7.171875 C 25.261719 7.695312 24.851562 8.074219 24.605469 8.535156 C 25.023438 8.273438 25.535156 7.507812 25.402344 7.125 C 25.398438 7.140625 25.394531 7.15625 25.390625 7.171875 " fill-opacity="1" fill-rule="nonzero"/><path fill="#ffffff" d="M 24.039062 6.238281 C 24.109375 5.953125 23.546875 5.144531 23.851562 5.878906 C 23.851562 5.878906 23.851562 5.875 23.847656 5.875 C 23.886719 6.007812 23.945312 6.132812 24.039062 6.238281 " fill-opacity="1" fill-rule="nonzero"/><path fill="#ffffff" d="M 19.9375 4.570312 C 20.203125 4.617188 20.523438 4.550781 20.804688 4.53125 C 20.804688 4.53125 20.800781 4.53125 20.796875 4.535156 C 21.480469 4.488281 22.164062 4.378906 22.832031 4.605469 C 22.828125 4.605469 22.828125 4.601562 22.824219 4.601562 C 23.871094 4.878906 24.828125 5.429688 25.796875 5.894531 C 25.992188 6.089844 26.175781 6.289062 26.441406 6.394531 C 26.65625 6.503906 26.789062 6.71875 26.988281 6.847656 C 26.871094 6.289062 26.222656 6.195312 25.902344 5.785156 C 24.902344 5.289062 23.90625 4.730469 22.8125 4.476562 C 21.875 4.265625 20.863281 4.3125 19.9375 4.570312 " fill-opacity="1" fill-rule="nonzero"/><path fill="#ffffff" d="M 20.007812 4.886719 C 19.785156 4.871094 20.207031 5 20.28125 5.054688 C 20.527344 5.164062 20.726562 5.355469 20.964844 5.476562 C 20.8125 5.144531 20.441406 4.964844 20.097656 4.898438 C 20.097656 4.898438 20.101562 4.898438 20.101562 4.898438 C 20.070312 4.894531 20.039062 4.890625 20.007812 4.886719 " fill-opacity="1" fill-rule="nonzero"/><path fill="#ffffff" d="M 19.90625 5.039062 C 20.128906 5.136719 20.292969 5.355469 20.539062 5.414062 C 20.433594 5.191406 20.148438 5.019531 19.90625 5.039062 " fill-opacity="1" fill-rule="nonzero"/><path fill="#ffffff" d="M 22.179688 12.117188 C 21.777344 11.96875 21.21875 12.300781 20.808594 12.449219 C 19.976562 12.851562 19.203125 13.367188 18.285156 13.566406 C 18.203125 13.519531 17.96875 13.695312 18.035156 13.699219 C 18.046875 13.695312 18.058594 13.691406 18.070312 13.6875 C 18.136719 13.679688 18.203125 13.699219 18.273438 13.691406 C 18.523438 14.023438 18.75 14.199219 18.449219 13.667969 C 19.773438 13.347656 20.832031 12.351562 22.183594 12.109375 C 22.183594 12.113281 22.183594 12.113281 22.183594 12.117188 C 22.183594 12.117188 22.183594 12.117188 22.179688 12.117188 " fill-opacity="1" fill-rule="nonzero"/><path fill="#ffffff" d="M 17.964844 13.3125 C 18.867188 13.234375 19.972656 12.734375 20.695312 12.203125 C 20.011719 12.390625 19.433594 12.863281 18.738281 13.039062 C 18.539062 13.125 17.335938 13.289062 17.964844 13.3125 " fill-opacity="1" fill-rule="nonzero"/><path fill="#ffffff" d="M 17.382812 12.824219 C 18.742188 12.914062 19.804688 12.855469 20.8125 11.808594 C 20.195312 12.042969 19.722656 12.605469 19.035156 12.683594 C 19.035156 12.683594 19.035156 12.683594 19.039062 12.683594 C 19.035156 12.683594 19.03125 12.683594 19.03125 12.683594 C 18.792969 12.757812 16.078125 12.648438 17.382812 12.824219 " fill-opacity="1" fill-rule="nonzero"/><path fill="#ffffff" d="M 17.019531 12.53125 C 17.546875 12.492188 18.105469 12.511719 18.609375 12.335938 C 18.390625 12.21875 16.46875 12.484375 17.019531 12.53125 " fill-opacity="1" fill-rule="nonzero"/><path fill="#ffffff" d="M 21.050781 11.464844 C 21.050781 11.464844 21.046875 11.464844 21.046875 11.46875 C 21.046875 11.46875 21.050781 11.464844 21.050781 11.464844 " fill-opacity="1" fill-rule="nonzero"/><path fill="#ffffff" d="M 21.25 11.316406 C 20.835938 11.34375 20.503906 11.640625 20.132812 11.800781 C 19.800781 11.96875 19.441406 12.054688 19.105469 12.210938 C 18.777344 12.339844 19.074219 12.296875 19.257812 12.265625 C 19.960938 12.066406 20.648438 11.722656 21.25 11.316406 " fill-opacity="1" fill-rule="nonzero"/><path fill="#ffffff" d="M 16.945312 12.191406 C 16.664062 12.191406 16.382812 12.167969 16.101562 12.144531 C 16.417969 12.347656 16.804688 12.339844 17.164062 12.316406 C 18.480469 12.214844 17.652344 12.09375 16.945312 12.191406 " fill-opacity="1" fill-rule="nonzero"/><path fill="#ffffff" d="M 8.355469 16.65625 C 8.359375 16.65625 8.359375 16.65625 8.363281 16.652344 C 8.359375 16.65625 8.359375 16.65625 8.355469 16.65625 " fill-opacity="1" fill-rule="nonzero"/><g clip-path="url(#108bb730f2)"><path fill="#ffffff" d="M 4.402344 17.476562 C 3.761719 17.363281 2.554688 16.0625 2.730469 15.375 C 2.816406 15.082031 3.058594 14.84375 3.316406 14.691406 C 3.554688 14.542969 3.609375 14.835938 3.683594 15 C 3.796875 15.277344 3.910156 15.550781 4.042969 15.816406 C 4.042969 15.816406 4.039062 15.8125 4.039062 15.808594 C 4.582031 17.226562 6.242188 16.707031 7.371094 16.46875 C 8.59375 16.179688 9.832031 15.96875 11.058594 15.71875 C 11.058594 15.71875 11.058594 15.71875 11.054688 15.71875 C 11.292969 15.671875 11.53125 15.628906 11.769531 15.578125 C 11.765625 15.582031 11.761719 15.582031 11.761719 15.582031 C 11.78125 15.578125 11.800781 15.574219 11.820312 15.570312 C 11.820312 15.570312 11.820312 15.570312 11.816406 15.570312 C 11.824219 15.570312 11.832031 15.566406 11.835938 15.566406 C 13.617188 15.1875 15.445312 14.929688 17.203125 14.515625 C 17.121094 14.6875 17.0625 14.914062 16.867188 14.984375 C 17.195312 15.050781 17.316406 14.5 17.527344 14.304688 C 17.714844 14.21875 17.605469 14.210938 17.464844 14.226562 C 17.53125 14.101562 17.597656 13.953125 17.566406 13.808594 C 17.613281 13.828125 17.671875 13.832031 17.722656 13.828125 C 17.632812 13.882812 17.472656 14.183594 17.550781 14.179688 C 17.546875 14.179688 17.546875 14.179688 17.546875 14.179688 C 17.6875 13.9375 17.960938 13.820312 18.207031 13.984375 C 18.148438 13.804688 17.933594 13.65625 17.761719 13.796875 C 17.59375 13.675781 17.390625 13.617188 17.222656 13.492188 C 17.25 13.183594 16.8125 12.855469 16.53125 12.996094 C 16.410156 12.816406 16.171875 12.753906 16.066406 12.5625 C 16.042969 12.5 16.042969 12.535156 16.042969 12.582031 C 16.039062 12.582031 16.039062 12.582031 16.035156 12.582031 C 16.039062 12.582031 16.039062 12.582031 16.039062 12.582031 C 16.023438 12.582031 16.011719 12.578125 16 12.570312 C 16 12.570312 16 12.574219 16 12.574219 C 16 12.570312 15.996094 12.570312 15.996094 12.570312 C 15.96875 12.558594 15.933594 12.539062 15.917969 12.507812 C 16.210938 12.441406 16.210938 12.292969 16.046875 12.082031 C 16.535156 11.578125 16.265625 11.09375 16.65625 10.664062 C 16.792969 10.539062 16.941406 10.414062 17.003906 10.234375 C 17.0625 9.875 17.109375 9.472656 16.984375 9.128906 C 16.824219 9.507812 17.007812 9.980469 16.761719 10.328125 C 16.757812 10.320312 16.757812 10.3125 16.757812 10.308594 C 16.6875 10.027344 16.511719 9.785156 16.480469 9.492188 C 16.351562 9.703125 16.488281 10.171875 16.746094 10.347656 C 16.230469 10.726562 16.328125 11.132812 16.144531 11.65625 C 16.074219 11.808594 15.910156 11.914062 15.882812 12.082031 C 15.855469 12.191406 15.988281 12.238281 16.003906 12.328125 C 15.777344 12.429688 15.769531 12.625 16.042969 12.597656 C 16.082031 12.792969 16.253906 12.9375 16.410156 13.050781 C 15.90625 13.300781 15.535156 14.027344 15.605469 14.511719 C 15.609375 14.503906 15.613281 14.492188 15.617188 14.484375 C 15.820312 13.976562 15.992188 13.34375 16.566406 13.140625 C 16.597656 13.160156 16.632812 13.1875 16.601562 13.132812 C 16.742188 13.0625 17.101562 13.347656 17.175781 13.472656 C 17.0625 13.417969 16.929688 13.460938 16.8125 13.496094 C 17.128906 13.605469 17.617188 13.761719 17.320312 14.171875 C 16.996094 14.644531 16.21875 14.492188 15.714844 14.664062 C 14.546875 14.867188 13.390625 15.128906 12.222656 15.335938 C 12.554688 15.089844 12.652344 14.667969 12.789062 14.300781 C 12.789062 14.300781 12.785156 14.304688 12.785156 14.308594 C 13.019531 13.78125 12.976562 13.78125 12.660156 14.246094 C 12.515625 14.621094 12.324219 14.972656 12.175781 15.347656 C 12.003906 15.378906 11.832031 15.414062 11.660156 15.449219 C 11.660156 15.449219 11.664062 15.449219 11.664062 15.449219 C 10.730469 15.636719 9.792969 15.8125 8.855469 15.996094 C 8.859375 15.996094 8.863281 15.996094 8.867188 15.996094 C 8.839844 16 8.8125 16.003906 8.785156 16.011719 C 8.789062 16.011719 8.789062 16.007812 8.789062 16.007812 C 8.761719 16.015625 8.738281 16.019531 8.710938 16.023438 C 8.714844 16.023438 8.714844 16.023438 8.71875 16.023438 C 8.714844 16.023438 8.707031 16.027344 8.703125 16.027344 C 8.707031 16.027344 8.707031 16.027344 8.710938 16.023438 C 7.554688 16.25 6.40625 16.582031 5.222656 16.636719 C 5.222656 16.636719 5.226562 16.636719 5.230469 16.636719 C 4.246094 16.570312 4.074219 15.269531 3.664062 14.570312 C 3.320312 14.300781 2.929688 14.765625 2.722656 15.015625 C 2.523438 15.265625 2.507812 15.601562 2.609375 15.894531 C 2.773438 16.382812 3.167969 16.746094 3.511719 17.117188 C 3.734375 17.371094 4.046875 17.671875 4.402344 17.476562 " fill-opacity="1" fill-rule="nonzero"/></g><path fill="#ffffff" d="M 12.871094 13.960938 C 12.871094 13.960938 12.871094 13.957031 12.875 13.957031 C 12.871094 13.957031 12.871094 13.960938 12.871094 13.960938 " fill-opacity="1" fill-rule="nonzero"/><path fill="#ffffff" d="M 14.667969 19.394531 C 14.050781 19.375 13.441406 19.316406 12.875 19.050781 C 12.363281 18.839844 11.898438 18.425781 11.316406 18.476562 C 11.207031 18.378906 11.066406 18.328125 10.957031 18.230469 C 10.972656 18.191406 10.996094 18.152344 11.015625 18.113281 C 11.011719 18.117188 11.011719 18.121094 11.007812 18.125 C 11.023438 18.097656 11.039062 18.066406 11.054688 18.039062 C 11.050781 18.039062 11.050781 18.039062 11.050781 18.042969 C 11.085938 17.972656 11.121094 17.902344 11.15625 17.832031 C 11.15625 17.835938 11.15625 17.835938 11.15625 17.835938 C 11.410156 17.308594 11.765625 16.832031 11.949219 16.273438 C 11.953125 16.261719 11.957031 16.25 11.960938 16.238281 C 11.628906 16.542969 11.339844 17.25 11.054688 17.707031 C 10.980469 17.921875 10.597656 18.246094 10.921875 18.40625 C 10.441406 18.777344 10.292969 19.4375 9.921875 19.90625 C 9 20.730469 8.394531 21.890625 7.78125 22.953125 C 7.785156 22.953125 7.785156 22.949219 7.785156 22.945312 C 7.625 23.257812 7.449219 23.578125 7.414062 23.933594 C 7.550781 23.722656 7.664062 23.496094 7.773438 23.273438 C 7.976562 22.847656 8.203125 22.4375 8.460938 22.046875 C 8.5 22.777344 9.488281 23.289062 10.148438 23.261719 C 9.503906 22.972656 8.730469 22.761719 8.484375 22.011719 C 8.667969 21.730469 8.839844 21.445312 9.035156 21.171875 C 9.304688 21.71875 9.847656 22.257812 10.476562 22.332031 C 9.941406 22 9.441406 21.640625 9.070312 21.121094 C 9.207031 20.925781 9.347656 20.734375 9.5 20.550781 C 9.503906 21.339844 11.757812 22.203125 10.183594 21.257812 C 10.183594 21.257812 10.1875 21.257812 10.1875 21.261719 C 9.914062 21.0625 9.691406 20.792969 9.554688 20.484375 C 9.875 20.054688 10.304688 19.722656 10.511719 19.21875 C 10.667969 18.957031 10.785156 18.664062 10.976562 18.429688 C 11.082031 18.46875 11.199219 18.476562 11.3125 18.476562 C 11.292969 18.476562 11.3125 18.480469 11.320312 18.484375 C 11.589844 18.585938 11.851562 18.703125 12.109375 18.832031 C 12.105469 18.828125 12.101562 18.828125 12.097656 18.824219 C 12.109375 18.832031 12.121094 18.835938 12.132812 18.84375 C 12.585938 19.097656 13.0625 19.324219 13.574219 19.441406 C 13.195312 19.777344 12.960938 20.25 12.546875 20.542969 C 12.304688 20.691406 12.039062 20.804688 11.828125 20.996094 C 11.636719 21.199219 11.527344 21.421875 11.867188 21.15625 C 11.867188 21.15625 11.867188 21.160156 11.867188 21.160156 C 12.128906 20.933594 12.457031 20.804688 12.730469 20.601562 C 13.089844 20.273438 13.398438 19.878906 13.632812 19.453125 C 13.902344 19.542969 15.613281 19.628906 14.667969 19.394531 " fill-opacity="1" fill-rule="nonzero"/><path fill="#ffffff" d="M 17.386719 16.105469 C 16.386719 17.039062 15.484375 18.132812 15.019531 19.429688 C 15.347656 19.148438 15.453125 18.707031 15.679688 18.347656 C 15.910156 17.957031 16.203125 17.609375 16.488281 17.257812 C 16.597656 17.09375 17.988281 15.734375 17.386719 16.105469 " fill-opacity="1" fill-rule="nonzero"/><path fill="#ffffff" d="M 14.746094 18.367188 C 13.28125 19.339844 15.953125 17.910156 16.027344 17.472656 C 15.652344 17.742188 15.285156 18.027344 14.894531 18.277344 C 14.894531 18.273438 14.898438 18.273438 14.898438 18.273438 C 14.847656 18.304688 14.796875 18.335938 14.746094 18.367188 " fill-opacity="1" fill-rule="nonzero"/><path fill="#ffffff" d="M 15.167969 18.308594 C 15.011719 18.390625 14.867188 18.496094 14.773438 18.644531 C 14.988281 18.660156 15.773438 18.003906 15.324219 18.222656 C 15.273438 18.25 15.21875 18.277344 15.167969 18.308594 " fill-opacity="1" fill-rule="nonzero"/><path fill="#ffffff" d="M 21 17.550781 C 20.066406 16.902344 19.863281 16.039062 18.617188 15.859375 C 18.601562 15.945312 18.976562 16.082031 19.117188 16.136719 C 19.113281 16.136719 19.109375 16.136719 19.109375 16.132812 C 19.898438 16.417969 20.222656 17.34375 20.980469 17.683594 C 21.269531 17.808594 21.183594 17.695312 21 17.550781 " fill-opacity="1" fill-rule="nonzero"/><path fill="#ffffff" d="M 24.25 16.132812 C 24.285156 16.363281 24.347656 16.054688 24.34375 15.957031 C 24.34375 15.777344 24.277344 15.609375 24.207031 15.449219 C 24.085938 15.152344 23.875 14.902344 23.6875 14.644531 C 23.726562 14.839844 23.8125 15.019531 23.910156 15.191406 C 24.074219 15.460938 24.167969 15.761719 24.234375 16.066406 C 24.238281 16.085938 24.246094 16.109375 24.25 16.132812 " fill-opacity="1" fill-rule="nonzero"/><path fill="#ffffff" d="M 20.617188 14.988281 C 21.332031 14.621094 19.578125 15.214844 19.363281 15.359375 C 19.367188 15.355469 19.367188 15.355469 19.363281 15.355469 C 19.351562 15.355469 19.320312 15.375 19.34375 15.382812 C 19.78125 15.316406 20.195312 15.125 20.617188 14.988281 " fill-opacity="1" fill-rule="nonzero"/><path fill="#ffffff" d="M 19.929688 15.304688 C 19.851562 15.328125 19.324219 15.386719 19.375 15.460938 C 19.613281 15.554688 20.613281 15.277344 19.929688 15.304688 " fill-opacity="1" fill-rule="nonzero"/><path fill="#ffffff" d="M 19.910156 13.523438 C 19.648438 13.609375 19.382812 13.691406 19.148438 13.828125 C 19.554688 13.855469 21.066406 13.207031 19.910156 13.523438 " fill-opacity="1" fill-rule="nonzero"/><path fill="#ffffff" d="M 22.242188 19.054688 C 22.183594 18.703125 21.914062 18.441406 21.757812 18.132812 C 21.519531 17.675781 21.351562 17.1875 21.179688 16.703125 C 21.03125 16.332031 21.0625 16.800781 21.117188 16.96875 C 21.214844 17.238281 21.320312 17.503906 21.425781 17.769531 C 21.269531 17.664062 21.160156 17.503906 21.042969 17.359375 C 21.042969 17.359375 21.042969 17.363281 21.046875 17.363281 C 20.664062 16.992188 21.003906 16.542969 21.3125 16.253906 C 21.3125 16.257812 21.3125 16.257812 21.3125 16.257812 C 21.835938 15.765625 22.570312 15.226562 23.328125 15.40625 C 23.703125 15.402344 24.617188 16.871094 24.058594 15.785156 C 23.4375 14.851562 22.234375 15.292969 21.535156 15.890625 C 20.75 16.496094 20.257812 17.28125 21.4375 17.789062 C 21.605469 18.242188 21.921875 18.613281 22.121094 19.050781 C 22.25 19.457031 22.304688 19.558594 22.242188 19.054688 " fill-opacity="1" fill-rule="nonzero"/><path fill="#ffffff" d="M 23.675781 24.007812 C 23.722656 23.648438 23.519531 23.3125 23.398438 22.984375 C 23.152344 22.253906 22.894531 21.523438 22.703125 20.78125 C 22.703125 20.777344 22.703125 20.777344 22.703125 20.777344 C 22.703125 20.78125 22.703125 20.78125 22.703125 20.785156 C 22.695312 20.753906 22.6875 20.722656 22.679688 20.691406 C 22.683594 20.695312 22.683594 20.695312 22.683594 20.699219 C 22.5625 20.21875 22.570312 19.683594 22.277344 19.261719 C 22.238281 19.523438 22.351562 19.769531 22.402344 20.023438 C 22.65625 21.398438 23.136719 22.722656 23.675781 24.007812 " fill-opacity="1" fill-rule="nonzero"/><path fill="#ffffff" d="M 24.777344 21.964844 C 24.265625 22.179688 23.675781 22.195312 23.140625 22.058594 C 23.140625 22.058594 23.140625 22.058594 23.136719 22.058594 C 23.429688 22.367188 24.160156 22.3125 24.601562 22.179688 C 24.804688 22.132812 25.238281 21.78125 24.777344 21.96875 C 24.777344 21.96875 24.777344 21.96875 24.777344 21.964844 " fill-opacity="1" fill-rule="nonzero"/><path fill="#ffffff" d="M 24.65625 20.84375 C 24.117188 21.164062 23.460938 21.289062 22.84375 21.171875 C 23.359375 21.523438 24.441406 21.289062 24.816406 20.789062 C 24.765625 20.804688 24.710938 20.820312 24.65625 20.84375 " fill-opacity="1" fill-rule="nonzero"/><path fill="#ffffff" d="M 23.273438 21.007812 C 23.671875 21.007812 23.863281 20.828125 23.332031 20.875 C 22.898438 20.914062 22.691406 20.996094 23.273438 21.007812 " fill-opacity="1" fill-rule="nonzero"/><path fill="#ffffff" d="M 24.179688 20.1875 C 23.820312 20.375 23.417969 20.414062 23.023438 20.460938 C 22.839844 20.492188 22.480469 20.464844 22.851562 20.554688 C 23.269531 20.617188 23.703125 20.519531 24.09375 20.375 C 24.28125 20.277344 24.640625 19.992188 24.179688 20.1875 " fill-opacity="1" fill-rule="nonzero"/><g clip-path="url(#6f45f2e76d)"><path fill="#ffffff" d="M 25.632812 24.316406 C 25.523438 24.277344 25.410156 24.273438 25.296875 24.304688 C 25.414062 24.195312 25.535156 24.078125 25.597656 23.929688 C 25.605469 24.011719 25.625 24.09375 25.652344 24.171875 C 25.675781 24.234375 25.703125 24.296875 25.734375 24.355469 C 25.699219 24.339844 25.667969 24.328125 25.632812 24.316406 Z M 25.199219 21 C 25.199219 20.996094 25.199219 20.996094 25.199219 20.992188 C 25.199219 20.992188 25.195312 20.992188 25.195312 20.988281 C 25.199219 20.992188 25.199219 20.996094 25.199219 21 C 25.199219 21 25.199219 20.996094 25.199219 20.996094 C 25.199219 20.996094 25.199219 20.996094 25.199219 21 Z M 26.664062 25.671875 C 26.527344 25.273438 26.234375 24.957031 26.03125 24.589844 C 25.882812 24.363281 25.796875 24.097656 25.609375 23.898438 C 25.621094 23.863281 25.679688 23.707031 25.640625 23.726562 C 25.636719 23.730469 25.636719 23.734375 25.632812 23.738281 C 25.625 23.742188 25.617188 23.75 25.609375 23.757812 C 25.601562 23.765625 25.597656 23.769531 25.589844 23.777344 C 25.625 22.835938 25.503906 21.878906 25.324219 20.953125 C 25.328125 20.957031 25.328125 20.957031 25.328125 20.957031 C 25.324219 20.941406 25.320312 20.925781 25.316406 20.910156 C 25.191406 20.414062 25.074219 19.917969 24.976562 19.414062 C 24.910156 19.257812 24.882812 18.390625 24.785156 18.535156 C 24.851562 18.222656 24.78125 17.90625 24.738281 17.59375 C 24.738281 17.597656 24.738281 17.601562 24.738281 17.605469 C 24.734375 17.589844 24.734375 17.570312 24.730469 17.554688 C 24.730469 17.558594 24.730469 17.5625 24.730469 17.566406 C 24.695312 17.125 24.453125 16.757812 24.210938 16.402344 C 24.023438 16.148438 23.910156 15.839844 23.671875 15.625 C 24.226562 17.15625 24.621094 16.566406 24.722656 18.742188 C 24.722656 18.746094 24.722656 18.746094 24.722656 18.746094 C 24.734375 18.710938 24.746094 18.675781 24.753906 18.640625 C 24.714844 19.601562 25.164062 20.53125 25.292969 21.480469 C 25.441406 22.242188 25.375 23.035156 25.582031 23.785156 C 25.253906 24.207031 24.714844 24.628906 24.183594 24.289062 C 24.183594 24.289062 24.1875 24.292969 24.191406 24.292969 C 24.027344 24.191406 23.855469 24.097656 23.707031 23.976562 C 23.882812 24.3125 24.257812 24.578125 24.648438 24.550781 C 24.476562 24.636719 24.109375 25.109375 24.472656 24.804688 C 24.847656 24.53125 25.296875 24.4375 25.746094 24.382812 C 25.773438 24.433594 25.796875 24.484375 25.828125 24.53125 C 25.328125 24.390625 24.628906 24.699219 24.464844 25.207031 C 24.808594 24.792969 25.34375 24.652344 25.851562 24.578125 C 25.875 24.613281 25.894531 24.648438 25.914062 24.683594 C 25.429688 24.476562 24.640625 25.046875 24.605469 25.421875 C 24.941406 25.027344 25.425781 24.769531 25.941406 24.726562 C 26.148438 25.152344 26.945312 25.894531 26.226562 26.21875 C 25.929688 26.320312 25.597656 26.566406 25.277344 26.449219 C 24.921875 26.21875 24.597656 25.886719 24.394531 25.511719 C 24.394531 25.515625 24.398438 25.515625 24.398438 25.519531 C 24.140625 25.003906 23.96875 24.449219 23.644531 23.972656 C 23.710938 24.433594 23.953125 24.855469 24.117188 25.289062 C 24.257812 25.710938 24.546875 26.039062 24.863281 26.339844 C 25.242188 26.828125 25.757812 26.609375 26.226562 26.402344 C 26.214844 26.648438 26.367188 26.910156 26.257812 27.140625 C 25.964844 27.046875 25.757812 26.789062 25.480469 26.664062 C 26.085938 27.515625 26.773438 27.582031 26.296875 26.371094 C 26.585938 26.277344 26.769531 25.96875 26.664062 25.671875 " fill-opacity="1" fill-rule="nonzero"/></g><path fill="#ffffff" d="M 25.191406 25.613281 C 25.480469 25.351562 25.867188 25.308594 26.238281 25.257812 C 25.777344 24.972656 25.050781 25.394531 24.960938 25.832031 C 24.96875 25.820312 24.972656 25.8125 24.980469 25.804688 C 25.003906 25.78125 25.027344 25.757812 25.050781 25.734375 C 25.050781 25.734375 25.046875 25.734375 25.046875 25.734375 C 25.09375 25.695312 25.144531 25.652344 25.191406 25.613281 " fill-opacity="1" fill-rule="nonzero"/><path fill="#ffffff" d="M 25.867188 24.933594 C 25.414062 24.914062 24.933594 25.265625 24.761719 25.679688 C 24.898438 25.542969 25.050781 25.421875 25.214844 25.320312 C 25.453125 25.148438 25.734375 25.042969 26.027344 25.03125 C 26.140625 25.03125 25.914062 24.9375 25.867188 24.933594 " fill-opacity="1" fill-rule="nonzero"/><path fill="#ffffff" d="M 26.367188 26.539062 C 26.367188 26.539062 26.367188 26.542969 26.371094 26.546875 C 26.367188 26.542969 26.367188 26.539062 26.367188 26.539062 " fill-opacity="1" fill-rule="nonzero"/><path fill="#ffffff" d="M 26.089844 26.757812 C 26.355469 27.390625 26.242188 26.582031 26 26.550781 C 26.035156 26.621094 26.0625 26.6875 26.089844 26.757812 " fill-opacity="1" fill-rule="nonzero"/><path fill="#ffffff" d="M 10.175781 20.132812 C 9.753906 19.542969 10.613281 21.558594 11.660156 21.390625 C 10.992188 21.089844 10.582031 20.746094 10.175781 20.132812 " fill-opacity="1" fill-rule="nonzero"/><path fill="#ffffff" d="M 11.683594 21.453125 C 10.734375 22.554688 9.960938 23.820312 8.863281 24.785156 C 8.863281 24.78125 8.867188 24.78125 8.871094 24.777344 C 8.800781 24.832031 8.738281 24.894531 8.679688 24.957031 C 8.226562 24.878906 7.726562 24.675781 7.550781 24.214844 C 7.550781 24.214844 7.554688 24.214844 7.554688 24.214844 C 7.550781 24.214844 7.550781 24.214844 7.550781 24.210938 C 7.550781 24.214844 7.550781 24.214844 7.550781 24.214844 C 7.542969 24.183594 7.535156 24.15625 7.527344 24.128906 C 7.378906 24.644531 8.234375 25.226562 8.765625 25.007812 C 8.617188 25.222656 8.394531 25.398438 8.199219 25.574219 C 8.199219 25.570312 8.203125 25.570312 8.203125 25.566406 C 7.859375 25.847656 7.457031 26.054688 7.113281 26.339844 C 7.117188 26.339844 7.117188 26.335938 7.121094 26.335938 C 6.027344 27.207031 9.050781 25.441406 8.765625 25.007812 C 8.789062 24.996094 8.820312 24.992188 8.78125 24.984375 C 9.125 24.878906 9.328125 24.546875 9.574219 24.300781 C 9.929688 23.925781 10.246094 23.519531 10.550781 23.097656 C 10.871094 22.601562 11.667969 21.886719 11.683594 21.453125 " fill-opacity="1" fill-rule="nonzero"/><path fill="#ffffff" d="M 10.765625 20.253906 C 10.296875 20.296875 10.441406 20.367188 10.816406 20.375 C 11.238281 20.34375 11.117188 20.203125 10.765625 20.253906 " fill-opacity="1" fill-rule="nonzero"/><path fill="#ffffff" d="M 10.265625 19.976562 C 10.855469 20.253906 11.796875 19.601562 10.394531 19.96875 C 10.375 19.96875 10.355469 19.96875 10.339844 19.972656 C 10.328125 19.972656 10.3125 19.972656 10.296875 19.976562 C 10.285156 19.976562 10.277344 19.976562 10.265625 19.976562 " fill-opacity="1" fill-rule="nonzero"/><g clip-path="url(#7ebab38702)"><path fill="#ffffff" d="M 6.445312 26.632812 C 6.289062 26.65625 6.132812 26.621094 5.996094 26.539062 C 6 26.539062 6.003906 26.542969 6.007812 26.542969 C 5.785156 26.421875 5.582031 26.199219 5.605469 25.929688 C 5.605469 25.933594 5.605469 25.9375 5.605469 25.941406 C 5.652344 25.359375 6.230469 25.101562 6.644531 24.792969 C 7.058594 24.894531 7.472656 25.144531 7.707031 25.507812 C 7.722656 25.039062 7.085938 24.738281 6.675781 24.773438 C 6.898438 24.710938 7.664062 23.746094 7.171875 24.195312 C 6.5625 24.804688 4.875 25.371094 5.632812 26.457031 C 5.46875 26.582031 5.285156 26.714844 5.1875 26.898438 C 5.101562 27.332031 6.503906 26.640625 5.800781 26.796875 C 5.660156 26.816406 5.523438 26.871094 5.378906 26.890625 C 5.472656 26.757812 5.570312 26.628906 5.671875 26.5 C 5.835938 26.667969 6.066406 26.800781 6.308594 26.808594 C 6.582031 26.789062 6.964844 26.554688 6.445312 26.632812 " fill-opacity="1" fill-rule="nonzero"/></g><path fill="#ffffff" d="M 6.933594 25.96875 C 7.414062 26.609375 6.820312 25.195312 6.253906 25.300781 C 6.550781 25.4375 6.75 25.710938 6.933594 25.96875 " fill-opacity="1" fill-rule="nonzero"/><path fill="#ffffff" d="M 7.484375 25.960938 C 7.382812 25.554688 7.023438 25.070312 6.585938 25.015625 C 6.726562 25.074219 6.835938 25.199219 6.9375 25.308594 C 6.804688 25.207031 6.640625 25.128906 6.476562 25.121094 C 6.605469 25.195312 6.726562 25.285156 6.835938 25.386719 C 6.980469 25.496094 7.476562 26.234375 7.316406 25.792969 C 7.367188 25.855469 7.425781 25.910156 7.484375 25.960938 " fill-opacity="1" fill-rule="nonzero"/><path fill="#ffffff" d="M 7.644531 25.757812 C 7.511719 25.34375 7.003906 24.824219 6.558594 24.925781 C 6.566406 24.925781 6.574219 24.925781 6.585938 24.925781 C 7.039062 25.046875 7.292969 25.480469 7.644531 25.757812 " fill-opacity="1" fill-rule="nonzero"/><path fill="#ffffff" d="M 7.75 25.007812 C 7.59375 24.84375 7.171875 24.535156 7.023438 24.75 C 7.433594 24.699219 7.667969 25.234375 8.015625 25.386719 C 7.960938 25.242188 7.867188 25.113281 7.75 25.007812 " fill-opacity="1" fill-rule="nonzero"/><path fill="#ffffff" d="M 8.148438 25.273438 C 7.976562 24.894531 7.558594 24.527344 7.167969 24.457031 C 7.28125 24.527344 7.375 24.617188 7.476562 24.699219 C 7.472656 24.699219 7.472656 24.695312 7.46875 24.695312 C 7.699219 24.882812 7.882812 25.132812 8.148438 25.273438 " fill-opacity="1" fill-rule="nonzero"/><path fill="#ffffff" d="M 15.863281 17.011719 C 16.144531 16.988281 16.355469 16.777344 16.523438 16.570312 C 16.273438 16.664062 16.011719 16.785156 15.863281 17.011719 " fill-opacity="1" fill-rule="nonzero"/><path fill="#ffffff" d="M 15.941406 5.761719 C 15.578125 6.210938 15.203125 6.714844 15.25 7.324219 C 15.25 7.320312 15.25 7.316406 15.25 7.316406 C 15.246094 7.476562 15.277344 7.640625 15.34375 7.785156 C 15.429688 7.519531 15.378906 7.246094 15.410156 6.976562 C 15.464844 6.523438 15.863281 6.203125 15.941406 5.761719 " fill-opacity="1" fill-rule="nonzero"/><path fill="#ffffff" d="M 15.554688 7.136719 C 15.722656 6.914062 15.703125 6.621094 15.800781 6.367188 C 15.59375 6.546875 15.484375 6.871094 15.554688 7.136719 " fill-opacity="1" fill-rule="nonzero"/><path fill="#ffffff" d="M 20.191406 5.757812 C 20.183594 5.945312 19.980469 6.992188 20.214844 6.476562 C 20.289062 6.269531 20.328125 6.042969 20.304688 5.820312 C 20.28125 5.640625 20.179688 5.214844 20.195312 5.683594 C 20.195312 5.707031 20.195312 5.730469 20.191406 5.757812 " fill-opacity="1" fill-rule="nonzero"/></svg>