<svg xmlns="http://www.w3.org/2000/svg" xmlns:xlink="http://www.w3.org/1999/xlink" width="40" zoomAndPan="magnify" viewBox="0 0 30 30.000001" height="40" preserveAspectRatio="xMidYMid meet" version="1.0"><defs><clipPath id="f4ac7709a0"><path d="M 0.484375 0 L 29.515625 0 L 29.515625 29.03125 L 0.484375 29.03125 Z M 0.484375 0 " clip-rule="nonzero"/></clipPath><clipPath id="041b72e366"><path d="M 3.386719 1.738281 L 26.613281 1.738281 L 26.613281 26 L 3.386719 26 Z M 3.386719 1.738281 " clip-rule="nonzero"/></clipPath><clipPath id="c14edfed29"><path d="M 3.386719 24 L 7 24 L 7 27.140625 L 3.386719 27.140625 Z M 3.386719 24 " clip-rule="nonzero"/></clipPath><clipPath id="516e56d5f8"><path d="M 13 24 L 17 24 L 17 27.140625 L 13 27.140625 Z M 13 24 " clip-rule="nonzero"/></clipPath><clipPath id="d670a0e0dd"><path d="M 23 24 L 26.613281 24 L 26.613281 27.140625 L 23 27.140625 Z M 23 24 " clip-rule="nonzero"/></clipPath><clipPath id="0fd8f7944a"><path d="M 14 1.738281 L 16 1.738281 L 16 26 L 14 26 Z M 14 1.738281 " clip-rule="nonzero"/></clipPath></defs><g clip-path="url(#f4ac7709a0)"><path fill="#ffffff" d="M 0.484375 0 L 29.515625 0 L 29.515625 29.03125 L 0.484375 29.03125 Z M 0.484375 0 " fill-opacity="1" fill-rule="nonzero"/><path fill="#000000" d="M 0.484375 0 L 29.515625 0 L 29.515625 29.03125 L 0.484375 29.03125 Z M 0.484375 0 " fill-opacity="1" fill-rule="nonzero"/></g><g clip-path="url(#041b72e366)"><path fill="#ffffff" d="M 3.9375 24.914062 L 26.046875 24.914062 L 26.046875 2.300781 L 3.9375 2.300781 Z M 26.324219 25.472656 L 3.660156 25.472656 C 3.503906 25.472656 3.378906 25.347656 3.378906 25.195312 L 3.378906 2.019531 C 3.378906 1.867188 3.503906 1.742188 3.660156 1.742188 L 26.324219 1.742188 C 26.476562 1.742188 26.601562 1.867188 26.601562 2.019531 L 26.601562 25.195312 C 26.601562 25.347656 26.476562 25.472656 26.324219 25.472656 Z M 26.324219 25.472656 " fill-opacity="1" fill-rule="evenodd"/></g><g clip-path="url(#c14edfed29)"><path fill="#ffffff" d="M 6.261719 27.265625 L 3.660156 27.265625 C 3.503906 27.265625 3.378906 27.140625 3.378906 26.988281 L 3.378906 25.195312 C 3.378906 25.039062 3.503906 24.914062 3.660156 24.914062 C 3.8125 24.914062 3.9375 25.039062 3.9375 25.195312 L 3.9375 26.707031 L 5.984375 26.707031 L 5.984375 25.195312 C 5.984375 25.039062 6.109375 24.914062 6.261719 24.914062 C 6.417969 24.914062 6.542969 25.039062 6.542969 25.195312 L 6.542969 26.988281 C 6.542969 27.140625 6.417969 27.265625 6.261719 27.265625 Z M 6.261719 27.265625 " fill-opacity="1" fill-rule="evenodd"/></g><g clip-path="url(#516e56d5f8)"><path fill="#ffffff" d="M 16.292969 27.265625 L 13.691406 27.265625 C 13.535156 27.265625 13.410156 27.140625 13.410156 26.988281 L 13.410156 25.195312 C 13.410156 25.039062 13.535156 24.914062 13.691406 24.914062 C 13.84375 24.914062 13.96875 25.039062 13.96875 25.195312 L 13.96875 26.707031 L 16.015625 26.707031 L 16.015625 25.195312 C 16.015625 25.039062 16.140625 24.914062 16.292969 24.914062 C 16.449219 24.914062 16.574219 25.039062 16.574219 25.195312 L 16.574219 26.988281 C 16.574219 27.140625 16.449219 27.265625 16.292969 27.265625 Z M 16.292969 27.265625 " fill-opacity="1" fill-rule="evenodd"/></g><g clip-path="url(#d670a0e0dd)"><path fill="#ffffff" d="M 26.324219 27.265625 L 23.722656 27.265625 C 23.566406 27.265625 23.441406 27.140625 23.441406 26.988281 L 23.441406 25.195312 C 23.441406 25.039062 23.566406 24.914062 23.722656 24.914062 C 23.875 24.914062 24 25.039062 24 25.195312 L 24 26.707031 L 26.046875 26.707031 L 26.046875 25.195312 C 26.046875 25.039062 26.171875 24.914062 26.324219 24.914062 C 26.480469 24.914062 26.601562 25.039062 26.601562 25.195312 L 26.601562 26.988281 C 26.601562 27.140625 26.476562 27.265625 26.324219 27.265625 Z M 26.324219 27.265625 " fill-opacity="1" fill-rule="evenodd"/></g><g clip-path="url(#0fd8f7944a)"><path fill="#ffffff" d="M 14.992188 25.472656 C 14.839844 25.472656 14.714844 25.347656 14.714844 25.195312 L 14.714844 2.019531 C 14.714844 1.867188 14.835938 1.742188 14.992188 1.742188 C 15.144531 1.742188 15.269531 1.867188 15.269531 2.019531 L 15.269531 25.195312 C 15.269531 25.347656 15.144531 25.472656 14.992188 25.472656 Z M 14.992188 25.472656 " fill-opacity="1" fill-rule="evenodd"/></g><path fill="#ffffff" d="M 5.75 23.105469 L 12.902344 23.105469 L 12.902344 4.109375 L 5.75 4.109375 Z M 13.179688 23.660156 L 5.46875 23.660156 C 5.316406 23.660156 5.191406 23.539062 5.191406 23.382812 L 5.191406 3.832031 C 5.191406 3.679688 5.316406 3.554688 5.46875 3.554688 L 13.179688 3.554688 C 13.335938 3.554688 13.460938 3.679688 13.460938 3.832031 L 13.460938 23.382812 C 13.460938 23.535156 13.335938 23.660156 13.179688 23.660156 Z M 13.179688 23.660156 " fill-opacity="1" fill-rule="evenodd"/><path fill="#ffffff" d="M 11.660156 6.136719 L 6.988281 6.136719 C 6.835938 6.136719 6.710938 6.011719 6.710938 5.859375 C 6.710938 5.703125 6.835938 5.578125 6.988281 5.578125 L 11.660156 5.578125 C 11.816406 5.578125 11.941406 5.703125 11.941406 5.859375 C 11.941406 6.011719 11.816406 6.136719 11.660156 6.136719 Z M 11.660156 6.136719 " fill-opacity="1" fill-rule="evenodd"/><path fill="#ffffff" d="M 10.929688 7.375 L 7.722656 7.375 C 7.566406 7.375 7.441406 7.25 7.441406 7.09375 C 7.441406 6.941406 7.566406 6.816406 7.722656 6.816406 L 10.929688 6.816406 C 11.082031 6.816406 11.207031 6.941406 11.207031 7.09375 C 11.207031 7.25 11.082031 7.375 10.929688 7.375 Z M 10.929688 7.375 " fill-opacity="1" fill-rule="evenodd"/><path fill="#ffffff" d="M 10.425781 8.609375 L 8.222656 8.609375 C 8.070312 8.609375 7.945312 8.484375 7.945312 8.332031 C 7.945312 8.175781 8.070312 8.050781 8.222656 8.050781 L 10.425781 8.050781 C 10.582031 8.050781 10.707031 8.175781 10.707031 8.332031 C 10.707031 8.484375 10.582031 8.609375 10.425781 8.609375 Z M 10.425781 8.609375 " fill-opacity="1" fill-rule="evenodd"/><path fill="#ffffff" d="M 11.660156 21.636719 L 6.988281 21.636719 C 6.835938 21.636719 6.710938 21.511719 6.710938 21.359375 C 6.710938 21.203125 6.835938 21.078125 6.988281 21.078125 L 11.660156 21.078125 C 11.816406 21.078125 11.941406 21.203125 11.941406 21.359375 C 11.941406 21.511719 11.816406 21.636719 11.660156 21.636719 Z M 11.660156 21.636719 " fill-opacity="1" fill-rule="evenodd"/><path fill="#ffffff" d="M 10.929688 20.398438 L 7.722656 20.398438 C 7.566406 20.398438 7.441406 20.273438 7.441406 20.121094 C 7.441406 19.96875 7.566406 19.84375 7.722656 19.84375 L 10.929688 19.84375 C 11.082031 19.84375 11.207031 19.96875 11.207031 20.121094 C 11.207031 20.273438 11.082031 20.398438 10.929688 20.398438 Z M 10.929688 20.398438 " fill-opacity="1" fill-rule="evenodd"/><path fill="#ffffff" d="M 10.425781 19.164062 L 8.222656 19.164062 C 8.070312 19.164062 7.945312 19.039062 7.945312 18.882812 C 7.945312 18.730469 8.070312 18.605469 8.222656 18.605469 L 10.425781 18.605469 C 10.582031 18.605469 10.707031 18.730469 10.707031 18.882812 C 10.707031 19.039062 10.582031 19.164062 10.425781 19.164062 Z M 10.425781 19.164062 " fill-opacity="1" fill-rule="evenodd"/><path fill="#ffffff" d="M 6.992188 15.28125 C 6.839844 15.28125 6.714844 15.15625 6.714844 15 L 6.714844 12.214844 C 6.714844 12.0625 6.839844 11.9375 6.992188 11.9375 C 7.148438 11.9375 7.273438 12.0625 7.273438 12.214844 L 7.273438 15 C 7.273438 15.15625 7.148438 15.28125 6.992188 15.28125 Z M 6.992188 15.28125 " fill-opacity="1" fill-rule="evenodd"/><path fill="#ffffff" d="M 17.082031 23.105469 L 24.234375 23.105469 L 24.234375 4.109375 L 17.082031 4.109375 Z M 24.511719 23.660156 L 16.804688 23.660156 C 16.648438 23.660156 16.523438 23.539062 16.523438 23.382812 L 16.523438 3.832031 C 16.523438 3.679688 16.648438 3.554688 16.804688 3.554688 L 24.511719 3.554688 C 24.667969 3.554688 24.792969 3.679688 24.792969 3.832031 L 24.792969 23.382812 C 24.792969 23.535156 24.667969 23.660156 24.511719 23.660156 Z M 24.511719 23.660156 " fill-opacity="1" fill-rule="evenodd"/><path fill="#ffffff" d="M 22.992188 6.136719 L 18.324219 6.136719 C 18.167969 6.136719 18.042969 6.011719 18.042969 5.859375 C 18.042969 5.703125 18.167969 5.578125 18.324219 5.578125 L 22.992188 5.578125 C 23.148438 5.578125 23.273438 5.703125 23.273438 5.859375 C 23.273438 6.011719 23.148438 6.136719 22.992188 6.136719 Z M 22.992188 6.136719 " fill-opacity="1" fill-rule="evenodd"/><path fill="#ffffff" d="M 22.261719 7.375 L 19.054688 7.375 C 18.898438 7.375 18.773438 7.25 18.773438 7.09375 C 18.773438 6.941406 18.898438 6.816406 19.054688 6.816406 L 22.261719 6.816406 C 22.417969 6.816406 22.542969 6.941406 22.542969 7.09375 C 22.542969 7.25 22.417969 7.375 22.261719 7.375 Z M 22.261719 7.375 " fill-opacity="1" fill-rule="evenodd"/><path fill="#ffffff" d="M 21.761719 8.609375 L 19.554688 8.609375 C 19.402344 8.609375 19.277344 8.484375 19.277344 8.332031 C 19.277344 8.175781 19.402344 8.050781 19.554688 8.050781 L 21.761719 8.050781 C 21.914062 8.050781 22.039062 8.175781 22.039062 8.332031 C 22.039062 8.484375 21.914062 8.609375 21.761719 8.609375 Z M 21.761719 8.609375 " fill-opacity="1" fill-rule="evenodd"/><path fill="#ffffff" d="M 22.992188 21.636719 L 18.324219 21.636719 C 18.167969 21.636719 18.042969 21.511719 18.042969 21.359375 C 18.042969 21.203125 18.167969 21.078125 18.324219 21.078125 L 22.992188 21.078125 C 23.148438 21.078125 23.273438 21.203125 23.273438 21.359375 C 23.273438 21.511719 23.148438 21.636719 22.992188 21.636719 Z M 22.992188 21.636719 " fill-opacity="1" fill-rule="evenodd"/><path fill="#ffffff" d="M 22.261719 20.398438 L 19.054688 20.398438 C 18.898438 20.398438 18.773438 20.273438 18.773438 20.121094 C 18.773438 19.96875 18.898438 19.84375 19.054688 19.84375 L 22.261719 19.84375 C 22.417969 19.84375 22.542969 19.96875 22.542969 20.121094 C 22.542969 20.273438 22.417969 20.398438 22.261719 20.398438 Z M 22.261719 20.398438 " fill-opacity="1" fill-rule="evenodd"/><path fill="#ffffff" d="M 21.761719 19.164062 L 19.554688 19.164062 C 19.402344 19.164062 19.277344 19.039062 19.277344 18.882812 C 19.277344 18.730469 19.402344 18.605469 19.554688 18.605469 L 21.761719 18.605469 C 21.914062 18.605469 22.039062 18.730469 22.039062 18.882812 C 22.039062 19.039062 21.914062 19.164062 21.761719 19.164062 Z M 21.761719 19.164062 " fill-opacity="1" fill-rule="evenodd"/><path fill="#ffffff" d="M 18.328125 15.28125 C 18.171875 15.28125 18.046875 15.15625 18.046875 15 L 18.046875 12.214844 C 18.046875 12.0625 18.171875 11.9375 18.328125 11.9375 C 18.480469 11.9375 18.605469 12.0625 18.605469 12.214844 L 18.605469 15 C 18.605469 15.15625 18.480469 15.28125 18.328125 15.28125 Z M 18.328125 15.28125 " fill-opacity="1" fill-rule="evenodd"/></svg>