<svg xmlns="http://www.w3.org/2000/svg" xmlns:xlink="http://www.w3.org/1999/xlink" width="40" zoomAndPan="magnify" viewBox="0 0 30 30.000001" height="40" preserveAspectRatio="xMidYMid meet" version="1.0"><defs><clipPath id="b8486b6e28"><path d="M 0.484375 0 L 29.515625 0 L 29.515625 29.03125 L 0.484375 29.03125 Z M 0.484375 0 " clip-rule="nonzero"/></clipPath><clipPath id="e9550a2279"><path d="M 3.386719 10 L 21 10 L 21 25.402344 L 3.386719 25.402344 Z M 3.386719 10 " clip-rule="nonzero"/></clipPath><clipPath id="26bd14e696"><path d="M 18 2.902344 L 26.613281 2.902344 L 26.613281 25.402344 L 18 25.402344 Z M 18 2.902344 " clip-rule="nonzero"/></clipPath></defs><g clip-path="url(#b8486b6e28)"><path fill="#ffffff" d="M 0.484375 0 L 29.515625 0 L 29.515625 29.03125 L 0.484375 29.03125 Z M 0.484375 0 " fill-opacity="1" fill-rule="nonzero"/><path fill="#000000" d="M 0.484375 0 L 29.515625 0 L 29.515625 29.03125 L 0.484375 29.03125 Z M 0.484375 0 " fill-opacity="1" fill-rule="nonzero"/></g><g clip-path="url(#e9550a2279)"><path fill="#ffffff" d="M 19.910156 16.324219 L 18.867188 15.453125 L 19.171875 15.25 L 20.097656 15.25 C 20.488281 15.25 20.800781 14.933594 20.800781 14.546875 L 20.800781 14.453125 C 20.800781 14.066406 20.488281 13.75 20.097656 13.75 L 19.726562 13.75 C 19.285156 13.75 18.929688 14.105469 18.929688 14.546875 L 18.929688 14.964844 L 18.640625 15.15625 L 17.335938 12.027344 C 17.011719 11.257812 16.269531 10.757812 15.433594 10.757812 L 9.230469 10.757812 C 8.445312 10.757812 7.738281 11.191406 7.390625 11.894531 L 5.757812 15.160156 L 5.457031 14.957031 L 5.457031 14.550781 C 5.457031 14.113281 5.101562 13.757812 4.660156 13.757812 L 4.289062 13.757812 C 3.898438 13.757812 3.585938 14.070312 3.585938 14.457031 L 3.585938 14.550781 C 3.585938 14.941406 3.898438 15.253906 4.289062 15.253906 L 5.214844 15.253906 L 5.519531 15.460938 L 4.472656 16.324219 C 3.792969 16.894531 3.398438 17.734375 3.398438 18.625 L 3.398438 24.046875 C 3.398438 24.152344 3.484375 24.234375 3.585938 24.234375 L 3.773438 24.234375 L 3.773438 24.609375 C 3.773438 25.019531 4.109375 25.359375 4.519531 25.359375 L 6.019531 25.359375 C 6.429688 25.359375 6.765625 25.019531 6.765625 24.609375 L 6.765625 24.234375 L 8.824219 24.234375 C 8.875 24.234375 8.921875 24.214844 8.957031 24.179688 L 9.273438 23.859375 L 15.109375 23.859375 L 15.425781 24.179688 C 15.464844 24.214844 15.511719 24.234375 15.558594 24.234375 L 17.613281 24.234375 L 17.613281 24.609375 C 17.613281 25.019531 17.953125 25.359375 18.363281 25.359375 L 19.859375 25.359375 C 20.273438 25.359375 20.609375 25.019531 20.609375 24.609375 L 20.609375 24.234375 L 20.796875 24.234375 C 20.898438 24.234375 20.984375 24.152344 20.984375 24.046875 L 20.984375 18.625 C 20.988281 17.738281 20.59375 16.894531 19.910156 16.324219 Z M 19.304688 14.550781 C 19.304688 14.316406 19.492188 14.128906 19.726562 14.128906 L 20.097656 14.128906 C 20.28125 14.128906 20.425781 14.277344 20.425781 14.457031 L 20.425781 14.550781 C 20.425781 14.734375 20.28125 14.878906 20.097656 14.878906 L 19.304688 14.878906 Z M 7.726562 12.066406 C 8.011719 11.492188 8.589844 11.136719 9.230469 11.136719 L 15.433594 11.136719 C 16.117188 11.136719 16.726562 11.542969 16.988281 12.175781 L 18.273438 15.253906 L 17.574219 15.253906 L 16.6875 12.3125 C 16.542969 11.832031 16.113281 11.511719 15.613281 11.511719 L 9.082031 11.511719 C 8.617188 11.511719 8.210938 11.785156 8.039062 12.21875 L 6.824219 15.253906 L 6.136719 15.253906 Z M 17.179688 15.253906 L 7.230469 15.253906 L 8.390625 12.359375 C 8.503906 12.070312 8.777344 11.886719 9.085938 11.886719 L 15.617188 11.886719 C 15.949219 11.886719 16.238281 12.101562 16.332031 12.417969 Z M 3.960938 14.550781 L 3.960938 14.457031 C 3.960938 14.277344 4.105469 14.128906 4.289062 14.128906 L 4.660156 14.128906 C 4.894531 14.128906 5.082031 14.316406 5.082031 14.550781 L 5.082031 14.878906 L 4.289062 14.878906 C 4.105469 14.878906 3.960938 14.734375 3.960938 14.550781 Z M 4.714844 16.613281 L 5.898438 15.628906 L 18.484375 15.628906 L 19.667969 16.613281 C 19.964844 16.863281 20.199219 17.160156 20.355469 17.5 L 15.640625 17.5 L 14.199219 16.058594 C 14.125 15.984375 14.007812 15.984375 13.933594 16.058594 C 13.859375 16.132812 13.859375 16.25 13.933594 16.324219 L 15.113281 17.503906 L 9.277344 17.503906 L 10.457031 16.324219 C 10.53125 16.25 10.53125 16.132812 10.457031 16.058594 C 10.382812 15.984375 10.265625 15.984375 10.191406 16.058594 L 8.746094 17.5 L 4.023438 17.5 C 4.1875 17.160156 4.417969 16.859375 4.714844 16.613281 Z M 3.886719 17.871094 L 20.507812 17.871094 C 20.578125 18.117188 20.617188 18.367188 20.617188 18.625 L 20.617188 21.242188 L 3.773438 21.242188 L 3.773438 18.625 C 3.773438 18.367188 3.808594 18.117188 3.886719 17.871094 Z M 9.761719 21.617188 L 14.625 21.617188 L 14.625 22.738281 L 9.761719 22.738281 Z M 6.390625 24.609375 C 6.390625 24.816406 6.222656 24.984375 6.019531 24.984375 L 4.519531 24.984375 C 4.316406 24.984375 4.148438 24.816406 4.148438 24.609375 L 4.148438 24.234375 L 6.390625 24.234375 Z M 20.238281 24.609375 C 20.238281 24.816406 20.070312 24.984375 19.863281 24.984375 L 18.367188 24.984375 C 18.164062 24.984375 17.992188 24.816406 17.992188 24.609375 L 17.992188 24.234375 L 20.238281 24.234375 Z M 20.613281 23.859375 L 15.640625 23.859375 L 15.324219 23.542969 C 15.285156 23.503906 15.238281 23.488281 15.191406 23.488281 L 9.199219 23.488281 C 9.148438 23.488281 9.101562 23.503906 9.066406 23.542969 L 8.75 23.859375 L 3.773438 23.859375 L 3.773438 21.617188 L 9.386719 21.617188 L 9.386719 22.925781 C 9.386719 23.027344 9.46875 23.113281 9.574219 23.113281 L 14.8125 23.113281 C 14.914062 23.113281 15 23.027344 15 22.925781 L 15 21.617188 L 20.613281 21.617188 Z M 20.613281 23.859375 " fill-opacity="1" fill-rule="nonzero"/></g><path fill="#ffffff" d="M 10.226562 20.867188 L 14.15625 20.867188 C 15.03125 20.867188 15.75 20.152344 15.75 19.277344 L 15.75 19.183594 C 15.75 19.078125 15.664062 18.996094 15.5625 18.996094 L 8.824219 18.996094 C 8.722656 18.996094 8.636719 19.078125 8.636719 19.183594 L 8.636719 19.277344 C 8.636719 20.152344 9.355469 20.867188 10.226562 20.867188 Z M 15.371094 19.371094 C 15.324219 19.996094 14.792969 20.492188 14.15625 20.492188 L 10.226562 20.492188 C 9.585938 20.492188 9.0625 19.996094 9.015625 19.371094 Z M 15.371094 19.371094 " fill-opacity="1" fill-rule="nonzero"/><path fill="#ffffff" d="M 4.375 19.589844 C 4.480469 20.113281 4.941406 20.492188 5.476562 20.492188 L 8.078125 20.492188 C 8.136719 20.492188 8.199219 20.460938 8.230469 20.410156 C 8.261719 20.355469 8.273438 20.292969 8.25 20.234375 L 7.734375 18.953125 C 7.5625 18.523438 7.15625 18.246094 6.691406 18.246094 L 4.335938 18.246094 C 4.277344 18.246094 4.226562 18.269531 4.1875 18.316406 C 4.152344 18.363281 4.136719 18.414062 4.152344 18.472656 Z M 6.695312 18.621094 C 7.003906 18.621094 7.277344 18.804688 7.394531 19.09375 L 7.804688 20.117188 L 5.476562 20.117188 C 5.121094 20.117188 4.8125 19.867188 4.742188 19.515625 L 4.5625 18.621094 Z M 6.695312 18.621094 " fill-opacity="1" fill-rule="nonzero"/><path fill="#ffffff" d="M 16.308594 20.492188 L 18.910156 20.492188 C 19.445312 20.492188 19.90625 20.113281 20.011719 19.589844 L 20.234375 18.472656 C 20.242188 18.414062 20.230469 18.359375 20.199219 18.316406 C 20.164062 18.273438 20.109375 18.246094 20.050781 18.246094 L 17.691406 18.246094 C 17.226562 18.246094 16.820312 18.523438 16.648438 18.953125 L 16.132812 20.234375 C 16.109375 20.292969 16.117188 20.355469 16.152344 20.410156 C 16.1875 20.460938 16.25 20.492188 16.308594 20.492188 Z M 16.996094 19.09375 C 17.109375 18.808594 17.386719 18.621094 17.695312 18.621094 L 19.828125 18.621094 L 19.648438 19.515625 C 19.578125 19.867188 19.269531 20.117188 18.914062 20.117188 L 16.589844 20.117188 Z M 16.996094 19.09375 " fill-opacity="1" fill-rule="nonzero"/><path fill="#ffffff" d="M 8.824219 21.988281 L 4.335938 21.988281 C 4.230469 21.988281 4.148438 22.074219 4.148438 22.175781 L 4.148438 22.925781 C 4.148438 23.027344 4.230469 23.113281 4.335938 23.113281 L 8.824219 23.113281 C 8.929688 23.113281 9.011719 23.027344 9.011719 22.925781 L 9.011719 22.175781 C 9.011719 22.074219 8.929688 21.988281 8.824219 21.988281 Z M 8.636719 22.738281 L 4.519531 22.738281 L 4.519531 22.363281 L 8.636719 22.363281 Z M 8.636719 22.738281 " fill-opacity="1" fill-rule="nonzero"/><path fill="#ffffff" d="M 15.5625 23.113281 L 20.050781 23.113281 C 20.15625 23.113281 20.238281 23.027344 20.238281 22.925781 L 20.238281 22.175781 C 20.238281 22.074219 20.15625 21.988281 20.050781 21.988281 L 15.5625 21.988281 C 15.457031 21.988281 15.375 22.074219 15.375 22.175781 L 15.375 22.925781 C 15.375 23.027344 15.457031 23.113281 15.5625 23.113281 Z M 15.75 22.363281 L 19.863281 22.363281 L 19.863281 22.738281 L 15.75 22.738281 Z M 15.75 22.363281 " fill-opacity="1" fill-rule="nonzero"/><g clip-path="url(#26bd14e696)"><path fill="#ffffff" d="M 26.601562 6.832031 C 26.601562 4.667969 24.839844 2.902344 22.671875 2.902344 C 20.507812 2.902344 18.742188 4.667969 18.742188 6.832031 C 18.742188 8.808594 20.207031 10.449219 22.109375 10.71875 L 22.109375 21.367188 C 21.667969 21.578125 21.363281 22.027344 21.363281 22.550781 L 21.363281 25.171875 C 21.363281 25.273438 21.445312 25.359375 21.550781 25.359375 L 23.792969 25.359375 C 23.898438 25.359375 23.980469 25.273438 23.980469 25.171875 L 23.980469 22.550781 C 23.980469 22.03125 23.679688 21.578125 23.234375 21.367188 L 23.234375 10.71875 C 25.136719 10.449219 26.601562 8.808594 26.601562 6.832031 Z M 19.117188 6.832031 C 19.117188 4.871094 20.710938 3.277344 22.671875 3.277344 C 24.632812 3.277344 26.226562 4.871094 26.226562 6.832031 C 26.226562 8.792969 24.632812 10.386719 22.671875 10.386719 C 20.710938 10.386719 19.117188 8.792969 19.117188 6.832031 Z M 23.609375 22.550781 L 23.609375 24.984375 L 21.738281 24.984375 L 21.738281 22.550781 C 21.738281 22.035156 22.15625 21.617188 22.671875 21.617188 C 23.1875 21.617188 23.609375 22.035156 23.609375 22.550781 Z M 22.859375 21.253906 C 22.796875 21.246094 22.738281 21.242188 22.671875 21.242188 C 22.605469 21.242188 22.546875 21.246094 22.484375 21.253906 L 22.484375 10.757812 C 22.546875 10.761719 22.609375 10.761719 22.671875 10.761719 C 22.734375 10.761719 22.796875 10.761719 22.859375 10.757812 Z M 22.859375 21.253906 " fill-opacity="1" fill-rule="nonzero"/></g><path fill="#ffffff" d="M 25.851562 6.832031 C 25.851562 5.078125 24.425781 3.652344 22.671875 3.652344 C 20.917969 3.652344 19.492188 5.078125 19.492188 6.832031 C 19.492188 8.585938 20.917969 10.015625 22.671875 10.015625 C 24.425781 10.015625 25.851562 8.585938 25.851562 6.832031 Z M 19.863281 6.832031 C 19.863281 5.285156 21.125 4.027344 22.671875 4.027344 C 24.21875 4.027344 25.480469 5.285156 25.480469 6.832031 C 25.480469 8.382812 24.21875 9.640625 22.671875 9.640625 C 21.125 9.640625 19.863281 8.382812 19.863281 6.832031 Z M 19.863281 6.832031 " fill-opacity="1" fill-rule="nonzero"/><path fill="#ffffff" d="M 23.609375 6.085938 C 23.609375 5.777344 23.355469 5.523438 23.046875 5.523438 L 22.484375 5.523438 C 22.382812 5.523438 22.296875 5.605469 22.296875 5.710938 L 22.296875 6.457031 C 22.296875 6.5625 22.382812 6.644531 22.484375 6.644531 L 23.046875 6.644531 C 23.355469 6.644531 23.609375 6.394531 23.609375 6.085938 Z M 22.671875 5.898438 L 23.046875 5.898438 C 23.148438 5.898438 23.234375 5.980469 23.234375 6.085938 C 23.234375 6.1875 23.148438 6.269531 23.046875 6.269531 L 22.671875 6.269531 Z M 22.671875 5.898438 " fill-opacity="1" fill-rule="nonzero"/><path fill="#ffffff" d="M 22.671875 7.394531 L 23.046875 7.394531 C 23.765625 7.394531 24.355469 6.804688 24.355469 6.085938 C 24.355469 5.363281 23.765625 4.773438 23.046875 4.773438 L 22.109375 4.773438 C 21.800781 4.773438 21.550781 5.027344 21.550781 5.335938 L 21.550781 8.703125 C 21.550781 8.808594 21.632812 8.890625 21.738281 8.890625 L 22.484375 8.890625 C 22.585938 8.890625 22.671875 8.808594 22.671875 8.703125 Z M 22.484375 7.019531 C 22.382812 7.019531 22.296875 7.105469 22.296875 7.207031 L 22.296875 8.515625 L 21.921875 8.515625 L 21.921875 5.335938 C 21.921875 5.234375 22.007812 5.148438 22.109375 5.148438 L 23.046875 5.148438 C 23.5625 5.148438 23.980469 5.570312 23.980469 6.085938 C 23.980469 6.597656 23.5625 7.019531 23.046875 7.019531 Z M 22.484375 7.019531 " fill-opacity="1" fill-rule="nonzero"/></svg>