<svg xmlns="http://www.w3.org/2000/svg" xmlns:xlink="http://www.w3.org/1999/xlink" width="40" zoomAndPan="magnify" viewBox="0 0 30 30.000001" height="40" preserveAspectRatio="xMidYMid meet" version="1.0"><defs><clipPath id="329ab76564"><path d="M 0.484375 0 L 29.515625 0 L 29.515625 29.03125 L 0.484375 29.03125 Z M 0.484375 0 " clip-rule="nonzero"/></clipPath><clipPath id="0a32916415"><path d="M 3.386719 1.988281 L 25.160156 1.988281 L 25.160156 27.394531 L 3.386719 27.394531 Z M 3.386719 1.988281 " clip-rule="nonzero"/></clipPath></defs><g clip-path="url(#329ab76564)"><path fill="#ffffff" d="M 0.484375 0 L 29.515625 0 L 29.515625 29.03125 L 0.484375 29.03125 Z M 0.484375 0 " fill-opacity="1" fill-rule="nonzero"/><path fill="#000000" d="M 0.484375 0 L 29.515625 0 L 29.515625 29.03125 L 0.484375 29.03125 Z M 0.484375 0 " fill-opacity="1" fill-rule="nonzero"/></g><g clip-path="url(#0a32916415)"><path fill="#ffffff" d="M 24.839844 24.449219 L 23.164062 24.449219 L 23.164062 2.300781 C 23.164062 2.128906 23.027344 1.992188 22.859375 1.992188 L 12.382812 1.992188 C 12.214844 1.992188 12.078125 2.128906 12.078125 2.300781 L 12.078125 4.3125 C 10.925781 4.453125 10.011719 5.371094 9.875 6.523438 C 9.394531 6.589844 9.023438 7 9.023438 7.496094 C 9.023438 8.039062 9.460938 8.476562 10.003906 8.476562 L 14.765625 8.476562 C 15.304688 8.476562 15.746094 8.039062 15.746094 7.496094 C 15.746094 7 15.375 6.589844 14.894531 6.523438 C 14.757812 5.371094 13.84375 4.453125 12.691406 4.3125 L 12.691406 2.605469 L 20.328125 2.605469 L 20.328125 11.988281 L 19.871094 11.988281 C 19.273438 11.988281 18.785156 12.476562 18.785156 13.074219 L 18.785156 15.117188 C 18.785156 15.6875 19.25 16.152344 19.820312 16.152344 L 20.328125 16.152344 L 20.328125 24.449219 L 3.734375 24.449219 C 3.566406 24.449219 3.429688 24.585938 3.429688 24.753906 L 3.429688 26.738281 C 3.429688 26.90625 3.566406 27.042969 3.734375 27.042969 L 24.839844 27.042969 C 25.011719 27.042969 25.148438 26.90625 25.148438 26.738281 L 25.148438 24.753906 C 25.148438 24.585938 25.011719 24.449219 24.839844 24.449219 Z M 15.132812 7.496094 C 15.132812 7.699219 14.96875 7.863281 14.765625 7.863281 L 10.003906 7.863281 C 9.800781 7.863281 9.636719 7.699219 9.636719 7.496094 C 9.636719 7.292969 9.800781 7.128906 10.003906 7.128906 L 14.765625 7.128906 C 14.96875 7.128906 15.132812 7.292969 15.132812 7.496094 Z M 14.273438 6.515625 L 10.492188 6.515625 C 10.640625 5.605469 11.433594 4.90625 12.382812 4.90625 C 13.335938 4.90625 14.128906 5.605469 14.273438 6.515625 Z M 19.820312 15.539062 C 19.589844 15.539062 19.402344 15.347656 19.402344 15.117188 L 19.402344 13.074219 C 19.402344 12.8125 19.609375 12.605469 19.871094 12.605469 L 20.328125 12.605469 L 20.328125 15.539062 Z M 20.941406 16.152344 L 20.941406 2.605469 L 22.550781 2.605469 L 22.550781 24.449219 L 20.941406 24.449219 Z M 24.535156 26.429688 L 4.042969 26.429688 L 4.042969 25.0625 L 24.535156 25.0625 Z M 24.535156 26.429688 " fill-opacity="1" fill-rule="nonzero"/></g><path fill="#ffffff" d="M 11.09375 10.539062 C 11.265625 10.539062 11.402344 10.402344 11.402344 10.234375 L 11.402344 9.402344 C 11.402344 9.230469 11.265625 9.09375 11.09375 9.09375 C 10.925781 9.09375 10.789062 9.230469 10.789062 9.402344 L 10.789062 10.234375 C 10.789062 10.402344 10.925781 10.539062 11.09375 10.539062 Z M 11.09375 10.539062 " fill-opacity="1" fill-rule="nonzero"/><path fill="#ffffff" d="M 13.671875 10.539062 C 13.84375 10.539062 13.980469 10.402344 13.980469 10.234375 L 13.980469 9.402344 C 13.980469 9.230469 13.84375 9.09375 13.671875 9.09375 C 13.503906 9.09375 13.367188 9.230469 13.367188 9.402344 L 13.367188 10.234375 C 13.367188 10.402344 13.503906 10.539062 13.671875 10.539062 Z M 13.671875 10.539062 " fill-opacity="1" fill-rule="nonzero"/><path fill="#ffffff" d="M 9.785156 12.605469 C 9.953125 12.605469 10.09375 12.464844 10.09375 12.296875 L 10.09375 11.464844 C 10.09375 11.292969 9.953125 11.15625 9.785156 11.15625 C 9.617188 11.15625 9.480469 11.292969 9.480469 11.464844 L 9.480469 12.296875 C 9.480469 12.464844 9.617188 12.605469 9.785156 12.605469 Z M 9.785156 12.605469 " fill-opacity="1" fill-rule="nonzero"/><path fill="#ffffff" d="M 12.363281 12.605469 C 12.535156 12.605469 12.671875 12.464844 12.671875 12.296875 L 12.671875 11.464844 C 12.671875 11.292969 12.535156 11.15625 12.363281 11.15625 C 12.195312 11.15625 12.058594 11.292969 12.058594 11.464844 L 12.058594 12.296875 C 12.058594 12.464844 12.195312 12.605469 12.363281 12.605469 Z M 12.363281 12.605469 " fill-opacity="1" fill-rule="nonzero"/><path fill="#ffffff" d="M 14.941406 12.605469 C 15.113281 12.605469 15.25 12.464844 15.25 12.296875 L 15.25 11.464844 C 15.25 11.292969 15.113281 11.15625 14.941406 11.15625 C 14.773438 11.15625 14.636719 11.292969 14.636719 11.464844 L 14.636719 12.296875 C 14.636719 12.464844 14.773438 12.605469 14.941406 12.605469 Z M 14.941406 12.605469 " fill-opacity="1" fill-rule="nonzero"/><path fill="#ffffff" d="M 8.515625 14.667969 C 8.683594 14.667969 8.824219 14.53125 8.824219 14.359375 L 8.824219 13.527344 C 8.824219 13.359375 8.683594 13.21875 8.515625 13.21875 C 8.347656 13.21875 8.210938 13.359375 8.210938 13.527344 L 8.210938 14.359375 C 8.210938 14.53125 8.347656 14.667969 8.515625 14.667969 Z M 8.515625 14.667969 " fill-opacity="1" fill-rule="nonzero"/><path fill="#ffffff" d="M 10.789062 14.359375 C 10.789062 14.53125 10.925781 14.667969 11.09375 14.667969 C 11.265625 14.667969 11.402344 14.53125 11.402344 14.359375 L 11.402344 13.527344 C 11.402344 13.359375 11.265625 13.21875 11.09375 13.21875 C 10.925781 13.21875 10.789062 13.359375 10.789062 13.527344 Z M 10.789062 14.359375 " fill-opacity="1" fill-rule="nonzero"/><path fill="#ffffff" d="M 13.367188 14.359375 C 13.367188 14.53125 13.503906 14.667969 13.671875 14.667969 C 13.84375 14.667969 13.980469 14.53125 13.980469 14.359375 L 13.980469 13.527344 C 13.980469 13.359375 13.84375 13.21875 13.671875 13.21875 C 13.503906 13.21875 13.367188 13.359375 13.367188 13.527344 Z M 13.367188 14.359375 " fill-opacity="1" fill-rule="nonzero"/><path fill="#ffffff" d="M 9.480469 16.421875 C 9.480469 16.59375 9.617188 16.730469 9.785156 16.730469 C 9.953125 16.730469 10.09375 16.59375 10.09375 16.421875 L 10.09375 15.589844 C 10.09375 15.421875 9.953125 15.28125 9.785156 15.28125 C 9.617188 15.28125 9.480469 15.421875 9.480469 15.589844 Z M 9.480469 16.421875 " fill-opacity="1" fill-rule="nonzero"/><path fill="#ffffff" d="M 12.058594 16.421875 C 12.058594 16.59375 12.195312 16.730469 12.363281 16.730469 C 12.535156 16.730469 12.671875 16.59375 12.671875 16.421875 L 12.671875 15.589844 C 12.671875 15.421875 12.535156 15.28125 12.363281 15.28125 C 12.195312 15.28125 12.058594 15.421875 12.058594 15.589844 Z M 12.058594 16.421875 " fill-opacity="1" fill-rule="nonzero"/><path fill="#ffffff" d="M 14.636719 16.421875 C 14.636719 16.59375 14.773438 16.730469 14.941406 16.730469 C 15.113281 16.730469 15.25 16.59375 15.25 16.421875 L 15.25 15.589844 C 15.25 15.421875 15.113281 15.28125 14.941406 15.28125 C 14.773438 15.28125 14.636719 15.421875 14.636719 15.589844 Z M 14.636719 16.421875 " fill-opacity="1" fill-rule="nonzero"/><path fill="#ffffff" d="M 16.253906 14.667969 C 16.421875 14.667969 16.558594 14.53125 16.558594 14.359375 L 16.558594 13.527344 C 16.558594 13.359375 16.421875 13.21875 16.253906 13.21875 C 16.082031 13.21875 15.945312 13.359375 15.945312 13.527344 L 15.945312 14.359375 C 15.945312 14.53125 16.082031 14.667969 16.253906 14.667969 Z M 16.253906 14.667969 " fill-opacity="1" fill-rule="nonzero"/><path fill="#ffffff" d="M 8.515625 18.792969 C 8.683594 18.792969 8.824219 18.65625 8.824219 18.484375 L 8.824219 17.652344 C 8.824219 17.484375 8.683594 17.347656 8.515625 17.347656 C 8.347656 17.347656 8.210938 17.484375 8.210938 17.652344 L 8.210938 18.484375 C 8.210938 18.65625 8.347656 18.792969 8.515625 18.792969 Z M 8.515625 18.792969 " fill-opacity="1" fill-rule="nonzero"/><path fill="#ffffff" d="M 10.789062 18.484375 C 10.789062 18.65625 10.925781 18.792969 11.09375 18.792969 C 11.265625 18.792969 11.402344 18.65625 11.402344 18.484375 L 11.402344 17.652344 C 11.402344 17.484375 11.265625 17.347656 11.09375 17.347656 C 10.925781 17.347656 10.789062 17.484375 10.789062 17.652344 Z M 10.789062 18.484375 " fill-opacity="1" fill-rule="nonzero"/><path fill="#ffffff" d="M 13.367188 18.484375 C 13.367188 18.65625 13.503906 18.792969 13.671875 18.792969 C 13.84375 18.792969 13.980469 18.65625 13.980469 18.484375 L 13.980469 17.652344 C 13.980469 17.484375 13.84375 17.347656 13.671875 17.347656 C 13.503906 17.347656 13.367188 17.484375 13.367188 17.652344 Z M 13.367188 18.484375 " fill-opacity="1" fill-rule="nonzero"/><path fill="#ffffff" d="M 9.480469 20.550781 C 9.480469 20.71875 9.617188 20.855469 9.785156 20.855469 C 9.953125 20.855469 10.09375 20.71875 10.09375 20.550781 L 10.09375 19.714844 C 10.09375 19.546875 9.953125 19.410156 9.785156 19.410156 C 9.617188 19.410156 9.480469 19.546875 9.480469 19.714844 Z M 9.480469 20.550781 " fill-opacity="1" fill-rule="nonzero"/><path fill="#ffffff" d="M 12.058594 20.550781 C 12.058594 20.71875 12.195312 20.855469 12.363281 20.855469 C 12.535156 20.855469 12.671875 20.71875 12.671875 20.550781 L 12.671875 19.714844 C 12.671875 19.546875 12.535156 19.410156 12.363281 19.410156 C 12.195312 19.410156 12.058594 19.546875 12.058594 19.714844 Z M 12.058594 20.550781 " fill-opacity="1" fill-rule="nonzero"/><path fill="#ffffff" d="M 14.636719 20.550781 C 14.636719 20.71875 14.773438 20.855469 14.941406 20.855469 C 15.113281 20.855469 15.25 20.71875 15.25 20.550781 L 15.25 19.714844 C 15.25 19.546875 15.113281 19.410156 14.941406 19.410156 C 14.773438 19.410156 14.636719 19.546875 14.636719 19.714844 Z M 14.636719 20.550781 " fill-opacity="1" fill-rule="nonzero"/><path fill="#ffffff" d="M 15.945312 18.484375 C 15.945312 18.65625 16.082031 18.792969 16.253906 18.792969 C 16.421875 18.792969 16.558594 18.65625 16.558594 18.484375 L 16.558594 17.652344 C 16.558594 17.484375 16.421875 17.347656 16.253906 17.347656 C 16.082031 17.347656 15.945312 17.484375 15.945312 17.652344 Z M 15.945312 18.484375 " fill-opacity="1" fill-rule="nonzero"/><path fill="#ffffff" d="M 8.515625 22.917969 C 8.683594 22.917969 8.824219 22.78125 8.824219 22.613281 L 8.824219 21.777344 C 8.824219 21.609375 8.683594 21.472656 8.515625 21.472656 C 8.347656 21.472656 8.210938 21.609375 8.210938 21.777344 L 8.210938 22.613281 C 8.210938 22.78125 8.347656 22.917969 8.515625 22.917969 Z M 8.515625 22.917969 " fill-opacity="1" fill-rule="nonzero"/><path fill="#ffffff" d="M 10.789062 22.613281 C 10.789062 22.78125 10.925781 22.917969 11.09375 22.917969 C 11.265625 22.917969 11.402344 22.78125 11.402344 22.613281 L 11.402344 21.777344 C 11.402344 21.609375 11.265625 21.472656 11.09375 21.472656 C 10.925781 21.472656 10.789062 21.609375 10.789062 21.777344 Z M 10.789062 22.613281 " fill-opacity="1" fill-rule="nonzero"/><path fill="#ffffff" d="M 13.367188 22.613281 C 13.367188 22.78125 13.503906 22.917969 13.671875 22.917969 C 13.84375 22.917969 13.980469 22.78125 13.980469 22.613281 L 13.980469 21.777344 C 13.980469 21.609375 13.84375 21.472656 13.671875 21.472656 C 13.503906 21.472656 13.367188 21.609375 13.367188 21.777344 Z M 13.367188 22.613281 " fill-opacity="1" fill-rule="nonzero"/><path fill="#ffffff" d="M 15.945312 22.613281 C 15.945312 22.78125 16.082031 22.917969 16.253906 22.917969 C 16.421875 22.917969 16.558594 22.78125 16.558594 22.613281 L 16.558594 21.777344 C 16.558594 21.609375 16.421875 21.472656 16.253906 21.472656 C 16.082031 21.472656 15.945312 21.609375 15.945312 21.777344 Z M 15.945312 22.613281 " fill-opacity="1" fill-rule="nonzero"/></svg>