<svg xmlns="http://www.w3.org/2000/svg" xmlns:xlink="http://www.w3.org/1999/xlink" width="40" zoomAndPan="magnify" viewBox="0 0 30 30.000001" height="40" preserveAspectRatio="xMidYMid meet" version="1.0"><defs><clipPath id="cce048c866"><path d="M 0.484375 0 L 29.515625 0 L 29.515625 29.03125 L 0.484375 29.03125 Z M 0.484375 0 " clip-rule="nonzero"/></clipPath><clipPath id="6e873862c1"><path d="M 5 0 L 10 0 L 10 27.582031 L 5 27.582031 Z M 5 0 " clip-rule="nonzero"/></clipPath><clipPath id="56f3bf4aac"><path d="M 1.933594 3 L 7 3 L 7 8 L 1.933594 8 Z M 1.933594 3 " clip-rule="nonzero"/></clipPath><clipPath id="446d17e795"><path d="M 8 3 L 28.789062 3 L 28.789062 8 L 8 8 Z M 8 3 " clip-rule="nonzero"/></clipPath><clipPath id="065f6983e8"><path d="M 2 26 L 28.789062 26 L 28.789062 27.582031 L 2 27.582031 Z M 2 26 " clip-rule="nonzero"/></clipPath></defs><g clip-path="url(#cce048c866)"><path fill="#ffffff" d="M 0.484375 0 L 29.515625 0 L 29.515625 29.03125 L 0.484375 29.03125 Z M 0.484375 0 " fill-opacity="1" fill-rule="nonzero"/><path fill="#000000" d="M 0.484375 0 L 29.515625 0 L 29.515625 29.03125 L 0.484375 29.03125 Z M 0.484375 0 " fill-opacity="1" fill-rule="nonzero"/></g><g clip-path="url(#6e873862c1)"><path fill="#ffffff" d="M 8.695312 27.363281 L 6.019531 27.363281 C 5.894531 27.363281 5.789062 27.320312 5.699219 27.230469 C 5.613281 27.144531 5.566406 27.039062 5.566406 26.914062 L 5.566406 0.453125 C 5.566406 0.328125 5.613281 0.222656 5.699219 0.132812 C 5.789062 0.046875 5.894531 0 6.019531 0 L 8.695312 0 C 8.820312 0 8.925781 0.046875 9.011719 0.132812 C 9.101562 0.222656 9.144531 0.328125 9.144531 0.453125 L 9.144531 26.914062 C 9.144531 27.039062 9.101562 27.144531 9.011719 27.230469 C 8.925781 27.320312 8.820312 27.363281 8.695312 27.363281 Z M 6.46875 26.460938 L 8.246094 26.460938 L 8.246094 0.902344 L 6.46875 0.902344 Z M 6.46875 26.460938 " fill-opacity="1" fill-rule="nonzero"/></g><g clip-path="url(#56f3bf4aac)"><path fill="#ffffff" d="M 6.019531 7.347656 L 2.386719 7.347656 C 2.261719 7.347656 2.15625 7.304688 2.066406 7.214844 C 1.980469 7.128906 1.933594 7.023438 1.933594 6.898438 L 1.933594 4.175781 C 1.933594 4.054688 1.980469 3.945312 2.066406 3.859375 C 2.15625 3.769531 2.261719 3.726562 2.386719 3.726562 L 6.019531 3.726562 C 6.144531 3.726562 6.25 3.769531 6.335938 3.859375 C 6.425781 3.945312 6.46875 4.054688 6.46875 4.175781 C 6.46875 4.300781 6.425781 4.40625 6.335938 4.496094 C 6.25 4.585938 6.144531 4.628906 6.019531 4.628906 L 2.835938 4.628906 L 2.835938 6.445312 L 6.019531 6.445312 C 6.144531 6.445312 6.25 6.492188 6.339844 6.578125 C 6.425781 6.667969 6.46875 6.773438 6.46875 6.898438 C 6.46875 7.023438 6.425781 7.128906 6.339844 7.214844 C 6.25 7.304688 6.144531 7.347656 6.019531 7.347656 Z M 6.019531 7.347656 " fill-opacity="1" fill-rule="nonzero"/></g><g clip-path="url(#446d17e795)"><path fill="#ffffff" d="M 28.203125 7.347656 L 8.695312 7.347656 C 8.570312 7.347656 8.464844 7.304688 8.375 7.214844 C 8.289062 7.128906 8.246094 7.023438 8.246094 6.898438 C 8.246094 6.773438 8.289062 6.667969 8.375 6.578125 C 8.464844 6.492188 8.570312 6.445312 8.695312 6.445312 L 27.753906 6.445312 L 27.753906 4.628906 L 8.695312 4.628906 C 8.570312 4.628906 8.464844 4.585938 8.375 4.496094 C 8.289062 4.40625 8.246094 4.300781 8.246094 4.175781 C 8.246094 4.054688 8.289062 3.945312 8.375 3.859375 C 8.464844 3.769531 8.570312 3.726562 8.695312 3.726562 L 28.203125 3.726562 C 28.328125 3.726562 28.433594 3.769531 28.523438 3.859375 C 28.609375 3.945312 28.652344 4.054688 28.652344 4.175781 L 28.652344 6.898438 C 28.652344 7.023438 28.609375 7.128906 28.523438 7.214844 C 28.433594 7.304688 28.328125 7.347656 28.203125 7.347656 Z M 28.203125 7.347656 " fill-opacity="1" fill-rule="nonzero"/></g><path fill="#ffffff" d="M 13.023438 9.457031 C 12.898438 9.457031 12.792969 9.414062 12.703125 9.324219 C 12.617188 9.238281 12.570312 9.132812 12.570312 9.007812 L 12.570312 6.898438 C 12.570312 6.773438 12.617188 6.667969 12.703125 6.578125 C 12.792969 6.492188 12.898438 6.445312 13.023438 6.445312 C 13.148438 6.445312 13.253906 6.492188 13.339844 6.578125 C 13.429688 6.667969 13.472656 6.773438 13.472656 6.898438 L 13.472656 9.007812 C 13.472656 9.132812 13.429688 9.238281 13.339844 9.324219 C 13.253906 9.414062 13.148438 9.457031 13.023438 9.457031 Z M 13.023438 9.457031 " fill-opacity="1" fill-rule="nonzero"/><path fill="#ffffff" d="M 24.308594 9.457031 C 24.183594 9.457031 24.078125 9.414062 23.988281 9.324219 C 23.902344 9.238281 23.855469 9.132812 23.855469 9.007812 L 23.855469 6.898438 C 23.855469 6.773438 23.902344 6.667969 23.988281 6.578125 C 24.078125 6.492188 24.183594 6.445312 24.308594 6.445312 C 24.433594 6.445312 24.539062 6.492188 24.625 6.578125 C 24.714844 6.667969 24.757812 6.773438 24.757812 6.898438 L 24.757812 9.007812 C 24.757812 9.132812 24.714844 9.238281 24.625 9.324219 C 24.539062 9.414062 24.433594 9.457031 24.308594 9.457031 Z M 24.308594 9.457031 " fill-opacity="1" fill-rule="nonzero"/><path fill="#ffffff" d="M 26.296875 18.367188 L 11.03125 18.367188 C 10.90625 18.367188 10.800781 18.320312 10.710938 18.234375 C 10.625 18.144531 10.582031 18.039062 10.582031 17.914062 L 10.582031 9.007812 C 10.582031 8.882812 10.625 8.777344 10.710938 8.6875 C 10.800781 8.601562 10.90625 8.554688 11.03125 8.554688 L 26.296875 8.554688 C 26.421875 8.554688 26.527344 8.601562 26.617188 8.6875 C 26.703125 8.777344 26.746094 8.882812 26.746094 9.007812 L 26.746094 17.914062 C 26.746094 18.039062 26.703125 18.144531 26.617188 18.234375 C 26.527344 18.320312 26.421875 18.367188 26.296875 18.367188 Z M 11.480469 17.464844 L 25.847656 17.464844 L 25.847656 9.457031 L 11.480469 9.457031 Z M 11.480469 17.464844 " fill-opacity="1" fill-rule="nonzero"/><path fill="#ffffff" d="M 23.660156 11.601562 L 13.761719 11.601562 C 13.640625 11.601562 13.53125 11.558594 13.445312 11.472656 C 13.355469 11.382812 13.3125 11.277344 13.3125 11.152344 C 13.3125 11.027344 13.355469 10.921875 13.445312 10.832031 C 13.53125 10.746094 13.640625 10.703125 13.761719 10.703125 L 23.660156 10.703125 C 23.785156 10.703125 23.894531 10.746094 23.980469 10.832031 C 24.070312 10.921875 24.113281 11.027344 24.113281 11.152344 C 24.113281 11.277344 24.070312 11.382812 23.980469 11.472656 C 23.894531 11.558594 23.785156 11.601562 23.660156 11.601562 Z M 23.660156 11.601562 " fill-opacity="1" fill-rule="nonzero"/><path fill="#ffffff" d="M 23.613281 13.914062 L 13.714844 13.914062 C 13.589844 13.914062 13.484375 13.867188 13.394531 13.78125 C 13.308594 13.691406 13.265625 13.585938 13.265625 13.460938 C 13.265625 13.335938 13.308594 13.230469 13.394531 13.144531 C 13.484375 13.054688 13.589844 13.011719 13.714844 13.011719 L 23.613281 13.011719 C 23.738281 13.011719 23.84375 13.054688 23.933594 13.144531 C 24.019531 13.230469 24.0625 13.335938 24.0625 13.460938 C 24.0625 13.585938 24.019531 13.691406 23.933594 13.78125 C 23.84375 13.867188 23.738281 13.914062 23.613281 13.914062 Z M 23.613281 13.914062 " fill-opacity="1" fill-rule="nonzero"/><path fill="#ffffff" d="M 23.566406 16.222656 L 13.667969 16.222656 C 13.542969 16.222656 13.4375 16.175781 13.347656 16.089844 C 13.261719 16 13.214844 15.894531 13.214844 15.769531 C 13.214844 15.644531 13.261719 15.539062 13.347656 15.453125 C 13.4375 15.363281 13.542969 15.320312 13.667969 15.320312 L 23.566406 15.320312 C 23.691406 15.320312 23.796875 15.363281 23.882812 15.453125 C 23.972656 15.539062 24.015625 15.644531 24.015625 15.769531 C 24.015625 15.894531 23.972656 16 23.882812 16.089844 C 23.796875 16.175781 23.691406 16.222656 23.566406 16.222656 Z M 23.566406 16.222656 " fill-opacity="1" fill-rule="nonzero"/><g clip-path="url(#065f6983e8)"><path fill="#ffffff" d="M 28.203125 27.363281 L 2.863281 27.363281 C 2.738281 27.363281 2.632812 27.320312 2.542969 27.230469 C 2.457031 27.144531 2.410156 27.039062 2.410156 26.914062 C 2.410156 26.789062 2.457031 26.683594 2.542969 26.59375 C 2.632812 26.507812 2.738281 26.460938 2.863281 26.460938 L 28.203125 26.460938 C 28.328125 26.460938 28.433594 26.507812 28.523438 26.59375 C 28.609375 26.683594 28.652344 26.789062 28.652344 26.914062 C 28.652344 27.039062 28.609375 27.144531 28.523438 27.230469 C 28.433594 27.320312 28.328125 27.363281 28.203125 27.363281 Z M 28.203125 27.363281 " fill-opacity="1" fill-rule="nonzero"/></g></svg>