<svg xmlns="http://www.w3.org/2000/svg" xmlns:xlink="http://www.w3.org/1999/xlink" width="40" zoomAndPan="magnify" viewBox="0 0 30 30.000001" height="40" preserveAspectRatio="xMidYMid meet" version="1.0"><defs><clipPath id="7b0472960b"><path d="M 0.484375 0 L 29.515625 0 L 29.515625 29.03125 L 0.484375 29.03125 Z M 0.484375 0 " clip-rule="nonzero"/></clipPath><clipPath id="c791646d3b"><path d="M 17 24 L 20 24 L 20 26.128906 L 17 26.128906 Z M 17 24 " clip-rule="nonzero"/></clipPath><clipPath id="2ef1abb730"><path d="M 19 25 L 21 25 L 21 26.128906 L 19 26.128906 Z M 19 25 " clip-rule="nonzero"/></clipPath><clipPath id="0bcb60f80e"><path d="M 21 25 L 23 25 L 23 26.128906 L 21 26.128906 Z M 21 25 " clip-rule="nonzero"/></clipPath><clipPath id="39c97da3a0"><path d="M 22 24 L 24 24 L 24 26.128906 L 22 26.128906 Z M 22 24 " clip-rule="nonzero"/></clipPath><clipPath id="0413450904"><path d="M 22 2.902344 L 26.613281 2.902344 L 26.613281 8 L 22 8 Z M 22 2.902344 " clip-rule="nonzero"/></clipPath><clipPath id="af74dab319"><path d="M 3.386719 6 L 9 6 L 9 8 L 3.386719 8 Z M 3.386719 6 " clip-rule="nonzero"/></clipPath></defs><g clip-path="url(#7b0472960b)"><path fill="#ffffff" d="M 0.484375 0 L 29.515625 0 L 29.515625 29.03125 L 0.484375 29.03125 Z M 0.484375 0 " fill-opacity="1" fill-rule="nonzero"/><path fill="#000000" d="M 0.484375 0 L 29.515625 0 L 29.515625 29.03125 L 0.484375 29.03125 Z M 0.484375 0 " fill-opacity="1" fill-rule="nonzero"/></g><path fill="#ffffff" d="M 10.765625 8.242188 C 10.984375 8.359375 11.214844 8.375 11.429688 8.375 L 11.578125 8.375 C 12.578125 8.375 13.574219 8.375 14.574219 8.375 C 15.472656 8.375 16.375 8.375 17.277344 8.375 C 17.316406 8.375 17.351562 8.375 17.390625 8.375 C 17.363281 8.414062 17.335938 8.449219 17.300781 8.476562 C 16.6875 8.980469 16.046875 9.476562 15.429688 9.957031 C 14.945312 10.335938 14.445312 10.726562 13.957031 11.117188 C 13.410156 11.558594 13.105469 12.136719 13.109375 12.75 C 13.109375 13.371094 13.417969 13.957031 13.976562 14.40625 L 14.320312 14.679688 C 15.476562 15.601562 16.667969 16.554688 17.8125 17.519531 C 17.914062 17.609375 18.019531 17.828125 18.027344 17.976562 C 18.058594 18.691406 18.054688 19.425781 18.050781 20.136719 C 18.046875 20.464844 18.042969 20.789062 18.046875 21.117188 L 18.046875 21.125 L 18.535156 21.238281 C 18.535156 21.238281 18.558594 21.242188 18.582031 21.246094 C 18.617188 21.25 18.65625 21.25 18.699219 21.25 C 18.863281 21.25 19.070312 21.226562 19.28125 21.183594 C 19.449219 21.148438 19.617188 21.101562 19.757812 21.050781 C 19.828125 21.023438 19.878906 21 19.910156 20.984375 C 19.945312 20.96875 19.96875 20.953125 19.976562 20.945312 C 19.980469 20.945312 19.984375 20.941406 19.984375 20.941406 L 20.605469 20.480469 C 20.605469 20.003906 20.605469 19.53125 20.605469 19.054688 C 20.605469 18.445312 20.605469 17.835938 20.605469 17.226562 C 20.609375 16.511719 20.324219 15.929688 19.761719 15.492188 C 18.925781 14.84375 18.09375 14.160156 17.3125 13.515625 C 17.269531 13.484375 17.242188 13.453125 17.21875 13.433594 C 17.226562 13.425781 17.238281 13.417969 17.246094 13.410156 C 18.382812 12.433594 19.730469 11.28125 21.097656 10.15625 C 21.894531 9.503906 22.238281 8.503906 21.957031 7.671875 C 21.667969 6.8125 20.894531 6.316406 19.832031 6.316406 C 19.269531 6.316406 18.710938 6.3125 18.148438 6.3125 L 15.804688 6.3125 C 15.804688 6.3125 13.671875 6.3125 13.671875 6.3125 C 13 6.3125 12.328125 6.3125 11.652344 6.316406 C 11.609375 6.316406 11.574219 6.3125 11.53125 6.3125 C 11.480469 6.3125 11.429688 6.308594 11.378906 6.308594 C 11.214844 6.308594 11.003906 6.324219 10.800781 6.425781 C 10.480469 6.585938 10.214844 6.96875 10.1875 7.3125 C 10.148438 7.71875 10.5 8.101562 10.761719 8.238281 Z M 10.765625 8.242188 " fill-opacity="1" fill-rule="nonzero"/><path fill="#ffffff" d="M 13.25 15.3125 C 13.050781 15.15625 12.875 14.984375 12.722656 14.800781 L 11.65625 15.894531 C 10.878906 16.6875 10.121094 17.464844 9.363281 18.238281 C 9.332031 18.273438 9.296875 18.304688 9.265625 18.335938 L 9.367188 18.5 C 9.367188 18.5 9.375 18.515625 9.394531 18.535156 C 9.417969 18.5625 9.441406 18.589844 9.472656 18.621094 C 9.589844 18.738281 9.75 18.867188 9.929688 18.984375 C 10.074219 19.078125 10.226562 19.164062 10.363281 19.226562 C 10.429688 19.257812 10.484375 19.277344 10.515625 19.289062 C 10.554688 19.300781 10.578125 19.304688 10.589844 19.308594 C 10.597656 19.308594 10.597656 19.308594 10.601562 19.308594 L 11.363281 19.425781 L 11.714844 19.476562 C 12.585938 18.609375 13.457031 17.742188 14.328125 16.875 C 14.410156 16.792969 14.46875 16.707031 14.519531 16.628906 C 14.539062 16.601562 14.558594 16.574219 14.582031 16.539062 L 14.65625 16.433594 C 14.292969 16.144531 13.9375 15.859375 13.597656 15.585938 L 13.25 15.308594 Z M 13.25 15.3125 " fill-opacity="1" fill-rule="nonzero"/><g clip-path="url(#c791646d3b)"><path fill="#ffffff" d="M 18.539062 25.855469 C 18.425781 25.855469 18.320312 25.816406 18.238281 25.75 C 18.164062 25.691406 18.109375 25.609375 18.078125 25.515625 C 18.066406 25.472656 18.058594 25.425781 18.058594 25.378906 C 18.058594 25.121094 18.265625 24.914062 18.519531 24.902344 L 18.707031 24.640625 C 18.652344 24.625 18.59375 24.621094 18.535156 24.621094 C 18.117188 24.621094 17.777344 24.960938 17.777344 25.378906 C 17.777344 25.796875 18.117188 26.136719 18.535156 26.136719 C 18.820312 26.136719 19.070312 25.980469 19.199219 25.75 L 18.835938 25.75 C 18.753906 25.816406 18.648438 25.855469 18.535156 25.855469 Z M 18.539062 25.855469 " fill-opacity="1" fill-rule="nonzero"/></g><g clip-path="url(#2ef1abb730)"><path fill="#ffffff" d="M 20.125 25.855469 C 20.011719 25.855469 19.910156 25.816406 19.824219 25.75 C 19.820312 25.742188 19.8125 25.738281 19.804688 25.730469 L 19.453125 25.730469 C 19.578125 25.972656 19.832031 26.136719 20.125 26.136719 C 20.414062 26.136719 20.65625 25.980469 20.785156 25.75 L 20.421875 25.75 C 20.339844 25.816406 20.238281 25.855469 20.125 25.855469 Z M 20.125 25.855469 " fill-opacity="1" fill-rule="nonzero"/></g><g clip-path="url(#0bcb60f80e)"><path fill="#ffffff" d="M 21.714844 25.855469 C 21.601562 25.855469 21.496094 25.816406 21.414062 25.75 C 21.40625 25.742188 21.402344 25.738281 21.394531 25.730469 L 21.039062 25.730469 C 21.167969 25.972656 21.421875 26.136719 21.714844 26.136719 C 22.003906 26.136719 22.246094 25.980469 22.375 25.75 L 22.011719 25.75 C 21.929688 25.816406 21.828125 25.855469 21.710938 25.855469 Z M 21.714844 25.855469 " fill-opacity="1" fill-rule="nonzero"/></g><g clip-path="url(#39c97da3a0)"><path fill="#ffffff" d="M 23.207031 24.621094 C 23.148438 24.621094 23.089844 24.628906 23.035156 24.640625 L 23.226562 24.902344 C 23.480469 24.910156 23.683594 25.121094 23.683594 25.378906 C 23.683594 25.425781 23.675781 25.472656 23.664062 25.515625 C 23.636719 25.609375 23.578125 25.691406 23.507812 25.75 C 23.425781 25.816406 23.320312 25.855469 23.207031 25.855469 C 23.089844 25.855469 22.988281 25.816406 22.90625 25.75 L 22.542969 25.75 C 22.671875 25.980469 22.921875 26.136719 23.203125 26.136719 C 23.625 26.136719 23.964844 25.796875 23.964844 25.378906 C 23.964844 24.960938 23.625 24.621094 23.203125 24.621094 Z M 23.207031 24.621094 " fill-opacity="1" fill-rule="nonzero"/></g><path fill="#ffffff" d="M 18.582031 25.207031 C 18.566406 25.203125 18.550781 25.203125 18.539062 25.203125 C 18.441406 25.203125 18.359375 25.28125 18.359375 25.378906 C 18.359375 25.414062 18.371094 25.449219 18.390625 25.476562 C 18.402344 25.492188 18.417969 25.507812 18.429688 25.519531 C 18.460938 25.542969 18.496094 25.554688 18.539062 25.554688 C 18.578125 25.554688 18.613281 25.542969 18.644531 25.519531 C 18.6875 25.488281 18.714844 25.4375 18.714844 25.378906 C 18.714844 25.296875 18.65625 25.230469 18.582031 25.207031 Z M 18.582031 25.207031 " fill-opacity="1" fill-rule="nonzero"/><path fill="#ffffff" d="M 21.875 23.839844 C 21.789062 23.964844 21.644531 24.039062 21.488281 24.039062 C 21.335938 24.039062 21.191406 23.964844 21.101562 23.839844 L 21.011719 23.710938 C 20.863281 23.496094 20.78125 23.242188 20.78125 22.984375 L 20.78125 22.042969 C 20.757812 22.011719 20.738281 21.980469 20.71875 21.953125 C 20.703125 21.925781 20.6875 21.902344 20.671875 21.875 C 20.601562 21.929688 20.519531 21.976562 20.421875 22.027344 C 20.34375 22.066406 20.257812 22.101562 20.160156 22.136719 C 19.964844 22.210938 19.742188 22.273438 19.511719 22.324219 C 19.222656 22.382812 18.941406 22.414062 18.695312 22.414062 C 18.613281 22.414062 18.539062 22.410156 18.46875 22.40625 C 18.398438 22.398438 18.332031 22.386719 18.273438 22.375 C 18.136719 23.023438 18.117188 23.6875 18.167969 24.363281 C 18.191406 24.367188 18.214844 24.371094 18.242188 24.371094 C 19.671875 24.367188 21.097656 24.359375 22.527344 24.355469 C 22.726562 24.355469 22.917969 24.316406 23.097656 24.242188 C 23.097656 24.242188 23.097656 24.242188 23.101562 24.242188 C 23.101562 24.242188 23.101562 24.242188 23.105469 24.242188 C 23.144531 24.226562 23.402344 24.132812 23.527344 23.953125 C 23.59375 23.863281 23.625 23.75 23.574219 23.613281 C 23.542969 23.539062 23.488281 23.453125 23.398438 23.359375 C 23.164062 23.074219 22.859375 22.890625 22.457031 22.835938 C 22.4375 22.832031 22.417969 22.828125 22.398438 22.828125 C 22.332031 22.816406 22.261719 22.808594 22.195312 22.796875 L 22.195312 22.984375 C 22.195312 23.246094 22.117188 23.496094 21.964844 23.710938 Z M 21.875 23.839844 " fill-opacity="1" fill-rule="nonzero"/><path fill="#ffffff" d="M 21.390625 23.636719 C 21.441406 23.703125 21.539062 23.703125 21.585938 23.636719 L 21.679688 23.507812 C 21.785156 23.351562 21.84375 23.167969 21.84375 22.984375 L 21.84375 22.734375 C 21.816406 22.726562 21.785156 22.722656 21.757812 22.714844 C 21.742188 22.714844 21.730469 22.710938 21.71875 22.707031 C 21.695312 22.703125 21.679688 22.699219 21.660156 22.699219 C 21.515625 22.660156 21.382812 22.597656 21.265625 22.519531 C 21.222656 22.492188 21.179688 22.460938 21.136719 22.425781 L 21.136719 22.984375 C 21.136719 23.167969 21.195312 23.351562 21.300781 23.507812 Z M 21.390625 23.636719 " fill-opacity="1" fill-rule="nonzero"/><path fill="#ffffff" d="M 23.429688 25.523438 C 23.445312 25.5 23.453125 25.480469 23.460938 25.457031 C 23.46875 25.433594 23.472656 25.40625 23.472656 25.378906 C 23.472656 25.234375 23.359375 25.121094 23.214844 25.117188 L 23.113281 25.113281 L 22.699219 24.53125 L 19.066406 24.53125 L 18.761719 24.960938 C 18.914062 25.042969 19.011719 25.203125 19.011719 25.382812 C 19.011719 25.429688 19.003906 25.476562 18.992188 25.523438 Z M 22.230469 24.859375 C 22.316406 24.859375 22.386719 24.933594 22.386719 25.019531 C 22.386719 25.109375 22.316406 25.179688 22.230469 25.179688 C 22.140625 25.179688 22.070312 25.109375 22.070312 25.019531 C 22.070312 24.933594 22.140625 24.859375 22.230469 24.859375 Z M 21.703125 24.859375 C 21.789062 24.859375 21.859375 24.933594 21.859375 25.019531 C 21.859375 25.109375 21.789062 25.179688 21.703125 25.179688 C 21.613281 25.179688 21.542969 25.109375 21.542969 25.019531 C 21.542969 24.933594 21.613281 24.859375 21.703125 24.859375 Z M 21.171875 24.859375 C 21.261719 24.859375 21.332031 24.933594 21.332031 25.019531 C 21.332031 25.109375 21.261719 25.179688 21.171875 25.179688 C 21.085938 25.179688 21.015625 25.109375 21.015625 25.019531 C 21.015625 24.933594 21.085938 24.859375 21.171875 24.859375 Z M 20.644531 24.859375 C 20.730469 24.859375 20.804688 24.933594 20.804688 25.019531 C 20.804688 25.109375 20.734375 25.179688 20.644531 25.179688 C 20.558594 25.179688 20.488281 25.109375 20.488281 25.019531 C 20.488281 24.933594 20.558594 24.859375 20.644531 24.859375 Z M 20.117188 24.859375 C 20.203125 24.859375 20.277344 24.933594 20.277344 25.019531 C 20.277344 25.109375 20.207031 25.179688 20.117188 25.179688 C 20.027344 25.179688 19.957031 25.109375 19.957031 25.019531 C 19.957031 24.933594 20.027344 24.859375 20.117188 24.859375 Z M 19.589844 24.859375 C 19.675781 24.859375 19.746094 24.933594 19.746094 25.019531 C 19.746094 25.109375 19.675781 25.179688 19.589844 25.179688 C 19.5 25.179688 19.429688 25.109375 19.429688 25.019531 C 19.429688 24.933594 19.5 24.859375 19.589844 24.859375 Z M 19.589844 24.859375 " fill-opacity="1" fill-rule="nonzero"/><path fill="#ffffff" d="M 6.101562 21.761719 C 6.019531 21.683594 5.976562 21.582031 5.964844 21.476562 C 5.957031 21.382812 5.972656 21.285156 6.019531 21.203125 C 6.039062 21.160156 6.070312 21.125 6.101562 21.089844 C 6.285156 20.90625 6.578125 20.90625 6.765625 21.078125 L 7.082031 21.023438 C 7.054688 20.976562 7.015625 20.933594 6.976562 20.890625 C 6.679688 20.59375 6.199219 20.59375 5.902344 20.890625 C 5.605469 21.1875 5.605469 21.667969 5.902344 21.964844 C 6.105469 22.167969 6.390625 22.230469 6.644531 22.160156 L 6.386719 21.902344 C 6.285156 21.890625 6.183594 21.847656 6.101562 21.765625 Z M 6.101562 21.761719 " fill-opacity="1" fill-rule="nonzero"/><path fill="#ffffff" d="M 7.226562 22.886719 C 7.144531 22.804688 7.097656 22.703125 7.089844 22.601562 C 7.089844 22.589844 7.085938 22.582031 7.085938 22.574219 L 6.839844 22.324219 C 6.757812 22.585938 6.820312 22.882812 7.027344 23.085938 C 7.230469 23.289062 7.515625 23.351562 7.769531 23.28125 L 7.511719 23.023438 C 7.410156 23.011719 7.308594 22.96875 7.226562 22.886719 Z M 7.226562 22.886719 " fill-opacity="1" fill-rule="nonzero"/><path fill="#ffffff" d="M 8.347656 24.011719 C 8.265625 23.929688 8.222656 23.828125 8.210938 23.722656 C 8.210938 23.714844 8.210938 23.707031 8.210938 23.699219 L 7.960938 23.449219 C 7.878906 23.710938 7.945312 24.003906 8.148438 24.210938 C 8.351562 24.414062 8.636719 24.476562 8.894531 24.40625 L 8.636719 24.148438 C 8.53125 24.136719 8.429688 24.09375 8.347656 24.011719 Z M 8.347656 24.011719 " fill-opacity="1" fill-rule="nonzero"/><path fill="#ffffff" d="M 10.144531 24.085938 L 10.089844 24.402344 C 10.265625 24.589844 10.261719 24.882812 10.078125 25.066406 C 10.046875 25.097656 10.007812 25.128906 9.96875 25.148438 C 9.882812 25.195312 9.785156 25.210938 9.691406 25.203125 C 9.589844 25.191406 9.488281 25.144531 9.40625 25.066406 C 9.324219 24.984375 9.28125 24.882812 9.269531 24.777344 L 9.011719 24.519531 C 8.941406 24.777344 9.003906 25.0625 9.207031 25.265625 C 9.503906 25.5625 9.984375 25.5625 10.28125 25.265625 C 10.578125 24.96875 10.578125 24.488281 10.28125 24.191406 C 10.238281 24.148438 10.191406 24.113281 10.144531 24.082031 Z M 10.144531 24.085938 " fill-opacity="1" fill-rule="nonzero"/><path fill="#ffffff" d="M 6.3125 21.300781 C 6.289062 21.328125 6.269531 21.359375 6.265625 21.394531 C 6.261719 21.410156 6.261719 21.433594 6.265625 21.453125 C 6.269531 21.488281 6.289062 21.523438 6.316406 21.550781 C 6.34375 21.578125 6.378906 21.59375 6.414062 21.601562 C 6.46875 21.609375 6.523438 21.59375 6.566406 21.550781 C 6.621094 21.496094 6.632812 21.40625 6.59375 21.339844 C 6.585938 21.324219 6.574219 21.3125 6.566406 21.300781 C 6.496094 21.230469 6.382812 21.230469 6.316406 21.300781 Z M 6.3125 21.300781 " fill-opacity="1" fill-rule="nonzero"/><path fill="#ffffff" d="M 10.976562 22.351562 C 10.933594 22.296875 10.894531 22.242188 10.851562 22.1875 L 10.722656 22.320312 C 10.535156 22.503906 10.304688 22.625 10.046875 22.671875 L 9.890625 22.699219 C 9.738281 22.726562 9.582031 22.675781 9.472656 22.566406 C 9.363281 22.460938 9.316406 22.304688 9.34375 22.152344 L 9.371094 21.996094 C 9.417969 21.738281 9.539062 21.507812 9.722656 21.320312 L 10.386719 20.660156 C 10.390625 20.621094 10.398438 20.582031 10.40625 20.546875 C 10.414062 20.519531 10.417969 20.488281 10.425781 20.460938 C 10.339844 20.449219 10.246094 20.425781 10.144531 20.390625 C 10.0625 20.363281 9.972656 20.328125 9.878906 20.285156 C 9.691406 20.199219 9.484375 20.085938 9.289062 19.957031 C 9.042969 19.796875 8.820312 19.617188 8.648438 19.445312 C 8.589844 19.386719 8.539062 19.332031 8.492188 19.277344 C 8.449219 19.222656 8.410156 19.167969 8.378906 19.117188 C 7.824219 19.480469 7.339844 19.933594 6.898438 20.449219 C 6.910156 20.464844 6.925781 20.488281 6.945312 20.503906 C 7.957031 21.511719 8.96875 22.519531 9.988281 23.523438 C 10.125 23.664062 10.289062 23.773438 10.46875 23.851562 C 10.46875 23.851562 10.46875 23.851562 10.472656 23.851562 C 10.511719 23.871094 10.757812 23.984375 10.976562 23.949219 C 11.085938 23.929688 11.1875 23.871094 11.246094 23.742188 C 11.28125 23.664062 11.304688 23.5625 11.304688 23.433594 C 11.339844 23.066406 11.253906 22.722656 11.011719 22.398438 C 11 22.382812 10.984375 22.367188 10.972656 22.351562 Z M 10.976562 22.351562 " fill-opacity="1" fill-rule="nonzero"/><path fill="#ffffff" d="M 10.363281 21.175781 L 9.972656 21.570312 C 9.839844 21.703125 9.75 21.875 9.714844 22.058594 L 9.6875 22.214844 C 9.671875 22.292969 9.746094 22.363281 9.828125 22.351562 L 9.984375 22.324219 C 10.167969 22.292969 10.335938 22.203125 10.46875 22.070312 L 10.644531 21.894531 C 10.628906 21.871094 10.613281 21.84375 10.597656 21.820312 C 10.589844 21.808594 10.585938 21.796875 10.578125 21.785156 C 10.566406 21.769531 10.554688 21.753906 10.542969 21.738281 C 10.464844 21.609375 10.417969 21.472656 10.390625 21.335938 C 10.378906 21.285156 10.371094 21.230469 10.363281 21.175781 Z M 10.363281 21.175781 " fill-opacity="1" fill-rule="nonzero"/><path fill="#ffffff" d="M 9.867188 24.960938 C 9.886719 24.949219 9.910156 24.933594 9.929688 24.917969 C 10.03125 24.816406 10.03125 24.652344 9.933594 24.550781 L 9.863281 24.472656 L 9.980469 23.769531 L 7.414062 21.203125 L 6.894531 21.289062 C 6.945312 21.457031 6.902344 21.636719 6.777344 21.765625 C 6.742188 21.796875 6.703125 21.828125 6.660156 21.851562 L 9.800781 24.988281 C 9.824219 24.984375 9.847656 24.972656 9.867188 24.964844 Z M 7.550781 22.03125 C 7.488281 22.089844 7.390625 22.089844 7.328125 22.03125 C 7.265625 21.96875 7.265625 21.867188 7.328125 21.804688 C 7.390625 21.746094 7.488281 21.746094 7.550781 21.804688 C 7.613281 21.867188 7.613281 21.96875 7.550781 22.03125 Z M 7.925781 22.402344 C 7.863281 22.464844 7.761719 22.464844 7.703125 22.402344 C 7.640625 22.339844 7.640625 22.242188 7.703125 22.179688 C 7.761719 22.117188 7.863281 22.117188 7.925781 22.179688 C 7.988281 22.242188 7.988281 22.339844 7.925781 22.402344 Z M 8.296875 22.777344 C 8.238281 22.839844 8.136719 22.839844 8.074219 22.777344 C 8.011719 22.714844 8.011719 22.613281 8.074219 22.554688 C 8.136719 22.492188 8.238281 22.492188 8.296875 22.554688 C 8.359375 22.613281 8.359375 22.714844 8.296875 22.777344 Z M 8.671875 23.152344 C 8.609375 23.210938 8.511719 23.210938 8.449219 23.152344 C 8.386719 23.089844 8.386719 22.988281 8.449219 22.925781 C 8.511719 22.863281 8.609375 22.863281 8.671875 22.925781 C 8.734375 22.988281 8.734375 23.089844 8.671875 23.152344 Z M 9.046875 23.523438 C 8.984375 23.585938 8.882812 23.585938 8.820312 23.523438 C 8.761719 23.460938 8.761719 23.363281 8.820312 23.300781 C 8.882812 23.238281 8.984375 23.238281 9.046875 23.300781 C 9.105469 23.363281 9.105469 23.460938 9.046875 23.523438 Z M 9.417969 23.898438 C 9.359375 23.960938 9.257812 23.960938 9.195312 23.898438 C 9.132812 23.835938 9.132812 23.734375 9.195312 23.675781 C 9.257812 23.613281 9.359375 23.613281 9.417969 23.675781 C 9.480469 23.734375 9.480469 23.835938 9.417969 23.898438 Z M 9.417969 23.898438 " fill-opacity="1" fill-rule="nonzero"/><g clip-path="url(#0413450904)"><path fill="#ffffff" d="M 26.925781 5.230469 C 26.925781 5.539062 26.867188 5.835938 26.75 6.117188 C 26.632812 6.402344 26.464844 6.652344 26.246094 6.871094 C 26.027344 7.089844 25.777344 7.257812 25.492188 7.375 C 25.207031 7.492188 24.914062 7.550781 24.605469 7.550781 C 24.296875 7.550781 24 7.492188 23.714844 7.375 C 23.433594 7.257812 23.179688 7.089844 22.964844 6.871094 C 22.746094 6.652344 22.578125 6.402344 22.460938 6.117188 C 22.34375 5.835938 22.285156 5.539062 22.285156 5.230469 C 22.285156 4.921875 22.34375 4.625 22.460938 4.34375 C 22.578125 4.058594 22.746094 3.804688 22.964844 3.589844 C 23.179688 3.371094 23.433594 3.203125 23.714844 3.085938 C 24 2.96875 24.296875 2.910156 24.605469 2.910156 C 24.914062 2.910156 25.207031 2.96875 25.492188 3.085938 C 25.777344 3.203125 26.027344 3.371094 26.246094 3.589844 C 26.464844 3.804688 26.632812 4.058594 26.75 4.34375 C 26.867188 4.625 26.925781 4.921875 26.925781 5.230469 Z M 26.925781 5.230469 " fill-opacity="1" fill-rule="nonzero"/></g><g clip-path="url(#af74dab319)"><path fill="#ffffff" d="M 8.246094 7.128906 C 8.246094 6.722656 7.914062 6.390625 7.507812 6.390625 L 4.128906 6.390625 C 3.722656 6.390625 3.390625 6.722656 3.390625 7.128906 C 3.390625 7.539062 3.722656 7.867188 4.128906 7.867188 L 7.507812 7.867188 C 7.914062 7.867188 8.246094 7.539062 8.246094 7.128906 Z M 8.246094 7.128906 " fill-opacity="1" fill-rule="nonzero"/></g><path fill="#ffffff" d="M 9.722656 9.558594 C 9.722656 9.148438 9.394531 8.820312 8.984375 8.820312 L 5.609375 8.820312 C 5.199219 8.820312 4.871094 9.148438 4.871094 9.558594 C 4.871094 9.964844 5.199219 10.296875 5.609375 10.296875 L 8.984375 10.296875 C 9.394531 10.296875 9.722656 9.964844 9.722656 9.558594 Z M 9.722656 9.558594 " fill-opacity="1" fill-rule="nonzero"/><path fill="#ffffff" d="M 7.085938 11.246094 C 6.675781 11.246094 6.347656 11.578125 6.347656 11.984375 C 6.347656 12.390625 6.675781 12.722656 7.085938 12.722656 L 10.460938 12.722656 C 10.871094 12.722656 11.199219 12.390625 11.199219 11.984375 C 11.199219 11.578125 10.871094 11.246094 10.460938 11.246094 Z M 7.085938 11.246094 " fill-opacity="1" fill-rule="nonzero"/></svg>