<svg xmlns="http://www.w3.org/2000/svg" xmlns:xlink="http://www.w3.org/1999/xlink" width="40" zoomAndPan="magnify" viewBox="0 0 30 30.000001" height="40" preserveAspectRatio="xMidYMid meet" version="1.0"><defs><clipPath id="46ae33d127"><path d="M 0.484375 0 L 29.515625 0 L 29.515625 29.03125 L 0.484375 29.03125 Z M 0.484375 0 " clip-rule="nonzero"/></clipPath><clipPath id="7e6665a359"><path d="M 1.613281 15 L 26.292969 15 L 26.292969 18 L 1.613281 18 Z M 1.613281 15 " clip-rule="nonzero"/></clipPath><clipPath id="2b066bf26f"><path d="M 1.613281 17 L 26.292969 17 L 26.292969 21 L 1.613281 21 Z M 1.613281 17 " clip-rule="nonzero"/></clipPath><clipPath id="8f8ac3e6ef"><path d="M 1.613281 20 L 26.292969 20 L 26.292969 23.363281 L 1.613281 23.363281 Z M 1.613281 20 " clip-rule="nonzero"/></clipPath><clipPath id="3d86159f47"><path d="M 7 4.492188 L 20 4.492188 L 20 18 L 7 18 Z M 7 4.492188 " clip-rule="nonzero"/></clipPath></defs><g clip-path="url(#46ae33d127)"><path fill="#ffffff" d="M 0.484375 0 L 29.515625 0 L 29.515625 29.03125 L 0.484375 29.03125 Z M 0.484375 0 " fill-opacity="1" fill-rule="nonzero"/><path fill="#000000" d="M 0.484375 0 L 29.515625 0 L 29.515625 29.03125 L 0.484375 29.03125 Z M 0.484375 0 " fill-opacity="1" fill-rule="nonzero"/></g><g clip-path="url(#7e6665a359)"><path fill="#ffffff" d="M 24.175781 17.859375 C 23.390625 17.859375 22.648438 17.507812 21.957031 16.820312 C 21.417969 16.28125 20.84375 16.011719 20.246094 16.011719 L 20.238281 16.011719 C 19.25 16.011719 18.476562 16.75 18.410156 16.8125 C 18.304688 16.929688 17.453125 17.820312 16.230469 17.859375 C 15.417969 17.886719 14.644531 17.535156 13.929688 16.820312 C 13.390625 16.28125 12.816406 16.011719 12.21875 16.011719 L 12.210938 16.011719 C 11.226562 16.011719 10.449219 16.75 10.382812 16.8125 C 10.277344 16.929688 9.425781 17.820312 8.203125 17.859375 C 7.390625 17.886719 6.617188 17.535156 5.902344 16.820312 C 5.367188 16.28125 4.789062 16.011719 4.191406 16.011719 L 4.1875 16.011719 C 3.160156 16.015625 2.359375 16.808594 2.351562 16.816406 C 2.277344 16.894531 2.183594 16.933594 2.074219 16.9375 C 1.964844 16.9375 1.871094 16.898438 1.792969 16.824219 C 1.714844 16.746094 1.675781 16.652344 1.671875 16.542969 C 1.671875 16.433594 1.710938 16.339844 1.785156 16.261719 C 1.828125 16.21875 2.8125 15.226562 4.175781 15.214844 L 4.191406 15.214844 C 5.007812 15.214844 5.773438 15.566406 6.464844 16.257812 C 7.019531 16.8125 7.59375 17.085938 8.179688 17.066406 C 9.121094 17.035156 9.792969 16.285156 9.800781 16.277344 C 9.804688 16.265625 9.808594 16.265625 9.8125 16.261719 C 9.855469 16.21875 10.839844 15.222656 12.203125 15.214844 L 12.21875 15.214844 C 13.035156 15.214844 13.800781 15.566406 14.488281 16.257812 C 15.042969 16.8125 15.621094 17.082031 16.207031 17.066406 C 17.144531 17.035156 17.820312 16.285156 17.824219 16.273438 C 17.832031 16.265625 17.835938 16.265625 17.839844 16.261719 C 17.882812 16.21875 18.867188 15.222656 20.226562 15.214844 L 20.246094 15.214844 C 21.0625 15.214844 21.824219 15.566406 22.515625 16.257812 C 23.074219 16.8125 23.648438 17.082031 24.230469 17.066406 C 25.171875 17.035156 25.847656 16.28125 25.851562 16.273438 C 25.925781 16.191406 26.015625 16.148438 26.125 16.140625 C 26.234375 16.132812 26.332031 16.167969 26.414062 16.238281 C 26.496094 16.3125 26.539062 16.402344 26.546875 16.511719 C 26.554688 16.621094 26.519531 16.71875 26.449219 16.800781 C 26.410156 16.839844 25.539062 17.816406 24.257812 17.855469 C 24.230469 17.859375 24.203125 17.859375 24.175781 17.859375 Z M 24.175781 17.859375 " fill-opacity="1" fill-rule="nonzero"/></g><g clip-path="url(#2b066bf26f)"><path fill="#ffffff" d="M 24.175781 20.503906 C 23.390625 20.503906 22.648438 20.152344 21.957031 19.460938 C 21.414062 18.921875 20.835938 18.652344 20.234375 18.652344 C 19.238281 18.660156 18.476562 19.390625 18.410156 19.453125 C 18.308594 19.570312 17.453125 20.464844 16.230469 20.5 C 15.417969 20.527344 14.644531 20.175781 13.929688 19.460938 C 13.390625 18.925781 12.816406 18.652344 12.21875 18.652344 L 12.210938 18.652344 C 11.226562 18.65625 10.449219 19.390625 10.382812 19.457031 C 10.277344 19.570312 9.425781 20.464844 8.203125 20.5 C 7.390625 20.527344 6.617188 20.175781 5.902344 19.460938 C 5.367188 18.925781 4.789062 18.652344 4.191406 18.652344 L 4.1875 18.652344 C 3.160156 18.65625 2.359375 19.453125 2.351562 19.460938 C 2.277344 19.539062 2.183594 19.578125 2.074219 19.578125 C 1.964844 19.578125 1.871094 19.542969 1.792969 19.464844 C 1.714844 19.386719 1.675781 19.296875 1.671875 19.183594 C 1.671875 19.074219 1.710938 18.980469 1.785156 18.902344 C 1.828125 18.859375 2.8125 17.867188 4.175781 17.859375 L 4.191406 17.859375 C 5.007812 17.859375 5.773438 18.210938 6.464844 18.898438 C 7.019531 19.457031 7.59375 19.726562 8.179688 19.707031 C 9.121094 19.679688 9.792969 18.925781 9.800781 18.917969 C 9.804688 18.910156 9.808594 18.90625 9.8125 18.902344 C 9.855469 18.859375 10.839844 17.867188 12.203125 17.859375 L 12.21875 17.859375 C 13.035156 17.859375 13.796875 18.210938 14.488281 18.898438 C 15.042969 19.453125 15.617188 19.722656 16.199219 19.707031 C 17.132812 19.679688 17.820312 18.925781 17.828125 18.917969 C 17.832031 18.910156 17.835938 18.90625 17.839844 18.902344 C 17.882812 18.859375 18.867188 17.867188 20.226562 17.859375 L 20.246094 17.859375 C 21.0625 17.859375 21.824219 18.210938 22.515625 18.898438 C 23.070312 19.453125 23.644531 19.726562 24.226562 19.707031 C 25.160156 19.683594 25.847656 18.925781 25.851562 18.917969 C 25.925781 18.835938 26.015625 18.792969 26.125 18.785156 C 26.234375 18.777344 26.332031 18.8125 26.414062 18.882812 C 26.496094 18.957031 26.539062 19.046875 26.546875 19.15625 C 26.554688 19.265625 26.519531 19.359375 26.449219 19.441406 C 26.410156 19.484375 25.539062 20.460938 24.257812 20.5 C 24.230469 20.503906 24.203125 20.503906 24.175781 20.503906 Z M 24.175781 20.503906 " fill-opacity="1" fill-rule="nonzero"/></g><g clip-path="url(#8f8ac3e6ef)"><path fill="#ffffff" d="M 24.175781 23.144531 C 23.390625 23.144531 22.648438 22.792969 21.957031 22.105469 C 21.417969 21.566406 20.84375 21.296875 20.246094 21.296875 L 20.234375 21.296875 C 19.238281 21.300781 18.476562 22.035156 18.410156 22.097656 C 18.308594 22.210938 17.453125 23.105469 16.230469 23.144531 C 15.417969 23.171875 14.644531 22.820312 13.929688 22.105469 C 13.390625 21.566406 12.816406 21.296875 12.21875 21.296875 L 12.210938 21.296875 C 11.226562 21.300781 10.449219 22.035156 10.382812 22.097656 C 10.277344 22.214844 9.425781 23.105469 8.203125 23.144531 C 7.390625 23.171875 6.617188 22.820312 5.902344 22.105469 C 5.367188 21.566406 4.789062 21.296875 4.191406 21.296875 L 4.1875 21.296875 C 3.160156 21.300781 2.359375 22.09375 2.351562 22.101562 C 2.277344 22.179688 2.183594 22.21875 2.074219 22.222656 C 1.964844 22.222656 1.871094 22.183594 1.792969 22.109375 C 1.714844 22.03125 1.675781 21.9375 1.671875 21.828125 C 1.671875 21.71875 1.710938 21.625 1.785156 21.546875 C 1.828125 21.503906 2.8125 20.511719 4.175781 20.5 L 4.191406 20.5 C 5.007812 20.5 5.773438 20.851562 6.464844 21.542969 C 7.019531 22.097656 7.59375 22.371094 8.179688 22.351562 C 9.121094 22.320312 9.792969 21.570312 9.800781 21.5625 L 9.8125 21.546875 C 9.855469 21.503906 10.839844 20.507812 12.203125 20.5 L 12.21875 20.5 C 13.035156 20.5 13.800781 20.851562 14.488281 21.542969 C 15.042969 22.097656 15.621094 22.367188 16.207031 22.351562 C 17.144531 22.320312 17.820312 21.566406 17.824219 21.558594 L 17.839844 21.546875 C 17.882812 21.503906 18.867188 20.507812 20.226562 20.5 L 20.246094 20.5 C 21.0625 20.5 21.824219 20.851562 22.515625 21.542969 C 23.074219 22.097656 23.648438 22.367188 24.230469 22.347656 C 25.171875 22.320312 25.847656 21.566406 25.851562 21.558594 C 25.925781 21.476562 26.015625 21.433594 26.125 21.425781 C 26.234375 21.417969 26.332031 21.453125 26.414062 21.523438 C 26.496094 21.597656 26.539062 21.6875 26.546875 21.796875 C 26.554688 21.90625 26.519531 22 26.449219 22.082031 C 26.410156 22.125 25.539062 23.101562 24.257812 23.140625 C 24.230469 23.144531 24.203125 23.144531 24.175781 23.144531 Z M 24.175781 23.144531 " fill-opacity="1" fill-rule="nonzero"/></g><g clip-path="url(#3d86159f47)"><path fill="#ffffff" d="M 7.539062 17.777344 C 7.363281 17.777344 7.242188 17.695312 7.171875 17.535156 C 7.105469 17.375 7.128906 17.234375 7.25 17.105469 L 11.207031 12.9375 C 11.277344 12.859375 11.316406 12.769531 11.316406 12.667969 C 11.316406 12.5625 11.285156 12.472656 11.214844 12.394531 L 10.007812 11.054688 C 9.800781 10.824219 9.644531 10.5625 9.546875 10.269531 C 9.445312 9.972656 9.40625 9.671875 9.429688 9.359375 C 9.453125 9.050781 9.539062 8.757812 9.683594 8.484375 C 9.828125 8.207031 10.019531 7.96875 10.257812 7.773438 L 13.609375 5.035156 C 13.773438 4.90625 13.957031 4.808594 14.160156 4.75 C 14.359375 4.691406 14.5625 4.671875 14.773438 4.695312 C 14.980469 4.714844 15.179688 4.773438 15.363281 4.871094 C 15.546875 4.96875 15.707031 5.097656 15.84375 5.257812 C 15.980469 5.417969 16.078125 5.597656 16.144531 5.796875 C 16.207031 5.996094 16.234375 6.203125 16.21875 6.410156 C 16.203125 6.621094 16.148438 6.820312 16.054688 7.007812 C 15.964844 7.195312 15.839844 7.359375 15.683594 7.496094 L 13.550781 9.34375 L 19.773438 15.445312 C 19.851562 15.523438 19.890625 15.613281 19.890625 15.726562 C 19.894531 15.835938 19.855469 15.929688 19.777344 16.007812 C 19.699219 16.085938 19.609375 16.125 19.5 16.125 C 19.386719 16.125 19.292969 16.089844 19.214844 16.011719 L 12.6875 9.609375 C 12.605469 9.53125 12.566406 9.429688 12.570312 9.316406 C 12.570312 9.199219 12.617188 9.105469 12.707031 9.027344 L 15.164062 6.898438 C 15.332031 6.753906 15.425781 6.570312 15.445312 6.347656 C 15.464844 6.125 15.398438 5.925781 15.257812 5.753906 C 15.113281 5.585938 14.929688 5.488281 14.707031 5.46875 C 14.484375 5.449219 14.285156 5.507812 14.113281 5.652344 L 10.761719 8.386719 C 10.605469 8.515625 10.480469 8.671875 10.386719 8.851562 C 10.292969 9.027344 10.238281 9.21875 10.222656 9.421875 C 10.207031 9.625 10.230469 9.820312 10.296875 10.011719 C 10.363281 10.203125 10.464844 10.375 10.597656 10.523438 L 11.804688 11.863281 C 12.011719 12.097656 12.113281 12.367188 12.109375 12.675781 C 12.105469 12.988281 11.996094 13.253906 11.785156 13.480469 L 7.824219 17.652344 C 7.746094 17.734375 7.652344 17.777344 7.539062 17.777344 Z M 7.539062 17.777344 " fill-opacity="1" fill-rule="nonzero"/></g><path fill="#ffffff" d="M 17.90625 13.589844 C 17.539062 13.589844 17.1875 13.519531 16.851562 13.378906 C 16.511719 13.242188 16.214844 13.042969 15.957031 12.78125 C 15.699219 12.523438 15.5 12.226562 15.359375 11.890625 C 15.21875 11.550781 15.148438 11.199219 15.148438 10.832031 C 15.148438 10.46875 15.21875 10.117188 15.359375 9.777344 C 15.5 9.441406 15.699219 9.140625 15.957031 8.882812 C 16.214844 8.625 16.511719 8.425781 16.851562 8.285156 C 17.1875 8.144531 17.539062 8.078125 17.90625 8.078125 C 18.273438 8.078125 18.625 8.144531 18.960938 8.285156 C 19.300781 8.425781 19.597656 8.625 19.855469 8.882812 C 20.113281 9.140625 20.3125 9.441406 20.453125 9.777344 C 20.59375 10.117188 20.664062 10.46875 20.664062 10.832031 C 20.664062 11.199219 20.59375 11.550781 20.453125 11.886719 C 20.3125 12.226562 20.113281 12.523438 19.855469 12.78125 C 19.597656 13.039062 19.296875 13.238281 18.960938 13.378906 C 18.625 13.519531 18.273438 13.589844 17.90625 13.589844 Z M 17.90625 8.871094 C 17.644531 8.871094 17.394531 8.917969 17.15625 9.019531 C 16.914062 9.117188 16.703125 9.261719 16.515625 9.445312 C 16.332031 9.628906 16.191406 9.839844 16.089844 10.082031 C 15.992188 10.324219 15.941406 10.574219 15.941406 10.835938 C 15.941406 11.09375 15.992188 11.34375 16.089844 11.585938 C 16.191406 11.828125 16.332031 12.039062 16.515625 12.222656 C 16.703125 12.40625 16.914062 12.550781 17.15625 12.648438 C 17.394531 12.75 17.644531 12.796875 17.90625 12.796875 C 18.167969 12.796875 18.417969 12.75 18.65625 12.648438 C 18.898438 12.546875 19.109375 12.40625 19.296875 12.222656 C 19.480469 12.039062 19.621094 11.824219 19.722656 11.585938 C 19.820312 11.34375 19.871094 11.09375 19.871094 10.832031 C 19.871094 10.574219 19.820312 10.324219 19.71875 10.082031 C 19.621094 9.84375 19.476562 9.628906 19.292969 9.445312 C 19.109375 9.261719 18.898438 9.121094 18.65625 9.019531 C 18.417969 8.921875 18.167969 8.871094 17.90625 8.871094 Z M 17.90625 8.871094 " fill-opacity="1" fill-rule="nonzero"/></svg>