<?xml version="1.0" encoding="utf-8"?>
<!-- Generator: Adobe Illustrator 26.0.1, SVG Export Plug-In . SVG Version: 6.00 Build 0)  -->
<svg version="1.1" id="Layer_1" xmlns="http://www.w3.org/2000/svg" xmlns:xlink="http://www.w3.org/1999/xlink" x="0px" y="0px"
	 viewBox="0 0 32 32" style="enable-background:new 0 0 32 32;" xml:space="preserve">
<style type="text/css">
	.st0{fill:none;stroke:#252E5C;stroke-width:0.25;stroke-miterlimit:10;}
	.st1{fill:#252E5C;}
</style>
<g>
	<path class="st0" d="M14.9,20.2c0.1-0.2,0.2-0.3,0.3-0.4c0.6-0.4,1.3-0.5,2-0.2c0.4,0.2,0.6,0.5,0.6,0.9c0,0.3-0.2,0.5-0.4,0.7
		c-0.6,0.5-1.5,0.7-2.2,0.3c-0.1-0.1-0.2-0.2-0.3-0.2c-0.1,0-0.2,0.1-0.2,0.1c-0.2,0-0.3,0-0.5-0.2c-0.1-0.1-0.2-0.1-0.3-0.1
		c-0.2,0-0.3,0.1-0.5,0.1c-0.1,0-0.1,0-0.1-0.1c0,0,0-0.1,0-0.1c-0.1-0.2,0-0.3,0.2-0.3c0,0,0.1,0,0.2,0c-0.1,0-0.1-0.1-0.1-0.1
		c-0.5-0.3-1-0.7-1.4-1c-0.1-0.1-0.2-0.2-0.3-0.3c-0.2-0.4-0.4-0.8-0.6-1.1c0,0,0-0.1-0.1-0.1c-0.1,0.2-0.1,0.4-0.2,0.6
		c-0.2,0.8-0.4,1.5-0.6,2.3c0,0.1,0,0.1,0,0.2c0.6,0.7,1.3,1.5,1.9,2.2c0.2,0.2,0.3,0.4,0.3,0.7c0.3,1.3,0.6,2.6,0.9,3.9
		c0.1,0.5-0.2,1-0.7,1.1c-0.5,0.1-1-0.2-1.1-0.7c-0.3-1.3-0.6-2.5-0.8-3.8c0,0,0-0.1-0.1-0.1c-0.7-0.8-1.5-1.7-2.2-2.5
		c0,0,0,0-0.1,0c0.1,0.3,0.2,0.6,0.3,1c0.2,0.5,0.3,0.9,0.5,1.4c0.1,0.4,0.1,0.7-0.2,1c-1,1.2-2,2.4-2.9,3.5C6.2,29,5.8,29.1,5.5,29
		c-0.4-0.1-0.6-0.3-0.7-0.7c-0.1-0.3,0-0.6,0.2-0.8c0.4-0.5,0.8-0.9,1.1-1.4c0.5-0.6,1-1.2,1.4-1.7c0.1-0.1,0.1-0.1,0-0.2
		c-0.3-1-0.6-2-1-2.9c-0.1-0.3-0.1-0.6,0-0.9c0.1-0.3,0.2-0.7,0.3-1.1c0-0.1,0-0.1-0.1-0.2c-0.2-0.2-0.4-0.4-0.6-0.7
		c-0.2-0.2-0.2-0.4-0.1-0.6c0.2-0.8,0.6-1.5,1.2-2.1c0.2-0.2,0.5-0.3,0.7-0.5c0.2-0.1,0.4-0.1,0.6-0.1c0.9,0.2,1.7,0.5,2.6,0.7
		c0.2,0.1,0.4,0.2,0.5,0.4c0.4,0.8,0.8,1.5,1.1,2.3c0,0,0.1,0.1,0.1,0.1C13.6,19.3,14.3,19.8,14.9,20.2
		C14.9,20.2,14.9,20.2,14.9,20.2z"/>
	<path class="st0" d="M28.5,17.9c0,0.3,0,0.6,0,1c0,0,0,0.1,0,0.2h-2.3v0.2c0,1.4,0,2.7,0,4.1c0,0.1,0,0.1-0.1,0.1c-0.3,0-0.7,0-1,0
		V19H13.8c-0.1,0-0.2,0-0.2-0.1c-0.3-0.2-0.5-0.4-0.7-0.8c-0.1-0.2-0.2-0.5-0.3-0.7h3.2v-4.4h10.1c0,0,0,0.1,0.1,0.1
		c0.8,1.4,1.6,2.8,2.4,4.3C28.5,17.6,28.5,17.7,28.5,17.9z"/>
	<path class="st0" d="M27.7,17.4c0-0.1,0-0.1-0.1-0.1c-0.8-1.5-1.6-2.9-2.4-4.4c-0.1-0.1-0.1-0.1-0.2-0.1c-2.9,0-5.8,0-8.8,0
		c-0.3,0-0.3,0-0.3,0.3c0,1.4,0,2.8,0,4.2c0,0,0,0.1,0,0.1C20,17.4,23.8,17.4,27.7,17.4z"/>
	<path class="st0" d="M16,9c0,0.1,0,0.1,0,0.1c0,0.5,0,1,0,1.5c0,0.1,0,0.1,0.1,0.1c2.6,0,5.2,0,7.8,0c0,0,0.1,0,0.1,0
		c0-0.1,0-0.1-0.1-0.1c-0.3-0.5-0.5-1-0.8-1.5C23.2,9,23.1,9,23.1,9c-2.3,0-4.6,0-6.9,0C16.1,9,16.1,9,16,9z"/>
	<path class="st0" d="M7.7,10.8c2.7,0,5.4,0,8.1,0c0-0.6,0-1.2,0-1.8c0,0-0.1,0-0.1,0c-2.3,0-4.6,0-6.9,0C8.7,9,8.6,9,8.6,9.1
		c-0.3,0.5-0.6,1-0.8,1.6C7.8,10.7,7.7,10.7,7.7,10.8z"/>
	<path class="st0" d="M20.7,7.6c-0.2,0-0.3,0.1-0.5,0.2c-0.3,0.2-0.7,0.4-1,0.6c-0.1,0-0.1,0.1-0.1,0.2c0,0-0.1,0.1-0.1,0.1
		c-0.4,0-0.7,0-1.1,0c0-0.1,0-0.1,0-0.1C18,8.4,18.1,8.2,18.1,8c0.1-0.2,0.2-0.3,0.3-0.4c0.5-0.3,0.9-0.6,1.4-0.8
		c0.1,0,0.1-0.1,0.1-0.2c-0.2-0.5-0.3-1.1-0.5-1.6c0,0,0-0.1,0-0.1c0,0-0.1,0-0.1,0.1c-0.3,0.2-0.6,0.5-0.9,0.7
		c-0.1,0.1-0.3,0.1-0.5,0.1c-0.4-0.1-0.8-0.2-1.1-0.3c-0.1,0-0.1,0-0.2,0c-0.1,0-0.1,0.1-0.2,0.1c0,0,0,0,0,0c0-0.2-0.2-0.3-0.3-0.3
		c-0.3-0.1-0.3-0.2-0.3-0.4c-0.2,0-0.4-0.2-0.6-0.3c-0.1-0.2-0.2-0.4-0.2-0.6c0-0.4,0.2-0.7,0.4-0.8c0.3-0.2,0.7-0.1,1,0.2
		c0.3,0.3,0.4,0.6,0.3,1c0,0.1-0.1,0.1-0.1,0.2c0,0.1-0.1,0.1-0.1,0.2c0.2,0.1,0.3,0.1,0.5,0.1c0.4,0.1,0.7,0.2,1.1,0.3
		C18,5,18,5,18.1,5c0.3-0.2,0.6-0.5,0.9-0.7c0.3,0.2,0.7,0.3,1.1,0.2c0.4-0.1,0.6-0.4,0.8-0.8c0-0.1,0.1-0.1,0.1-0.1
		c0.2-0.1,0.4-0.1,0.6,0.1c0.5,0.3,1,0.6,1.5,0.9c0.1,0,0.1,0.1,0.2,0.1c0.6,0,1.3,0.1,1.9,0.1c0.2,0,0.3,0.1,0.3,0.2
		c0.1,0.1,0,0.3-0.1,0.4c-0.1,0-0.2,0.1-0.2,0.1c-0.7,0-1.4,0-2.1-0.1c-0.1,0-0.2,0-0.2-0.1C22.5,5,22.3,4.9,22,4.7
		c0,0-0.1,0-0.1-0.1c0,0.1,0,0.1,0,0.1c0.2,0.6,0.4,1.2,0.6,1.9c0.1,0.2,0,0.4-0.1,0.6c-0.3,0.3-0.5,0.6-0.8,1
		c-0.1,0.1-0.1,0.1,0,0.2c0.1,0.1,0.1,0.1,0.1,0.2c-0.1,0-0.1,0-0.2,0c-0.3,0-0.6,0-1,0c-0.1,0-0.1,0-0.2-0.1
		c-0.1-0.2-0.1-0.4,0-0.6C20.5,7.9,20.6,7.7,20.7,7.6z"/>
	<path class="st0" d="M18.8,3c0-0.6,0.5-1,1-1c0.5,0,1,0.5,0.9,1c0,0.6-0.5,1-1,1C19.2,4,18.7,3.6,18.8,3z"/>
	<path class="st0" d="M8.3,13.9c0-0.8,0.6-1.5,1.3-1.4c0.7,0,1.3,0.7,1.3,1.5c0,0.8-0.6,1.4-1.3,1.4C8.8,15.3,8.2,14.7,8.3,13.9z"/>
	<path class="st0" d="M12,7.4C12,7.2,12.1,7,12.4,7c0.2,0,0.4,0.2,0.4,0.4c0,0.2-0.2,0.4-0.4,0.4C12.1,7.8,12,7.6,12,7.4z"/>
	<path class="st1" d="M3.4,10.8v2.3h4.7c0.2-0.6,0.8-0.9,1.5-0.9c0.6,0,1.2,0.4,1.5,0.9h15.5v-2.3H3.4z M14.9,11.6h0.3v0.2h-0.5
		c0,0,0,0,0,0C14.7,11.6,14.7,11.6,14.9,11.6z M14.7,11.5v-0.2h0.5v0.2H14.7z M15.2,11.9v0.2h-0.4c0,0,0,0-0.1-0.1v-0.2H15.2z
		 M13.1,11c0.1,0,0.3,0,0.4,0v0.2h-0.4c-0.1,0,0-0.1,0-0.1C13,11,13,11,13.1,11z M13.5,11.3v0.2H13v-0.2H13.5z M12.5,11h0.5v0.2
		h-0.5V11z M12.5,11.3h0.5v0.2h-0.5V11.3z M12.5,11.6h0.5v0.2h-0.5V11.6z M11.3,11c0.1,0,0.3,0,0.4,0c0,0,0,0,0.1,0v0.2h-0.5V11z
		 M11.3,11.3h0.5v0.2h-0.5V11.3z M11.3,11.6c0.1,0,0.3,0,0.4,0c0,0,0,0.1,0,0.2c0,0,0,0.1-0.1,0.1c-0.1,0-0.3,0-0.4,0V11.6z M9.7,11
		c0.2,0,0.3,0,0.4,0c0.1,0,0.1,0.1,0.1,0.1c0,0,0,0.1-0.1,0.1H9.7V11z M4,12.7H3.7v-0.2H4V12.7z M3.7,12.4c0-0.1,0-0.2,0-0.2
		c0.1,0,0.2,0,0.3,0c0,0,0,0.1,0,0.2H3.7z M4,11.6c0,0,0,0.1,0,0.2c0,0,0,0.1-0.1,0.1c-0.1,0-0.2,0-0.2,0c0,0,0,0,0,0
		C3.7,11.6,3.8,11.5,4,11.6z M3.7,11.5v-0.2H4v0.2H3.7z M4,11.9v0.2H3.7v-0.2H4z M3.7,11.2c0-0.1,0-0.2,0-0.2c0.1,0,0.2,0,0.3,0
		c0,0,0,0.1,0,0.2H3.7z M4.6,12.7H4.1v-0.2h0.5V12.7z M4.6,12.4H4.1v-0.2h0.4c0,0,0,0,0,0.1C4.6,12.3,4.6,12.4,4.6,12.4z M4.6,12.1
		H4.1v-0.2h0.5V12.1z M4.6,11.8H4.1v-0.2h0.5V11.8z M4.6,11.5H4.1v-0.2h0.5V11.5z M4.6,11.2H4.1V11c0.2,0,0.3,0,0.4,0c0,0,0,0,0,0.1
		C4.6,11.1,4.6,11.1,4.6,11.2z M5.2,12.7H4.7v-0.2h0.5V12.7z M5.2,12.4H4.7v-0.2h0.5V12.4z M5.2,12.1H4.7v-0.2h0.5V12.1z M5.2,11.8
		H4.7v-0.2h0.5V11.8z M5.2,11.5H4.7v-0.2h0.5V11.5z M5.2,11.2H4.7V11h0.5V11.2z M5.4,11h0.1c0.2,0,0.2,0,0.2,0.2v0.1H5.2
		c0,0,0,0,0,0C5.2,11,5.2,11,5.4,11z M5.2,11.8v-0.2h0.4c0,0,0,0,0,0.1c0,0,0,0.1,0,0.2H5.2z M5.7,11.9v0.2H5.2v-0.2H5.7z M5.2,11.5
		v-0.2h0.5v0.2H5.2z M5.7,12.7H5.2v-0.2h0.5V12.7z M5.7,12.3C5.7,12.4,5.7,12.4,5.7,12.3l-0.5,0.1v-0.2c0.1,0,0.3,0,0.4,0
		C5.8,12.2,5.7,12.3,5.7,12.3z M6.3,12.7H5.8v-0.2h0.5V12.7z M6.3,12.4H5.8v-0.2h0.5V12.4z M6.3,12.1H5.8v-0.2h0.5V12.1z M6.3,11.8
		H5.8v-0.2h0.5V11.8z M6.3,11.5H5.8v-0.2h0.5V11.5z M6.3,11.2H5.8V11h0.5V11.2z M6.8,12.7H6.3v-0.2h0.5V12.7z M6.8,12.4H6.3v-0.2
		h0.5V12.4z M6.8,12.1H6.3v-0.2h0.5V12.1z M6.8,11.8H6.3v-0.2h0.5V11.8z M6.8,11.5H6.3v-0.2h0.5V11.5z M6.8,11.2H6.3V11h0.5V11.2z
		 M7.4,12.7H6.9v-0.2h0.5V12.7z M7.4,12.4H6.9l0-0.2h0.5V12.4z M7.4,12.1H6.9c0,0,0,0,0-0.1c0,0,0-0.1,0-0.2h0.5V12.1z M7.4,11.8H7
		c-0.1,0-0.1-0.1-0.1-0.1s0-0.1,0.1-0.1h0.4V11.8z M7.4,11.5H6.9v-0.2h0.5V11.5z M7.4,11.2H7c0,0-0.1-0.1-0.1-0.1c0,0,0-0.1,0-0.1
		c0.1,0,0.3,0,0.4,0V11.2z M7.9,12.7H7.5v-0.2h0.5V12.7z M7.9,12.4H7.5l0,0c0,0,0-0.2,0-0.2l0.5,0V12.4z M7.9,12.1H7.5v-0.2h0.5
		V12.1z M7.9,11.8H7.5c0,0,0,0,0,0c0-0.2,0-0.2,0.2-0.2h0.3V11.8z M7.9,11.5H7.5v-0.2h0.5V11.5z M7.9,11.2H7.5V11h0.5V11.2z
		 M8.5,12.1H8v-0.2h0.5V12.1z M8.5,11.8H8c0-0.1,0-0.1,0-0.2c0,0,0,0,0,0h0.4V11.8z M8.5,11.5H8v-0.2h0.5V11.5z M8.5,11.2H8.1
		c0,0,0,0-0.1-0.1V11c0.2,0,0.3,0,0.4,0c0,0,0,0,0,0.1V11.2z M9.1,11.8C9.1,11.8,9.1,11.8,9.1,11.8c-0.1,0.1-0.3,0.1-0.4,0.1
		c-0.1,0,0-0.1,0-0.1c0,0,0-0.1,0.1-0.1c0.1,0,0.3,0,0.4,0V11.8z M9.1,11.5H8.6v-0.2h0.5V11.5z M9,11.2H8.6c0,0,0,0,0,0
		c0-0.2,0-0.2,0.2-0.2h0.1C9.1,11,9.1,11,9,11.2z M9.6,11.8H9.1v-0.2h0.5V11.8z M9.6,11.5H9.1v-0.2h0.5V11.5z M9.6,11.2H9.1V11h0.5
		V11.2z M10.2,11.8H9.7v-0.2h0.4c0,0,0.1,0,0.1,0.1C10.2,11.7,10.2,11.8,10.2,11.8z M10,11.5H9.7v-0.2h0.5c0,0,0,0,0,0
		C10.2,11.5,10.2,11.5,10,11.5z M10.7,11.8h-0.5v-0.2h0.5V11.8z M10.7,11.5h-0.5v-0.2h0.5V11.5z M10.7,11.2h-0.5V11
		c0.1,0,0.3,0,0.4,0c0,0,0,0,0.1,0.1V11.2z M11.3,12.1h-0.5v-0.2h0.5V12.1z M11.3,11.8h-0.5v-0.2h0.5V11.8z M11.3,11.5h-0.5v-0.2
		h0.5V11.5z M11.3,11.2h-0.5V11h0.5V11.2z M11.8,12.7h-0.5v-0.2h0.5V12.7z M11.8,12.4c-0.1,0-0.3,0-0.4,0v-0.2c0.1,0,0.3,0,0.4,0
		C11.8,12.2,11.8,12.3,11.8,12.4C11.8,12.4,11.8,12.4,11.8,12.4z M11.7,12.1h-0.3v-0.2h0.5c0,0,0,0,0,0
		C11.9,12.1,11.9,12.1,11.7,12.1z M12.4,12.7h-0.5v-0.2h0.5V12.7z M12.4,12.4h-0.5v-0.2h0.5V12.4z M12.4,12.1h-0.5v-0.2h0.5V12.1z
		 M12.4,11.8h-0.5v-0.2h0.5V11.8z M12.4,11.5h-0.5v-0.2h0.5V11.5z M12.4,11.2h-0.5c0,0,0,0,0,0c0-0.2,0-0.2,0.2-0.2h0.3V11.2z
		 M12.9,12.7h-0.5v-0.2h0.5V12.7z M12.9,12.4h-0.5v-0.2h0.5V12.4z M12.9,12.1h-0.5v-0.2h0.5V12.1z M13.5,12.7H13v-0.2h0.5V12.7z
		 M13.5,12.4c-0.1,0-0.3,0-0.4,0c0,0,0-0.1,0-0.1c0,0,0-0.1,0-0.2c0.1,0,0.3,0,0.4,0V12.4z M13.5,12.1H13v-0.2h0.5V12.1z M13.5,11.8
		H13c0,0,0,0,0,0c0-0.2,0-0.2,0.2-0.2h0.1C13.5,11.6,13.5,11.6,13.5,11.8z M14.1,12.7h-0.5v-0.2h0.5V12.7z M14.1,12.4h-0.5v-0.2h0.5
		V12.4z M14.1,12.1h-0.5v-0.2h0.5V12.1z M14.1,11.8h-0.5v-0.2h0.5V11.8z M14.1,11.5h-0.5v-0.2h0.5V11.5z M14.1,11.2h-0.5V11h0.5
		V11.2z M14.6,12.7h-0.5v-0.2h0.5V12.7z M14.6,12.4h-0.5v-0.2h0.5V12.4z M14.6,12.1h-0.5v-0.2h0.5V12.1z M14.6,11.8h-0.5v-0.2h0.5
		V11.8z M14.6,11.5h-0.5v-0.2h0.5V11.5z M14.6,11.2h-0.4c0,0-0.1-0.1-0.1-0.1c0-0.1,0-0.1,0-0.1c0.1,0,0.3,0,0.4,0V11.2z M15.2,12.7
		h-0.5v-0.2h0.5V12.7z M15.2,12.4h-0.5c0,0,0,0,0,0c0-0.2,0-0.2,0.2-0.2H15C15.2,12.2,15.2,12.2,15.2,12.4z M15.2,11.2h-0.5
		c0,0,0,0,0,0c0-0.2,0-0.2,0.2-0.2H15C15.2,11,15.2,11,15.2,11.2z M15.7,12.7h-0.5v-0.2h0.5V12.7z M15.7,12.4h-0.5v-0.2h0.5V12.4z
		 M15.7,12.1h-0.5v-0.2h0.5V12.1z M15.7,11.8h-0.5v-0.2h0.5V11.8z M15.7,11.5h-0.5v-0.2h0.5V11.5z M15.7,11.2h-0.5V11h0.5V11.2z
		 M25.8,11h0.3v0.2h-0.3V11z M25.8,11.3h0.3v0.2h-0.3V11.3z M25.8,11.6h0.3v0.2h-0.3V11.6z M25.8,11.9h0.3v0.2h-0.3V11.9z M24.7,11
		h0.5v0.2h-0.5V11z M24.7,11.3h0.5v0.2h-0.5V11.3z M24.7,11.6h0.5v0.2h-0.5V11.6z M24.7,11.9h0.5v0.2h-0.5V11.9z M24.7,12.2h0.5v0.2
		h-0.5V12.2z M24.7,12.5h0.5v0.2h-0.5V12.5z M24,12.4c-0.1,0-0.3,0-0.4,0v-0.2c0.2,0,0.3,0,0.4,0C24,12.2,24.1,12.3,24,12.4
		C24.1,12.4,24,12.4,24,12.4z M24.1,12.5v0.2h-0.5v-0.2H24.1z M23.9,12.1h-0.3c0,0,0,0,0,0v-0.2h0.5c0,0,0,0,0,0
		C24.1,12.1,24.1,12.1,23.9,12.1z M23.6,11.5v-0.2h0.5v0.2H23.6z M24.1,11.7c0,0,0,0.1,0,0.2h-0.5v-0.2L24.1,11.7
		C24,11.6,24.1,11.6,24.1,11.7z M24.1,11.2h-0.5c0,0,0,0,0,0c0-0.2,0-0.2,0.2-0.2h0.2C24.1,11,24.1,11,24.1,11.2L24.1,11.2z
		 M23,12.4v-0.2h0.5v0.2H23z M23.5,12.5v0.2H23v-0.2H23.5z M23,12.1v-0.2h0.5v0.2H23z M23,11.8v-0.2h0.5v0.2H23z M23,11.5v-0.2h0.5
		v0.2H23z M23,11.2V11h0.5v0.2H23z M22.5,12.4c0-0.2,0-0.2,0.2-0.2h0.1c0.2,0,0.2,0,0.2,0.2H22.5z M22.9,12.5v0.2h-0.5v-0.2H22.9z
		 M22.5,11.8v-0.2h0.5v0.2H22.5z M22.9,11.9v0.2h-0.5v-0.2H22.9z M22.5,11.5v-0.2H23v0.2H22.5z M22.9,11.2h-0.5c0-0.1,0-0.1,0-0.2
		c0,0,0,0,0,0c0.1,0,0.3,0,0.4,0V11.2z M22.4,11.3v0.2h-0.5v-0.2H22.4z M21.9,11.2V11h0.3c0.1,0,0.2,0.1,0.1,0.2c0,0,0,0,0,0H21.9z
		 M22.1,11.6h0.1c0.2,0,0.2,0,0.2,0.2h-0.5c0,0,0,0,0,0C21.9,11.6,21.9,11.6,22.1,11.6z M22.1,12.2h0.2c0.2,0,0.2,0,0.2,0.2
		c0,0,0,0,0,0.1h-0.5c0,0,0,0,0,0C21.9,12.2,21.9,12.2,22.1,12.2z M21.9,12.5h0.5c0,0,0,0,0,0c0,0.2,0,0.2-0.2,0.2
		c-0.1,0-0.2,0-0.3,0c0,0,0,0,0,0V12.5z M22.2,12.1h-0.3v-0.2h0.5c0,0,0,0,0,0C22.4,12.1,22.4,12.1,22.2,12.1z M21.4,12.4v-0.2h0.5
		v0.2H21.4z M21.8,12.5v0.2h-0.5v-0.2H21.8z M21.4,12.1v-0.2h0.5v0.2H21.4z M21.4,11.8v-0.2h0.5v0.2H21.4z M21.4,11.5v-0.2h0.5v0.2
		H21.4z M21.4,11.2V11h0.5v0.2H21.4z M20.8,12.2l0.4,0c0,0,0,0,0,0v0.2h-0.5 M21.3,12.5v0.2h-0.5v-0.2H21.3z M20.8,12.1v-0.2h0.5
		v0.2H20.8z M20.8,11.8c0,0,0-0.1,0-0.1c0-0.1,0-0.1,0.1-0.1c0.1,0,0.2,0,0.3,0c0.1,0,0.1,0,0.1,0.1c0,0,0,0.1,0,0.1H20.8z
		 M20.8,11.2V11h0.5v0.2H20.8z M21.3,11.3v0.2h-0.5v-0.2H21.3z M20.2,12.4v-0.2h0.5v0.2H20.2z M20.7,12.5v0.2h-0.5v-0.2H20.7z
		 M20.2,12.1v-0.2h0.5v0.2H20.2z M20.2,11.8v-0.2h0.5v0.2H20.2z M20.2,11.5v-0.2h0.5v0.2H20.2z M20.2,11.2V11c0.2,0,0.3,0,0.5,0
		l0,0.2H20.2z M19.7,12.4v-0.2h0.5v0.2H19.7z M20.2,12.5v0.2h-0.5v-0.2H20.2z M19.7,12.1v-0.2h0.5v0.2H19.7z M19.7,11.8v-0.2h0.5
		v0.2H19.7z M19.7,11.5v-0.2h0.5v0.2H19.7z M19.7,11.2V11h0.5v0.2H19.7z M19.2,12.4C19.2,12.4,19.1,12.4,19.2,12.4
		c0-0.1,0-0.2,0-0.2c0.2,0,0.3,0,0.4,0v0.2C19.5,12.4,19.3,12.5,19.2,12.4z M19.6,12.5v0.2h-0.5v-0.2H19.6z M19.1,12.1v-0.2h0.5v0.2
		H19.1z M19.1,11.8C19.1,11.8,19.1,11.8,19.1,11.8c0-0.2,0-0.2,0.2-0.2h0.1c0.2,0,0.2,0,0.2,0.2H19.1z M19.2,11.2
		C19.1,11.2,19.1,11.2,19.2,11.2c-0.1-0.2-0.1-0.2,0-0.2c0.1,0,0.3,0,0.4,0v0.2H19.2z M19.6,11.3v0.2c-0.1,0-0.3,0-0.4,0
		c0,0,0,0-0.1-0.1v-0.2H19.6z M18.6,12.4v-0.2h0.5v0.2H18.6z M19.1,12.5v0.2h-0.5v-0.2H19.1z M18.6,12.1v-0.2h0.5v0.2H18.6z
		 M18.6,11.8v-0.2h0.5v0.2H18.6z M18.6,11.5v-0.2h0.5v0.2H18.6z M18.6,11.2V11h0.5v0.2H18.6z M18,12.4v-0.2h0.5v0.2H18z M18.5,12.5
		v0.2H18v-0.2H18.5z M18,12.1v-0.2h0.5v0.2H18z M18,11.8v-0.2h0.5v0.2H18z M18,11.5v-0.2h0.5v0.2H18z M18,11.2V11h0.5v0.2H18z
		 M17.5,12.4v-0.2h0.4c0,0,0,0,0,0c0,0.1,0,0.1,0,0.2H17.5z M17.9,12.5v0.2h-0.5v-0.2H17.9z M17.5,12.1v-0.2h0.5v0.2H17.5z
		 M17.5,11.8c-0.1,0-0.1-0.1-0.1-0.1c0-0.1,0-0.1,0.1-0.1h0.3c0,0,0.1,0,0.1,0.1c0,0,0,0.1,0,0.2C17.8,11.8,17.7,11.8,17.5,11.8z
		 M17.5,11.5v-0.2h0.5v0.2H17.5z M17.9,11.2h-0.5c0,0,0,0,0,0c0-0.3,0-0.2,0.2-0.2h0.1C18,11,18,11,17.9,11.2z M17.4,11.6v0.2h-0.5
		v-0.2H17.4z M16.9,11.5v-0.2h0.5v0.2H16.9z M17.4,11.9v0.2h-0.5v-0.2H17.4z M16.9,12.5h0.5v0.2h-0.5V12.5z M16.9,12.4v-0.2
		c0.1,0,0.3,0,0.4,0c0,0,0,0,0.1,0.1c0,0.1,0,0.1,0,0.2H16.9z M16.9,11.2V11c0.1,0,0.3,0,0.4,0c0,0,0,0,0.1,0.1c0,0,0,0.1,0,0.2
		H16.9z M16.8,11.8c-0.1,0-0.3,0-0.4,0v-0.2h0.4c0.1,0,0,0.1,0,0.1C16.8,11.8,16.9,11.8,16.8,11.8z M16.8,11.9v0.2h-0.5v-0.2H16.8z
		 M16.8,11.3v0.2h-0.5v-0.2H16.8z M16.4,11.2c0-0.1,0-0.1,0-0.2c0,0,0,0,0,0c0.1,0,0.3,0,0.4,0v0.2H16.4z M16.4,12.2
		c0.1,0,0.3,0,0.4,0c0.1,0,0,0.1,0,0.1c0,0,0,0.1,0,0.1c-0.1,0-0.3,0-0.4,0V12.2z M16.8,12.5v0.2h-0.5v-0.2H16.8z M24.1,11h0.5v0.2
		h-0.5V11z M24.1,11.3h0.5v0.2h-0.5V11.3z M24.1,11.6h0.5v0.2h-0.5V11.6z M24.1,11.9h0.5v0.2h-0.5V11.9z M24.1,12.2h0.5v0.2h-0.5
		V12.2z M24.1,12.5h0.5v0.2h-0.5V12.5z M16,11h0.1c0.2,0,0.2,0,0.2,0.2h-0.5C15.8,11,15.8,11,16,11z M16.2,11.8c-0.1,0-0.3,0-0.4,0
		v-0.2c0.2,0,0.3,0,0.4,0C16.3,11.6,16.3,11.7,16.2,11.8C16.3,11.8,16.2,11.8,16.2,11.8z M16.3,11.9v0.2h-0.5v-0.2H16.3z M15.8,11.5
		v-0.2h0.5v0.2H15.8z M15.9,12.2c0.1,0,0.2,0,0.4,0c0,0,0.1,0,0.1,0.1c0,0,0,0.1,0,0.2h-0.4c-0.1,0-0.1-0.1-0.1-0.1
		C15.8,12.3,15.8,12.2,15.9,12.2z M15.8,12.8v-0.2h0.5c0,0,0,0,0,0c0,0.2,0,0.2-0.2,0.2H15.8z M25.7,12.7h-0.5v-0.2h0.5V12.7z
		 M25.7,12.4l-0.5,0l0-0.2l0.5,0V12.4z M25.7,12.1h-0.5v-0.2h0.5V12.1z M25.7,11.8h-0.4c-0.1,0-0.1-0.1-0.1-0.1s0-0.1,0.1-0.1h0.4
		c0,0,0.1,0,0.1,0.1C25.7,11.7,25.7,11.8,25.7,11.8z M25.2,11.5c0,0,0-0.1,0-0.2h0.5v0.2C25.6,11.5,25.4,11.5,25.2,11.5
		C25.3,11.5,25.2,11.5,25.2,11.5z M25.7,11.2h-0.4c0,0,0,0,0,0c0-0.2,0-0.2,0.2-0.2h0.2C25.7,11,25.8,11,25.7,11.2
		C25.7,11.2,25.7,11.2,25.7,11.2z M26.1,12.7h-0.3v-0.2h0.3V12.7z M25.8,12.4v-0.2h0.3l0,0.2L25.8,12.4z"/>
</g>
</svg>
