<svg xmlns="http://www.w3.org/2000/svg" xmlns:xlink="http://www.w3.org/1999/xlink" width="40" zoomAndPan="magnify" viewBox="0 0 30 30.000001" height="40" preserveAspectRatio="xMidYMid meet" version="1.0"><defs><clipPath id="3c8c47db5f"><path d="M 0.484375 0 L 29.515625 0 L 29.515625 29.03125 L 0.484375 29.03125 Z M 0.484375 0 " clip-rule="nonzero"/></clipPath><clipPath id="d6e24676f0"><path d="M 14 2.027344 L 24 2.027344 L 24 9 L 14 9 Z M 14 2.027344 " clip-rule="nonzero"/></clipPath><clipPath id="7b32c43a98"><path d="M 17 2.027344 L 20 2.027344 L 20 5 L 17 5 Z M 17 2.027344 " clip-rule="nonzero"/></clipPath><clipPath id="b9449758b4"><path d="M 3.386719 8 L 26.613281 8 L 26.613281 22 L 3.386719 22 Z M 3.386719 8 " clip-rule="nonzero"/></clipPath><clipPath id="55fe26178f"><path d="M 4 14 L 17 14 L 17 26.707031 L 4 26.707031 Z M 4 14 " clip-rule="nonzero"/></clipPath></defs><g clip-path="url(#3c8c47db5f)"><path fill="#ffffff" d="M 0.484375 0 L 29.515625 0 L 29.515625 29.03125 L 0.484375 29.03125 Z M 0.484375 0 " fill-opacity="1" fill-rule="nonzero"/><path fill="#000000" d="M 0.484375 0 L 29.515625 0 L 29.515625 29.03125 L 0.484375 29.03125 Z M 0.484375 0 " fill-opacity="1" fill-rule="nonzero"/></g><g clip-path="url(#d6e24676f0)"><path fill="#ffffff" d="M 17.929688 7.902344 L 19.175781 7.136719 C 19.21875 7.144531 19.265625 7.140625 19.308594 7.125 L 19.414062 7.09375 L 19.160156 7.414062 C 19.027344 7.582031 19.015625 7.8125 19.128906 7.996094 L 19.183594 8.078125 L 20.375 8.078125 L 20.175781 7.757812 L 21.007812 6.710938 C 21.125 6.566406 21.144531 6.375 21.085938 6.214844 L 20.492188 4.3125 L 21.382812 4.878906 C 21.433594 4.910156 21.492188 4.929688 21.550781 4.933594 L 23.523438 5.011719 C 23.53125 5.015625 23.535156 5.015625 23.539062 5.015625 C 23.71875 5.015625 23.867188 4.871094 23.875 4.691406 C 23.882812 4.507812 23.738281 4.347656 23.554688 4.339844 L 21.667969 4.265625 L 20.113281 3.277344 C 20.023438 3.21875 19.914062 3.210938 19.820312 3.246094 C 19.820312 3.246094 19.816406 3.246094 19.816406 3.246094 L 19.609375 3.3125 C 19.582031 3.441406 19.53125 3.5625 19.460938 3.675781 C 19.296875 3.929688 19.046875 4.105469 18.753906 4.167969 C 18.675781 4.183594 18.59375 4.195312 18.515625 4.195312 C 18.261719 4.195312 18.023438 4.105469 17.832031 3.960938 L 16.921875 4.714844 L 15.390625 4.257812 C 15.4375 4.132812 15.546875 4.058594 15.546875 4.058594 C 15.65625 3.824219 15.660156 3.527344 15.53125 3.257812 C 15.320312 2.816406 14.828125 2.609375 14.433594 2.796875 C 14.039062 2.988281 13.890625 3.5 14.105469 3.941406 C 14.234375 4.214844 14.464844 4.394531 14.71875 4.453125 C 14.71875 4.453125 14.738281 4.449219 14.773438 4.445312 C 14.730469 4.617188 14.828125 4.792969 15 4.84375 L 15.3125 4.9375 C 15.363281 5.074219 15.398438 5.1875 15.398438 5.1875 C 15.398438 5.1875 15.453125 5.191406 15.558594 5.140625 C 15.648438 5.097656 15.683594 5.058594 15.6875 5.050781 L 16.902344 5.410156 C 16.933594 5.421875 16.964844 5.425781 16.996094 5.425781 C 17.074219 5.425781 17.152344 5.398438 17.210938 5.347656 L 18.167969 4.554688 L 18.695312 6.25 L 17.265625 7.125 C 17.175781 7.179688 17.105469 7.261719 17.0625 7.359375 L 16.757812 8.078125 L 17.855469 8.078125 Z M 17.929688 7.902344 " fill-opacity="1" fill-rule="nonzero"/></g><g clip-path="url(#7b32c43a98)"><path fill="#ffffff" d="M 18.71875 4.003906 C 19.234375 3.890625 19.558594 3.382812 19.445312 2.867188 C 19.335938 2.355469 18.824219 2.027344 18.3125 2.140625 C 17.796875 2.253906 17.472656 2.761719 17.582031 3.277344 C 17.695312 3.789062 18.203125 4.117188 18.71875 4.003906 Z M 18.71875 4.003906 " fill-opacity="1" fill-rule="nonzero"/></g><path fill="#ffffff" d="M 10.789062 17.648438 L 10.808594 17.648438 L 10.796875 17.621094 Z M 10.789062 17.648438 " fill-opacity="1" fill-rule="nonzero"/><g clip-path="url(#b9449758b4)"><path fill="#ffffff" d="M 3.449219 17.648438 L 5.550781 17.648438 L 5.550781 21.695312 L 6.625 21.695312 L 6.625 21.273438 L 6.113281 19.71875 C 6.039062 19.503906 6.039062 19.277344 6.101562 19.058594 C 6.105469 19.027344 6.113281 19.003906 6.117188 18.976562 L 6.382812 17.976562 L 5.847656 17.382812 C 5.667969 17.183594 5.597656 16.90625 5.664062 16.644531 C 5.671875 16.625 5.714844 16.449219 5.8125 16.199219 L 4.097656 16.199219 L 6.390625 11.921875 L 8.519531 11.921875 C 8.546875 11.878906 8.574219 11.832031 8.605469 11.789062 L 8.605469 11.636719 L 8.722656 11.636719 C 8.742188 11.613281 8.765625 11.59375 8.785156 11.570312 L 8.605469 11.570312 L 8.605469 11.351562 L 9.039062 11.351562 C 9.074219 11.328125 9.105469 11.308594 9.140625 11.285156 L 9.121094 11.285156 L 9.121094 11.066406 L 9.566406 11.066406 L 9.566406 11.097656 C 9.589844 11.09375 9.613281 11.085938 9.632812 11.082031 L 9.632812 11.066406 L 9.691406 11.066406 C 9.8125 11.042969 9.9375 11.027344 10.066406 11.027344 C 10.132812 11.027344 10.199219 11.03125 10.265625 11.039062 C 10.328125 11.046875 10.386719 11.054688 10.445312 11.066406 L 10.59375 11.066406 L 10.59375 11.105469 C 10.617188 11.113281 10.640625 11.121094 10.664062 11.128906 L 10.664062 11.066406 L 11.109375 11.066406 L 11.109375 11.285156 L 10.992188 11.285156 C 11.027344 11.308594 11.0625 11.328125 11.09375 11.351562 L 11.109375 11.351562 L 11.109375 11.363281 C 11.132812 11.378906 11.15625 11.398438 11.175781 11.414062 L 11.175781 11.351562 L 11.625 11.351562 L 11.625 11.570312 L 11.347656 11.570312 C 11.371094 11.59375 11.390625 11.613281 11.410156 11.636719 L 11.625 11.636719 L 11.625 11.855469 L 11.574219 11.855469 C 11.585938 11.878906 11.601562 11.902344 11.613281 11.921875 L 14.875 11.921875 L 14.871094 12.511719 L 14.847656 16.199219 L 11.890625 16.199219 L 12.4375 17.296875 L 12.9375 17.648438 L 23.375 17.648438 L 23.375 21.695312 L 24.449219 21.695312 L 24.449219 17.648438 L 26.550781 17.648438 L 26.613281 16.390625 L 24.195312 12.128906 L 25.820312 12.128906 L 25.820312 10.019531 L 22.996094 10.019531 L 22.398438 8.96875 L 22.035156 8.320312 L 7.953125 8.320312 L 7.910156 8.394531 L 7.828125 8.542969 L 6.992188 10.019531 L 4.207031 10.019531 L 4.207031 12.128906 L 5.796875 12.128906 L 3.386719 16.390625 Z M 7.578125 11.855469 L 7.578125 11.636719 L 8.023438 11.636719 L 8.023438 11.855469 Z M 7.0625 11.855469 L 7.0625 11.636719 L 7.507812 11.636719 L 7.507812 11.855469 Z M 5.519531 11.855469 L 5.519531 11.636719 L 5.96875 11.636719 L 5.96875 11.855469 Z M 24.546875 11.855469 L 24.546875 11.636719 L 24.996094 11.636719 L 24.996094 11.855469 Z M 12.71875 10.210938 L 13.167969 10.210938 L 13.167969 10.429688 L 12.71875 10.429688 Z M 12.652344 10.429688 L 12.207031 10.429688 L 12.207031 10.210938 L 12.652344 10.210938 Z M 24.480469 11 L 24.03125 11 L 24.03125 10.78125 L 24.480469 10.78125 Z M 24.546875 10.78125 L 24.996094 10.78125 L 24.996094 11 L 24.546875 11 Z M 23.964844 11 L 23.519531 11 L 23.519531 10.78125 L 23.964844 10.78125 Z M 23.453125 11 L 23.003906 11 L 23.003906 10.78125 L 23.453125 10.78125 Z M 22.9375 11 L 22.488281 11 L 22.488281 10.78125 L 22.9375 10.78125 Z M 22.421875 11 L 21.976562 11 L 21.976562 10.78125 L 22.421875 10.78125 Z M 17.347656 10.78125 L 17.792969 10.78125 L 17.792969 11 L 17.347656 11 Z M 17.28125 11 L 16.832031 11 L 16.832031 10.78125 L 17.28125 10.78125 Z M 17.863281 10.78125 L 18.308594 10.78125 L 18.308594 11 L 17.863281 11 Z M 18.375 10.78125 L 18.824219 10.78125 L 18.824219 11 L 18.375 11 Z M 18.890625 10.78125 L 19.335938 10.78125 L 19.335938 11 L 18.890625 11 Z M 19.40625 10.78125 L 19.851562 10.78125 L 19.851562 11 L 19.40625 11 Z M 19.917969 10.78125 L 20.367188 10.78125 L 20.367188 11 L 19.917969 11 Z M 20.433594 10.78125 L 20.878906 10.78125 L 20.878906 11 L 20.433594 11 Z M 20.949219 10.78125 L 21.394531 10.78125 L 21.394531 11 L 20.949219 11 Z M 21.460938 10.78125 L 21.910156 10.78125 L 21.910156 11 L 21.460938 11 Z M 21.460938 10.714844 L 21.460938 10.496094 L 21.910156 10.496094 L 21.910156 10.714844 Z M 21.394531 10.714844 L 20.949219 10.714844 L 20.949219 10.496094 L 21.394531 10.496094 Z M 20.878906 10.714844 L 20.433594 10.714844 L 20.433594 10.496094 L 20.878906 10.496094 Z M 20.367188 10.714844 L 19.917969 10.714844 L 19.917969 10.496094 L 20.367188 10.496094 Z M 19.851562 10.714844 L 19.40625 10.714844 L 19.40625 10.496094 L 19.851562 10.496094 Z M 19.335938 10.714844 L 18.890625 10.714844 L 18.890625 10.496094 L 19.335938 10.496094 Z M 18.824219 10.714844 L 18.375 10.714844 L 18.375 10.496094 L 18.824219 10.496094 Z M 18.308594 10.714844 L 17.863281 10.714844 L 17.863281 10.496094 L 18.308594 10.496094 Z M 17.792969 10.714844 L 17.347656 10.714844 L 17.347656 10.496094 L 17.792969 10.496094 Z M 17.28125 10.714844 L 16.832031 10.714844 L 16.832031 10.496094 L 17.28125 10.496094 Z M 16.765625 10.714844 L 16.320312 10.714844 L 16.320312 10.496094 L 16.765625 10.496094 Z M 16.253906 10.714844 L 15.804688 10.714844 L 15.804688 10.496094 L 16.253906 10.496094 Z M 15.738281 10.714844 L 15.289062 10.714844 L 15.289062 10.496094 L 15.738281 10.496094 Z M 15.222656 10.714844 L 14.777344 10.714844 L 14.777344 10.496094 L 15.222656 10.496094 Z M 14.710938 10.714844 L 14.261719 10.714844 L 14.261719 10.496094 L 14.710938 10.496094 Z M 14.195312 10.714844 L 13.746094 10.714844 L 13.746094 10.496094 L 14.195312 10.496094 Z M 14.195312 10.78125 L 14.195312 11 L 13.746094 11 L 13.746094 10.78125 Z M 14.261719 10.78125 L 14.710938 10.78125 L 14.710938 11 L 14.261719 11 Z M 14.777344 10.78125 L 15.222656 10.78125 L 15.222656 11 L 14.777344 11 Z M 15.289062 10.78125 L 15.738281 10.78125 L 15.738281 11 L 15.289062 11 Z M 15.804688 10.78125 L 16.253906 10.78125 L 16.253906 11 L 15.804688 11 Z M 16.320312 10.78125 L 16.765625 10.78125 L 16.765625 11 L 16.320312 11 Z M 16.765625 11.066406 L 16.765625 11.285156 L 16.320312 11.285156 L 16.320312 11.066406 Z M 16.832031 11.066406 L 17.28125 11.066406 L 17.28125 11.285156 L 16.832031 11.285156 Z M 17.347656 11.066406 L 17.792969 11.066406 L 17.792969 11.285156 L 17.347656 11.285156 Z M 17.863281 11.066406 L 18.308594 11.066406 L 18.308594 11.285156 L 17.863281 11.285156 Z M 18.375 11.066406 L 18.824219 11.066406 L 18.824219 11.285156 L 18.375 11.285156 Z M 18.890625 11.066406 L 19.335938 11.066406 L 19.335938 11.285156 L 18.890625 11.285156 Z M 19.40625 11.066406 L 19.851562 11.066406 L 19.851562 11.285156 L 19.40625 11.285156 Z M 19.917969 11.066406 L 20.367188 11.066406 L 20.367188 11.285156 L 19.917969 11.285156 Z M 20.433594 11.066406 L 20.878906 11.066406 L 20.878906 11.285156 L 20.433594 11.285156 Z M 20.949219 11.066406 L 21.394531 11.066406 L 21.394531 11.285156 L 20.949219 11.285156 Z M 21.460938 11.066406 L 21.910156 11.066406 L 21.910156 11.285156 L 21.460938 11.285156 Z M 21.976562 11.066406 L 22.421875 11.066406 L 22.421875 11.285156 L 21.976562 11.285156 Z M 22.488281 11.066406 L 22.9375 11.066406 L 22.9375 11.285156 L 22.488281 11.285156 Z M 23.003906 11.066406 L 23.453125 11.066406 L 23.453125 11.285156 L 23.003906 11.285156 Z M 23.519531 11.066406 L 23.964844 11.066406 L 23.964844 11.285156 L 23.519531 11.285156 Z M 24.03125 11.066406 L 24.480469 11.066406 L 24.480469 11.285156 L 24.03125 11.285156 Z M 24.546875 11.066406 L 24.996094 11.066406 L 24.996094 11.285156 L 24.546875 11.285156 Z M 25.0625 11.066406 L 25.382812 11.066406 L 25.382812 11.285156 L 25.0625 11.285156 Z M 25.0625 11 L 25.0625 10.78125 L 25.382812 10.78125 L 25.382812 11 Z M 25.0625 10.714844 L 25.0625 10.496094 L 25.382812 10.496094 L 25.382812 10.714844 Z M 24.996094 10.714844 L 24.546875 10.714844 L 24.546875 10.496094 L 24.996094 10.496094 Z M 24.480469 10.714844 L 24.03125 10.714844 L 24.03125 10.496094 L 24.480469 10.496094 Z M 23.964844 10.714844 L 23.519531 10.714844 L 23.519531 10.496094 L 23.964844 10.496094 Z M 23.453125 10.714844 L 23.003906 10.714844 L 23.003906 10.496094 L 23.453125 10.496094 Z M 22.9375 10.714844 L 22.488281 10.714844 L 22.488281 10.496094 L 22.9375 10.496094 Z M 22.421875 10.714844 L 21.976562 10.714844 L 21.976562 10.496094 L 22.421875 10.496094 Z M 21.910156 10.429688 L 21.460938 10.429688 L 21.460938 10.210938 L 21.910156 10.210938 Z M 21.394531 10.429688 L 20.949219 10.429688 L 20.949219 10.210938 L 21.394531 10.210938 Z M 20.878906 10.429688 L 20.433594 10.429688 L 20.433594 10.210938 L 20.878906 10.210938 Z M 20.367188 10.429688 L 19.917969 10.429688 L 19.917969 10.210938 L 20.367188 10.210938 Z M 19.851562 10.429688 L 19.40625 10.429688 L 19.40625 10.210938 L 19.851562 10.210938 Z M 19.335938 10.429688 L 18.890625 10.429688 L 18.890625 10.210938 L 19.335938 10.210938 Z M 18.824219 10.429688 L 18.375 10.429688 L 18.375 10.210938 L 18.824219 10.210938 Z M 18.308594 10.429688 L 17.863281 10.429688 L 17.863281 10.210938 L 18.308594 10.210938 Z M 17.792969 10.429688 L 17.347656 10.429688 L 17.347656 10.210938 L 17.792969 10.210938 Z M 17.28125 10.429688 L 16.832031 10.429688 L 16.832031 10.210938 L 17.28125 10.210938 Z M 16.765625 10.429688 L 16.320312 10.429688 L 16.320312 10.210938 L 16.765625 10.210938 Z M 16.253906 10.429688 L 15.804688 10.429688 L 15.804688 10.210938 L 16.253906 10.210938 Z M 15.738281 10.429688 L 15.289062 10.429688 L 15.289062 10.210938 L 15.738281 10.210938 Z M 15.222656 10.429688 L 14.777344 10.429688 L 14.777344 10.210938 L 15.222656 10.210938 Z M 14.710938 10.429688 L 14.261719 10.429688 L 14.261719 10.210938 L 14.710938 10.210938 Z M 14.195312 10.429688 L 13.746094 10.429688 L 13.746094 10.210938 L 14.195312 10.210938 Z M 13.679688 10.429688 L 13.234375 10.429688 L 13.234375 10.210938 L 13.679688 10.210938 Z M 13.167969 10.496094 L 13.167969 10.714844 L 12.71875 10.714844 L 12.71875 10.496094 Z M 13.234375 10.496094 L 13.679688 10.496094 L 13.679688 10.714844 L 13.234375 10.714844 Z M 13.679688 10.78125 L 13.679688 11 L 13.234375 11 L 13.234375 10.78125 Z M 13.679688 11.066406 L 13.679688 11.285156 L 13.234375 11.285156 L 13.234375 11.066406 Z M 13.746094 11.066406 L 14.195312 11.066406 L 14.195312 11.285156 L 13.746094 11.285156 Z M 14.261719 11.066406 L 14.710938 11.066406 L 14.710938 11.285156 L 14.261719 11.285156 Z M 14.777344 11.066406 L 15.222656 11.066406 L 15.222656 11.285156 L 14.777344 11.285156 Z M 15.289062 11.066406 L 15.738281 11.066406 L 15.738281 11.285156 L 15.289062 11.285156 Z M 15.804688 11.066406 L 16.253906 11.066406 L 16.253906 11.285156 L 15.804688 11.285156 Z M 16.253906 11.351562 L 16.253906 11.570312 L 15.804688 11.570312 L 15.804688 11.351562 Z M 16.320312 11.351562 L 16.765625 11.351562 L 16.765625 11.570312 L 16.320312 11.570312 Z M 16.832031 11.351562 L 17.28125 11.351562 L 17.28125 11.570312 L 16.832031 11.570312 Z M 17.347656 11.351562 L 17.792969 11.351562 L 17.792969 11.570312 L 17.347656 11.570312 Z M 17.863281 11.351562 L 18.308594 11.351562 L 18.308594 11.570312 L 17.863281 11.570312 Z M 18.375 11.351562 L 18.824219 11.351562 L 18.824219 11.570312 L 18.375 11.570312 Z M 18.890625 11.351562 L 19.335938 11.351562 L 19.335938 11.570312 L 18.890625 11.570312 Z M 19.40625 11.351562 L 19.851562 11.351562 L 19.851562 11.570312 L 19.40625 11.570312 Z M 19.917969 11.351562 L 20.367188 11.351562 L 20.367188 11.570312 L 19.917969 11.570312 Z M 20.433594 11.351562 L 20.878906 11.351562 L 20.878906 11.570312 L 20.433594 11.570312 Z M 20.949219 11.351562 L 21.394531 11.351562 L 21.394531 11.570312 L 20.949219 11.570312 Z M 21.460938 11.351562 L 21.910156 11.351562 L 21.910156 11.570312 L 21.460938 11.570312 Z M 21.976562 11.351562 L 22.421875 11.351562 L 22.421875 11.570312 L 21.976562 11.570312 Z M 22.488281 11.351562 L 22.9375 11.351562 L 22.9375 11.570312 L 22.488281 11.570312 Z M 23.003906 11.351562 L 23.453125 11.351562 L 23.453125 11.570312 L 23.003906 11.570312 Z M 23.519531 11.351562 L 23.964844 11.351562 L 23.964844 11.570312 L 23.519531 11.570312 Z M 24.03125 11.351562 L 24.480469 11.351562 L 24.480469 11.570312 L 24.03125 11.570312 Z M 24.480469 11.636719 L 24.480469 11.855469 L 24.03125 11.855469 L 24.03125 11.636719 Z M 24.546875 11.570312 L 24.546875 11.351562 L 24.996094 11.351562 L 24.996094 11.570312 Z M 25.0625 11.351562 L 25.382812 11.351562 L 25.382812 11.570312 L 25.0625 11.570312 Z M 25.382812 10.429688 L 25.0625 10.429688 L 25.0625 10.210938 L 25.382812 10.210938 Z M 24.996094 10.429688 L 24.546875 10.429688 L 24.546875 10.210938 L 24.996094 10.210938 Z M 24.480469 10.429688 L 24.03125 10.429688 L 24.03125 10.210938 L 24.480469 10.210938 Z M 23.964844 10.429688 L 23.519531 10.429688 L 23.519531 10.210938 L 23.964844 10.210938 Z M 23.453125 10.429688 L 23.003906 10.429688 L 23.003906 10.210938 L 23.453125 10.210938 Z M 22.9375 10.429688 L 22.488281 10.429688 L 22.488281 10.210938 L 22.9375 10.210938 Z M 22.421875 10.429688 L 21.976562 10.429688 L 21.976562 10.210938 L 22.421875 10.210938 Z M 8.023438 10.210938 L 8.023438 10.429688 L 7.578125 10.429688 L 7.578125 10.210938 Z M 7.507812 10.429688 L 7.0625 10.429688 L 7.0625 10.210938 L 7.507812 10.210938 Z M 6.480469 10.714844 L 6.035156 10.714844 L 6.035156 10.496094 L 6.480469 10.496094 Z M 6.546875 10.496094 L 6.996094 10.496094 L 6.996094 10.714844 L 6.546875 10.714844 Z M 6.480469 10.78125 L 6.480469 11 L 6.035156 11 L 6.035156 10.78125 Z M 5.96875 10.714844 L 5.519531 10.714844 L 5.519531 10.496094 L 5.96875 10.496094 Z M 5.96875 10.78125 L 5.96875 11 L 5.519531 11 L 5.519531 10.78125 Z M 5.453125 11 L 5.003906 11 L 5.003906 10.78125 L 5.453125 10.78125 Z M 4.9375 11 L 4.640625 11 L 4.640625 10.78125 L 4.9375 10.78125 Z M 4.9375 11.066406 L 4.9375 11.285156 L 4.640625 11.285156 L 4.640625 11.066406 Z M 5.003906 11.066406 L 5.453125 11.066406 L 5.453125 11.285156 L 5.003906 11.285156 Z M 5.519531 11.066406 L 5.96875 11.066406 L 5.96875 11.285156 L 5.519531 11.285156 Z M 6.035156 11.066406 L 6.480469 11.066406 L 6.480469 11.285156 L 6.035156 11.285156 Z M 6.546875 11.066406 L 6.996094 11.066406 L 6.996094 11.285156 L 6.546875 11.285156 Z M 6.546875 11 L 6.546875 10.78125 L 6.996094 10.78125 L 6.996094 11 Z M 7.0625 10.496094 L 7.507812 10.496094 L 7.507812 10.714844 L 7.0625 10.714844 Z M 6.996094 10.429688 L 6.546875 10.429688 L 6.546875 10.210938 L 6.996094 10.210938 Z M 6.480469 10.429688 L 6.035156 10.429688 L 6.035156 10.210938 L 6.480469 10.210938 Z M 5.96875 10.429688 L 5.519531 10.429688 L 5.519531 10.210938 L 5.96875 10.210938 Z M 5.453125 10.429688 L 5.003906 10.429688 L 5.003906 10.210938 L 5.453125 10.210938 Z M 5.453125 10.496094 L 5.453125 10.714844 L 5.003906 10.714844 L 5.003906 10.496094 Z M 4.9375 10.714844 L 4.640625 10.714844 L 4.640625 10.496094 L 4.9375 10.496094 Z M 4.640625 11.351562 L 4.9375 11.351562 L 4.9375 11.570312 L 4.640625 11.570312 Z M 5.003906 11.351562 L 5.453125 11.351562 L 5.453125 11.570312 L 5.003906 11.570312 Z M 5.453125 11.636719 L 5.453125 11.855469 L 5.003906 11.855469 L 5.003906 11.636719 Z M 5.519531 11.570312 L 5.519531 11.351562 L 5.96875 11.351562 L 5.96875 11.570312 Z M 6.035156 11.351562 L 6.480469 11.351562 L 6.480469 11.570312 L 6.035156 11.570312 Z M 6.546875 11.351562 L 6.996094 11.351562 L 6.996094 11.570312 L 6.546875 11.570312 Z M 6.996094 11.636719 L 6.996094 11.855469 L 6.546875 11.855469 L 6.546875 11.636719 Z M 7.0625 11.570312 L 7.0625 11.351562 L 7.507812 11.351562 L 7.507812 11.570312 Z M 7.0625 11.285156 L 7.0625 11.066406 L 7.507812 11.066406 L 7.507812 11.285156 Z M 7.0625 11 L 7.0625 10.78125 L 7.507812 10.78125 L 7.507812 11 Z M 7.578125 10.78125 L 8.023438 10.78125 L 8.023438 11 L 7.578125 11 Z M 7.578125 10.714844 L 7.578125 10.496094 L 8.023438 10.496094 L 8.023438 10.714844 Z M 8.089844 10.496094 L 8.539062 10.496094 L 8.539062 10.714844 L 8.089844 10.714844 Z M 8.089844 10.429688 L 8.089844 10.210938 L 8.539062 10.210938 L 8.539062 10.429688 Z M 8.605469 10.210938 L 9.050781 10.210938 L 9.050781 10.429688 L 8.605469 10.429688 Z M 9.121094 10.210938 L 9.566406 10.210938 L 9.566406 10.429688 L 9.121094 10.429688 Z M 9.632812 10.210938 L 10.082031 10.210938 L 10.082031 10.429688 L 9.632812 10.429688 Z M 10.148438 10.210938 L 10.59375 10.210938 L 10.59375 10.429688 L 10.148438 10.429688 Z M 10.664062 10.210938 L 11.109375 10.210938 L 11.109375 10.429688 L 10.664062 10.429688 Z M 11.175781 10.210938 L 11.625 10.210938 L 11.625 10.429688 L 11.175781 10.429688 Z M 11.691406 10.210938 L 12.136719 10.210938 L 12.136719 10.429688 L 11.691406 10.429688 Z M 12.136719 10.496094 L 12.136719 10.714844 L 11.691406 10.714844 L 11.691406 10.496094 Z M 12.207031 10.496094 L 12.652344 10.496094 L 12.652344 10.714844 L 12.207031 10.714844 Z M 12.652344 10.78125 L 12.652344 11 L 12.207031 11 L 12.207031 10.78125 Z M 12.71875 10.78125 L 13.167969 10.78125 L 13.167969 11 L 12.71875 11 Z M 13.167969 11.066406 L 13.167969 11.285156 L 12.71875 11.285156 L 12.71875 11.066406 Z M 13.167969 11.351562 L 13.167969 11.570312 L 12.71875 11.570312 L 12.71875 11.351562 Z M 13.234375 11.351562 L 13.679688 11.351562 L 13.679688 11.570312 L 13.234375 11.570312 Z M 13.746094 11.351562 L 14.195312 11.351562 L 14.195312 11.570312 L 13.746094 11.570312 Z M 14.261719 11.351562 L 14.710938 11.351562 L 14.710938 11.570312 L 14.261719 11.570312 Z M 14.777344 11.351562 L 15.222656 11.351562 L 15.222656 11.570312 L 14.777344 11.570312 Z M 15.289062 11.351562 L 15.738281 11.351562 L 15.738281 11.570312 L 15.289062 11.570312 Z M 15.738281 11.636719 L 15.738281 11.855469 L 15.289062 11.855469 L 15.289062 11.636719 Z M 15.804688 11.636719 L 16.253906 11.636719 L 16.253906 11.855469 L 15.804688 11.855469 Z M 16.320312 11.636719 L 16.765625 11.636719 L 16.765625 11.855469 L 16.320312 11.855469 Z M 16.832031 11.636719 L 17.28125 11.636719 L 17.28125 11.855469 L 16.832031 11.855469 Z M 17.347656 11.636719 L 17.792969 11.636719 L 17.792969 11.855469 L 17.347656 11.855469 Z M 17.863281 11.636719 L 18.308594 11.636719 L 18.308594 11.855469 L 17.863281 11.855469 Z M 18.375 11.636719 L 18.824219 11.636719 L 18.824219 11.855469 L 18.375 11.855469 Z M 18.890625 11.636719 L 19.335938 11.636719 L 19.335938 11.855469 L 18.890625 11.855469 Z M 19.40625 11.636719 L 19.851562 11.636719 L 19.851562 11.855469 L 19.40625 11.855469 Z M 19.917969 11.636719 L 20.367188 11.636719 L 20.367188 11.855469 L 19.917969 11.855469 Z M 20.433594 11.636719 L 20.878906 11.636719 L 20.878906 11.855469 L 20.433594 11.855469 Z M 20.949219 11.636719 L 21.394531 11.636719 L 21.394531 11.855469 L 20.949219 11.855469 Z M 21.460938 11.636719 L 21.910156 11.636719 L 21.910156 11.855469 L 21.460938 11.855469 Z M 21.976562 11.636719 L 22.421875 11.636719 L 22.421875 11.855469 L 21.976562 11.855469 Z M 22.488281 11.636719 L 22.9375 11.636719 L 22.9375 11.855469 L 22.488281 11.855469 Z M 23.003906 11.636719 L 23.453125 11.636719 L 23.453125 11.855469 L 23.003906 11.855469 Z M 23.519531 11.636719 L 23.964844 11.636719 L 23.964844 11.855469 L 23.519531 11.855469 Z M 25.0625 11.855469 L 25.0625 11.636719 L 25.382812 11.636719 L 25.382812 11.855469 Z M 4.9375 10.210938 L 4.9375 10.429688 L 4.640625 10.429688 L 4.640625 10.210938 Z M 4.640625 11.636719 L 4.9375 11.636719 L 4.9375 11.855469 L 4.640625 11.855469 Z M 6.035156 11.855469 L 6.035156 11.636719 L 6.480469 11.636719 L 6.480469 11.855469 Z M 7.578125 11.570312 L 7.578125 11.351562 L 8.023438 11.351562 L 8.023438 11.570312 Z M 7.578125 11.285156 L 7.578125 11.066406 L 8.023438 11.066406 L 8.023438 11.285156 Z M 8.089844 11.066406 L 8.539062 11.066406 L 8.539062 11.285156 L 8.089844 11.285156 Z M 8.089844 11 L 8.089844 10.78125 L 8.539062 10.78125 L 8.539062 11 Z M 8.605469 10.78125 L 9.050781 10.78125 L 9.050781 11 L 8.605469 11 Z M 8.605469 10.714844 L 8.605469 10.496094 L 9.050781 10.496094 L 9.050781 10.714844 Z M 9.121094 10.496094 L 9.566406 10.496094 L 9.566406 10.714844 L 9.121094 10.714844 Z M 9.632812 10.496094 L 10.082031 10.496094 L 10.082031 10.714844 L 9.632812 10.714844 Z M 10.148438 10.496094 L 10.59375 10.496094 L 10.59375 10.714844 L 10.148438 10.714844 Z M 10.664062 10.496094 L 11.109375 10.496094 L 11.109375 10.714844 L 10.664062 10.714844 Z M 11.175781 10.496094 L 11.625 10.496094 L 11.625 10.714844 L 11.175781 10.714844 Z M 11.625 10.78125 L 11.625 11 L 11.175781 11 L 11.175781 10.78125 Z M 11.691406 10.78125 L 12.136719 10.78125 L 12.136719 11 L 11.691406 11 Z M 12.136719 11.066406 L 12.136719 11.285156 L 11.691406 11.285156 L 11.691406 11.066406 Z M 12.207031 11.066406 L 12.652344 11.066406 L 12.652344 11.285156 L 12.207031 11.285156 Z M 12.652344 11.351562 L 12.652344 11.570312 L 12.207031 11.570312 L 12.207031 11.351562 Z M 12.652344 11.636719 L 12.652344 11.855469 L 12.207031 11.855469 L 12.207031 11.636719 Z M 12.71875 11.636719 L 13.167969 11.636719 L 13.167969 11.855469 L 12.71875 11.855469 Z M 13.234375 11.636719 L 13.679688 11.636719 L 13.679688 11.855469 L 13.234375 11.855469 Z M 13.746094 11.636719 L 14.195312 11.636719 L 14.195312 11.855469 L 13.746094 11.855469 Z M 14.261719 11.636719 L 14.710938 11.636719 L 14.710938 11.855469 L 14.261719 11.855469 Z M 14.777344 11.636719 L 15.222656 11.636719 L 15.222656 11.855469 L 14.777344 11.855469 Z M 8.539062 11.855469 L 8.089844 11.855469 L 8.089844 11.636719 L 8.539062 11.636719 Z M 8.539062 11.570312 L 8.089844 11.570312 L 8.089844 11.351562 L 8.539062 11.351562 Z M 9.050781 11.285156 L 8.605469 11.285156 L 8.605469 11.066406 L 9.050781 11.066406 Z M 9.121094 11 L 9.121094 10.78125 L 9.566406 10.78125 L 9.566406 11 Z M 9.632812 11 L 9.632812 10.78125 L 10.082031 10.78125 L 10.082031 11 Z M 10.148438 11 L 10.148438 10.78125 L 10.59375 10.78125 L 10.59375 11 Z M 10.664062 11 L 10.664062 10.78125 L 11.109375 10.78125 L 11.109375 11 Z M 11.175781 11.285156 L 11.175781 11.066406 L 11.625 11.066406 L 11.625 11.285156 Z M 11.691406 11.351562 L 12.136719 11.351562 L 12.136719 11.570312 L 11.691406 11.570312 Z M 11.691406 11.636719 L 12.136719 11.636719 L 12.136719 11.855469 L 11.691406 11.855469 Z M 15.148438 16.199219 L 15.121094 12.511719 L 15.113281 11.921875 L 23.601562 11.921875 L 25.898438 16.199219 Z M 21.703125 8.394531 L 22.011719 8.96875 L 22.578125 10.019531 L 15.097656 10.019531 L 15.085938 8.394531 Z M 7.828125 9.242188 L 8.28125 8.394531 L 14.898438 8.394531 L 14.890625 10.019531 L 7.410156 10.019531 Z M 7.828125 9.242188 " fill-opacity="1" fill-rule="nonzero"/></g><path fill="#ffffff" d="M 12.105469 6.890625 C 12.105469 7 12.066406 7.09375 11.992188 7.167969 C 11.914062 7.246094 11.820312 7.285156 11.710938 7.285156 C 11.601562 7.285156 11.511719 7.246094 11.433594 7.167969 C 11.355469 7.09375 11.316406 7 11.316406 6.890625 C 11.316406 6.78125 11.355469 6.6875 11.433594 6.613281 C 11.511719 6.535156 11.601562 6.496094 11.710938 6.496094 C 11.820312 6.496094 11.914062 6.535156 11.992188 6.613281 C 12.066406 6.6875 12.105469 6.78125 12.105469 6.890625 Z M 12.105469 6.890625 " fill-opacity="1" fill-rule="nonzero"/><path fill="#ffffff" d="M 11.308594 11.945312 C 11.425781 12.109375 11.503906 12.289062 11.546875 12.488281 C 11.589844 12.683594 11.59375 12.878906 11.558594 13.078125 C 11.523438 13.273438 11.449219 13.457031 11.339844 13.625 C 11.234375 13.796875 11.097656 13.9375 10.929688 14.050781 C 10.765625 14.167969 10.585938 14.246094 10.390625 14.289062 C 10.195312 14.332031 9.996094 14.335938 9.800781 14.300781 C 9.601562 14.261719 9.417969 14.191406 9.25 14.082031 C 9.082031 13.976562 8.941406 13.839844 8.824219 13.671875 C 8.710938 13.507812 8.632812 13.328125 8.589844 13.132812 C 8.546875 12.9375 8.542969 12.738281 8.578125 12.542969 C 8.613281 12.34375 8.683594 12.160156 8.792969 11.992188 C 8.902344 11.824219 9.039062 11.679688 9.203125 11.566406 C 9.367188 11.453125 9.546875 11.375 9.746094 11.332031 C 9.941406 11.289062 10.136719 11.285156 10.335938 11.320312 C 10.53125 11.355469 10.714844 11.425781 10.886719 11.535156 C 11.054688 11.644531 11.195312 11.78125 11.308594 11.945312 Z M 11.308594 11.945312 " fill-opacity="1" fill-rule="nonzero"/><g clip-path="url(#55fe26178f)"><path fill="#ffffff" d="M 11.09375 15.199219 C 11.035156 15.078125 10.9375 14.992188 10.820312 14.941406 C 10.785156 14.921875 10.746094 14.90625 10.703125 14.894531 L 8.1875 14.230469 C 8.09375 14.203125 8 14.207031 7.914062 14.230469 C 7.859375 14.238281 7.804688 14.253906 7.753906 14.277344 C 6.390625 14.914062 5.945312 16.636719 5.925781 16.710938 C 5.882812 16.886719 5.925781 17.070312 6.046875 17.203125 L 6.679688 17.90625 L 6.378906 19.046875 C 6.371094 19.070312 6.367188 19.09375 6.367188 19.117188 C 6.3125 19.277344 6.308594 19.460938 6.367188 19.636719 L 7.355469 22.621094 L 4.875 25.585938 C 4.578125 25.941406 4.625 26.472656 4.984375 26.769531 C 5.140625 26.902344 5.332031 26.964844 5.519531 26.964844 C 5.761719 26.964844 6 26.863281 6.167969 26.664062 L 8.945312 23.339844 C 9.128906 23.117188 9.1875 22.8125 9.097656 22.535156 L 8.359375 20.308594 L 10.464844 22.75 L 11.261719 26.335938 C 11.347656 26.730469 11.695312 26.996094 12.082031 26.996094 C 12.140625 26.996094 12.203125 26.988281 12.265625 26.976562 C 12.71875 26.875 13.003906 26.425781 12.902344 25.972656 L 12.058594 22.179688 C 12.027344 22.046875 11.964844 21.917969 11.875 21.816406 L 9.988281 19.621094 L 10.71875 16.859375 L 11.324219 18.078125 C 11.363281 18.160156 11.421875 18.226562 11.496094 18.28125 L 12.980469 19.320312 C 12.777344 19.339844 12.621094 19.34375 12.621094 19.34375 C 12.621094 19.34375 12.589844 19.414062 12.613281 19.566406 C 12.636719 19.71875 12.691406 19.773438 12.691406 19.773438 C 12.691406 19.773438 13.050781 19.671875 13.398438 19.613281 L 13.585938 19.746094 C 13.679688 19.8125 13.789062 19.84375 13.894531 19.84375 C 13.996094 19.84375 14.097656 19.8125 14.183594 19.757812 C 14.261719 19.84375 14.292969 19.925781 14.292969 19.925781 C 14.597656 20.148438 15.050781 20.257812 15.535156 20.179688 C 16.328125 20.054688 16.898438 19.484375 16.808594 18.90625 C 16.714844 18.324219 16 17.957031 15.203125 18.082031 C 14.722656 18.160156 14.320312 18.398438 14.101562 18.707031 C 14.101562 18.707031 14.101562 18.738281 14.089844 18.785156 L 12.226562 17.476562 Z M 11.09375 15.199219 " fill-opacity="1" fill-rule="nonzero"/></g></svg>