<svg xmlns="http://www.w3.org/2000/svg" xmlns:xlink="http://www.w3.org/1999/xlink" width="40" zoomAndPan="magnify" viewBox="0 0 30 30.000001" height="40" preserveAspectRatio="xMidYMid meet" version="1.0"><defs><clipPath id="5dae46756d"><path d="M 0.484375 0 L 29.515625 0 L 29.515625 29.03125 L 0.484375 29.03125 Z M 0.484375 0 " clip-rule="nonzero"/></clipPath><clipPath id="3bebd4c342"><path d="M 7 17 L 21.894531 17 L 21.894531 26.855469 L 7 26.855469 Z M 7 17 " clip-rule="nonzero"/></clipPath><clipPath id="db52ce6306"><path d="M 4.476562 2.175781 L 21.894531 2.175781 L 21.894531 18 L 4.476562 18 Z M 4.476562 2.175781 " clip-rule="nonzero"/></clipPath></defs><g clip-path="url(#5dae46756d)"><path fill="#ffffff" d="M 0.484375 0 L 29.515625 0 L 29.515625 29.03125 L 0.484375 29.03125 Z M 0.484375 0 " fill-opacity="1" fill-rule="nonzero"/><path fill="#000000" d="M 0.484375 0 L 29.515625 0 L 29.515625 29.03125 L 0.484375 29.03125 Z M 0.484375 0 " fill-opacity="1" fill-rule="nonzero"/></g><g clip-path="url(#3bebd4c342)"><path fill="#ffffff" d="M 21.890625 23.78125 L 19.933594 19.640625 C 19.722656 19.195312 19.363281 18.820312 18.921875 18.589844 L 16.148438 17.179688 C 15.96875 17.089844 15.753906 17.164062 15.660156 17.339844 C 15.570312 17.519531 15.640625 17.734375 15.820312 17.824219 L 18.589844 19.230469 C 18.890625 19.390625 19.136719 19.644531 19.28125 19.949219 L 21.238281 24.089844 C 21.328125 24.277344 21.316406 24.488281 21.203125 24.664062 C 21.089844 24.84375 20.90625 24.941406 20.699219 24.941406 C 20.46875 24.941406 20.265625 24.816406 20.164062 24.613281 L 18.03125 20.386719 C 17.992188 20.308594 17.925781 20.246094 17.84375 20.214844 L 13.59375 18.496094 C 13.476562 18.449219 13.347656 18.464844 13.246094 18.535156 C 13.148438 18.605469 13.089844 18.726562 13.097656 18.847656 L 13.25 22.019531 C 13.261719 22.242188 13.175781 22.457031 13.011719 22.609375 L 9.339844 25.992188 C 9.242188 26.082031 9.109375 26.128906 8.976562 26.121094 C 8.839844 26.113281 8.71875 26.054688 8.628906 25.953125 C 8.621094 25.945312 8.617188 25.941406 8.613281 25.9375 L 8.558594 25.886719 C 8.339844 25.628906 8.4375 25.324219 8.636719 25.132812 L 11.875 21.96875 C 11.960938 21.886719 12 21.765625 11.980469 21.648438 L 11.429688 18.550781 C 11.394531 18.355469 11.207031 18.222656 11.011719 18.257812 C 10.816406 18.292969 10.683594 18.480469 10.71875 18.675781 L 11.234375 21.585938 L 8.136719 24.613281 C 7.613281 25.113281 7.566406 25.855469 8.027344 26.371094 C 8.03125 26.375 8.035156 26.382812 8.039062 26.386719 L 8.09375 26.441406 C 8.3125 26.683594 8.609375 26.824219 8.9375 26.84375 C 8.960938 26.84375 8.980469 26.84375 9.003906 26.84375 C 9.308594 26.84375 9.601562 26.730469 9.828125 26.523438 L 13.5 23.140625 C 13.824219 22.84375 13.996094 22.421875 13.972656 21.984375 L 13.84375 19.375 L 17.445312 20.832031 L 19.515625 24.9375 C 19.742188 25.386719 20.195312 25.664062 20.695312 25.664062 C 21.152344 25.664062 21.570312 25.4375 21.8125 25.050781 C 22.058594 24.667969 22.085938 24.191406 21.890625 23.78125 Z M 21.890625 23.78125 " fill-opacity="1" fill-rule="nonzero"/></g><path fill="#ffffff" d="M 6.5625 8.742188 C 6.632812 8.796875 6.710938 8.824219 6.792969 8.824219 C 6.898438 8.824219 7 8.78125 7.070312 8.695312 C 7.210938 8.527344 7.355469 8.359375 7.507812 8.203125 C 7.644531 8.058594 7.640625 7.828125 7.496094 7.691406 C 7.351562 7.554688 7.121094 7.558594 6.984375 7.703125 C 6.820312 7.875 6.664062 8.054688 6.515625 8.234375 C 6.386719 8.390625 6.410156 8.617188 6.5625 8.742188 Z M 6.5625 8.742188 " fill-opacity="1" fill-rule="nonzero"/><g clip-path="url(#db52ce6306)"><path fill="#ffffff" d="M 11.085938 17.714844 C 12.636719 17.714844 14.269531 17.34375 15.828125 16.632812 C 17.949219 15.660156 19.679688 14.160156 20.699219 12.410156 C 21.746094 10.621094 21.929688 8.78125 21.21875 7.226562 C 20.789062 6.292969 20.042969 5.511719 19.0625 4.972656 C 18.601562 4.714844 18.085938 4.511719 17.53125 4.367188 C 17.519531 4.34375 17.507812 4.316406 17.492188 4.292969 C 16.757812 2.855469 15.179688 2.1875 13.976562 2.804688 C 13.382812 3.109375 12.96875 3.671875 12.816406 4.390625 C 12.667969 5.085938 12.777344 5.84375 13.128906 6.527344 C 13.480469 7.210938 14.027344 7.742188 14.675781 8.027344 C 14.785156 8.078125 14.894531 8.117188 15.003906 8.148438 C 15.007812 8.148438 15.011719 8.148438 15.011719 8.152344 L 15.03125 8.15625 C 15.042969 8.160156 15.050781 8.160156 15.058594 8.164062 L 15.539062 8.300781 C 15.542969 8.300781 15.542969 8.300781 15.546875 8.304688 C 15.984375 8.421875 16.34375 8.667969 16.644531 9.0625 L 17.082031 9.96875 C 16.945312 10.027344 16.824219 10.109375 16.71875 10.21875 L 15.082031 11.886719 L 12.964844 11.878906 C 12.765625 11.878906 12.605469 12.042969 12.605469 12.242188 C 12.601562 12.441406 12.765625 12.601562 12.964844 12.601562 L 15.230469 12.609375 C 15.230469 12.609375 15.230469 12.609375 15.234375 12.609375 C 15.328125 12.609375 15.421875 12.570312 15.492188 12.5 L 17.234375 10.722656 C 17.316406 10.640625 17.421875 10.597656 17.539062 10.597656 C 17.65625 10.601562 17.761719 10.648438 17.839844 10.734375 C 17.992188 10.898438 17.984375 11.148438 17.832031 11.308594 L 15.609375 13.566406 L 12.050781 13.566406 C 11.851562 13.566406 11.691406 13.730469 11.691406 13.929688 C 11.691406 14.128906 11.851562 14.289062 12.050781 14.289062 L 14.066406 14.289062 L 14.152344 16.503906 C 13.140625 16.820312 12.136719 16.976562 11.1875 16.992188 L 11.015625 13.398438 C 10.984375 12.730469 11.144531 12.054688 11.464844 11.46875 C 11.746094 11.605469 12.066406 11.679688 12.398438 11.679688 C 13.59375 11.679688 14.566406 10.707031 14.566406 9.511719 C 14.566406 8.316406 13.59375 7.34375 12.398438 7.34375 C 11.203125 7.34375 10.230469 8.316406 10.230469 9.511719 C 10.230469 10.113281 10.476562 10.65625 10.871094 11.050781 C 10.460938 11.769531 10.253906 12.605469 10.296875 13.433594 L 10.464844 16.96875 C 8.335938 16.820312 6.582031 15.886719 5.84375 14.277344 C 5.230469 12.945312 5.402344 11.339844 6.328125 9.757812 C 6.425781 9.585938 6.371094 9.363281 6.199219 9.265625 C 6.023438 9.164062 5.804688 9.222656 5.703125 9.394531 C 4.65625 11.183594 4.472656 13.023438 5.1875 14.578125 C 5.898438 16.128906 7.410156 17.191406 9.449219 17.566406 C 9.980469 17.664062 10.527344 17.714844 11.085938 17.714844 Z M 12.398438 8.066406 C 13.195312 8.066406 13.84375 8.714844 13.84375 9.511719 C 13.84375 10.308594 13.195312 10.957031 12.398438 10.957031 C 11.601562 10.957031 10.953125 10.308594 10.953125 9.511719 C 10.953125 8.714844 11.601562 8.066406 12.398438 8.066406 Z M 16.617188 8.027344 C 16.625 8.023438 16.636719 8.019531 16.644531 8.015625 C 16.652344 8.011719 16.660156 8.007812 16.667969 8.003906 C 16.667969 8.023438 16.667969 8.042969 16.667969 8.066406 C 16.652344 8.054688 16.632812 8.039062 16.617188 8.027344 Z M 14.789062 14.289062 L 15.761719 14.289062 C 15.859375 14.289062 15.953125 14.25 16.019531 14.179688 L 18.34375 11.8125 C 18.769531 11.382812 18.78125 10.691406 18.371094 10.246094 C 18.300781 10.167969 18.21875 10.101562 18.132812 10.046875 L 17.464844 8.617188 C 17.347656 8.144531 17.367188 7.699219 17.523438 7.292969 C 17.523438 7.289062 17.523438 7.289062 17.523438 7.285156 L 17.6875 6.828125 C 17.800781 6.53125 17.867188 6.203125 17.871094 5.851562 C 17.871094 5.652344 17.710938 5.488281 17.511719 5.488281 C 17.511719 5.488281 17.511719 5.488281 17.507812 5.488281 C 17.3125 5.488281 17.148438 5.648438 17.148438 5.84375 C 17.144531 6.101562 17.097656 6.34375 17.019531 6.558594 C 17.015625 6.558594 17.015625 6.5625 17.015625 6.5625 L 17.011719 6.570312 C 16.875 6.925781 16.632812 7.210938 16.316406 7.371094 C 15.992188 7.539062 15.617188 7.566406 15.234375 7.464844 L 15.230469 7.460938 C 15.140625 7.4375 15.054688 7.40625 14.96875 7.367188 C 14.472656 7.148438 14.046875 6.734375 13.773438 6.195312 C 13.496094 5.660156 13.410156 5.074219 13.523438 4.542969 C 13.628906 4.039062 13.90625 3.648438 14.304688 3.445312 C 15.027344 3.078125 15.960938 3.402344 16.566406 4.175781 C 16.296875 4.140625 16.027344 4.113281 15.746094 4.101562 C 15.546875 4.089844 15.378906 4.246094 15.371094 4.445312 C 15.363281 4.644531 15.515625 4.8125 15.714844 4.824219 C 16.84375 4.875 17.878906 5.144531 18.714844 5.601562 C 19.570312 6.074219 20.191406 6.722656 20.5625 7.527344 C 21.171875 8.859375 21 10.464844 20.078125 12.046875 C 19.128906 13.667969 17.511719 15.0625 15.527344 15.972656 C 15.308594 16.074219 15.085938 16.167969 14.863281 16.253906 Z M 14.789062 14.289062 " fill-opacity="1" fill-rule="nonzero"/></g></svg>