<svg xmlns="http://www.w3.org/2000/svg" xmlns:xlink="http://www.w3.org/1999/xlink" width="40" zoomAndPan="magnify" viewBox="0 0 30 30.000001" height="40" preserveAspectRatio="xMidYMid meet" version="1.0"><defs><clipPath id="95857e0eac"><path d="M 0.484375 0 L 29.515625 0 L 29.515625 29.03125 L 0.484375 29.03125 Z M 0.484375 0 " clip-rule="nonzero"/></clipPath><clipPath id="5ee8701017"><path d="M 7.570312 4 L 22.085938 4 L 22.085938 27.582031 L 7.570312 27.582031 Z M 7.570312 4 " clip-rule="nonzero"/></clipPath><clipPath id="ae7d650078"><path d="M 7.570312 1.453125 L 11 1.453125 L 11 5 L 7.570312 5 Z M 7.570312 1.453125 " clip-rule="nonzero"/></clipPath></defs><g clip-path="url(#95857e0eac)"><path fill="#ffffff" d="M 0.484375 0 L 29.515625 0 L 29.515625 29.03125 L 0.484375 29.03125 Z M 0.484375 0 " fill-opacity="1" fill-rule="nonzero"/><path fill="#000000" d="M 0.484375 0 L 29.515625 0 L 29.515625 29.03125 L 0.484375 29.03125 Z M 0.484375 0 " fill-opacity="1" fill-rule="nonzero"/></g><g clip-path="url(#5ee8701017)"><path fill="#ffffff" d="M 22.273438 4.871094 C 22.425781 4.625 22.375 4.515625 22.375 4.515625 C 22.339844 4.332031 22.207031 4.417969 22.207031 4.417969 C 22.167969 4.511719 21.972656 4.601562 21.972656 4.601562 C 21.746094 4.511719 21.328125 4.78125 21.101562 4.953125 C 20.875 5.125 20.839844 5.3125 20.667969 5.304688 C 20.496094 5.296875 20.34375 5.4375 19.964844 5.546875 C 19.589844 5.660156 18.820312 5.773438 18.292969 5.890625 C 17.769531 6.011719 17.714844 6.210938 17.359375 6.289062 C 17.007812 6.363281 16.652344 6.402344 16.144531 6.558594 C 15.863281 6.644531 15.632812 6.660156 15.480469 6.65625 C 15.457031 6.554688 15.421875 6.464844 15.375 6.402344 C 15.367188 6.394531 15.359375 6.390625 15.347656 6.394531 C 15.34375 6.394531 14.960938 6.535156 14.695312 6.585938 C 14.632812 6.597656 14.582031 6.601562 14.542969 6.605469 C 14.464844 6.605469 14.402344 6.59375 14.339844 6.582031 C 14.261719 6.570312 14.1875 6.554688 14.097656 6.574219 C 14.046875 6.582031 13.988281 6.605469 13.929688 6.636719 C 13.679688 6.765625 13.183594 7.058594 13.007812 7.207031 C 12.878906 7.320312 12.78125 7.347656 12.75 7.355469 C 12.742188 7.355469 12.738281 7.355469 12.738281 7.355469 C 12.730469 7.355469 12.726562 7.359375 12.722656 7.363281 C 12.484375 7.242188 12.480469 7.046875 12.46875 6.914062 C 12.457031 6.757812 12.621094 6.707031 12.777344 6.511719 C 12.9375 6.316406 12.773438 6.171875 12.679688 6.089844 C 12.585938 6.011719 12.550781 5.980469 12.550781 5.980469 C 12.53125 5.839844 12.414062 5.851562 12.414062 5.851562 C 12.410156 5.777344 12.304688 5.65625 12.304688 5.65625 C 12.496094 5.375 11.816406 5.402344 11.816406 5.402344 C 11.5625 4.9375 10.90625 5.054688 10.90625 5.054688 C 10.90625 5.054688 11.035156 5.097656 10.890625 5.054688 C 10.746094 5.011719 10.5625 5.089844 10.457031 5.183594 C 10.351562 5.277344 10.148438 5.496094 9.925781 5.871094 C 9.707031 6.246094 9.984375 6.664062 9.984375 6.664062 C 9.875 6.707031 9.824219 7.089844 9.824219 7.089844 C 9.535156 7.425781 9.707031 7.894531 9.816406 8.214844 C 9.890625 8.4375 10.15625 8.640625 10.320312 8.746094 C 10.226562 8.777344 10.167969 8.808594 10.152344 8.84375 C 9.773438 8.804688 9.105469 8.742188 8.734375 8.742188 C 8.734375 8.742188 8.589844 8.34375 8.8125 7.648438 C 9.039062 6.953125 9.070312 6.535156 9.070312 6.378906 C 9.070312 6.378906 9.183594 6.09375 9.253906 5.992188 C 9.324219 5.886719 9.398438 5.800781 9.476562 5.734375 C 9.554688 5.667969 9.75 5.507812 9.523438 5.507812 C 9.296875 5.507812 9.292969 5.574219 9.207031 5.667969 C 9.125 5.761719 8.957031 5.835938 8.910156 5.789062 C 8.867188 5.746094 8.78125 5.425781 8.640625 5.5 C 8.640625 5.5 8.558594 5.550781 8.613281 5.820312 C 8.613281 5.820312 8.289062 5.617188 8.222656 5.683594 C 8.222656 5.683594 8.128906 5.722656 8.363281 5.972656 C 8.363281 5.972656 8.039062 5.835938 8.019531 5.945312 C 8.019531 5.945312 8.019531 6.082031 8.097656 6.140625 C 8.097656 6.140625 7.816406 6.132812 7.835938 6.253906 C 7.835938 6.253906 7.804688 6.320312 8.042969 6.335938 C 8.042969 6.335938 8.144531 6.515625 8.347656 6.496094 C 8.347656 6.496094 8.335938 6.832031 8.230469 7.109375 C 8.128906 7.382812 7.917969 8.046875 7.847656 8.253906 C 7.78125 8.460938 7.570312 8.835938 7.640625 9.117188 C 7.707031 9.398438 7.9375 9.605469 8.390625 9.746094 C 8.847656 9.890625 9.890625 10.21875 10.273438 10.210938 C 10.304688 10.207031 10.328125 10.207031 10.355469 10.207031 C 10.355469 10.210938 10.355469 10.214844 10.355469 10.21875 C 10.359375 10.226562 10.367188 10.230469 10.375 10.230469 C 10.378906 10.230469 10.605469 10.230469 10.84375 10.214844 C 11.023438 10.199219 11.199219 10.320312 11.382812 10.445312 C 11.433594 10.480469 11.480469 10.515625 11.53125 10.546875 C 11.753906 10.6875 12.144531 11.011719 12.523438 11.378906 C 12.726562 11.570312 12.976562 11.917969 13.203125 12.226562 C 13.367188 12.453125 13.507812 12.648438 13.605469 12.75 C 13.726562 12.875 13.707031 12.898438 13.652344 12.960938 C 13.609375 13.015625 13.546875 13.089844 13.527344 13.246094 C 13.519531 13.308594 13.503906 13.371094 13.492188 13.4375 C 13.453125 13.625 13.417969 13.804688 13.507812 13.90625 C 13.519531 13.917969 13.53125 13.929688 13.546875 13.941406 C 13.34375 14.324219 13.183594 15.703125 13.183594 15.703125 C 13.03125 16.007812 12.769531 18.328125 12.636719 18.816406 C 12.574219 19.058594 12.53125 19.246094 12.503906 19.375 C 12.496094 19.367188 12.488281 19.363281 12.480469 19.355469 C 12.476562 19.351562 12.472656 19.347656 12.464844 19.347656 C 12.460938 19.347656 12.453125 19.351562 12.449219 19.355469 C 12.242188 19.648438 11.683594 20.417969 11.578125 20.46875 C 11.570312 20.472656 11.5625 20.484375 11.566406 20.492188 C 11.566406 20.492188 11.566406 20.5 11.570312 20.511719 C 11.066406 20.867188 10.90625 21.878906 10.84375 22.167969 C 10.808594 22.316406 10.769531 22.535156 10.734375 22.71875 C 10.734375 22.71875 10.734375 22.71875 10.730469 22.71875 C 10.722656 22.71875 10.71875 22.71875 10.710938 22.726562 C 10.644531 22.800781 10.324219 23.6875 10.203125 24.015625 C 10.003906 24.011719 9.679688 24.027344 9.621094 24.175781 C 9.535156 24.394531 9.3125 24.5 9.613281 25.25 C 9.910156 26 9.757812 25.867188 9.738281 26.148438 C 9.714844 26.425781 9.800781 27.152344 10.28125 27.339844 C 10.761719 27.523438 11.027344 27.527344 11.117188 27.222656 C 11.207031 26.921875 11.039062 26.296875 11 26.046875 C 10.964844 25.800781 10.996094 25.6875 11.128906 25.492188 C 11.257812 25.308594 11.503906 25.214844 11.132812 25.050781 C 11.273438 24.761719 11.40625 24.320312 11.5 24.003906 C 11.539062 23.875 11.570312 23.765625 11.59375 23.699219 C 11.691406 23.425781 11.679688 23.1875 11.679688 23.175781 C 11.679688 23.175781 11.679688 23.171875 11.675781 23.167969 C 11.832031 22.84375 12.125 22.324219 12.332031 22.023438 C 12.398438 21.925781 12.449219 21.839844 12.484375 21.765625 C 12.492188 21.765625 12.5 21.769531 12.503906 21.769531 C 12.503906 21.769531 12.515625 21.765625 12.53125 21.761719 C 12.621094 21.746094 12.925781 21.679688 13.058594 21.554688 C 13.144531 21.472656 13.296875 21.300781 13.429688 21.148438 C 13.542969 21.023438 13.648438 20.902344 13.691406 20.863281 C 13.710938 20.84375 13.738281 20.824219 13.761719 20.804688 C 13.863281 20.722656 13.988281 20.621094 13.984375 20.453125 C 13.984375 20.375 13.964844 20.316406 13.953125 20.265625 C 13.929688 20.183594 13.914062 20.140625 13.980469 20.089844 C 14.105469 19.984375 14.097656 19.863281 14.097656 19.859375 C 14.09375 19.847656 14.085938 19.839844 14.078125 19.839844 C 14.078125 19.839844 14.074219 19.839844 14.074219 19.839844 C 14.367188 19.34375 14.707031 18.359375 14.78125 18.144531 C 14.671875 18.484375 14.628906 19.253906 14.621094 19.371094 C 14.492188 19.433594 14.4375 19.894531 14.425781 20.011719 C 14.203125 20.164062 14.085938 20.429688 14.082031 20.445312 C 14.066406 20.523438 14.0625 20.601562 14.070312 20.671875 C 13.855469 20.902344 13.441406 21.371094 13.363281 21.648438 C 13.253906 22.03125 13.246094 22.378906 13.289062 22.667969 C 13.289062 22.667969 13.234375 22.765625 13.199219 22.894531 C 13.195312 22.890625 13.191406 22.890625 13.1875 22.890625 C 13.1875 22.890625 13.183594 22.890625 13.179688 22.890625 C 13.066406 22.914062 12.714844 23.78125 12.605469 24.0625 C 12.46875 24.078125 12.285156 24.09375 12.128906 24.105469 C 11.847656 24.128906 11.46875 24.1875 11.546875 24.554688 C 11.628906 24.921875 11.675781 25.296875 11.847656 25.472656 C 12.019531 25.652344 12.039062 25.640625 12.09375 26 C 12.152344 26.359375 12.554688 27.207031 12.847656 27.40625 C 12.847656 27.40625 13.378906 27.582031 13.277344 27.039062 C 13.277344 27.039062 13.109375 26.253906 13.242188 25.953125 C 13.242188 25.953125 13.757812 25.511719 13.511719 24.886719 C 13.519531 24.878906 13.527344 24.867188 13.527344 24.863281 C 13.585938 24.769531 14.117188 23.425781 14.140625 23.367188 C 14.144531 23.359375 14.140625 23.351562 14.132812 23.34375 C 14.132812 23.34375 14.132812 23.34375 14.128906 23.34375 C 14.207031 23.195312 14.746094 22.160156 15.105469 21.6875 C 15.175781 21.671875 15.25 21.613281 15.265625 21.597656 C 15.859375 21.449219 16.265625 20.570312 16.269531 20.308594 C 16.269531 20.1875 16.257812 20.105469 16.25 20.039062 C 16.238281 19.957031 16.230469 19.902344 16.25 19.820312 C 16.273438 19.710938 16.261719 19.597656 16.25 19.539062 C 17.34375 17.144531 17.199219 14.851562 17.199219 14.851562 C 17.28125 13.703125 17.09375 13.039062 17.007812 12.769531 C 16.976562 12.664062 16.929688 12.5625 16.882812 12.472656 C 16.964844 12.429688 17.015625 12.402344 17.015625 12.402344 C 17.027344 12.394531 17.03125 12.382812 17.027344 12.371094 C 17.023438 12.367188 16.757812 11.867188 16.648438 11.648438 C 16.535156 11.433594 16.160156 10.472656 16.15625 10.464844 C 16.035156 10.132812 15.941406 9.976562 15.84375 9.8125 C 15.796875 9.738281 15.75 9.65625 15.699219 9.554688 C 15.644531 9.445312 15.625 9.292969 15.605469 9.121094 C 15.570312 8.8125 15.519531 8.394531 15.226562 7.925781 C 15.265625 7.894531 15.375 7.8125 15.5 7.785156 C 15.511719 7.785156 15.519531 7.777344 15.519531 7.769531 C 15.519531 7.765625 15.519531 7.753906 15.523438 7.734375 C 16.269531 7.640625 16.976562 7.320312 17.3125 7.203125 C 17.699219 7.074219 17.710938 7.082031 18.113281 7.042969 C 18.515625 7.007812 18.734375 6.90625 19.007812 6.816406 C 19.28125 6.722656 20.019531 6.246094 20.355469 6.121094 C 20.691406 6 20.808594 5.945312 20.898438 6.050781 C 20.988281 6.152344 21.203125 6.242188 21.382812 6.230469 C 21.558594 6.214844 21.570312 6.324219 21.691406 6.269531 C 21.808594 6.21875 21.746094 6.101562 21.628906 5.992188 C 21.507812 5.886719 21.394531 5.984375 21.582031 5.691406 C 21.765625 5.398438 22.121094 5.121094 22.273438 4.871094 Z M 10.15625 7.324219 C 9.984375 7.117188 10.242188 7.058594 10.242188 7.058594 C 10.242188 7.058594 10.242188 6.9375 10.25 7.070312 C 10.253906 7.199219 10.445312 7.320312 10.519531 7.417969 C 10.597656 7.515625 11.191406 7.636719 11.320312 7.761719 C 11.394531 7.832031 11.46875 7.992188 11.519531 8.117188 L 11.496094 8.105469 C 11.492188 8.101562 11.484375 8.101562 11.476562 8.105469 C 11.46875 8.109375 11.46875 8.117188 11.46875 8.125 C 11.46875 8.125 11.46875 8.175781 11.460938 8.234375 C 11.378906 8.144531 11.25 8.070312 10.976562 7.953125 C 10.539062 7.773438 10.15625 7.324219 10.15625 7.324219 Z M 10.15625 7.324219 " fill-opacity="1" fill-rule="nonzero"/></g><g clip-path="url(#ae7d650078)"><path fill="#ffffff" d="M 9.335938 4.222656 C 10.074219 4.082031 10.679688 3.378906 10.542969 2.644531 C 10.40625 1.914062 9.609375 1.453125 8.871094 1.59375 C 8.128906 1.734375 7.632812 2.433594 7.78125 3.171875 C 7.941406 3.984375 8.59375 4.363281 9.335938 4.222656 Z M 9.335938 4.222656 " fill-opacity="1" fill-rule="nonzero"/></g></svg>