<svg xmlns="http://www.w3.org/2000/svg" xmlns:xlink="http://www.w3.org/1999/xlink" width="40" zoomAndPan="magnify" viewBox="0 0 30 30.000001" height="40" preserveAspectRatio="xMidYMid meet" version="1.0"><defs><clipPath id="85ad5c7650"><path d="M 0.484375 0 L 29.515625 0 L 29.515625 29.03125 L 0.484375 29.03125 Z M 0.484375 0 " clip-rule="nonzero"/></clipPath><clipPath id="baf5f8063d"><path d="M 0.484375 3.941406 L 29.515625 3.941406 L 29.515625 13 L 0.484375 13 Z M 0.484375 3.941406 " clip-rule="nonzero"/></clipPath><clipPath id="f133f48f04"><path d="M 13 21 L 17 21 L 17 24.988281 L 13 24.988281 Z M 13 21 " clip-rule="nonzero"/></clipPath></defs><g clip-path="url(#85ad5c7650)"><path fill="#ffffff" d="M 0.484375 0 L 29.515625 0 L 29.515625 29.03125 L 0.484375 29.03125 Z M 0.484375 0 " fill-opacity="1" fill-rule="nonzero"/><path fill="#000000" d="M 0.484375 0 L 29.515625 0 L 29.515625 29.03125 L 0.484375 29.03125 Z M 0.484375 0 " fill-opacity="1" fill-rule="nonzero"/></g><g clip-path="url(#baf5f8063d)"><path fill="#ffffff" d="M 28.882812 9.695312 C 27.007812 7.820312 24.820312 6.367188 22.386719 5.378906 C 20.035156 4.425781 17.550781 3.941406 15 3.941406 C 12.453125 3.941406 9.96875 4.425781 7.617188 5.378906 C 5.179688 6.367188 2.996094 7.820312 1.121094 9.695312 C 0.492188 10.320312 0.492188 11.339844 1.121094 11.964844 C 1.75 12.59375 2.765625 12.59375 3.390625 11.964844 C 9.792969 5.566406 20.207031 5.566406 26.609375 11.964844 C 26.921875 12.28125 27.335938 12.4375 27.746094 12.4375 C 28.15625 12.4375 28.566406 12.28125 28.882812 11.964844 C 29.507812 11.339844 29.507812 10.320312 28.882812 9.695312 Z M 28.882812 9.695312 " fill-opacity="1" fill-rule="nonzero"/></g><path fill="#ffffff" d="M 14.996094 9.785156 C 11.28125 9.785156 7.78125 11.234375 5.152344 13.867188 C 4.558594 14.460938 4.558594 15.421875 5.152344 16.015625 C 5.742188 16.609375 6.703125 16.609375 7.296875 16.015625 C 11.542969 11.769531 18.449219 11.769531 22.695312 16.015625 C 22.992188 16.3125 23.378906 16.460938 23.769531 16.460938 C 24.15625 16.460938 24.546875 16.3125 24.84375 16.015625 C 25.4375 15.421875 25.4375 14.460938 24.84375 13.867188 C 22.210938 11.234375 18.714844 9.785156 14.996094 9.785156 Z M 14.996094 9.785156 " fill-opacity="1" fill-rule="nonzero"/><path fill="#ffffff" d="M 14.996094 15.265625 C 12.738281 15.265625 10.609375 16.148438 9.011719 17.746094 C 8.421875 18.335938 8.421875 19.292969 9.011719 19.882812 C 9.601562 20.472656 10.558594 20.472656 11.148438 19.882812 C 13.269531 17.761719 16.726562 17.761719 18.847656 19.882812 C 19.144531 20.179688 19.527344 20.324219 19.914062 20.324219 C 20.300781 20.324219 20.6875 20.179688 20.984375 19.882812 C 21.574219 19.292969 21.574219 18.335938 20.984375 17.746094 C 19.382812 16.148438 17.257812 15.265625 14.996094 15.265625 Z M 14.996094 15.265625 " fill-opacity="1" fill-rule="nonzero"/><g clip-path="url(#f133f48f04)"><path fill="#ffffff" d="M 16.835938 23.21875 C 16.835938 23.464844 16.789062 23.703125 16.695312 23.929688 C 16.597656 24.160156 16.464844 24.359375 16.289062 24.535156 C 16.117188 24.707031 15.914062 24.84375 15.6875 24.9375 C 15.460938 25.03125 15.222656 25.078125 14.976562 25.078125 C 14.730469 25.078125 14.492188 25.03125 14.265625 24.9375 C 14.039062 24.84375 13.835938 24.707031 13.660156 24.535156 C 13.488281 24.359375 13.351562 24.160156 13.257812 23.929688 C 13.164062 23.703125 13.117188 23.464844 13.117188 23.21875 C 13.117188 22.972656 13.164062 22.738281 13.257812 22.507812 C 13.351562 22.28125 13.488281 22.082031 13.660156 21.90625 C 13.835938 21.730469 14.039062 21.597656 14.265625 21.503906 C 14.492188 21.410156 14.730469 21.363281 14.976562 21.363281 C 15.222656 21.363281 15.460938 21.410156 15.6875 21.503906 C 15.914062 21.597656 16.117188 21.730469 16.289062 21.90625 C 16.464844 22.082031 16.597656 22.28125 16.695312 22.507812 C 16.789062 22.738281 16.835938 22.972656 16.835938 23.21875 Z M 16.835938 23.21875 " fill-opacity="1" fill-rule="nonzero"/></g></svg>