<svg xmlns="http://www.w3.org/2000/svg" xmlns:xlink="http://www.w3.org/1999/xlink" width="40" zoomAndPan="magnify" viewBox="0 0 30 30.000001" height="40" preserveAspectRatio="xMidYMid meet" version="1.0"><defs><clipPath id="1871576c6b"><path d="M 0.484375 0 L 29.515625 0 L 29.515625 29.03125 L 0.484375 29.03125 Z M 0.484375 0 " clip-rule="nonzero"/></clipPath><clipPath id="4ea349fabe"><path d="M 2.113281 5 L 26.789062 5 L 26.789062 23.863281 L 2.113281 23.863281 Z M 2.113281 5 " clip-rule="nonzero"/></clipPath></defs><g clip-path="url(#1871576c6b)"><path fill="#ffffff" d="M 0.484375 0 L 29.515625 0 L 29.515625 29.03125 L 0.484375 29.03125 Z M 0.484375 0 " fill-opacity="1" fill-rule="nonzero"/><path fill="#000000" d="M 0.484375 0 L 29.515625 0 L 29.515625 29.03125 L 0.484375 29.03125 Z M 0.484375 0 " fill-opacity="1" fill-rule="nonzero"/></g><g clip-path="url(#4ea349fabe)"><path fill="#ffffff" d="M 25.90625 18.519531 C 25.761719 18.40625 25.597656 18.351562 25.414062 18.355469 C 25.28125 18.355469 25.15625 18.382812 25.035156 18.433594 L 24.832031 18.378906 L 23.921875 18.121094 C 23.828125 18.09375 22.945312 17.824219 22.488281 17.796875 C 21.066406 17.28125 20.214844 17.039062 19.769531 16.921875 C 19.722656 16.683594 19.652344 16.421875 19.574219 16.132812 C 19.394531 15.476562 19.167969 14.65625 19.082031 13.550781 C 18.941406 11.796875 17.476562 11.085938 16.695312 10.945312 C 15.796875 10.664062 15.242188 10.539062 14.359375 10.539062 C 13.476562 10.539062 12.921875 10.664062 12.023438 10.945312 C 11.246094 11.085938 9.78125 11.796875 9.640625 13.550781 C 9.550781 14.65625 9.328125 15.476562 9.148438 16.132812 C 9.070312 16.421875 9 16.683594 8.953125 16.921875 C 8.507812 17.039062 7.652344 17.28125 6.234375 17.796875 C 5.777344 17.824219 4.894531 18.09375 4.789062 18.125 L 3.890625 18.378906 L 3.6875 18.433594 C 3.566406 18.382812 3.441406 18.355469 3.308594 18.355469 C 3.125 18.351562 2.960938 18.40625 2.816406 18.519531 L 2.113281 19.121094 L 3.011719 19.121094 C 3.070312 19.152344 3.1875 19.269531 3.277344 19.355469 C 3.578125 19.648438 3.996094 20.050781 4.621094 20.128906 C 4.699219 20.140625 4.78125 20.144531 4.863281 20.144531 C 5.078125 20.144531 5.289062 20.109375 5.496094 20.046875 C 5.449219 20.140625 5.414062 20.234375 5.386719 20.335938 L 5.382812 20.378906 C 5.382812 21.269531 6.039062 22.515625 9.175781 23.382812 C 10.914062 23.863281 12.765625 24.03125 14.34375 24.03125 C 15.089844 24.03125 15.835938 23.992188 16.578125 23.910156 C 16.628906 23.925781 16.679688 23.9375 16.730469 23.953125 L 16.769531 23.964844 L 16.808594 23.960938 C 17.898438 23.796875 18.820312 23.601562 19.550781 23.378906 C 22.066406 22.617188 23.339844 21.609375 23.339844 20.378906 L 23.335938 20.335938 C 23.308594 20.234375 23.273438 20.140625 23.226562 20.046875 C 23.433594 20.113281 23.644531 20.144531 23.859375 20.144531 C 23.941406 20.144531 24.019531 20.140625 24.101562 20.128906 C 24.726562 20.050781 25.140625 19.648438 25.445312 19.355469 C 25.535156 19.269531 25.652344 19.152344 25.710938 19.121094 L 26.609375 19.121094 Z M 16.601562 23.558594 C 16.449219 23.578125 16.289062 23.59375 16.117188 23.609375 C 15.921875 23.628906 15.710938 23.640625 15.496094 23.652344 C 13.746094 23.746094 11.402344 23.644531 9.265625 23.050781 C 6.964844 22.414062 5.738281 21.496094 5.726562 20.398438 C 5.78125 20.191406 5.910156 19.972656 6.125 19.777344 C 6.289062 19.628906 6.476562 19.515625 6.683594 19.429688 C 7.175781 19.222656 7.863281 19.140625 8.773438 19.328125 C 9.03125 19.378906 9.757812 19.695312 10.703125 20.136719 C 10.804688 20.183594 10.90625 20.230469 11.011719 20.28125 C 11.847656 20.671875 12.820312 21.140625 13.777344 21.605469 L 14.011719 21.71875 L 14.210938 21.816406 L 14.410156 21.910156 C 15.0625 22.226562 15.710938 22.539062 16.328125 22.828125 C 16.464844 22.894531 16.597656 22.957031 16.730469 23.019531 C 17.015625 23.152344 17.292969 23.285156 17.558594 23.40625 C 17.242188 23.472656 16.921875 23.523438 16.601562 23.558594 Z M 9.457031 19.207031 L 10.183594 19.207031 L 10.285156 19.085938 C 10.789062 18.496094 11.484375 17.308594 11.773438 16.007812 C 11.867188 16.464844 11.925781 16.929688 11.941406 17.398438 C 11.785156 18.089844 11.226562 19.179688 10.867188 19.835938 C 10.300781 19.574219 9.820312 19.355469 9.457031 19.207031 Z M 19.453125 23.054688 C 19.101562 23.160156 18.707031 23.257812 18.265625 23.351562 L 18.113281 23.285156 C 17.792969 23.136719 17.445312 22.976562 17.082031 22.808594 C 16.960938 22.75 16.839844 22.691406 16.714844 22.632812 C 16.105469 22.347656 15.460938 22.039062 14.8125 21.722656 C 15.671875 21.320312 16.492188 20.917969 17.203125 20.570312 C 17.382812 20.484375 17.558594 20.398438 17.726562 20.316406 C 17.835938 20.265625 17.9375 20.214844 18.035156 20.167969 C 18.972656 19.710938 19.683594 19.382812 19.949219 19.328125 C 20.855469 19.140625 21.542969 19.222656 22.039062 19.429688 C 22.246094 19.515625 22.429688 19.628906 22.597656 19.777344 C 22.8125 19.972656 22.941406 20.191406 22.996094 20.398438 C 22.980469 21.453125 21.789062 22.34375 19.453125 23.054688 Z M 16.78125 17.398438 C 16.796875 16.929688 16.855469 16.464844 16.949219 16.007812 C 17.238281 17.308594 17.933594 18.496094 18.4375 19.085938 L 18.539062 19.207031 L 19.285156 19.207031 C 18.925781 19.363281 18.445312 19.589844 17.871094 19.867188 C 17.511719 19.214844 16.9375 18.097656 16.78125 17.398438 Z M 24.058594 19.792969 C 23.996094 19.796875 23.933594 19.800781 23.871094 19.804688 C 23.859375 19.804688 23.847656 19.804688 23.835938 19.800781 C 23.753906 19.800781 23.671875 19.792969 23.589844 19.78125 C 23.578125 19.777344 23.570312 19.777344 23.5625 19.777344 C 23.472656 19.757812 23.386719 19.738281 23.300781 19.710938 C 23.28125 19.703125 23.265625 19.699219 23.25 19.695312 C 23.164062 19.664062 23.074219 19.628906 22.984375 19.589844 C 22.96875 19.582031 22.953125 19.574219 22.9375 19.566406 C 22.882812 19.542969 22.828125 19.511719 22.773438 19.484375 C 22.605469 19.34375 22.417969 19.226562 22.21875 19.136719 C 21.988281 18.980469 21.792969 18.863281 21.335938 18.863281 L 18.695312 18.863281 C 18.078125 18.136719 17.15625 16.433594 17.15625 14.84375 C 17.199219 14.398438 17.675781 13.671875 17.675781 13.671875 C 17.339844 13.753906 16.515625 15.230469 16.4375 17.425781 C 16.589844 18.164062 17.1875 19.335938 17.5625 20.015625 C 17.398438 20.09375 17.230469 20.179688 17.054688 20.265625 C 16.277344 20.644531 15.363281 21.089844 14.414062 21.53125 L 13.925781 21.296875 C 12.925781 20.8125 11.984375 20.359375 11.179688 19.980469 C 11.554688 19.296875 12.136719 18.152344 12.285156 17.425781 C 12.207031 15.230469 11.382812 13.753906 11.042969 13.671875 C 11.042969 13.671875 11.523438 14.394531 11.5625 14.84375 C 11.5625 16.433594 10.644531 18.136719 10.023438 18.863281 L 7.386719 18.863281 C 6.925781 18.863281 6.730469 18.980469 6.5 19.140625 C 6.300781 19.230469 6.117188 19.34375 5.949219 19.484375 C 5.894531 19.511719 5.839844 19.542969 5.785156 19.566406 C 5.769531 19.574219 5.753906 19.582031 5.738281 19.589844 C 5.648438 19.628906 5.558594 19.664062 5.472656 19.695312 C 5.457031 19.699219 5.4375 19.703125 5.421875 19.710938 C 5.335938 19.738281 5.25 19.757812 5.160156 19.777344 C 5.152344 19.777344 5.144531 19.777344 5.132812 19.78125 C 5.050781 19.792969 4.96875 19.800781 4.886719 19.800781 C 4.878906 19.800781 4.871094 19.804688 4.863281 19.804688 C 4.796875 19.804688 4.730469 19.800781 4.664062 19.792969 C 3.804688 19.683594 3.378906 18.777344 3.039062 18.777344 C 3.039062 18.777344 3.042969 18.773438 3.054688 18.769531 C 3.070312 18.757812 3.082031 18.75 3.101562 18.742188 C 3.109375 18.738281 3.117188 18.734375 3.125 18.730469 C 3.140625 18.726562 3.160156 18.71875 3.175781 18.714844 C 3.1875 18.710938 3.199219 18.707031 3.214844 18.707031 C 3.234375 18.703125 3.257812 18.699219 3.277344 18.699219 C 3.289062 18.699219 3.296875 18.695312 3.308594 18.695312 C 3.316406 18.695312 3.324219 18.699219 3.335938 18.699219 C 3.347656 18.699219 3.363281 18.699219 3.378906 18.703125 C 3.40625 18.707031 3.429688 18.710938 3.457031 18.71875 C 3.472656 18.722656 3.488281 18.726562 3.507812 18.734375 C 3.539062 18.746094 3.570312 18.757812 3.601562 18.773438 C 3.617188 18.78125 3.632812 18.789062 3.648438 18.796875 C 3.707031 18.832031 3.757812 18.867188 3.808594 18.90625 C 3.867188 18.957031 3.933594 19.003906 4 19.042969 C 4.019531 19.058594 4.042969 19.066406 4.0625 19.078125 C 4.105469 19.101562 4.144531 19.125 4.191406 19.140625 C 4.214844 19.152344 4.234375 19.160156 4.257812 19.167969 C 4.296875 19.183594 4.335938 19.195312 4.375 19.203125 C 4.398438 19.207031 4.421875 19.214844 4.441406 19.21875 C 4.480469 19.222656 4.519531 19.226562 4.558594 19.226562 C 4.570312 19.230469 4.585938 19.234375 4.597656 19.234375 C 4.675781 19.230469 4.75 19.21875 4.824219 19.203125 C 4.835938 19.199219 4.851562 19.195312 4.863281 19.191406 C 4.933594 19.167969 5 19.140625 5.0625 19.105469 C 5.171875 19.042969 5.273438 18.964844 5.367188 18.878906 C 5.367188 18.878906 5.324219 18.878906 5.253906 18.882812 C 5.226562 18.882812 5.191406 18.882812 5.152344 18.882812 L 5.121094 18.882812 C 5.078125 18.882812 5.035156 18.886719 4.988281 18.886719 C 4.941406 18.886719 4.898438 18.886719 4.851562 18.886719 L 4.8125 18.886719 C 4.800781 18.886719 4.789062 18.886719 4.777344 18.886719 C 4.742188 18.886719 4.707031 18.886719 4.671875 18.886719 C 4.628906 18.886719 4.585938 18.886719 4.546875 18.882812 L 4.519531 18.882812 C 4.480469 18.882812 4.445312 18.878906 4.417969 18.878906 C 4.21875 18.863281 3.984375 18.707031 3.984375 18.707031 L 4.890625 18.453125 C 4.890625 18.453125 5.90625 18.140625 6.300781 18.136719 C 8.011719 17.511719 8.886719 17.292969 9.253906 17.199219 C 9.347656 16.441406 9.839844 15.367188 9.980469 13.578125 C 10.140625 11.601562 12.105469 11.28125 12.105469 11.28125 C 12.949219 11.011719 13.484375 10.878906 14.359375 10.878906 C 15.238281 10.878906 15.769531 11.011719 16.617188 11.28125 C 16.617188 11.28125 18.582031 11.601562 18.738281 13.578125 C 18.882812 15.367188 19.375 16.441406 19.464844 17.199219 C 19.835938 17.292969 20.710938 17.511719 22.421875 18.136719 C 22.816406 18.140625 23.832031 18.453125 23.832031 18.453125 L 24.738281 18.707031 C 24.738281 18.707031 24.503906 18.867188 24.304688 18.878906 C 24.277344 18.882812 24.238281 18.882812 24.203125 18.882812 L 24.171875 18.882812 C 24.105469 18.886719 24.027344 18.886719 23.945312 18.886719 C 23.933594 18.886719 23.921875 18.886719 23.910156 18.886719 L 23.871094 18.886719 C 23.824219 18.886719 23.777344 18.886719 23.734375 18.886719 C 23.6875 18.886719 23.640625 18.886719 23.601562 18.882812 L 23.570312 18.882812 C 23.53125 18.882812 23.496094 18.882812 23.464844 18.882812 C 23.398438 18.878906 23.351562 18.878906 23.351562 18.878906 C 23.445312 18.96875 23.550781 19.042969 23.660156 19.109375 C 23.722656 19.144531 23.789062 19.171875 23.855469 19.191406 C 23.871094 19.195312 23.882812 19.199219 23.898438 19.203125 C 23.96875 19.21875 24.039062 19.230469 24.109375 19.230469 C 24.128906 19.230469 24.144531 19.230469 24.164062 19.230469 C 24.203125 19.226562 24.242188 19.222656 24.277344 19.21875 C 24.300781 19.214844 24.324219 19.207031 24.347656 19.203125 C 24.386719 19.195312 24.425781 19.183594 24.460938 19.167969 C 24.484375 19.160156 24.507812 19.152344 24.53125 19.144531 C 24.574219 19.125 24.617188 19.101562 24.660156 19.078125 C 24.679688 19.066406 24.699219 19.058594 24.722656 19.042969 C 24.789062 19.003906 24.851562 18.957031 24.914062 18.90625 C 24.964844 18.867188 25.015625 18.832031 25.070312 18.796875 C 25.089844 18.789062 25.105469 18.78125 25.121094 18.773438 C 25.152344 18.757812 25.183594 18.746094 25.214844 18.734375 C 25.234375 18.726562 25.25 18.722656 25.265625 18.71875 C 25.289062 18.710938 25.316406 18.707031 25.34375 18.703125 C 25.359375 18.699219 25.371094 18.699219 25.386719 18.699219 C 25.394531 18.699219 25.40625 18.695312 25.414062 18.695312 C 25.425781 18.695312 25.433594 18.699219 25.441406 18.699219 C 25.464844 18.699219 25.488281 18.703125 25.507812 18.707031 C 25.523438 18.710938 25.535156 18.710938 25.546875 18.714844 C 25.5625 18.71875 25.578125 18.726562 25.597656 18.730469 C 25.605469 18.734375 25.613281 18.738281 25.621094 18.742188 C 25.632812 18.75 25.644531 18.753906 25.65625 18.761719 C 25.679688 18.773438 25.683594 18.78125 25.683594 18.78125 C 25.34375 18.78125 24.917969 19.683594 24.058594 19.792969 Z M 13.878906 9.78125 C 14.039062 9.816406 14.203125 9.832031 14.367188 9.832031 C 14.566406 9.832031 14.761719 9.804688 14.957031 9.757812 C 15.152344 9.707031 15.335938 9.632812 15.511719 9.535156 C 15.683594 9.4375 15.84375 9.320312 15.992188 9.183594 C 16.136719 9.042969 16.261719 8.890625 16.367188 8.71875 C 16.472656 8.550781 16.554688 8.371094 16.617188 8.179688 C 16.675781 7.988281 16.710938 7.792969 16.722656 7.589844 C 16.730469 7.390625 16.714844 7.195312 16.675781 6.996094 C 16.636719 6.800781 16.570312 6.613281 16.484375 6.433594 C 16.394531 6.253906 16.285156 6.085938 16.15625 5.933594 C 16.027344 5.78125 15.878906 5.648438 15.714844 5.535156 C 15.550781 5.421875 15.375 5.328125 15.1875 5.257812 C 15 5.1875 14.804688 5.144531 14.605469 5.125 C 14.40625 5.101562 14.207031 5.105469 14.011719 5.136719 C 13.8125 5.167969 13.621094 5.222656 13.4375 5.300781 C 13.253906 5.378906 13.082031 5.480469 12.921875 5.601562 C 12.765625 5.722656 12.625 5.863281 12.5 6.023438 C 12.378906 6.179688 12.277344 6.351562 12.195312 6.535156 C 12.117188 6.71875 12.0625 6.910156 12.03125 7.109375 C 12 7.304688 11.996094 7.503906 12.015625 7.703125 C 12.035156 7.902344 12.078125 8.097656 12.148438 8.285156 C 12.21875 8.472656 12.308594 8.648438 12.421875 8.8125 C 12.535156 8.976562 12.667969 9.125 12.820312 9.257812 C 12.972656 9.386719 13.136719 9.5 13.316406 9.585938 C 13.496094 9.675781 13.683594 9.742188 13.878906 9.78125 Z M 13.257812 5.792969 C 13.480469 5.644531 13.722656 5.546875 13.984375 5.496094 C 14.25 5.449219 14.511719 5.449219 14.773438 5.503906 C 15.03125 5.558594 15.273438 5.664062 15.496094 5.8125 C 15.714844 5.960938 15.898438 6.148438 16.042969 6.371094 C 16.191406 6.597656 16.289062 6.839844 16.339844 7.101562 C 16.386719 7.363281 16.386719 7.625 16.332031 7.886719 C 16.277344 8.148438 16.175781 8.390625 16.023438 8.609375 C 15.875 8.832031 15.6875 9.015625 15.464844 9.160156 C 15.242188 9.304688 14.996094 9.402344 14.734375 9.453125 C 14.472656 9.503906 14.210938 9.5 13.949219 9.445312 C 13.6875 9.390625 13.449219 9.289062 13.226562 9.140625 C 13.007812 8.988281 12.824219 8.800781 12.675781 8.578125 C 12.53125 8.355469 12.433594 8.113281 12.382812 7.851562 C 12.332031 7.589844 12.335938 7.324219 12.390625 7.066406 C 12.445312 6.804688 12.546875 6.5625 12.699219 6.34375 C 12.847656 6.121094 13.035156 5.9375 13.257812 5.792969 Z M 13.257812 5.792969 " fill-opacity="1" fill-rule="nonzero"/></g></svg>